<svg version="1.1" xmlns="http://www.w3.org/2000/svg" xmlns:xlink="http://www.w3.org/1999/xlink" width="28.40616" height="22.33685" viewBox="0,0,28.40616,22.33685"><g transform="translate(-223.61449,-168.83239)"><g data-paper-data="{&quot;isPaintingLayer&quot;:true}" fill-rule="nonzero" stroke-linecap="butt" stroke-linejoin="miter" stroke-miterlimit="10" stroke-dasharray="" stroke-dashoffset="0" style="mix-blend-mode: normal"><path d="M250.16295,180.00001l-15.1825,9.69763l-4.27084,-9.73106l4.27084,-9.66421z" fill="#878ab9" stroke="#000000" stroke-width="0"/><path d="M250.1394,179.96658l-15.10417,9.58334v-9.58334z" fill="#aaafe9" stroke="none" stroke-width="0"/><path d="M230.66023,179.96658l4.375,-9.6875v9.6875z" fill="#7679a1" stroke="none" stroke-width="0"/><path d="M250.16295,180.00001l-15.18249,9.69763l-4.27084,-9.73106l4.27084,-9.66421z" fill="none" stroke="#000000" stroke-width="2"/><path d="M224.36449,180c0,-2.24366 1.81884,-4.0625 4.0625,-4.0625c2.24366,0 4.0625,1.81884 4.0625,4.0625c0,2.24366 -1.81884,4.0625 -4.0625,4.0625c-2.24366,0 -4.0625,-1.81884 -4.0625,-4.0625zM228.42699,181.96548c1.23445,0 1.92433,-1.19638 1.8881,-1.96548c-0.06185,-1.31266 -1.27269,-1.8881 -1.8881,-1.8881c-0.6154,0 -1.93563,0.57484 -1.8881,1.8881c0.03624,1.00124 0.73103,1.96548 1.8881,1.96548z" fill="#8a9fa8" stroke="#000000" stroke-width="1.5"/></g></g></svg>