<svg version="1.1" xmlns="http://www.w3.org/2000/svg" xmlns:xlink="http://www.w3.org/1999/xlink" width="24.77762" height="22.4029" viewBox="0,0,24.77762,22.4029"><g transform="translate(-225.84649,-168.80138)"><g data-paper-data="{&quot;isPaintingLayer&quot;:true}" fill-rule="nonzero" stroke-linejoin="miter" stroke-miterlimit="10" stroke-dasharray="" stroke-dashoffset="0" style="mix-blend-mode: normal"><path d="M249.62411,180l-19.45333,9.69763v-19.39527z" fill="#d48f42" stroke="#000000" stroke-width="0" stroke-linecap="butt"/><path d="M230.93185,188.38286c-0.88616,-4.74026 -1.14591,-19.02597 0.58442,-17.20779c1.00488,1.0559 2.4904,0.07362 4.22901,2.53063c0.4144,0.58564 1.81173,1.58339 1.90929,3.5719c0.06538,1.33256 4.36962,1.15798 4.41365,2.63123c0.05014,1.67743 -4.31883,1.0418 -4.37792,2.32931c-0.03667,0.79896 -1.04664,3.21938 -1.56704,4.11078c-1.88958,3.23668 -4.92495,3.45923 -5.1914,2.03393z" fill="#f7efe6" stroke="#000000" stroke-width="0" stroke-linecap="butt"/><path d="M249.62411,180c0,1.49883 -19.45333,9.69763 -19.45333,9.69763v-19.39527c0,0 19.45333,8.11945 19.45333,9.69764z" fill="none" stroke="#000000" stroke-width="2" stroke-linecap="butt"/><path d="M226.84649,183.78046v-7.44681h3.29787v7.44681z" fill="#8aa0a9" stroke="#000000" stroke-width="2" stroke-linecap="butt"/><path d="M236.79964,184.64609c2.37609,-1.84211 9.68454,-1.97226 11.52606,-1.32103c1.40603,0.49722 -3.0386,5.28334 -4.18182,5.18182c-1.51606,-0.13464 -3.65643,-1.42906 -5.19735,-2.23503c-0.29598,-0.15481 -1.5403,0.19833 -1.91311,-0.22143c-0.58874,-0.66289 -0.23378,-1.40433 -0.23378,-1.40433z" fill="#d48f42" stroke="#000000" stroke-width="1.5" stroke-linecap="butt"/><path d="M237.12432,173.56719c0.37281,-0.41367 1.61713,-0.06565 1.91311,-0.21821c1.54092,-0.79426 3.68129,-2.0699 5.19735,-2.20258c1.14322,-0.10005 5.58785,4.6166 4.18182,5.10661c-1.84152,0.64177 -9.14997,0.5135 -11.52606,-1.30186c0,0 -0.35496,-0.73068 0.23378,-1.38396z" fill="#d48f42" stroke="#000000" stroke-width="1.5" stroke-linecap="butt"/><path d="M235.89764,181.90909c-1.69073,-0.63637 -1.92353,-1.35816 -1.90909,-1.81818c0.01489,-0.47417 0.30927,-1.54546 1.90909,-1.90909c1.02813,-0.23369 0.98678,4.09868 0,3.72727z" fill="#000000" stroke="none" stroke-width="0" stroke-linecap="butt"/><path d="M232.19808,176.32855c0,0 -0.00545,0.94101 0.37651,1.69401c0.3755,0.74029 1.83129,1.94235 1.83129,1.94235c0,0 -1.30556,1.02778 -1.68985,1.75243c-0.37295,0.70328 -0.51794,1.81899 -0.51794,1.81899" fill="none" stroke="#000000" stroke-width="1" stroke-linecap="round"/><path d="M238.43185,176.72377c0.41421,0 0.75,0.33579 0.75,0.75c0,0.41421 -0.33579,0.75 -0.75,0.75c-0.41421,0 -0.75,-0.33579 -0.75,-0.75c0,-0.41421 0.33579,-0.75 0.75,-0.75z" fill="#000000" stroke="none" stroke-width="0.5" stroke-linecap="butt"/><path d="M238.43185,181.33416c0.41421,0 0.75,0.33579 0.75,0.75c0,0.41421 -0.33579,0.75 -0.75,0.75c-0.41421,0 -0.75,-0.33579 -0.75,-0.75c0,-0.41421 0.33579,-0.75 0.75,-0.75z" fill="#000000" stroke="none" stroke-width="0.5" stroke-linecap="butt"/></g></g></svg>