<svg version="1.1" xmlns="http://www.w3.org/2000/svg" xmlns:xlink="http://www.w3.org/1999/xlink" width="27.93271" height="19.15428" viewBox="0,0,27.93271,19.15428"><g transform="translate(-224.04714,-170.59328)"><g data-paper-data="{&quot;isPaintingLayer&quot;:true}" fill-rule="nonzero" stroke-linecap="butt" stroke-linejoin="miter" stroke-miterlimit="10" stroke-dasharray="" stroke-dashoffset="0" style="mix-blend-mode: normal"><path d="M225.04714,183.72345v-7.44681h7.29787v7.44681z" fill="#8aa0a9" stroke="#000000" stroke-width="2"/><path d="M249.32209,180.57819c0,0 -3.67356,0.854 -5.62964,2.23937c-3.08402,2.18421 -7.48366,6.77166 -12.90702,6.0416c-2.06144,-0.32026 -2.72209,-0.93765 -3.01263,-3.37267c-0.31946,-2.51656 1.58804,-5.12971 1.58804,-5.12971c0,0 -1.99811,-1.51575 -1.49037,-5.38423c0.24812,-1.8904 1.7485,-3.44034 2.83163,-3.67533c5.95893,-1.29277 8.12069,3.02044 12.96941,6.71773c2.33665,1.78176 5.65059,2.56325 5.65059,2.56325z" fill="#4fbd20" stroke="none" stroke-width="0"/><path d="M229.2437,181.00653v-2.01299c0,0 9.37009,0.15769 12.49541,0.34259c2.34545,0.13877 4.59776,0.6687 4.59776,0.6687c0,0 -2.37983,0.20278 -4.56037,0.50682c-2.18053,0.30405 -12.5328,0.49488 -12.5328,0.49488z" fill="#a2fe65" stroke="none" stroke-width="0"/><path d="M244.08712,182.85277c-3.08402,2.18421 -7.77713,6.54339 -13.2005,5.81333c-1.43644,-0.32026 -2.72209,-0.93765 -3.01263,-3.37267c-0.23612,-3.51656 1.2547,-5.12971 1.2547,-5.12971c0,0 -1.66477,-1.51575 -1.15703,-5.38424c0.24812,-1.8904 2.12893,-2.95121 3.21206,-3.1862c2.9698,-0.47755 8.07359,1.86464 12.92231,5.56194c2.33665,1.78176 5.40059,2.93282 5.40059,2.93282z" fill="none" stroke="#000000" stroke-width="2"/><path d="M230.70414,180.80103l1.33875,-1.41667c0,0 1.06238,2.87262 1.97486,3.96645c0.96189,1.15305 3.38688,2.12972 3.38688,2.12972c0,0 -3.01754,-0.07796 -4.18712,-0.97294c-1.15344,-0.88263 -2.51337,-3.70656 -2.51337,-3.70656z" fill="#a2fe65" stroke="none" stroke-width="0"/><path d="M233.31555,176.38156c1.16958,-0.73864 4.18712,-0.80299 4.18712,-0.80299c0,0 -2.42499,0.80606 -3.38688,1.7577c-0.91248,0.90276 -1.97486,3.27358 -1.97486,3.27358l-1.33875,-1.16921c0,0 1.35993,-2.33063 2.51337,-3.05908z" fill="#a2fe65" stroke="none" stroke-width="0"/><path d="M237.58059,180.78225l1.50492,-0.33666c0,0 0.19884,0.73223 0.73774,1.37822c0.56807,0.68097 2.00023,1.0792 2.00023,1.0792c0,0 -1.85352,-0.01033 -2.54425,-0.53889c-0.6812,-0.52126 -1.69863,-1.58187 -1.69863,-1.58187z" fill="#a2fe65" stroke="none" stroke-width="0"/><path d="M237.49562,179.14032c0,0 1.23173,-0.69785 1.91293,-1.12806c0.69074,-0.43623 2.47283,-0.47423 2.47283,-0.47423c0,0 -1.43215,0.47604 -2.00022,1.03806c-0.5389,0.53315 -1.02346,0.96903 -1.02346,0.96903l-1.36207,-0.4048z" fill="#a2fe65" stroke="none" stroke-width="0"/></g></g></svg>