<svg version="1.1" xmlns="http://www.w3.org/2000/svg" xmlns:xlink="http://www.w3.org/1999/xlink" width="24.77778" height="22.23644" viewBox="0,0,24.77778,22.23644"><g transform="translate(-225.8898,-168.88274)"><g data-paper-data="{&quot;isPaintingLayer&quot;:true}" fill-rule="nonzero" stroke-linejoin="miter" stroke-miterlimit="10" stroke-dasharray="" stroke-dashoffset="0" style="mix-blend-mode: normal"><path d="M241.06591,181.40691c0,0 5.75284,4.45338 5.73394,5.19968c0.24223,0.31881 -5.48009,3.36192 -6.74035,-1.22373z" fill="#f7c790" stroke="#000000" stroke-width="1.5" stroke-linecap="butt"/><path d="M240.13345,174.62393c1.26027,-4.3128 6.91765,-1.86816 6.67542,-1.56832c0.0189,0.70189 -5.66901,5.3077 -5.66901,5.3077z" fill="#f7c790" stroke="#000000" stroke-width="1.5" stroke-linecap="butt"/><path d="M241.5547,182.96895c0,0 3.41899,2.64671 3.40775,3.09024c0.14397,0.18947 -3.25689,1.99803 -4.00588,-0.72728z" fill="#f7efe6" stroke="#000000" stroke-width="0" stroke-linecap="butt"/><path d="M241.11837,174.59382c0.69125,-2.36552 3.79426,-1.02466 3.66139,-0.8602c0.01036,0.38498 -3.10938,2.91121 -3.10938,2.91121z" fill="#f7efe6" stroke="#000000" stroke-width="0" stroke-linecap="butt"/><path d="M249.66742,180.00001l-19.45333,10.57064v-21.1413z" fill="#f0a016" stroke="#000000" stroke-width="0" stroke-linecap="butt"/><path d="M230.91673,171.03222c1.26096,-0.73122 3.27612,0.93076 5.9433,2.17349c0.4144,0.58564 -0.54541,0.72625 -0.44786,2.71475c0.09756,1.98851 1.22677,2.51513 1.27079,3.98838c0.05014,1.67743 -1.03312,1.82752 -1.16363,3.75788c-0.03667,1.87039 0.95336,2.14795 0.43296,3.03935c-2.96101,1.73668 -6.28209,3.03066 -6.54854,1.60536c-0.26645,-1.4253 -0.99189,-16.40654 0.51298,-17.27921z" fill="#f7c790" stroke="#000000" stroke-width="0" stroke-linecap="butt"/><path d="M244.10206,178.24379h3.375" fill="none" stroke="#dd9314" stroke-width="1" stroke-linecap="round"/><path d="M243.28956,179.9401h5.75" fill="none" stroke="#dd9314" stroke-width="2" stroke-linecap="round"/><path d="M247.47706,181.65749h-3.375" fill="none" stroke="#dd9314" stroke-width="1" stroke-linecap="round"/><path d="M230.41672,170.88936c1.26096,-0.73122 2.34754,0.93076 5.01472,2.17349c0.4144,0.58564 -0.54541,0.72625 -0.44786,2.71475c0.09756,1.98851 2.15534,2.51513 2.19937,3.98838c0.05014,1.67743 -1.96169,1.82752 -2.09221,3.75788c-0.03667,1.87039 0.95336,2.14795 0.43296,3.03935c-2.96101,1.73668 -5.35352,3.03066 -5.61997,1.60536c-0.26645,-1.4253 -0.99189,-16.40654 0.51298,-17.27921z" fill="#f7efe6" stroke="#000000" stroke-width="0" stroke-linecap="butt"/><path d="M249.66742,180.00001c0.06539,2.68968 -19.45333,9.69763 -19.45333,9.69763v-19.39527c0,0 19.3861,6.93266 19.45333,9.69764z" fill="none" stroke="#000000" stroke-width="2" stroke-linecap="butt"/><path d="M226.8898,183.78047v-7.44681h3.29787v7.44681z" fill="#8aa0a9" stroke="#000000" stroke-width="2" stroke-linecap="butt"/><path d="M236.87846,181.15121c-0.92047,-0.39452 -1.0472,-0.84201 -1.03934,-1.1272c0.00811,-0.29396 0.16837,-0.95812 1.03934,-1.18356c0.55973,-0.14488 0.53723,2.54102 0,2.31076z" fill="#ff8c8c" stroke="#000000" stroke-width="1" stroke-linecap="butt"/><path d="M233.30386,177.53645c0.76207,1.81252 2.07581,2.39365 2.14533,2.49989c0.03988,0.06094 -1.36988,0.52093 -2.18856,2.45084" fill="none" stroke="#000000" stroke-width="1" stroke-linecap="round"/><path d="M235.61767,181.96259c0,0 1.04663,2.22503 1.31097,3.37753c0.24917,1.08639 0.23225,3.35086 0.23225,3.35086" fill="none" stroke="#bebebe" stroke-width="0.5" stroke-linecap="round"/><path d="M234.75347,181.71568c0,0 0.79548,2.81701 0.99639,4.27614c0.18938,1.37543 0.17651,4.24238 0.17651,4.24238" fill="none" stroke="#bebebe" stroke-width="0.5" stroke-linecap="round"/><path d="M234.39964,182.93243c0,0 0.35963,2.62866 0.27995,3.90357c-0.07511,1.20176 -0.74513,3.5394 -0.74513,3.5394" fill="none" stroke="#bebebe" stroke-width="0.5" stroke-linecap="round"/><path d="M237.16089,171.29847c0,0 0.01692,2.31976 -0.23225,3.43267c-0.26434,1.18064 -1.31097,3.45999 -1.31097,3.45999" fill="none" stroke="#bebebe" stroke-width="0.5" stroke-linecap="round"/><path d="M235.92637,169.71757c0,0 0.01287,2.93694 -0.17651,4.34595c-0.20091,1.49477 -0.99639,4.38055 -0.99639,4.38055" fill="none" stroke="#bebebe" stroke-width="0.5" stroke-linecap="round"/><path d="M233.93446,169.57293c0,0 0.67002,2.39471 0.74513,3.62581c0.07968,1.30602 -0.27995,3.99887 -0.27995,3.99887" fill="none" stroke="#bebebe" stroke-width="0.5" stroke-linecap="round"/><path d="M238.95682,183.67428c-0.78528,0 -1.4219,-0.63662 -1.4219,-1.4219c0,-0.78528 0.63661,-1.42189 1.4219,-1.42189c0.78528,0 1.4219,0.63661 1.4219,1.42189c0,0.78528 -0.63661,1.4219 -1.4219,1.4219z" fill="#5dc740" stroke="none" stroke-width="0.5" stroke-linecap="butt"/><path d="M238.95682,179.1695c-0.78528,0 -1.4219,-0.63661 -1.4219,-1.42189c0,-0.78528 0.63661,-1.4219 1.4219,-1.4219c0.78528,0 1.4219,0.63662 1.4219,1.4219c0,0.78528 -0.63661,1.42189 -1.4219,1.42189z" fill="#5dc740" stroke="none" stroke-width="0.5" stroke-linecap="butt"/><path d="M238.9783,183.29747c-0.61999,0 -1.1226,-0.50261 -1.1226,-1.12261c0,-0.61999 0.50261,-1.12261 1.1226,-1.12261c0.61999,0 1.1226,0.50261 1.1226,1.12261c0,0.61999 -0.50261,1.12261 -1.1226,1.12261z" fill="#000000" stroke="none" stroke-width="0.5" stroke-linecap="butt"/><path d="M238.9783,178.94773c-0.61999,0 -1.1226,-0.50261 -1.1226,-1.12261c0,-0.61999 0.50261,-1.12261 1.1226,-1.12261c0.61999,0 1.1226,0.50261 1.1226,1.12261c0,0.61999 -0.50261,1.12261 -1.1226,1.12261z" fill="#000000" stroke="none" stroke-width="0.5" stroke-linecap="butt"/></g></g></svg>