<svg version="1.1" xmlns="http://www.w3.org/2000/svg" xmlns:xlink="http://www.w3.org/1999/xlink" width="24.77778" height="22.23644" viewBox="0,0,24.77778,22.23644"><g transform="translate(-225.88697,-168.88274)"><g data-paper-data="{&quot;isPaintingLayer&quot;:true}" fill-rule="nonzero" stroke-linecap="butt" stroke-linejoin="miter" stroke-miterlimit="10" stroke-dasharray="" stroke-dashoffset="0" style="mix-blend-mode: normal"><path d="M249.66459,180.00001l-19.45333,10.57064v-21.1413z" fill="#68f01f" stroke="#000000" stroke-width="0"/><path d="M231.41571,175.51225c4.65396,-2.26464 12.68012,0.07633 12.84079,4.58875c0.16645,4.67283 -12.68554,7.70552 -13.70929,3.11021c-0.30493,-1.36878 -0.85374,-6.86089 0.86849,-7.69895z" fill="#f7e82d" stroke="#000000" stroke-width="0"/><path d="M232.15042,176.08593c4.0666,-1.94768 11.07981,0.06565 11.2202,3.9465c0.14544,4.01881 -11.08455,6.62704 -11.97909,2.6749c-0.26645,-1.1772 -0.74599,-5.90063 0.75888,-6.62139z" fill="#f7c338" stroke="#000000" stroke-width="0"/><path d="M249.66459,180.00001c0.06539,2.68968 -19.45333,9.69763 -19.45333,9.69763v-19.39527c0,0 19.3861,6.93266 19.45333,9.69764z" fill="none" stroke="#000000" stroke-width="2"/><path d="M226.88697,183.78047v-7.44681h3.29787v7.44681z" fill="#8aa0a9" stroke="#000000" stroke-width="2"/><path d="M236.95554,181.11682c-0.90787,0.13717 -1.37671,-0.20417 -2.01757,-0.47743c-0.37491,-0.15986 -0.99545,-0.71556 -0.99545,-0.71556c0,0 0.61631,-0.42055 1.14562,-0.68816c0.52684,-0.26636 1.42617,-0.44578 1.86741,-0.36382c1.26571,0.23509 1.52407,2.0147 0,2.24497z" fill="#755540" stroke="#000000" stroke-width="1"/><path d="M238.72051,177.38501c0.294,0 0.53233,0.23833 0.53233,0.53233c0,0.294 -0.23833,0.53233 -0.53233,0.53233c-0.294,0 -0.53233,-0.23833 -0.53233,-0.53233c0,-0.294 0.23833,-0.53233 0.53233,-0.53233z" fill="#000000" stroke="none" stroke-width="0.5"/><path d="M238.68671,181.67748c0.294,0 0.53233,0.23833 0.53233,0.53233c0,0.294 -0.23833,0.53233 -0.53233,0.53233c-0.294,0 -0.53233,-0.23833 -0.53233,-0.53233c0,-0.294 0.23833,-0.53233 0.53233,-0.53233z" fill="#000000" stroke="none" stroke-width="0.5"/></g></g></svg>