<svg version="1.1" xmlns="http://www.w3.org/2000/svg" xmlns:xlink="http://www.w3.org/1999/xlink" width="26.01905" height="22.62702" viewBox="0,0,26.01905,22.62702"><g transform="translate(-225.94904,-168.68648)"><g data-paper-data="{&quot;isPaintingLayer&quot;:true}" fill-rule="nonzero" stroke-linecap="butt" stroke-linejoin="miter" stroke-miterlimit="10" stroke-dasharray="" stroke-dashoffset="0" style="mix-blend-mode: normal"><path d="M249.72667,180.00001l-19.45333,9.69763v-19.39527z" fill="#1a00e2" stroke="none" stroke-width="0"/><path d="M236.52536,187.25v-14.5l2.875,1.5v11z" fill="#ffffff" stroke="none" stroke-width="0"/><path d="M230.06708,178.5625h18.64634l-1.92893,2.875h-16.58452z" fill="#ffffff" stroke="none" stroke-width="0"/><path d="M229.79413,186.08883l10.62085,-10.62085l2.43179,1.63407l-12.2078,12.2078z" fill="#ffffff" stroke="none" stroke-width="0"/><path d="M230.31284,170.28567l13.31315,13.31316l-3.23663,0.82923l-10.60524,-10.60523z" fill="#ffffff" stroke="none" stroke-width="0"/><path d="M237.07831,186.97756v-13.63461l1.80101,1.41048v10.3435z" fill="#ff0000" stroke="none" stroke-width="0"/><path d="M229.95568,179.0995h19.24485l-1.99084,1.80101h-17.11686z" fill="#ff0000" stroke="none" stroke-width="0"/><path d="M237.8377,181.22563l-6.72446,6.72445l-1.64912,0.12274l7.60573,-7.60574z" fill="#ff0000" stroke="none" stroke-width="0"/><path d="M237.83223,179.07984l3.55138,-3.55138l1.16835,0.35803l-3.95189,3.95188z" fill="#ff0000" stroke="none" stroke-width="0"/><path d="M238.7476,179.63445l4.16035,4.16036l-0.967,0.55938l-3.95189,-3.95189z" fill="#ff0000" stroke="none" stroke-width="0"/><path d="M236.63113,179.93111l-6.72446,-6.72446l-0.12274,-1.64912l7.60573,7.60573z" fill="#ff0000" stroke="none" stroke-width="0"/><path d="M249.72667,180l-19.45333,9.69763v-19.39527z" fill="none" stroke="#000000" stroke-width="2"/><path d="M226.94904,183.78046v-7.44681h3.29787v7.44681z" fill="#8aa0a9" stroke="#000000" stroke-width="2"/></g></g></svg>