<svg version="1.1" xmlns="http://www.w3.org/2000/svg" xmlns:xlink="http://www.w3.org/1999/xlink" width="26.01905" height="22.62702" viewBox="0,0,26.01905,22.62702"><defs><linearGradient x1="230.27334" y1="180.00001" x2="249.72667" y2="180.00001" gradientUnits="userSpaceOnUse" id="color-1"><stop offset="0" stop-color="#c5c5c5"/><stop offset="1" stop-color="#d9d9d9"/></linearGradient><linearGradient x1="238.045" y1="178.92567" x2="237.14661" y2="180.70133" gradientUnits="userSpaceOnUse" id="color-2"><stop offset="0" stop-color="#ffffff"/><stop offset="1" stop-color="#ffffff" stop-opacity="0"/></linearGradient><linearGradient x1="238.02504" y1="178.96513" x2="238.96336" y2="177.11055" gradientUnits="userSpaceOnUse" id="color-3"><stop offset="0" stop-color="#ffffff"/><stop offset="1" stop-color="#ffffff" stop-opacity="0"/></linearGradient><linearGradient x1="236.07459" y1="181.34674" x2="235.52474" y2="182.43351" gradientUnits="userSpaceOnUse" id="color-4"><stop offset="0" stop-color="#ffffff"/><stop offset="1" stop-color="#ffffff" stop-opacity="0"/></linearGradient><linearGradient x1="236.06237" y1="181.37089" x2="236.63666" y2="180.23581" gradientUnits="userSpaceOnUse" id="color-5"><stop offset="0" stop-color="#ffffff"/><stop offset="1" stop-color="#ffffff" stop-opacity="0"/></linearGradient><radialGradient cx="230.97141" cy="187.92882" r="9.16625" gradientUnits="userSpaceOnUse" id="color-6"><stop offset="0" stop-color="#ffffff"/><stop offset="1" stop-color="#ffffff" stop-opacity="0"/></radialGradient></defs><g transform="translate(-225.94904,-168.6865)"><g data-paper-data="{&quot;isPaintingLayer&quot;:true}" fill-rule="nonzero" stroke-linecap="butt" stroke-linejoin="miter" stroke-miterlimit="10" stroke-dasharray="" stroke-dashoffset="0" style="mix-blend-mode: normal"><path d="M249.72667,180.00002l-19.45333,9.69763v-19.39527z" fill="url(#color-1)" stroke="#000000" stroke-width="0"/><path d="M228.74339,176.44973l0.89839,-1.77566l16.1273,8.16362l-1.91708,0.89279z" fill="url(#color-2)" stroke="none" stroke-width="NaN"/><path d="M247.36658,181.36214l-1.41372,1.65085l-16.33104,-8.29945l0.93832,-1.85458z" fill="url(#color-3)" stroke="none" stroke-width="NaN"/><path d="M230.38162,179.83136l0.54985,-1.08678l9.87058,4.99648l-1.17334,0.54642z" fill="url(#color-4)" stroke="none" stroke-width="NaN"/><path d="M241.77977,182.83797l-0.86525,1.01038l-9.99527,-5.07961l0.57429,-1.13508z" fill="url(#color-5)" stroke="none" stroke-width="NaN"/><path d="M230.28041,178.7887c5.04799,-0.38165 9.1434,1.51339 9.52505,6.56138l-8.74745,2.95955z" fill="url(#color-6)" stroke="none" stroke-width="0"/><path d="M249.72667,180.00002l-19.45333,9.69763v-19.39527z" fill="none" stroke="#000000" stroke-width="2"/><path d="M226.94904,183.78048v-7.44681h3.29787v7.44681z" fill="#8aa0a9" stroke="#000000" stroke-width="2"/></g></g></svg>