<svg version="1.1" xmlns="http://www.w3.org/2000/svg" xmlns:xlink="http://www.w3.org/1999/xlink" width="869.86787" height="646.14415" viewBox="0,0,869.86787,646.14415"><defs><radialGradient cx="43.30331" cy="282.10211" r="84.83484" gradientUnits="userSpaceOnUse" id="color-1"><stop offset="0" stop-color="#bd6aff"/><stop offset="1" stop-color="#bd6aff" stop-opacity="0"/></radialGradient><radialGradient cx="294.05406" cy="88.40842" r="84.83484" gradientUnits="userSpaceOnUse" id="color-2"><stop offset="0" stop-color="#8d9afe"/><stop offset="1" stop-color="#8d9afe" stop-opacity="0"/></radialGradient><radialGradient cx="480.24024" cy="26.84686" r="84.83484" gradientUnits="userSpaceOnUse" id="color-3"><stop offset="0" stop-color="#bd6aff"/><stop offset="1" stop-color="#bd6aff" stop-opacity="0"/></radialGradient><radialGradient cx="209.55971" cy="137.91053" r="57.39754" gradientUnits="userSpaceOnUse" id="color-4"><stop offset="0" stop-color="#8d9afe"/><stop offset="1" stop-color="#8d9afe" stop-opacity="0"/></radialGradient><radialGradient cx="278.62878" cy="160.43305" r="57.39755" gradientUnits="userSpaceOnUse" id="color-5"><stop offset="0" stop-color="#66c9ff"/><stop offset="1" stop-color="#66c9ff" stop-opacity="0"/></radialGradient><radialGradient cx="235.4955" cy="186.00602" r="99.43959" gradientUnits="userSpaceOnUse" id="color-6"><stop offset="0" stop-color="#f0ffaa"/><stop offset="1" stop-color="#f0ffaa" stop-opacity="0"/></radialGradient><radialGradient cx="235.4955" cy="186.00602" r="148.98914" gradientUnits="userSpaceOnUse" id="color-7"><stop offset="0" stop-color="#f0ffaa"/><stop offset="1" stop-color="#f0ffaa" stop-opacity="0"/></radialGradient><radialGradient cx="240" cy="180.00001" r="55.89605" gradientUnits="userSpaceOnUse" id="color-8"><stop offset="0" stop-color="#f0ffaa"/><stop offset="1" stop-color="#f0ffaa" stop-opacity="0"/></radialGradient><radialGradient cx="240" cy="180.00001" r="55.89605" gradientUnits="userSpaceOnUse" id="color-9"><stop offset="0" stop-color="#f0ffaa"/><stop offset="1" stop-color="#f0ffaa" stop-opacity="0"/></radialGradient><radialGradient cx="240" cy="180.00001" r="33.37352" gradientUnits="userSpaceOnUse" id="color-10"><stop offset="0" stop-color="#f0ffaa"/><stop offset="1" stop-color="#f0ffaa" stop-opacity="0"/></radialGradient><radialGradient cx="337.18734" cy="200.9736" r="57.39754" gradientUnits="userSpaceOnUse" id="color-11"><stop offset="0" stop-color="#be6fff"/><stop offset="1" stop-color="#be6fff" stop-opacity="0"/></radialGradient><radialGradient cx="119.52544" cy="198.4283" r="57.39754" gradientUnits="userSpaceOnUse" id="color-12"><stop offset="0" stop-color="#8d9afe"/><stop offset="1" stop-color="#8d9afe" stop-opacity="0"/></radialGradient><radialGradient cx="363.3157" cy="118.02819" r="57.39754" gradientUnits="userSpaceOnUse" id="color-13"><stop offset="0" stop-color="#8d9afe"/><stop offset="1" stop-color="#8d9afe" stop-opacity="0"/></radialGradient><radialGradient cx="138.09047" cy="272.68285" r="57.39754" gradientUnits="userSpaceOnUse" id="color-14"><stop offset="0" stop-color="#8d9afe"/><stop offset="1" stop-color="#8d9afe" stop-opacity="0"/></radialGradient><radialGradient cx="426.37876" cy="81.99214" r="57.39754" gradientUnits="userSpaceOnUse" id="color-15"><stop offset="0" stop-color="#8d9afe"/><stop offset="1" stop-color="#8d9afe" stop-opacity="0"/></radialGradient><radialGradient cx="431.20143" cy="122.53828" r="57.39755" gradientUnits="userSpaceOnUse" id="color-16"><stop offset="0" stop-color="#66c9ff"/><stop offset="1" stop-color="#66c9ff" stop-opacity="0"/></radialGradient><radialGradient cx="278.6846" cy="160.12048" r="57.39755" gradientUnits="userSpaceOnUse" id="color-17"><stop offset="0" stop-color="#8d9afe"/><stop offset="1" stop-color="#8d9afe" stop-opacity="0"/></radialGradient><radialGradient cx="360.88204" cy="55.94752" r="57.39755" gradientUnits="userSpaceOnUse" id="color-18"><stop offset="0" stop-color="#bd6aff"/><stop offset="1" stop-color="#bd6aff" stop-opacity="0"/></radialGradient><radialGradient cx="194.95496" cy="217.53756" r="84.83483" gradientUnits="userSpaceOnUse" id="color-19"><stop offset="0" stop-color="#bd6aff"/><stop offset="1" stop-color="#bd6aff" stop-opacity="0"/></radialGradient><radialGradient cx="-40.78078" cy="370.69072" r="84.83484" gradientUnits="userSpaceOnUse" id="color-20"><stop offset="0" stop-color="#66c9ff"/><stop offset="1" stop-color="#66c9ff" stop-opacity="0"/></radialGradient></defs><g transform="translate(140.12913,105.53453)"><g data-paper-data="{&quot;isPaintingLayer&quot;:true}" fill-rule="nonzero" stroke-linecap="butt" stroke-linejoin="miter" stroke-miterlimit="10" stroke-dasharray="" stroke-dashoffset="0" style="mix-blend-mode: normal"><path d="M-139.12913,539.60961v-644.14414h867.86787v644.14415z" fill="#fff1f9" stroke="#ff7a00" stroke-width="2"/><path d="M-41.53153,282.10211c0,-46.85298 37.98185,-84.83483 84.83484,-84.83483c46.85299,0 84.83484,37.98185 84.83484,84.83484c0,46.85298 -37.98185,84.83484 -84.83483,84.83484c-46.85298,0 -84.83483,-37.98185 -84.83483,-84.83483z" fill="url(#color-1)" stroke="none" stroke-width="0"/><path d="M209.21922,88.40842c0,-46.85298 37.98185,-84.83483 84.83484,-84.83483c46.85298,0 84.83484,37.98185 84.83484,84.83484c0,46.85298 -37.98185,84.83484 -84.83483,84.83484c-46.85298,0 -84.83483,-37.98185 -84.83483,-84.83483z" fill="url(#color-2)" stroke="none" stroke-width="0"/><path d="M395.40541,26.84686c0,-46.85298 37.98185,-84.83483 84.83484,-84.83483c46.85298,0 84.83484,37.98185 84.83484,84.83484c0,46.85298 -37.98185,84.83484 -84.83483,84.83484c-46.85298,0 -84.83483,-37.98185 -84.83483,-84.83483z" fill="url(#color-3)" stroke="none" stroke-width="0"/><path d="M152.16216,137.91053c0,-31.69979 25.69776,-57.39755 57.39755,-57.39755c31.69979,0 57.39754,25.69776 57.39754,57.39755c0,31.69979 -25.69775,57.39755 -57.39754,57.39755c-31.69979,0 -57.39755,-25.69775 -57.39755,-57.39755z" fill="url(#color-4)" stroke="none" stroke-width="0"/><path d="M221.23123,160.43305c0,-31.69979 25.69776,-57.39754 57.39755,-57.39754c31.69979,0 57.39755,25.69775 57.39755,57.39754c0,31.69979 -25.69776,57.39755 -57.39755,57.39755c-31.69979,0 -57.39755,-25.69775 -57.39755,-57.39755z" fill="url(#color-5)" stroke="none" stroke-width="0"/><path d="M136.05591,186.00602c0,-54.91897 44.52062,-99.43958 99.43959,-99.43958c54.91897,0 99.43959,44.52061 99.43959,99.43959c0,54.91897 -44.52062,99.43959 -99.43959,99.43959c-54.91897,0 -99.43959,-44.52062 -99.43959,-99.43959z" fill="url(#color-6)" stroke="none" stroke-width="0"/><path d="M86.50636,186.00602c0,-82.28443 66.70471,-148.98913 148.98914,-148.98913c82.28443,0 148.98914,66.7047 148.98914,148.98913c0,82.28443 -66.70471,148.98914 -148.98914,148.98914c-82.28443,0 -148.98914,-66.70471 -148.98914,-148.98914z" fill="url(#color-7)" stroke="none" stroke-width="0"/><path d="M184.10396,180.00001c0,-30.87053 25.02551,-55.89604 55.89604,-55.89604c30.87054,0 55.89605,25.02551 55.89605,55.89605c0,30.87053 -25.02551,55.89604 -55.89605,55.89604c-30.87053,0 -55.89604,-25.02551 -55.89604,-55.89604z" fill="url(#color-8)" stroke="none" stroke-width="0"/><path d="M184.10396,180.00001c0,-30.87053 25.02551,-55.89604 55.89604,-55.89604c30.87054,0 55.89605,25.02551 55.89605,55.89605c0,30.87053 -25.02551,55.89604 -55.89605,55.89604c-30.87053,0 -55.89604,-25.02551 -55.89604,-55.89604z" fill="url(#color-9)" stroke="none" stroke-width="0"/><path d="M206.62648,180.00001c0,-18.43169 14.94183,-33.37352 33.37353,-33.37352c18.43169,0 33.37352,14.94183 33.37352,33.37352c0,18.43169 -14.94183,33.37352 -33.37352,33.37352c-18.43169,0 -33.37352,-14.94183 -33.37352,-33.37352z" fill="url(#color-10)" stroke="none" stroke-width="0"/><path d="M279.78979,200.9736c0,-31.69979 25.69776,-57.39755 57.39755,-57.39755c31.69979,0 57.39754,25.69776 57.39754,57.39755c0,31.69979 -25.69775,57.39755 -57.39754,57.39755c-31.69979,0 -57.39755,-25.69775 -57.39755,-57.39755z" fill="url(#color-11)" stroke="none" stroke-width="0"/><path d="M62.12789,198.4283c0,-31.69979 25.69776,-57.39755 57.39755,-57.39755c31.69979,0 57.39754,25.69776 57.39754,57.39755c0,31.69979 -25.69775,57.39755 -57.39754,57.39755c-31.69979,0 -57.39754,-25.69775 -57.39754,-57.39755z" fill="url(#color-12)" stroke="none" stroke-width="0"/><path d="M305.91815,118.02819c0,-31.69979 25.69775,-57.39755 57.39754,-57.39755c31.69979,0 57.39754,25.69776 57.39754,57.39755c0,31.69979 -25.69775,57.39755 -57.39754,57.39755c-31.69979,0 -57.39754,-25.69776 -57.39754,-57.39755z" fill="url(#color-13)" stroke="none" stroke-width="0"/><path d="M80.69293,272.68285c0,-31.69979 25.69776,-57.39755 57.39755,-57.39755c31.69979,0 57.39754,25.69776 57.39754,57.39755c0,31.69979 -25.69775,57.39755 -57.39754,57.39755c-31.69979,0 -57.39755,-25.69776 -57.39755,-57.39755z" fill="url(#color-14)" stroke="none" stroke-width="0"/><path d="M368.98121,81.99214c0,-31.69979 25.69776,-57.39755 57.39755,-57.39755c31.69979,0 57.39754,25.69776 57.39754,57.39755c0,31.69979 -25.69775,57.39754 -57.39754,57.39754c-31.69979,0 -57.39755,-25.69775 -57.39755,-57.39754z" fill="url(#color-15)" stroke="none" stroke-width="0"/><path d="M373.80388,122.53828c0,-31.69979 25.69775,-57.39755 57.39754,-57.39755c31.69979,0 57.39755,25.69776 57.39755,57.39755c0,31.69979 -25.69776,57.39755 -57.39755,57.39755c-31.69979,0 -57.39754,-25.69775 -57.39754,-57.39755z" fill="url(#color-16)" stroke="none" stroke-width="0"/><path d="M221.28705,160.12048c0,-31.69979 25.69776,-57.39754 57.39755,-57.39754c31.69979,0 57.39755,25.69775 57.39755,57.39754c0,31.69979 -25.69776,57.39755 -57.39755,57.39755c-31.69979,0 -57.39755,-25.69775 -57.39755,-57.39755z" fill="url(#color-17)" stroke="none" stroke-width="0"/><path d="M303.48449,55.94752c0,-31.69979 25.69775,-57.39754 57.39754,-57.39754c31.69979,0 57.39755,25.69776 57.39755,57.39755c0,31.69979 -25.69776,57.39755 -57.39755,57.39755c-31.69979,0 -57.39754,-25.69775 -57.39754,-57.39754z" fill="url(#color-18)" stroke="none" stroke-width="0"/><path d="M110.12012,217.53756c0,-46.85298 37.98185,-84.83483 84.83484,-84.83483c46.85298,0 84.83483,37.98185 84.83483,84.83484c0,46.85299 -37.98185,84.83483 -84.83483,84.83483c-46.85298,0 -84.83484,-37.98184 -84.83484,-84.83483z" fill="url(#color-19)" stroke="none" stroke-width="0"/><path d="M-125.61561,370.69072c0,-46.85298 37.98185,-84.83483 84.83484,-84.83483c46.85299,0 84.83484,37.98185 84.83484,84.83484c0,46.85298 -37.98185,84.83484 -84.83483,84.83484c-46.85298,0 -84.83483,-37.98185 -84.83483,-84.83483z" fill="url(#color-20)" stroke="none" stroke-width="0"/><path d="M34.10465,146.1989c0,-0.27614 0.22386,-0.5 0.5,-0.5c0.27614,0 0.5,0.22386 0.5,0.5c0,0.27614 -0.22386,0.5 -0.5,0.5c-0.27614,0 -0.5,-0.22386 -0.5,-0.5z" fill="#daecff" stroke="none" stroke-width="0.5"/><path d="M187.68433,223.56609c0,-0.27614 0.22386,-0.5 0.5,-0.5c0.27614,0 0.5,0.22386 0.5,0.5c0,0.27614 -0.22386,0.5 -0.5,0.5c-0.27614,0 -0.5,-0.22386 -0.5,-0.5z" fill="#daecff" stroke="none" stroke-width="0.5"/><path d="M260.4326,162.36516c0,-0.27614 0.22386,-0.5 0.5,-0.5c0.27614,0 0.5,0.22386 0.5,0.5c0,0.27614 -0.22386,0.5 -0.5,0.5c-0.27614,0 -0.5,-0.22386 -0.5,-0.5z" fill="#daecff" stroke="none" stroke-width="0.5"/><path d="M295.07463,179.6862c0,-0.27614 0.22386,-0.5 0.5,-0.5c0.27614,0 0.5,0.22386 0.5,0.5c0,0.27614 -0.22386,0.5 -0.5,0.5c-0.27614,0 -0.5,-0.22386 -0.5,-0.5z" fill="#daecff" stroke="none" stroke-width="0.5"/><path d="M347.03768,102.31898c0,-0.27614 0.22386,-0.5 0.5,-0.5c0.27614,0 0.5,0.22386 0.5,0.5c0,0.27614 -0.22386,0.5 -0.5,0.5c-0.27614,0 -0.5,-0.22386 -0.5,-0.5z" fill="#daecff" stroke="none" stroke-width="0.5"/><path d="M380.52497,138.11575c0,-0.27614 0.22386,-0.5 0.5,-0.5c0.27614,0 0.5,0.22386 0.5,0.5c0,0.27614 -0.22386,0.5 -0.5,0.5c-0.27614,0 -0.5,-0.22386 -0.5,-0.5z" fill="#daecff" stroke="none" stroke-width="0.5"/><path d="M433.64276,58.43907c0,-0.27614 0.22386,-0.5 0.5,-0.5c0.27614,0 0.5,0.22386 0.5,0.5c0,0.27614 -0.22386,0.5 -0.5,0.5c-0.27614,0 -0.5,-0.22386 -0.5,-0.5z" fill="#daecff" stroke="none" stroke-width="0.5"/><path d="M485.60581,27.26124c0,-0.27614 0.22386,-0.5 0.5,-0.5c0.27614,0 0.5,0.22386 0.5,0.5c0,0.27614 -0.22386,0.5 -0.5,0.5c-0.27614,0 -0.5,-0.22386 -0.5,-0.5z" fill="#daecff" stroke="none" stroke-width="0.5"/><path d="M486.76054,49.20119c0,-0.27614 0.22386,-0.5 0.5,-0.5c0.27614,0 0.5,0.22386 0.5,0.5c0,0.27614 -0.22386,0.5 -0.5,0.5c-0.27614,0 -0.5,-0.22386 -0.5,-0.5z" fill="#daecff" stroke="none" stroke-width="0.5"/><path d="M454.42798,35.34438c0,-0.27614 0.22386,-0.5 0.5,-0.5c0.27614,0 0.5,0.22386 0.5,0.5c0,0.27614 -0.22386,0.5 -0.5,0.5c-0.27614,0 -0.5,-0.22386 -0.5,-0.5z" fill="#daecff" stroke="none" stroke-width="0.5"/><path d="M472.90373,14.55916c0,-0.27614 0.22386,-0.5 0.5,-0.5c0.27614,0 0.5,0.22386 0.5,0.5c0,0.27614 -0.22386,0.5 -0.5,0.5c-0.27614,0 -0.5,-0.22386 -0.5,-0.5z" fill="#daecff" stroke="none" stroke-width="0.5"/><path d="M442.88063,63.05801c0,-0.27614 0.22386,-0.5 0.5,-0.5c0.27614,0 0.5,0.22386 0.5,0.5c0,0.27614 -0.22386,0.5 -0.5,0.5c-0.27614,0 -0.5,-0.22386 -0.5,-0.5z" fill="#daecff" stroke="none" stroke-width="0.5"/><path d="M422.09541,52.66539c0,-0.27614 0.22386,-0.5 0.5,-0.5c0.27614,0 0.5,0.22386 0.5,0.5c0,0.27614 -0.22386,0.5 -0.5,0.5c-0.27614,0 -0.5,-0.22386 -0.5,-0.5z" fill="#daecff" stroke="none" stroke-width="0.5"/><path d="M431.33329,84.99795c0,-0.27614 0.22386,-0.5 0.5,-0.5c0.27614,0 0.5,0.22386 0.5,0.5c0,0.27614 -0.22386,0.5 -0.5,0.5c-0.27614,0 -0.5,-0.22386 -0.5,-0.5z" fill="#daecff" stroke="none" stroke-width="0.5"/><path d="M450.96377,71.14114c0,-0.27614 0.22386,-0.5 0.5,-0.5c0.27614,0 0.5,0.22386 0.5,0.5c0,0.27614 -0.22386,0.5 -0.5,0.5c-0.27614,0 -0.5,-0.22386 -0.5,-0.5z" fill="#daecff" stroke="none" stroke-width="0.5"/><path d="M357.43029,104.62845c0,-0.27614 0.22386,-0.5 0.5,-0.5c0.27614,0 0.5,0.22386 0.5,0.5c0,0.27614 -0.22386,0.5 -0.5,0.5c-0.27614,0 -0.5,-0.22386 -0.5,-0.5z" fill="#daecff" stroke="none" stroke-width="0.5"/><path d="M344.72821,56.12959c0,-0.27614 0.22386,-0.5 0.5,-0.5c0.27614,0 0.5,0.22386 0.5,0.5c0,0.27614 -0.22386,0.5 -0.5,0.5c-0.27614,0 -0.5,-0.22386 -0.5,-0.5z" fill="#daecff" stroke="none" stroke-width="0.5"/><path d="M367.8229,105.78318c0,-0.27614 0.22386,-0.5 0.5,-0.5c0.27614,0 0.5,0.22386 0.5,0.5c0,0.27614 -0.22386,0.5 -0.5,0.5c-0.27614,0 -0.5,-0.22386 -0.5,-0.5z" fill="#daecff" stroke="none" stroke-width="0.5"/><path d="M389.76285,69.98642c0,-0.27614 0.22386,-0.5 0.5,-0.5c0.27614,0 0.5,0.22386 0.5,0.5c0,0.27614 -0.22386,0.5 -0.5,0.5c-0.27614,0 -0.5,-0.22386 -0.5,-0.5z" fill="#daecff" stroke="none" stroke-width="0.5"/><path d="M393.22705,131.18735c0,-0.27614 0.22386,-0.5 0.5,-0.5c0.27614,0 0.5,0.22386 0.5,0.5c0,0.27614 -0.22386,0.5 -0.5,0.5c-0.27614,0 -0.5,-0.22386 -0.5,-0.5z" fill="#daecff" stroke="none" stroke-width="0.5"/><path d="M429.02382,78.06956c0,-0.27614 0.22386,-0.5 0.5,-0.5c0.27614,0 0.5,0.22386 0.5,0.5c0,0.27614 -0.22386,0.5 -0.5,0.5c-0.27614,0 -0.5,-0.22386 -0.5,-0.5z" fill="#daecff" stroke="none" stroke-width="0.5"/><path d="M359.73975,95.39056c0,-0.27614 0.22386,-0.5 0.5,-0.5c0.27614,0 0.5,0.22386 0.5,0.5c0,0.27614 -0.22386,0.5 -0.5,0.5c-0.27614,0 -0.5,-0.22386 -0.5,-0.5z" fill="#daecff" stroke="none" stroke-width="0.5"/><path d="M385.14391,121.94947c0,-0.27614 0.22386,-0.5 0.5,-0.5c0.27614,0 0.5,0.22386 0.5,0.5c0,0.27614 -0.22386,0.5 -0.5,0.5c-0.27614,0 -0.5,-0.22386 -0.5,-0.5z" fill="#daecff" stroke="none" stroke-width="0.5"/><path d="M394.38179,90.77164c0,-0.27614 0.22386,-0.5 0.5,-0.5c0.27614,0 0.5,0.22386 0.5,0.5c0,0.27614 -0.22386,0.5 -0.5,0.5c-0.27614,0 -0.5,-0.22386 -0.5,-0.5z" fill="#daecff" stroke="none" stroke-width="0.5"/><path d="M372.44183,115.02105c0,-0.27614 0.22386,-0.5 0.5,-0.5c0.27614,0 0.5,0.22386 0.5,0.5c0,0.27614 -0.22386,0.5 -0.5,0.5c-0.27614,0 -0.5,-0.22386 -0.5,-0.5z" fill="#daecff" stroke="none" stroke-width="0.5"/><path d="M430.17855,96.5453c0,-0.27614 0.22386,-0.5 0.5,-0.5c0.27614,0 0.5,0.22386 0.5,0.5c0,0.27614 -0.22386,0.5 -0.5,0.5c-0.27614,0 -0.5,-0.22386 -0.5,-0.5z" fill="#daecff" stroke="none" stroke-width="0.5"/><path d="M431.33329,64.21274c0,-0.27614 0.22386,-0.5 0.5,-0.5c0.27614,0 0.5,0.22386 0.5,0.5c0,0.27614 -0.22386,0.5 -0.5,0.5c-0.27614,0 -0.5,-0.22386 -0.5,-0.5z" fill="#daecff" stroke="none" stroke-width="0.5"/><path d="M399.00072,88.46217c0,-0.27614 0.22386,-0.5 0.5,-0.5c0.27614,0 0.5,0.22386 0.5,0.5c0,0.27614 -0.22386,0.5 -0.5,0.5c-0.27614,0 -0.5,-0.22386 -0.5,-0.5z" fill="#daecff" stroke="none" stroke-width="0.5"/><path d="M334.3356,104.62845c0,-0.27614 0.22386,-0.5 0.5,-0.5c0.27614,0 0.5,0.22386 0.5,0.5c0,0.27614 -0.22386,0.5 -0.5,0.5c-0.27614,0 -0.5,-0.22386 -0.5,-0.5z" fill="#daecff" stroke="none" stroke-width="0.5"/><path d="M300.8483,72.29589c0,-0.27614 0.22386,-0.5 0.5,-0.5c0.27614,0 0.5,0.22386 0.5,0.5c0,0.27614 -0.22386,0.5 -0.5,0.5c-0.27614,0 -0.5,-0.22386 -0.5,-0.5z" fill="#daecff" stroke="none" stroke-width="0.5"/><path d="M338.95454,90.77164c0,-0.27614 0.22386,-0.5 0.5,-0.5c0.27614,0 0.5,0.22386 0.5,0.5c0,0.27614 -0.22386,0.5 -0.5,0.5c-0.27614,0 -0.5,-0.22386 -0.5,-0.5z" fill="#daecff" stroke="none" stroke-width="0.5"/><path d="M404.7744,29.57071c0,-0.27614 0.22386,-0.5 0.5,-0.5c0.27614,0 0.5,0.22386 0.5,0.5c0,0.27614 -0.22386,0.5 -0.5,0.5c-0.27614,0 -0.5,-0.22386 -0.5,-0.5z" fill="#daecff" stroke="none" stroke-width="0.5"/><path d="M416.32174,56.12959c0,-0.27614 0.22386,-0.5 0.5,-0.5c0.27614,0 0.5,0.22386 0.5,0.5c0,0.27614 -0.22386,0.5 -0.5,0.5c-0.27614,0 -0.5,-0.22386 -0.5,-0.5z" fill="#daecff" stroke="none" stroke-width="0.5"/><path d="M424.40488,118.48526c0,-0.27614 0.22386,-0.5 0.5,-0.5c0.27614,0 0.5,0.22386 0.5,0.5c0,0.27614 -0.22386,0.5 -0.5,0.5c-0.27614,0 -0.5,-0.22386 -0.5,-0.5z" fill="#daecff" stroke="none" stroke-width="0.5"/><path d="M319.32405,157.74622c0,-0.27614 0.22386,-0.5 0.5,-0.5c0.27614,0 0.5,0.22386 0.5,0.5c0,0.27614 -0.22386,0.5 -0.5,0.5c-0.27614,0 -0.5,-0.22386 -0.5,-0.5z" fill="#daecff" stroke="none" stroke-width="0.5"/><path d="M269.67047,201.62613c0,-0.27614 0.22386,-0.5 0.5,-0.5c0.27614,0 0.5,0.22386 0.5,0.5c0,0.27614 -0.22386,0.5 -0.5,0.5c-0.27614,0 -0.5,-0.22386 -0.5,-0.5z" fill="#daecff" stroke="none" stroke-width="0.5"/><path d="M285.83675,222.41137c0,-0.27614 0.22386,-0.5 0.5,-0.5c0.27614,0 0.5,0.22386 0.5,0.5c0,0.27614 -0.22386,0.5 -0.5,0.5c-0.27614,0 -0.5,-0.22386 -0.5,-0.5z" fill="#daecff" stroke="none" stroke-width="0.5"/><path d="M293.91989,231.64923c0,-0.27614 0.22386,-0.5 0.5,-0.5c0.27614,0 0.5,0.22386 0.5,0.5c0,0.27614 -0.22386,0.5 -0.5,0.5c-0.27614,0 -0.5,-0.22386 -0.5,-0.5z" fill="#daecff" stroke="none" stroke-width="0.5"/><path d="M355.12082,186.61458c0,-0.27614 0.22386,-0.5 0.5,-0.5c0.27614,0 0.5,0.22386 0.5,0.5c0,0.27614 -0.22386,0.5 -0.5,0.5c-0.27614,0 -0.5,-0.22386 -0.5,-0.5z" fill="#daecff" stroke="none" stroke-width="0.5"/><path d="M341.264,215.48295c0,-0.5 0.5,-0.5 0.5,-0.5c0.33333,0 0.8214,0 1.15473,0c0,0 0.5,0 0.5,0.5c0,0.5 -0.5,0.5 -0.5,0.5c-0.33333,0 -0.66667,0 -1,0h-0.15473c0,0 -0.5,0 -0.5,-0.5z" fill="#daecff" stroke="none" stroke-width="0.5"/><path d="M214.24322,258.20813c0,-0.27614 0.22386,-0.5 0.5,-0.5c0.27614,0 0.5,0.22386 0.5,0.5c0,0.27614 -0.22386,0.5 -0.5,0.5c-0.27614,0 -0.5,-0.22386 -0.5,-0.5z" fill="#daecff" stroke="none" stroke-width="0.5"/><path d="M113.78133,289.38595c0,-0.27614 0.22386,-0.5 0.5,-0.5c0.27614,0 0.5,0.22386 0.5,0.5c0,0.27614 -0.22386,0.5 -0.5,0.5c-0.27614,0 -0.5,-0.22386 -0.5,-0.5z" fill="#daecff" stroke="none" stroke-width="0.5"/><path d="M67.59195,317.09959c0,-0.27614 0.22386,-0.5 0.5,-0.5c0.27614,0 0.5,0.22386 0.5,0.5c0,0.27614 -0.22386,0.5 -0.5,0.5c-0.27614,0 -0.5,-0.22386 -0.5,-0.5z" fill="#daecff" stroke="none" stroke-width="0.5"/><path d="M13.31943,319.40905c0,-0.27614 0.22386,-0.5 0.5,-0.5c0.27614,0 0.5,0.22386 0.5,0.5c0,0.27614 -0.22386,0.5 -0.5,0.5c-0.27614,0 -0.5,-0.22386 -0.5,-0.5z" fill="#daecff" stroke="none" stroke-width="0.5"/><path d="M-12.08473,290.54069c0,-0.27614 0.22386,-0.5 0.5,-0.5c0.27614,0 0.5,0.22386 0.5,0.5c0,0.27614 -0.22386,0.5 -0.5,0.5c-0.27614,0 -0.5,-0.22386 -0.5,-0.5z" fill="#daecff" stroke="none" stroke-width="0.5"/><path d="M-32.86995,352.89637c0,-0.27614 0.22386,-0.5 0.5,-0.5c0.27614,0 0.5,0.22386 0.5,0.5c0,0.27614 -0.22386,0.5 -0.5,0.5c-0.27614,0 -0.5,-0.22386 -0.5,-0.5z" fill="#daecff" stroke="none" stroke-width="0.5"/><path d="M69.39825,291.98067c0,-0.27614 0.22386,-0.5 0.5,-0.5c0.01699,0 0.03378,0.00085 0.05033,0.0025c0.07983,-0.17002 0.25259,-0.28775 0.45284,-0.28775c0.27614,0 0.5,0.22386 0.5,0.5c0,0.27614 -0.22386,0.5 -0.5,0.5c-0.01699,0 -0.03378,-0.00085 -0.05033,-0.0025c-0.07983,0.17002 -0.25259,0.28775 -0.45284,0.28775c-0.27614,0 -0.5,-0.22386 -0.5,-0.5z" fill="#daecff" stroke="none" stroke-width="0.5"/><path d="M75.67509,245.50605c0,-0.27614 0.22386,-0.5 0.5,-0.5c0.27614,0 0.5,0.22386 0.5,0.5c0,0.27614 -0.22386,0.5 -0.5,0.5c-0.27614,0 -0.5,-0.22386 -0.5,-0.5z" fill="#daecff" stroke="none" stroke-width="0.5"/><path d="M31.79518,242.04184c0,-0.27614 0.22386,-0.5 0.5,-0.5c0.27614,0 0.5,0.22386 0.5,0.5c0,0.27614 -0.22386,0.5 -0.5,0.5c-0.27614,0 -0.5,-0.22386 -0.5,-0.5z" fill="#daecff" stroke="none" stroke-width="0.5"/><path d="M49.1162,285.92175c0,-0.27614 0.22386,-0.5 0.5,-0.5c0.27614,0 0.5,0.22386 0.5,0.5c0,0.27614 -0.22386,0.5 -0.5,0.5c-0.27614,0 -0.5,-0.22386 -0.5,-0.5z" fill="#daecff" stroke="none" stroke-width="0.5"/><path d="M66.43721,262.82705c0,-0.27614 0.22386,-0.5 0.5,-0.5c0.27614,0 0.5,0.22386 0.5,0.5c0,0.27614 -0.22386,0.5 -0.5,0.5c-0.27614,0 -0.5,-0.22386 -0.5,-0.5z" fill="#daecff" stroke="none" stroke-width="0.5"/><path d="M126.4834,243.19658c0,-0.27614 0.22386,-0.5 0.5,-0.5c0.27614,0 0.5,0.22386 0.5,0.5c0,0.27614 -0.22386,0.5 -0.5,0.5c-0.27614,0 -0.5,-0.22386 -0.5,-0.5z" fill="#daecff" stroke="none" stroke-width="0.5"/><path d="M126.4834,265.13653c0,-0.27614 0.22386,-0.5 0.5,-0.5c0.27614,0 0.5,0.22386 0.5,0.5c0,0.27614 -0.22386,0.5 -0.5,0.5c-0.27614,0 -0.5,-0.22386 -0.5,-0.5z" fill="#daecff" stroke="none" stroke-width="0.5"/><path d="M149.57809,218.94717c0,-0.27614 0.22386,-0.5 0.5,-0.5c0.27614,0 0.5,0.22386 0.5,0.5c0,0.27614 -0.22386,0.5 -0.5,0.5c-0.27614,0 -0.5,-0.22386 -0.5,-0.5z" fill="#daecff" stroke="none" stroke-width="0.5"/><path d="M118.40026,181.99566c0,-0.27614 0.22386,-0.5 0.5,-0.5c0.27614,0 0.5,0.22386 0.5,0.5c0,0.27614 -0.22386,0.5 -0.5,0.5c-0.27614,0 -0.5,-0.22386 -0.5,-0.5z" fill="#daecff" stroke="none" stroke-width="0.5"/><path d="M129.94761,236.26818c0,-0.27614 0.22386,-0.5 0.5,-0.5c0.27614,0 0.5,0.22386 0.5,0.5c0,0.27614 -0.22386,0.5 -0.5,0.5c-0.27614,0 -0.5,-0.22386 -0.5,-0.5z" fill="#daecff" stroke="none" stroke-width="0.5"/><path d="M150.73283,252.43445c0,-0.27614 0.22386,-0.5 0.5,-0.5c0.27614,0 0.5,0.22386 0.5,0.5c0,0.27614 -0.22386,0.5 -0.5,0.5c-0.27614,0 -0.5,-0.22386 -0.5,-0.5z" fill="#daecff" stroke="none" stroke-width="0.5"/><path d="M153.0423,261.67233c0,-0.27614 0.22386,-0.5 0.5,-0.5c0.27614,0 0.5,0.22386 0.5,0.5c0,0.27614 -0.22386,0.5 -0.5,0.5c-0.27614,0 -0.5,-0.22386 -0.5,-0.5z" fill="#daecff" stroke="none" stroke-width="0.5"/><path d="M203.85061,230.4945c0,-0.27614 0.22386,-0.5 0.5,-0.5c0.27614,0 0.5,0.22386 0.5,0.5c0,0.27614 -0.22386,0.5 -0.5,0.5c-0.27614,0 -0.5,-0.22386 -0.5,-0.5z" fill="#daecff" stroke="none" stroke-width="0.5"/><path d="M183.06539,132.34207c0,-0.27614 0.22386,-0.5 0.5,-0.5c0.27614,0 0.5,0.22386 0.5,0.5c0,0.27614 -0.22386,0.5 -0.5,0.5c-0.27614,0 -0.5,-0.22386 -0.5,-0.5z" fill="#daecff" stroke="none" stroke-width="0.5"/><path d="M225.79056,118.48526c0,-0.27614 0.22386,-0.5 0.5,-0.5c0.27614,0 0.5,0.22386 0.5,0.5c0,0.27614 -0.22386,0.5 -0.5,0.5c-0.27614,0 -0.5,-0.22386 -0.5,-0.5z" fill="#daecff" stroke="none" stroke-width="0.5"/><path d="M244.26631,157.74622c0,-0.27614 0.22386,-0.5 0.5,-0.5c0.27614,0 0.5,0.22386 0.5,0.5c0,0.27614 -0.22386,0.5 -0.5,0.5c-0.27614,0 -0.5,-0.22386 -0.5,-0.5z" fill="#daecff" stroke="none" stroke-width="0.5"/><path d="M300.69357,160.0557c0,0.2977 -0.17725,0.41815 -0.32069,0.46688c-0.05566,0.02139 -0.11612,0.03312 -0.17931,0.03312c-0.33333,0 -0.8214,0 -1.15473,0c0,0 -0.5,0 -0.5,-0.5c0,-0.5 0.5,-0.5 0.5,-0.5c0.33333,0 0.66667,0 1,0h0.15473c0.06319,0 0.12365,0.01172 0.17931,0.03312c0.14343,0.04873 0.32069,0.16918 0.32069,0.46688z" fill="#daecff" stroke="none" stroke-width="0.5"/><path d="M276.59888,199.31667c0,-0.27614 0.22386,-0.5 0.5,-0.5c0.27614,0 0.5,0.22386 0.5,0.5c0,0.27614 -0.22386,0.5 -0.5,0.5c-0.27614,0 -0.5,-0.22386 -0.5,-0.5z" fill="#daecff" stroke="none" stroke-width="0.5"/><path d="M206.16008,215.48295c0,-0.27614 0.22386,-0.5 0.5,-0.5c0.27614,0 0.5,0.22386 0.5,0.5c0,0.27614 -0.22386,0.5 -0.5,0.5c-0.27614,0 -0.5,-0.22386 -0.5,-0.5z" fill="#daecff" stroke="none" stroke-width="0.5"/><path d="M207.31481,274.3744c0,-0.27614 0.22386,-0.5 0.5,-0.5c0.27614,0 0.5,0.22386 0.5,0.5c0,0.27614 -0.22386,0.5 -0.5,0.5c-0.27614,0 -0.5,-0.22386 -0.5,-0.5z" fill="#daecff" stroke="none" stroke-width="0.5"/><path d="M281.21781,228.18503c0,-0.27614 0.22386,-0.5 0.5,-0.5c0.27614,0 0.5,0.22386 0.5,0.5c0,0.27614 -0.22386,0.5 -0.5,0.5c-0.27614,0 -0.5,-0.22386 -0.5,-0.5z" fill="#daecff" stroke="none" stroke-width="0.5"/><path d="M251.19472,177.37672c0,-0.27614 0.22386,-0.5 0.5,-0.5c0.27614,0 0.5,0.22386 0.5,0.5c0,0.27614 -0.22386,0.5 -0.5,0.5c-0.27614,0 -0.5,-0.22386 -0.5,-0.5z" fill="#daecff" stroke="none" stroke-width="0.5"/><path d="M222.32636,155.43676c0,-0.27614 0.22386,-0.5 0.5,-0.5c0.27614,0 0.5,0.22386 0.5,0.5c0,0.27614 -0.22386,0.5 -0.5,0.5c-0.27614,0 -0.5,-0.22386 -0.5,-0.5z" fill="#daecff" stroke="none" stroke-width="0.5"/><path d="M242.95684,154.28202c0,0.5 -0.5,0.5 -0.5,0.5c-0.33333,0 -0.8214,0 -1.15473,0c0,0 -0.5,0 -0.5,-0.5c0,-0.5 0.5,-0.5 0.5,-0.5c0.33333,0 0.66667,0 1,0h0.15473c0,0 0.5,0 0.5,0.5z" fill="#daecff" stroke="none" stroke-width="0.5"/><path d="M248.88525,233.95869c0,-0.27614 0.22386,-0.5 0.5,-0.5c0.27614,0 0.5,0.22386 0.5,0.5c0,0.27614 -0.22386,0.5 -0.5,0.5c-0.27614,0 -0.5,-0.22386 -0.5,-0.5z" fill="#daecff" stroke="none" stroke-width="0.5"/><path d="M275.44414,272.06494c0,-0.27614 0.22386,-0.5 0.5,-0.5c0.27614,0 0.5,0.22386 0.5,0.5c0,0.27614 -0.22386,0.5 -0.5,0.5c-0.27614,0 -0.5,-0.22386 -0.5,-0.5z" fill="#daecff" stroke="none" stroke-width="0.5"/><path d="M317.01458,163.51991c0,-0.5 0.5,-0.5 0.5,-0.5c0.33333,0 0.8214,0 1.15473,0c0.06319,0 0.12365,0.01172 0.17931,0.03312c0.14343,0.04873 0.32069,0.16918 0.32069,0.46688c0,0.2977 -0.17725,0.41815 -0.32069,0.46688c-0.05566,0.02139 -0.11612,0.03312 -0.17931,0.03312c-0.33333,0 -0.66667,0 -1,0h-0.15473c0,0 -0.5,0 -0.5,-0.5z" fill="#daecff" stroke="none" stroke-width="0.5"/><path d="M259.27786,160.0557c0,-0.27614 0.22386,-0.5 0.5,-0.5c0.27614,0 0.5,0.22386 0.5,0.5c0,0.27614 -0.22386,0.5 -0.5,0.5c-0.27614,0 -0.5,-0.22386 -0.5,-0.5z" fill="#daecff" stroke="none" stroke-width="0.5"/><path d="M245.42105,177.37672c0,-0.27614 0.22386,-0.5 0.5,-0.5c0.27614,0 0.5,0.22386 0.5,0.5c0,0.27614 -0.22386,0.5 -0.5,0.5c-0.27614,0 -0.5,-0.22386 -0.5,-0.5z" fill="#daecff" stroke="none" stroke-width="0.5"/><path d="M222.32636,169.29357c0,-0.27614 0.22386,-0.5 0.5,-0.5c0.27614,0 0.5,0.22386 0.5,0.5c0,0.27614 -0.22386,0.5 -0.5,0.5c-0.27614,0 -0.5,-0.22386 -0.5,-0.5z" fill="#daecff" stroke="none" stroke-width="0.5"/><path d="M273.13467,201.62613c0,-0.27614 0.22386,-0.5 0.5,-0.5c0.27614,0 0.5,0.22386 0.5,0.5c0,0.27614 -0.22386,0.5 -0.5,0.5c-0.27614,0 -0.5,-0.22386 -0.5,-0.5z" fill="#daecff" stroke="none" stroke-width="0.5"/><path d="M27.18436,253.51912c0,-0.27614 0.22386,-0.5 0.5,-0.5c0.27614,0 0.5,0.22386 0.5,0.5c0,0.27614 -0.22386,0.5 -0.5,0.5c-0.27614,0 -0.5,-0.22386 -0.5,-0.5z" fill="#daecff" stroke="none" stroke-width="0.5"/><path d="M112.55022,282.59981c0,-0.27614 0.22386,-0.5 0.5,-0.5c0.27614,0 0.5,0.22386 0.5,0.5c0,0.27614 -0.22386,0.5 -0.5,0.5c-0.27614,0 -0.5,-0.22386 -0.5,-0.5z" fill="#daecff" stroke="none" stroke-width="0.5"/><path d="M88.15997,262.9c0,-0.27614 0.22386,-0.5 0.5,-0.5c0.27614,0 0.5,0.22386 0.5,0.5c0,0.27614 -0.22386,0.5 -0.5,0.5c-0.27614,0 -0.5,-0.22386 -0.5,-0.5z" fill="#daecff" stroke="none" stroke-width="0.5"/><path d="M89.09806,280.72362c0,-0.27614 0.22386,-0.5 0.5,-0.5c0.27614,0 0.5,0.22386 0.5,0.5c0,0.27614 -0.22386,0.5 -0.5,0.5c-0.27614,0 -0.5,-0.22386 -0.5,-0.5z" fill="#daecff" stroke="none" stroke-width="0.5"/><path d="M111.61213,247.89061c0,-0.27614 0.22386,-0.5 0.5,-0.5c0.27614,0 0.5,0.22386 0.5,0.5c0,0.27614 -0.22386,0.5 -0.5,0.5c-0.27614,0 -0.5,-0.22386 -0.5,-0.5z" fill="#daecff" stroke="none" stroke-width="0.5"/><path d="M75.96485,228.19079c0,-0.27614 0.22386,-0.5 0.5,-0.5c0.27614,0 0.5,0.22386 0.5,0.5c0,0.27614 -0.22386,0.5 -0.5,0.5c-0.27614,0 -0.5,-0.22386 -0.5,-0.5z" fill="#daecff" stroke="none" stroke-width="0.5"/><path d="M54.38887,238.50976c0,-0.27614 0.22386,-0.5 0.5,-0.5c0.27614,0 0.5,0.22386 0.5,0.5c0,0.27614 -0.22386,0.5 -0.5,0.5c-0.27614,0 -0.5,-0.22386 -0.5,-0.5z" fill="#daecff" stroke="none" stroke-width="0.5"/><path d="M20.61776,291.98067c0,-0.27614 0.22386,-0.5 0.5,-0.5c0.27614,0 0.5,0.22386 0.5,0.5c0,0.27614 -0.22386,0.5 -0.5,0.5c-0.27614,0 -0.5,-0.22386 -0.5,-0.5z" fill="#daecff" stroke="none" stroke-width="0.5"/><path d="M100.3551,204.73864c0,-0.27614 0.22386,-0.5 0.5,-0.5c0.27614,0 0.5,0.22386 0.5,0.5c0,0.27614 -0.22386,0.5 -0.5,0.5c-0.27614,0 -0.5,-0.22386 -0.5,-0.5z" fill="#daecff" stroke="none" stroke-width="0.5"/><path d="M133.18812,212.24333c0,-0.27614 0.22386,-0.5 0.5,-0.5c0.27614,0 0.5,0.22386 0.5,0.5c0,0.27614 -0.22386,0.5 -0.5,0.5c-0.27614,0 -0.5,-0.22386 -0.5,-0.5z" fill="#daecff" stroke="none" stroke-width="0.5"/><path d="M159.45453,143.76303c0,-0.27614 0.22386,-0.5 0.5,-0.5c0.27614,0 0.5,0.22386 0.5,0.5c0,0.27614 -0.22386,0.5 -0.5,0.5c-0.27614,0 -0.5,-0.22386 -0.5,-0.5z" fill="#daecff" stroke="none" stroke-width="0.5"/><path d="M167.89731,155.02006c0,-0.27614 0.22386,-0.5 0.5,-0.5c0.27614,0 0.5,0.22386 0.5,0.5c0,0.27614 -0.22386,0.5 -0.5,0.5c-0.27614,0 -0.5,-0.22386 -0.5,-0.5z" fill="#daecff" stroke="none" stroke-width="0.5"/><path d="M147.25941,185.03882c0,-0.27614 0.22386,-0.5 0.5,-0.5c0.27614,0 0.5,0.22386 0.5,0.5c0,0.27614 -0.22386,0.5 -0.5,0.5c-0.27614,0 -0.5,-0.22386 -0.5,-0.5z" fill="#daecff" stroke="none" stroke-width="0.5"/><path d="M199.79224,195.35778c0,-0.27614 0.22386,-0.5 0.5,-0.5c0.27614,0 0.5,0.22386 0.5,0.5c0,0.27614 -0.22386,0.5 -0.5,0.5c-0.27614,0 -0.5,-0.22386 -0.5,-0.5z" fill="#daecff" stroke="none" stroke-width="0.5"/><path d="M231.68718,238.50976c0,-0.27614 0.22386,-0.5 0.5,-0.5c0.27614,0 0.5,0.22386 0.5,0.5c0,0.27614 -0.22386,0.5 -0.5,0.5c-0.27614,0 -0.5,-0.22386 -0.5,-0.5z" fill="#daecff" stroke="none" stroke-width="0.5"/><path d="M274.83915,210.36717c0,-0.27614 0.22386,-0.5 0.5,-0.5c0.27614,0 0.5,0.22386 0.5,0.5c0,0.27614 -0.22386,0.5 -0.5,0.5c-0.27614,0 -0.5,-0.22386 -0.5,-0.5z" fill="#daecff" stroke="none" stroke-width="0.5"/><path d="M253.26316,134.38216c0,-0.27614 0.22386,-0.5 0.5,-0.5c0.27614,0 0.5,0.22386 0.5,0.5c0,0.27614 -0.22386,0.5 -0.5,0.5c-0.27614,0 -0.5,-0.22386 -0.5,-0.5z" fill="#daecff" stroke="none" stroke-width="0.5"/><path d="M196.0399,136.25833c0,-0.27614 0.22386,-0.5 0.5,-0.5c0.27614,0 0.5,0.22386 0.5,0.5c0,0.27614 -0.22386,0.5 -0.5,0.5c-0.27614,0 -0.5,-0.22386 -0.5,-0.5z" fill="#daecff" stroke="none" stroke-width="0.5"/><path d="M218.55397,185.03882c0,-0.27614 0.22386,-0.5 0.5,-0.5c0.27614,0 0.5,0.22386 0.5,0.5c0,0.27614 -0.22386,0.5 -0.5,0.5c-0.27614,0 -0.5,-0.22386 -0.5,-0.5z" fill="#daecff" stroke="none" stroke-width="0.5"/><path d="M252.32508,153.14389c0,-0.27614 0.22386,-0.5 0.5,-0.5c0.27614,0 0.5,0.22386 0.5,0.5c0,0.27614 -0.22386,0.5 -0.5,0.5c-0.27614,0 -0.5,-0.22386 -0.5,-0.5z" fill="#daecff" stroke="none" stroke-width="0.5"/><path d="M250.4489,88.41593c0,-0.27614 0.22386,-0.5 0.5,-0.5c0.27614,0 0.5,0.22386 0.5,0.5c0,0.27614 -0.22386,0.5 -0.5,0.5c-0.27614,0 -0.5,-0.22386 -0.5,-0.5z" fill="#daecff" stroke="none" stroke-width="0.5"/><path d="M214.55162,140.0107c0,-0.41421 0.33579,-0.75 0.75,-0.75c0.41421,0 0.75,0.33579 0.75,0.75c0,0.41421 -0.33579,0.75 -0.75,0.75c-0.41421,0 -0.75,-0.33579 -0.75,-0.75z" fill="#daecff" stroke="none" stroke-width="0.5"/><path d="M191.09947,168.15329c0,-0.41421 0.33579,-0.75 0.75,-0.75c0.41421,0 0.75,0.33579 0.75,0.75c0,0.41421 -0.33579,0.75 -0.75,0.75c-0.41421,0 -0.75,-0.33579 -0.75,-0.75z" fill="#daecff" stroke="none" stroke-width="0.5"/><path d="M160.14262,203.80055c0,-0.41421 0.33579,-0.75 0.75,-0.75c0.41421,0 0.75,0.33579 0.75,0.75c0,0.41421 -0.33579,0.75 -0.75,0.75c-0.41421,0 -0.75,-0.33579 -0.75,-0.75z" fill="#daecff" stroke="none" stroke-width="0.5"/><path d="M167.64731,219.74803c0,-0.41421 0.33579,-0.75 0.75,-0.75c0.41421,0 0.75,0.33579 0.75,0.75c0,0.41421 -0.33579,0.75 -0.75,0.75c-0.41421,0 -0.75,-0.33579 -0.75,-0.75z" fill="#daecff" stroke="none" stroke-width="0.5"/><path d="M193.91373,202.86247c0,-0.41421 0.33579,-0.75 0.75,-0.75c0.41421,0 0.75,0.33579 0.75,0.75c0,0.41421 -0.33579,0.75 -0.75,0.75c-0.41421,0 -0.75,-0.33579 -0.75,-0.75z" fill="#daecff" stroke="none" stroke-width="0.5"/><path d="M221.11823,230.06697c0,-0.41421 0.33579,-0.75 0.75,-0.75c0.41421,0 0.75,0.33579 0.75,0.75c0,0.41421 -0.33579,0.75 -0.75,0.75c-0.41421,0 -0.75,-0.33579 -0.75,-0.75z" fill="#daecff" stroke="none" stroke-width="0.5"/><path d="M264.2702,182.22457c0,-0.41421 0.33579,-0.75 0.75,-0.75c0.41421,0 0.75,0.33579 0.75,0.75c0,0.41421 -0.33579,0.75 -0.75,0.75c-0.41421,0 -0.75,-0.33579 -0.75,-0.75z" fill="#daecff" stroke="none" stroke-width="0.5"/><path d="M287.72236,206.61483c0,-0.41421 0.33579,-0.75 0.75,-0.75c0.41421,0 0.75,0.33579 0.75,0.75c0,0.41421 -0.33579,0.75 -0.75,0.75c-0.41421,0 -0.75,-0.33579 -0.75,-0.75z" fill="#daecff" stroke="none" stroke-width="0.5"/><path d="M326.18389,111.86809c0,-0.41421 0.33579,-0.75 0.75,-0.75c0.41421,0 0.75,0.33579 0.75,0.75c0,0.41421 -0.33579,0.75 -0.75,0.75c-0.41421,0 -0.75,-0.33579 -0.75,-0.75z" fill="#daecff" stroke="none" stroke-width="0.5"/><path d="M279.27958,100.61106c0,-0.41421 0.33579,-0.75 0.75,-0.75c0.41421,0 0.75,0.33579 0.75,0.75c0,0.41421 -0.33579,0.75 -0.75,0.75c-0.41421,0 -0.75,-0.33579 -0.75,-0.75z" fill="#daecff" stroke="none" stroke-width="0.5"/><path d="M290.53662,128.75365c0,-0.41421 0.33579,-0.75 0.75,-0.75c0.41421,0 0.75,0.33579 0.75,0.75c0,0.41421 -0.33579,0.75 -0.75,0.75c-0.41421,0 -0.75,-0.33579 -0.75,-0.75z" fill="#daecff" stroke="none" stroke-width="0.5"/><path d="M305.546,104.36341c0,-0.41421 0.33579,-0.75 0.75,-0.75c0.41421,0 0.75,0.33579 0.75,0.75c0,0.41421 -0.33579,0.75 -0.75,0.75c-0.41421,0 -0.75,-0.33579 -0.75,-0.75z" fill="#daecff" stroke="none" stroke-width="0.5"/><path d="M248.32273,136.25833c0,-0.41421 0.33579,-0.75 0.75,-0.75c0.41421,0 0.75,0.33579 0.75,0.75c0,0.41421 -0.33579,0.75 -0.75,0.75c-0.41421,0 -0.75,-0.33579 -0.75,-0.75z" fill="#daecff" stroke="none" stroke-width="0.5"/><path d="M223.93249,117.49662c0,-0.41421 0.33579,-0.75 0.75,-0.75c0.41421,0 0.75,0.33579 0.75,0.75c0,0.41421 -0.33579,0.75 -0.75,0.75c-0.41421,0 -0.75,-0.33579 -0.75,-0.75z" fill="#daecff" stroke="none" stroke-width="0.5"/><path d="M197.66607,153.14389c0,-0.41421 0.33579,-0.75 0.75,-0.75c0.41421,0 0.75,0.33579 0.75,0.75c0,0.41421 -0.33579,0.75 -0.75,0.75c-0.41421,0 -0.75,-0.33579 -0.75,-0.75z" fill="#daecff" stroke="none" stroke-width="0.5"/><path d="M174.21391,206.61483c0,-0.41421 0.33579,-0.75 0.75,-0.75c0.41421,0 0.75,0.33579 0.75,0.75c0,0.41421 -0.33579,0.75 -0.75,0.75c-0.41421,0 -0.75,-0.33579 -0.75,-0.75z" fill="#daecff" stroke="none" stroke-width="0.5"/><path d="M198.60416,231.94316c0,-0.41421 0.33579,-0.75 0.75,-0.75c0.41421,0 0.75,0.33579 0.75,0.75c0,0.41421 -0.33579,0.75 -0.75,0.75c-0.41421,0 -0.75,-0.33579 -0.75,-0.75z" fill="#daecff" stroke="none" stroke-width="0.5"/><path d="M237.0657,214.11951c0,-0.41421 0.33579,-0.75 0.75,-0.75c0.41421,0 0.75,0.33579 0.75,0.75c0,0.41421 -0.33579,0.75 -0.75,0.75c-0.41421,0 -0.75,-0.33579 -0.75,-0.75z" fill="#daecff" stroke="none" stroke-width="0.5"/><path d="M234.25144,197.23395c0,-0.41421 0.33579,-0.75 0.75,-0.75c0.41421,0 0.75,0.33579 0.75,0.75c0,0.41421 -0.33579,0.75 -0.75,0.75c-0.41421,0 -0.75,-0.33579 -0.75,-0.75z" fill="#daecff" stroke="none" stroke-width="0.5"/><path d="M226.74675,188.79119c0,-0.41421 0.33579,-0.75 0.75,-0.75c0.41421,0 0.75,0.33579 0.75,0.75c0,0.41421 -0.33579,0.75 -0.75,0.75c-0.41421,0 -0.75,-0.33579 -0.75,-0.75z" fill="#daecff" stroke="none" stroke-width="0.5"/><path d="M254.88934,196.29587c0,-0.41421 0.33579,-0.75 0.75,-0.75c0.41421,0 0.75,0.33579 0.75,0.75c0,0.41421 -0.33579,0.75 -0.75,0.75c-0.41421,0 -0.75,-0.33579 -0.75,-0.75z" fill="#daecff" stroke="none" stroke-width="0.5"/><path d="M253.95125,220.68611c0,-0.41421 0.33579,-0.75 0.75,-0.75c0.41421,0 0.75,0.33579 0.75,0.75c0,0.41421 -0.33579,0.75 -0.75,0.75c-0.41421,0 -0.75,-0.33579 -0.75,-0.75z" fill="#daecff" stroke="none" stroke-width="0.5"/><path d="M232.37526,190.66736c0,-0.41421 0.33579,-0.75 0.75,-0.75c0.41421,0 0.75,0.33579 0.75,0.75c0,0.41421 -0.33579,0.75 -0.75,0.75c-0.41421,0 -0.75,-0.33579 -0.75,-0.75z" fill="#daecff" stroke="none" stroke-width="0.5"/><path d="M252.07508,193.48161c0,-0.41421 0.33579,-0.75 0.75,-0.75c0.41421,0 0.75,0.33579 0.75,0.75c0,0.41421 -0.33579,0.75 -0.75,0.75c-0.41421,0 -0.75,-0.33579 -0.75,-0.75z" fill="#daecff" stroke="none" stroke-width="0.5"/><path d="M281.15575,157.83432c0,-0.41421 0.33579,-0.75 0.75,-0.75c0.41421,0 0.75,0.33579 0.75,0.75c0,0.41421 -0.33579,0.75 -0.75,0.75c-0.41421,0 -0.75,-0.33579 -0.75,-0.75z" fill="#daecff" stroke="none" stroke-width="0.5"/><path d="M246.44656,155.95815c0,-0.41421 0.33579,-0.75 0.75,-0.75c0.41421,0 0.75,0.33579 0.75,0.75c0,0.41421 -0.33579,0.75 -0.75,0.75c-0.41421,0 -0.75,-0.33579 -0.75,-0.75z" fill="#daecff" stroke="none" stroke-width="0.5"/><path d="M225.80866,155.02006c0,-0.41421 0.33579,-0.75 0.75,-0.75c0.41421,0 0.75,0.33579 0.75,0.75c0,0.41421 -0.33579,0.75 -0.75,0.75c-0.41421,0 -0.75,-0.33579 -0.75,-0.75z" fill="#daecff" stroke="none" stroke-width="0.5"/><path d="M229.56101,170.02946c0,-0.41421 0.33579,-0.75 0.75,-0.75c0.41421,0 0.75,0.33579 0.75,0.75c0,0.41421 -0.33579,0.75 -0.75,0.75c-0.41421,0 -0.75,-0.33579 -0.75,-0.75z" fill="#daecff" stroke="none" stroke-width="0.5"/><path d="M213.61354,162.52476c0,-0.41421 0.33579,-0.75 0.75,-0.75c0.41421,0 0.75,0.33579 0.75,0.75c0,0.41421 -0.33579,0.75 -0.75,0.75c-0.41421,0 -0.75,-0.33579 -0.75,-0.75z" fill="#daecff" stroke="none" stroke-width="0.5"/><path d="M221.80632,187.8531c0,-0.55228 0.44772,-1 1,-1c0.55228,0 1,0.44772 1,1c0,0.55228 -0.44772,1 -1,1c-0.55228,0 -1,-0.44772 -1,-1z" fill="#daecff" stroke="none" stroke-width="0.5"/><path d="M237.75378,161.58666c0,-0.55228 0.44772,-1 1,-1c0.55228,0 1,0.44772 1,1c0,0.55228 -0.44772,1 -1,1c-0.55228,0 -1,-0.44772 -1,-1z" fill="#daecff" stroke="none" stroke-width="0.5"/><path d="M247.13465,170.02946c0,-0.55228 0.44772,-1 1,-1c0.55228,0 1,0.44772 1,1c0,0.55228 -0.44772,1 -1,1c-0.55228,0 -1,-0.44772 -1,-1z" fill="#daecff" stroke="none" stroke-width="0.5"/><path d="M235.87761,185.97693c0,-0.55228 0.44772,-1 1,-1c0.55228,0 1,0.44772 1,1c0,0.55228 -0.44772,1 -1,1c-0.55228,0 -1,-0.44772 -1,-1z" fill="#daecff" stroke="none" stroke-width="0.5"/><path d="M238.69187,199.11013c0,-0.55228 0.44772,-1 1,-1c0.55228,0 1,0.44772 1,1c0,0.55228 -0.44772,1 -1,1c-0.55228,0 -1,-0.44772 -1,-1z" fill="#daecff" stroke="none" stroke-width="0.5"/><path d="M249.9489,202.86247c0,-0.55228 0.44772,-1 1,-1c0.55228,0 1,0.44772 1,1c0,0.55228 -0.44772,1 -1,1c-0.55228,0 -1,-0.44772 -1,-1z" fill="#daecff" stroke="none" stroke-width="0.5"/><path d="M263.08211,193.48161c0,-0.55228 0.44772,-1 1,-1c0.55228,0 1,0.44772 1,1c0,0.55228 -0.44772,1 -1,1c-0.55228,0 -1,-0.44772 -1,-1z" fill="#daecff" stroke="none" stroke-width="0.5"/><path d="M270.5868,182.22457c0,-0.55228 0.44772,-1 1,-1c0.55228,0 1,0.44772 1,1c0,0.55228 -0.44772,1 -1,1c-0.55228,0 -1,-0.44772 -1,-1z" fill="#daecff" stroke="none" stroke-width="0.5"/><path d="M264.95828,178.47222c0,-0.55228 0.44772,-1 1,-1c0.55228,0 1,0.44772 1,1c0,0.55228 -0.44772,1 -1,1c-0.55228,0 -1,-0.44772 -1,-1z" fill="#daecff" stroke="none" stroke-width="0.5"/><path d="M242.44421,172.84371c0,-0.55228 0.44772,-1 1,-1c0.55228,0 1,0.44772 1,1c0,0.55228 -0.44772,1 -1,1c-0.55228,0 -1,-0.44772 -1,-1z" fill="#daecff" stroke="none" stroke-width="0.5"/><path d="M212.42545,201.92439c0,-0.55228 0.44772,-1 1,-1c0.55228,0 1,0.44772 1,1c0,0.55228 -0.44772,1 -1,1c-0.55228,0 -1,-0.44772 -1,-1z" fill="#daecff" stroke="none" stroke-width="0.5"/><path d="M266.83446,185.03882c0,-0.55228 0.44772,-1 1,-1c0.55228,0 1,0.44772 1,1c0,0.55228 -0.44772,1 -1,1c-0.55228,0 -1,-0.44772 -1,-1z" fill="#daecff" stroke="none" stroke-width="0.5"/><path d="M329.68624,146.5773c0,-0.55228 0.44772,-1 1,-1c0.55228,0 1,0.44772 1,1c0,0.55228 -0.44772,1 -1,1c-0.55228,0 -1,-0.44772 -1,-1z" fill="#daecff" stroke="none" stroke-width="0.5"/><path d="M353.1384,132.50599c0,-0.55228 0.44772,-1 1,-1c0.55228,0 1,0.44772 1,1c0,0.55228 -0.44772,1 -1,1c-0.55228,0 -1,-0.44772 -1,-1z" fill="#daecff" stroke="none" stroke-width="0.5"/><path d="M198.35416,155.95815c0,-0.55228 0.44772,-1 1,-1c0.55228,0 1,0.44772 1,1c0,0.55228 -0.44772,1 -1,1c-0.55228,0 -1,-0.44772 -1,-1z" fill="#daecff" stroke="none" stroke-width="0.5"/><path d="M127.99768,233.81933c0,-0.55228 0.44772,-1 1,-1c0.55228,0 1,0.44772 1,1c0,0.55228 -0.44772,1 -1,1c-0.55228,0 -1,-0.44772 -1,-1z" fill="#daecff" stroke="none" stroke-width="0.5"/><path d="M67.96016,269.46662c0,-0.55228 0.44772,-1 1,-1c0.55228,0 1,0.44772 1,1c0,0.55228 -0.44772,1 -1,1c-0.55228,0 -1,-0.44772 -1,-1z" fill="#daecff" stroke="none" stroke-width="0.5"/><path d="M52.01269,279.78556c0,-0.55228 0.44772,-1 1,-1c0.55228,0 1,0.44772 1,1c0,0.55228 -0.44772,1 -1,1c-0.55228,0 -1,-0.44772 -1,-1z" fill="#daecff" stroke="none" stroke-width="0.5"/><path d="M343.75753,138.13453c0,-0.55228 0.44772,-1 1,-1c0.55228,0 1,0.44772 1,1c0,0.55228 -0.44772,1 -1,1c-0.55228,0 -1,-0.44772 -1,-1z" fill="#daecff" stroke="none" stroke-width="0.5"/><path d="M439.44234,45.26396c0,-0.55228 0.44772,-1 1,-1c0.55228,0 1,0.44772 1,1c0,0.55228 -0.44772,1 -1,1c-0.55228,0 -1,-0.44772 -1,-1z" fill="#daecff" stroke="none" stroke-width="0.5"/><path d="M404.73314,80.91125c0,-0.55228 0.44772,-1 1,-1c0.55228,0 1,0.44772 1,1c0,0.55228 -0.44772,1 -1,1c-0.55228,0 -1,-0.44772 -1,-1z" fill="#daecff" stroke="none" stroke-width="0.5"/><path d="M244.32039,186.91499c0,-0.55228 0.44772,-1 1,-1c0.55228,0 1,0.44772 1,1c0,0.55228 -0.44772,1 -1,1c-0.55228,0 -1,-0.44772 -1,-1z" fill="#daecff" stroke="none" stroke-width="0.5"/><path d="M214.30162,191.60544c0,-0.55228 0.44772,-1 1,-1c0.55228,0 1,0.44772 1,1c0,0.55228 -0.44772,1 -1,1c-0.55228,0 -1,-0.44772 -1,-1z" fill="#daecff" stroke="none" stroke-width="0.5"/><path d="M215.23971,193.48161c0,-0.55228 0.44772,-1 1,-1c0.55228,0 1,0.44772 1,1c0,0.55228 -0.44772,1 -1,1c-0.55228,0 -1,-0.44772 -1,-1z" fill="#daecff" stroke="none" stroke-width="0.5"/><path d="M29.06054,271.34277c0,-0.27614 0.22386,-0.5 0.5,-0.5c0.27614,0 0.5,0.22386 0.5,0.5c0,0.27614 -0.22386,0.5 -0.5,0.5c-0.27614,0 -0.5,-0.22386 -0.5,-0.5z" fill="#daecff" stroke="none" stroke-width="0.5"/><path d="M37.50331,292.91875c0,-0.27614 0.22386,-0.5 0.5,-0.5c0.27614,0 0.5,0.22386 0.5,0.5c0,0.27614 -0.22386,0.5 -0.5,0.5c-0.27614,0 -0.5,-0.22386 -0.5,-0.5z" fill="#daecff" stroke="none" stroke-width="0.5"/><path d="M55.32695,266.65234c0,-0.27614 0.22386,-0.5 0.5,-0.5c0.27614,0 0.5,0.22386 0.5,0.5c0,0.27614 -0.22386,0.5 -0.5,0.5c-0.27614,0 -0.5,-0.22386 -0.5,-0.5z" fill="#daecff" stroke="none" stroke-width="0.5"/><path d="M72.21251,272.28085c0,-0.27614 0.22386,-0.5 0.5,-0.5c0.27614,0 0.5,0.22386 0.5,0.5c0,0.27614 -0.22386,0.5 -0.5,0.5c-0.27614,0 -0.5,-0.22386 -0.5,-0.5z" fill="#daecff" stroke="none" stroke-width="0.5"/><path d="M92.85041,239.44784c0,-0.27614 0.22386,-0.5 0.5,-0.5c0.27614,0 0.5,0.22386 0.5,0.5c0,0.27614 -0.22386,0.5 -0.5,0.5c-0.27614,0 -0.5,-0.22386 -0.5,-0.5z" fill="#daecff" stroke="none" stroke-width="0.5"/><path d="M110.67404,255.39529c0,-0.27614 0.22386,-0.5 0.5,-0.5c0.27614,0 0.5,0.22386 0.5,0.5c0,0.27614 -0.22386,0.5 -0.5,0.5c-0.27614,0 -0.5,-0.22386 -0.5,-0.5z" fill="#daecff" stroke="none" stroke-width="0.5"/><path d="M127.5596,228.19079c0,-0.27614 0.22386,-0.5 0.5,-0.5c0.27614,0 0.5,0.22386 0.5,0.5c0,0.27614 -0.22386,0.5 -0.5,0.5c-0.27614,0 -0.5,-0.22386 -0.5,-0.5z" fill="#daecff" stroke="none" stroke-width="0.5"/><path d="M148.1975,246.01444c0,-0.27614 0.22386,-0.5 0.5,-0.5c0.27614,0 0.5,0.22386 0.5,0.5c0,0.27614 -0.22386,0.5 -0.5,0.5c-0.27614,0 -0.5,-0.22386 -0.5,-0.5z" fill="#daecff" stroke="none" stroke-width="0.5"/><path d="M160.39262,215.99568c0,-0.27614 0.22386,-0.5 0.5,-0.5c0.27614,0 0.5,0.22386 0.5,0.5c0,0.27614 -0.22386,0.5 -0.5,0.5c-0.27614,0 -0.5,-0.22386 -0.5,-0.5z" fill="#daecff" stroke="none" stroke-width="0.5"/><path d="M174.46391,220.68611c0,-0.27614 0.22386,-0.5 0.5,-0.5c0.27614,0 0.5,0.22386 0.5,0.5c0,0.27614 -0.22386,0.5 -0.5,0.5c-0.27614,0 -0.5,-0.22386 -0.5,-0.5z" fill="#daecff" stroke="none" stroke-width="0.5"/><path d="M181.03052,197.23395c0,-0.27614 0.22386,-0.5 0.5,-0.5c0.27614,0 0.5,0.22386 0.5,0.5c0,0.27614 -0.22386,0.5 -0.5,0.5c-0.27614,0 -0.5,-0.22386 -0.5,-0.5z" fill="#daecff" stroke="none" stroke-width="0.5"/><path d="M211.98737,210.36717c0,-0.27614 0.22386,-0.5 0.5,-0.5c0.27614,0 0.5,0.22386 0.5,0.5c0,0.27614 -0.22386,0.5 -0.5,0.5c-0.27614,0 -0.5,-0.22386 -0.5,-0.5z" fill="#daecff" stroke="none" stroke-width="0.5"/><path d="M226.99675,185.03882c0,-0.27614 0.22386,-0.5 0.5,-0.5c0.27614,0 0.5,0.22386 0.5,0.5c0,0.27614 -0.22386,0.5 -0.5,0.5c-0.27614,0 -0.5,-0.22386 -0.5,-0.5z" fill="#daecff" stroke="none" stroke-width="0.5"/><path d="M245.75847,196.29587c0,-0.27614 0.22386,-0.5 0.5,-0.5c0.27614,0 0.5,0.22386 0.5,0.5c0,0.27614 -0.22386,0.5 -0.5,0.5c-0.27614,0 -0.5,-0.22386 -0.5,-0.5z" fill="#daecff" stroke="none" stroke-width="0.5"/><path d="M257.07742,170.96754c0,0.5 -0.5,0.5 -0.5,0.5c-0.33333,0 -1.54284,0 -1.87617,0c0,0 -0.5,0 -0.5,-0.5c0,-0.5 0.5,-0.5 0.5,-0.5c0.33333,0 0.66667,0 1,0h0.87617c0,0 0.5,0 0.5,0.5z" fill="#daecff" stroke="none" stroke-width="0.5"/><path d="M268.27254,175.65797c0,-0.27614 0.22386,-0.5 0.5,-0.5c0.27614,0 0.5,0.22386 0.5,0.5c0,0.27614 -0.22386,0.5 -0.5,0.5c-0.27614,0 -0.5,-0.22386 -0.5,-0.5z" fill="#daecff" stroke="none" stroke-width="0.5"/><path d="M276.71532,145.63921c0,-0.27614 0.22386,-0.5 0.5,-0.5c0.27614,0 0.5,0.22386 0.5,0.5c0,0.27614 -0.22386,0.5 -0.5,0.5c-0.27614,0 -0.5,-0.22386 -0.5,-0.5z" fill="#daecff" stroke="none" stroke-width="0.5"/><path d="M304.85791,170.02946c0,-0.27614 0.22386,-0.5 0.5,-0.5c0.27614,0 0.5,0.22386 0.5,0.5c0,0.27614 -0.22386,0.5 -0.5,0.5c-0.27614,0 -0.5,-0.22386 -0.5,-0.5z" fill="#daecff" stroke="none" stroke-width="0.5"/><path d="M321.74346,133.44409c0,-0.27614 0.22386,-0.5 0.5,-0.5c0.27614,0 0.5,0.22386 0.5,0.5c0,0.27614 -0.22386,0.5 -0.5,0.5c-0.27614,0 -0.5,-0.22386 -0.5,-0.5z" fill="#daecff" stroke="none" stroke-width="0.5"/><path d="M340.50519,140.0107c0,-0.27614 0.22386,-0.5 0.5,-0.5c0.27614,0 0.5,0.22386 0.5,0.5c0,0.27614 -0.22386,0.5 -0.5,0.5c-0.27614,0 -0.5,-0.22386 -0.5,-0.5z" fill="#daecff" stroke="none" stroke-width="0.5"/><path d="M347.07179,105.30149c0,-0.27614 0.22386,-0.5 0.5,-0.5c0.27614,0 0.5,0.22386 0.5,0.5c0,0.27614 -0.22386,0.5 -0.5,0.5c-0.27614,0 -0.5,-0.22386 -0.5,-0.5z" fill="#daecff" stroke="none" stroke-width="0.5"/><path d="M363.95735,115.62046c0,-0.27614 0.22386,-0.5 0.5,-0.5c0.27614,0 0.5,0.22386 0.5,0.5c0,0.27614 -0.22386,0.5 -0.5,0.5c-0.27614,0 -0.5,-0.22386 -0.5,-0.5z" fill="#daecff" stroke="none" stroke-width="0.5"/><path d="M371.46204,87.47786c0,-0.27614 0.22386,-0.5 0.5,-0.5c0.27614,0 0.5,0.22386 0.5,0.5c0,0.27614 -0.22386,0.5 -0.5,0.5c-0.27614,0 -0.5,-0.22386 -0.5,-0.5z" fill="#daecff" stroke="none" stroke-width="0.5"/><path d="M390.22376,94.98256c0,-0.27614 0.22386,-0.5 0.5,-0.5c0.27614,0 0.5,0.22386 0.5,0.5c0,0.27614 -0.22386,0.5 -0.5,0.5c-0.27614,0 -0.5,-0.22386 -0.5,-0.5z" fill="#daecff" stroke="none" stroke-width="0.5"/><path d="M402.41889,60.27335c0,-0.27614 0.22386,-0.5 0.5,-0.5c0.27614,0 0.5,0.22386 0.5,0.5c0,0.27614 -0.22386,0.5 -0.5,0.5c-0.27614,0 -0.5,-0.22386 -0.5,-0.5z" fill="#daecff" stroke="none" stroke-width="0.5"/><path d="M419.30444,83.72551c0,-0.27614 0.22386,-0.5 0.5,-0.5c0.27614,0 0.5,0.22386 0.5,0.5c0,0.27614 -0.22386,0.5 -0.5,0.5c-0.27614,0 -0.5,-0.22386 -0.5,-0.5z" fill="#daecff" stroke="none" stroke-width="0.5"/><path d="M429.62339,57.45909c0,-0.27614 0.22386,-0.5 0.5,-0.5c0.27614,0 0.5,0.22386 0.5,0.5c0,0.27614 -0.22386,0.5 -0.5,0.5c-0.27614,0 -0.5,-0.22386 -0.5,-0.5z" fill="#daecff" stroke="none" stroke-width="0.5"/><path d="M445.57086,72.46848c0,-0.27614 0.22386,-0.5 0.5,-0.5c0.27614,0 0.5,0.22386 0.5,0.5c0,0.27614 -0.22386,0.5 -0.5,0.5c-0.27614,0 -0.5,-0.22386 -0.5,-0.5z" fill="#daecff" stroke="none" stroke-width="0.5"/><path d="M419.30444,85.60168c0,-0.27614 0.22386,-0.5 0.5,-0.5c0.27614,0 0.5,0.22386 0.5,0.5c0,0.27614 -0.22386,0.5 -0.5,0.5c-0.27614,0 -0.5,-0.22386 -0.5,-0.5z" fill="#daecff" stroke="none" stroke-width="0.5"/><path d="M23.43202,69.65422c0,-0.27614 0.22386,-0.5 0.5,-0.5c0.27614,0 0.5,0.22386 0.5,0.5c0,0.27614 -0.22386,0.5 -0.5,0.5c-0.27614,0 -0.5,-0.22386 -0.5,-0.5z" fill="#daecff" stroke="none" stroke-width="0.5"/><path d="M119.11682,25.56416c0,-0.27614 0.22386,-0.5 0.5,-0.5c0.27614,0 0.5,0.22386 0.5,0.5c0,0.27614 -0.22386,0.5 -0.5,0.5c-0.27614,0 -0.5,-0.22386 -0.5,-0.5z" fill="#daecff" stroke="none" stroke-width="0.5"/><path d="M51.57461,93.10636c0,-0.27614 0.22386,-0.5 0.5,-0.5c0.27614,0 0.5,0.22386 0.5,0.5c0,0.27614 -0.22386,0.5 -0.5,0.5c-0.27614,0 -0.5,-0.22386 -0.5,-0.5z" fill="#daecff" stroke="none" stroke-width="0.5"/><path d="M188.53521,55.58292c0,-0.27614 0.22386,-0.5 0.5,-0.5c0.27614,0 0.5,0.22386 0.5,0.5c0,0.27614 -0.22386,0.5 -0.5,0.5c-0.27614,0 -0.5,-0.22386 -0.5,-0.5z" fill="#daecff" stroke="none" stroke-width="0.5"/><path d="M210.11119,31.19268c0,-0.27614 0.22386,-0.5 0.5,-0.5c0.27614,0 0.5,0.22386 0.5,0.5c0,0.27614 -0.22386,0.5 -0.5,0.5c-0.27614,0 -0.5,-0.22386 -0.5,-0.5z" fill="#daecff" stroke="none" stroke-width="0.5"/><path d="M75.96485,34.94502c0,-0.27614 0.22386,-0.5 0.5,-0.5c0.27614,0 0.5,0.22386 0.5,0.5c0,0.27614 -0.22386,0.5 -0.5,0.5c-0.27614,0 -0.5,-0.22386 -0.5,-0.5z" fill="#daecff" stroke="none" stroke-width="0.5"/><path d="M393.97611,255.39529c0,-0.27614 0.22386,-0.5 0.5,-0.5c0.27614,0 0.5,0.22386 0.5,0.5c0,0.27614 -0.22386,0.5 -0.5,0.5c-0.27614,0 -0.5,-0.22386 -0.5,-0.5z" fill="#daecff" stroke="none" stroke-width="0.5"/><path d="M429.62339,307.92814c0,-0.27614 0.22386,-0.5 0.5,-0.5c0.27614,0 0.5,0.22386 0.5,0.5c0,0.27614 -0.22386,0.5 -0.5,0.5c-0.27614,0 -0.5,-0.22386 -0.5,-0.5z" fill="#daecff" stroke="none" stroke-width="0.5"/><path d="M461.51832,199.11013c0,-0.27614 0.22386,-0.5 0.5,-0.5c0.27614,0 0.5,0.22386 0.5,0.5c0,0.27614 -0.22386,0.5 -0.5,0.5c-0.27614,0 -0.5,-0.22386 -0.5,-0.5z" fill="#daecff" stroke="none" stroke-width="0.5"/><path d="M434.31382,307.92814c0,-0.27614 0.22386,-0.5 0.5,-0.5c0.27614,0 0.5,0.22386 0.5,0.5c0,0.27614 -0.22386,0.5 -0.5,0.5c-0.27614,0 -0.5,-0.22386 -0.5,-0.5z" fill="#daecff" stroke="none" stroke-width="0.5"/><path d="M333.0005,329.50413c0,-0.27614 0.22386,-0.5 0.5,-0.5c0.27614,0 0.5,0.22386 0.5,0.5c0,0.27614 -0.22386,0.5 -0.5,0.5c-0.27614,0 -0.5,-0.22386 -0.5,-0.5z" fill="#daecff" stroke="none" stroke-width="0.5"/><path d="M143.50707,336.07075c0,-0.27614 0.22386,-0.5 0.5,-0.5c0.27614,0 0.5,0.22386 0.5,0.5c0,0.27614 -0.22386,0.5 -0.5,0.5c-0.27614,0 -0.5,-0.22386 -0.5,-0.5z" fill="#daecff" stroke="none" stroke-width="0.5"/><path d="M75.02677,356.70865c0,-0.27614 0.22386,-0.5 0.5,-0.5c0.27614,0 0.5,0.22386 0.5,0.5c0,0.27614 -0.22386,0.5 -0.5,0.5c-0.27614,0 -0.5,-0.22386 -0.5,-0.5z" fill="#daecff" stroke="none" stroke-width="0.5"/><path d="M316.11495,341.69924c0,-0.27614 0.22386,-0.5 0.5,-0.5c0.27614,0 0.5,0.22386 0.5,0.5c0,0.27614 -0.22386,0.5 -0.5,0.5c-0.27614,0 -0.5,-0.22386 -0.5,-0.5z" fill="#daecff" stroke="none" stroke-width="0.5"/><path d="M419.30444,272.28085c0,-0.27614 0.22386,-0.5 0.5,-0.5c0.27614,0 0.5,0.22386 0.5,0.5c0,0.27614 -0.22386,0.5 -0.5,0.5c-0.27614,0 -0.5,-0.22386 -0.5,-0.5z" fill="#daecff" stroke="none" stroke-width="0.5"/><path d="M441.81851,238.50976c0,-0.27614 0.22386,-0.5 0.5,-0.5c0.27614,0 0.5,0.22386 0.5,0.5c0,0.27614 -0.22386,0.5 -0.5,0.5c-0.27614,0 -0.5,-0.22386 -0.5,-0.5z" fill="#daecff" stroke="none" stroke-width="0.5"/><path d="M60.95547,151.26772c0,-0.27614 0.22386,-0.5 0.5,-0.5c0.27614,0 0.5,0.22386 0.5,0.5c0,0.27614 -0.22386,0.5 -0.5,0.5c-0.27614,0 -0.5,-0.22386 -0.5,-0.5z" fill="#daecff" stroke="none" stroke-width="0.5"/><path d="M170.46157,55.58292c0,-0.41421 0.33579,-0.75 0.75,-0.75c0.41421,0 0.75,0.33579 0.75,0.75c0,0.41421 -0.33579,0.75 -0.75,0.75c-0.41421,0 -0.75,-0.33579 -0.75,-0.75z" fill="#daecff" stroke="none" stroke-width="0.5"/><path d="M393.72611,331.3803c0,-0.41421 0.33579,-0.75 0.75,-0.75c0.41421,0 0.75,0.33579 0.75,0.75c0,0.41421 -0.33579,0.75 -0.75,0.75c-0.41421,0 -0.75,-0.33579 -0.75,-0.75z" fill="#daecff" stroke="none" stroke-width="0.5"/><path d="M448.13511,342.63735c0,-0.41421 0.33579,-0.75 0.75,-0.75c0.41421,0 0.75,0.33579 0.75,0.75c0,0.41421 -0.33579,0.75 -0.75,0.75c-0.41421,0 -0.75,-0.33579 -0.75,-0.75z" fill="#daecff" stroke="none" stroke-width="0.5"/><path d="M265.20828,347.32778c0,-0.41421 0.33579,-0.75 0.75,-0.75c0.41421,0 0.75,0.33579 0.75,0.75c0,0.41421 -0.33579,0.75 -0.75,0.75c-0.41421,0 -0.75,-0.33579 -0.75,-0.75z" fill="#daecff" stroke="none" stroke-width="0.5"/><path d="M405.92123,206.61483c0,-0.41421 0.33579,-0.75 0.75,-0.75c0.41421,0 0.75,0.33579 0.75,0.75c0,0.41421 -0.33579,0.75 -0.75,0.75c-0.41421,0 -0.75,-0.33579 -0.75,-0.75z" fill="#daecff" stroke="none" stroke-width="0.5"/><path d="M393.72611,15.2452c0,-0.41421 0.33579,-0.75 0.75,-0.75c0.41421,0 0.75,0.33579 0.75,0.75c0,0.41421 -0.33579,0.75 -0.75,0.75c-0.41421,0 -0.75,-0.33579 -0.75,-0.75z" fill="#daecff" stroke="none" stroke-width="0.5"/><path d="M269.89872,3.98817c0,-0.41421 0.33579,-0.75 0.75,-0.75c0.41421,0 0.75,0.33579 0.75,0.75c0,0.41421 -0.33579,0.75 -0.75,0.75c-0.41421,0 -0.75,-0.33579 -0.75,-0.75z" fill="#daecff" stroke="none" stroke-width="0.5"/><path d="M94.47658,98.73489c0,-0.41421 0.33579,-0.75 0.75,-0.75c0.41421,0 0.75,0.33579 0.75,0.75c0,0.41421 -0.33579,0.75 -0.75,0.75c-0.41421,0 -0.75,-0.33579 -0.75,-0.75z" fill="#daecff" stroke="none" stroke-width="0.5"/><path d="M438.50425,288.22835c0,-0.55228 0.44772,-1 1,-1c0.55228,0 1,0.44772 1,1c0,0.55228 -0.44772,1 -1,1c-0.55228,0 -1,-0.44772 -1,-1z" fill="#daecff" stroke="none" stroke-width="0.5"/><path d="M94.22658,49.01631c0,-0.55228 0.44772,-1 1,-1c0.55228,0 1,0.44772 1,1c0,0.55228 -0.44772,1 -1,1c-0.55228,0 -1,-0.44772 -1,-1z" fill="#daecff" stroke="none" stroke-width="0.5"/></g></g></svg>