<svg version="1.1" xmlns="http://www.w3.org/2000/svg" xmlns:xlink="http://www.w3.org/1999/xlink" width="32.96091" height="35.38374" viewBox="0,0,32.96091,35.38374"><g transform="translate(-223.59436,-161.9313)"><g data-paper-data="{&quot;isPaintingLayer&quot;:true}" fill-rule="nonzero" stroke-linejoin="miter" stroke-miterlimit="10" stroke-dasharray="" stroke-dashoffset="0" style="mix-blend-mode: normal"><path d="M225.94187,190.69647l-0.06341,-5.62394l-1.41928,-7.20112l3.73192,-2.88121l-2.49688,-2.82658c0,0 3.08075,-2.58161 3.16458,-3.73237c0.10924,-1.49957 -2.82187,-1.21458 -2.82187,-1.21458l3.90255,-3.11698l2.95461,2.9662l7.30769,-2.42925l3.92484,2.91907l2.22773,-3.75002l1.75562,6.10202l5.39927,2.82243l-1.4016,3.52059l3.43318,3.97648c0,0 -2.05549,2.13653 -2.63299,3.86934c-0.5775,1.73281 -0.72943,6.21968 -0.72943,6.21968l-4.07746,0.12698l-2.74897,3.83026l-5.76434,-1.78474l-3.12318,3.70557c0,0 -3.85358,-4.01395 -5.69908,-4.97818c-1.63695,-0.85527 -4.8235,-0.51965 -4.8235,-0.51965z" fill="#fffadf" stroke="#000000" stroke-width="1.5" stroke-linecap="butt"/><path d="M242.60177,177.85708c0,0 -2.27129,-2.90619 -3.62398,-3.72692c-0.982,-0.59582 -3.18234,-1.14255 -3.18234,-1.14255l2.17969,-1.64535l1.04978,-2.84939c0,0 2.7795,-0.09356 3.9288,0.47938c1.20459,0.6005 3.14067,3.04482 3.14067,3.04482l-2.34345,2.8234z" fill="#ff5454" stroke="#000000" stroke-width="1.5" stroke-linecap="butt"/><path d="M226.64409,172.2336c0,0 2.61886,-3.34096 2.41428,-3.77059c-0.48059,-1.00923 -1.93898,-1.64782 -1.93898,-1.64782l2.94686,-2.3765c0,0 1.60397,2.03918 3.13841,2.16947c1.786,0.15165 6.93794,-1.31393 6.93794,-1.31393c0,0 -0.41837,4.47335 -2.04858,5.31143c-0.61384,0.31557 -2.58161,2.76513 -3.84958,2.80086c-1.13157,0.03188 -1.53163,-2.34248 -2.66772,-2.22428c-2.75953,0.28711 -4.93264,1.05136 -4.93264,1.05136z" fill="#d9c290" stroke="none" stroke-width="0" stroke-linecap="butt"/><path d="M240.71296,165.29423l-3.04412,6.01568l-3.4258,2.2713l-2.96102,-2.52732l-4.35276,1.27478" fill="none" stroke="#000000" stroke-width="1.5" stroke-linecap="round"/><path d="M229.59094,184.02103v-4.18264l2.47156,-1.52096l-0.19012,-2.8518l4.86581,2.95159z" fill="#d9c290" stroke="none" stroke-width="0" stroke-linecap="butt"/><path d="M247.84245,190.96041v-4.94312l-0.76048,-3.99252l6.86206,-1.23104l-2.17266,9.73052z" fill="#d9c290" stroke="none" stroke-width="0" stroke-linecap="butt"/><path d="M225.94187,190.69647l-0.06341,-5.62394l-1.41928,-7.20112l3.73192,-2.88121l-2.49688,-2.82658c0,0 3.08075,-2.58161 3.16458,-3.73237c0.10924,-1.49957 -2.82187,-1.21458 -2.82187,-1.21458l3.90255,-3.11698l2.95461,2.9662l7.30769,-2.42925l3.92484,2.91907l2.22773,-3.75002l1.75562,6.10202l5.39927,2.82243l-1.4016,3.52059l3.43318,3.97648c0,0 -2.05549,2.13653 -2.63299,3.86934c-0.5775,1.73281 -0.72943,6.21968 -0.72943,6.21968l-4.07746,0.12698l-2.74897,3.83026l-5.76434,-1.78474l-3.12318,3.70557c0,0 -3.85358,-4.01395 -5.69908,-4.97818c-1.63695,-0.85527 -4.8235,-0.51965 -4.8235,-0.51965z" fill="none" stroke="#000000" stroke-width="1.5" stroke-linecap="butt"/><path d="M238.43152,185.35187l-1.80614,-3.51722l4.84806,-1.9012l1.99626,-5.03818l1.72883,2.76148l-1.31712,5.738z" fill="#d9c290" stroke="none" stroke-width="0" stroke-linecap="butt"/><path d="M244.99066,177.65202l-1.10514,-3.33812l4.33717,-4.26668" fill="none" stroke="#000000" stroke-width="1.5" stroke-linecap="round"/><path d="M238.33646,185.44693l-2.37683,-3.32778l5.56568,-2.32733l2.03945,-5.18172" fill="none" stroke="#000000" stroke-width="1.5" stroke-linecap="round"/><path d="M229.87612,183.73585l-0.34908,-3.30787l3.00007,-2.47842l-0.65473,-2.48393" fill="none" stroke="#000000" stroke-width="1.5" stroke-linecap="round"/><path d="M233.4884,181.64454l-0.33533,3.91282l-6.41393,4.64257" fill="none" stroke="#000000" stroke-width="1.5" stroke-linecap="round"/><path d="M247.74739,190.48511l0.60737,-4.71518l-1.88262,-3.83725l8.88004,-1.52392" fill="none" stroke="#000000" stroke-width="1.5" stroke-linecap="round"/><path d="M240.04754,189.24933l3.8021,-3.37394l4.08787,0.23696" fill="none" stroke="#000000" stroke-width="1.5" stroke-linecap="round"/></g></g></svg>