<svg version="1.1" xmlns="http://www.w3.org/2000/svg" xmlns:xlink="http://www.w3.org/1999/xlink" width="17.15508" height="18.60992" viewBox="0,0,17.15508,18.60992"><g transform="translate(-232.62195,-170.5766)"><g data-paper-data="{&quot;isPaintingLayer&quot;:true}" fill-rule="nonzero" stroke-linecap="butt" stroke-linejoin="miter" stroke-miterlimit="10" stroke-dasharray="" stroke-dashoffset="0" style="mix-blend-mode: normal"><path d="M234.12322,180.00001c0,0 3.32371,-0.75779 4.2573,-1.69138c1.01801,-1.01801 1.61948,-4.1854 1.61948,-4.1854c0,0 0.79588,3.27558 1.7745,4.2542c0.98031,0.98031 4.10228,1.62259 4.10228,1.62259c0,0 -3.06507,0.5707 -4.01641,1.52205c-1.00467,1.00467 -1.86037,4.35473 -1.86037,4.35473c0,0 -0.67452,-3.21198 -1.6407,-4.17816c-0.99207,-0.99207 -4.23609,-1.69862 -4.23609,-1.69862z" fill="#ffcccc" stroke="#ffe6e6" stroke-width="1.5"/><path d="M238.54791,180.00001c0,0 0.82125,-0.18724 1.05193,-0.41792c0.25154,-0.25154 0.40016,-1.03417 0.40016,-1.03417c0,0 0.19665,0.80936 0.43846,1.05116c0.24222,0.24222 1.01363,0.40092 1.01363,0.40092c0,0 -0.75735,0.14102 -0.99241,0.37608c-0.24825,0.24825 -0.45968,1.07601 -0.45968,1.07601c0,0 -0.16666,-0.79365 -0.40539,-1.03238c-0.24513,-0.24513 -1.04669,-0.41971 -1.04669,-0.41971z" fill="#ffb3b3" stroke="none" stroke-width="0"/></g></g></svg>