<svg version="1.1" xmlns="http://www.w3.org/2000/svg" xmlns:xlink="http://www.w3.org/1999/xlink" width="32.62136" height="36.85586" viewBox="0,0,32.62136,36.85586"><g transform="translate(-223.68932,-161.57207)"><g data-paper-data="{&quot;isPaintingLayer&quot;:true}" fill-rule="nonzero" stroke-linejoin="miter" stroke-miterlimit="10" stroke-dasharray="" stroke-dashoffset="0" style="mix-blend-mode: normal"><path d="M243.86215,187.78829c-0.41253,0.76446 -1.15693,1.94854 -1.97545,2.16204c-0.376,0.09807 -1.71846,-0.57327 -1.81356,-0.68654c-0.22704,-0.2704 -1.10995,0.72339 -1.55179,0.59652c-0.6418,-0.1843 -0.80666,-0.72175 -1.00582,-0.74363c-0.43248,-0.0475 -2.40995,0.48445 -2.45541,0.46074c-0.19725,-0.10287 -0.06237,-2.32184 -0.17757,-2.42847c-0.47078,-0.43574 -1.65771,0.84185 -2.04592,0.47189c-0.90399,-0.86148 -1.21219,-1.89786 -0.44952,-2.95976c2.45214,-3.41421 2.40067,-2.32697 3.62451,-5.4458c0.66727,-1.70048 0.54115,-4.79815 0.14246,-6.42398c-0.1846,-0.75277 -0.4641,-1.49924 -0.75582,-2.17958c-0.28715,-0.66969 0.44924,-0.41239 0.89335,-0.79501c0.34667,-0.29867 0.91737,0.15971 1.29676,-0.08559c0.31139,-0.20133 0.41635,-1.16751 0.82324,-0.93862c0,0 11.0237,8.66826 5.45055,18.99579z" fill="#f4e4e4" stroke="#000000" stroke-width="1" stroke-linecap="butt"/><path d="M236.38592,178.25547l2.20975,-1.10488l0.29463,-1.32585l0.73658,0.36829" fill="none" stroke="#000000" stroke-width="1" stroke-linecap="round"/><path d="M238.66933,179.06572l-0.8839,-1.47317" fill="none" stroke="#000000" stroke-width="1" stroke-linecap="round"/><path d="M243.97273,186.94716l-1.32585,-0.51561l-0.44195,-1.17853" fill="none" stroke="#000000" stroke-width="1" stroke-linecap="round"/><path d="M242.49957,186.35789h-1.47317" fill="none" stroke="#000000" stroke-width="1" stroke-linecap="round"/><path d="M223.68932,198.42793v-36.85586h32.62136v36.85586z" fill="none" stroke="none" stroke-width="none" stroke-linecap="butt"/></g></g></svg>