<svg version="1.1" xmlns="http://www.w3.org/2000/svg" xmlns:xlink="http://www.w3.org/1999/xlink" width="32.62136" height="36.85586" viewBox="0,0,32.62136,36.85586"><g transform="translate(-223.68932,-161.57207)"><g data-paper-data="{&quot;isPaintingLayer&quot;:true}" fill-rule="nonzero" stroke-linejoin="miter" stroke-miterlimit="10" stroke-dasharray="" stroke-dashoffset="0" style="mix-blend-mode: normal"><path d="M236.57581,188.53988c-5.08953,-7.40235 -1.04961,-20.31016 7.89092,-21.18492c0.52489,-0.05136 -1.07505,2.63793 -1.46095,5.2827c-0.24204,1.65885 -0.02455,4.75251 0.88386,6.37297c1.66611,2.97206 1.48721,1.89634 4.5028,5.03235c0.65925,0.68557 -1.52473,1.3367 -1.87019,2.07609c-0.28796,0.6163 0.36045,1.32226 -0.33578,1.89586c-0.65724,0.54148 -2.03904,-0.2753 -2.17154,-0.29198c-0.49435,-0.06225 -0.69955,2.44838 -1.59001,2.60745c-0.96698,0.17275 -1.75921,-1.87882 -2.55696,-0.66499c-0.71923,1.09437 -2.66516,-0.21364 -3.29214,-1.12553z" fill="#f4e4e4" stroke="#000000" stroke-width="1" stroke-linecap="butt"/><path d="M234.50022,182.51187l2.3217,0.64003l0.62811,1.45143l0.65642,-0.228l0.68697,1.02599" fill="none" stroke="#000000" stroke-width="1" stroke-linecap="round"/><path d="M238.19884,184.2606l1.18543,-0.18031" fill="none" stroke="#000000" stroke-width="1" stroke-linecap="round"/><path d="M242.1894,168.38732l-0.81441,2.05552l-1.01631,0.65313l-0.8373,-0.06515" fill="none" stroke="#000000" stroke-width="1" stroke-linecap="round"/><path d="M241.53336,170.65603l0.29608,1.35788l-0.9718,0.74731l-0.15934,0.88181" fill="none" stroke="#000000" stroke-width="1" stroke-linecap="round"/><path d="M223.68932,198.42793v-36.85586h32.62136v36.85586z" fill="none" stroke="none" stroke-width="none" stroke-linecap="butt"/></g></g></svg>