<svg version="1.1" xmlns="http://www.w3.org/2000/svg" xmlns:xlink="http://www.w3.org/1999/xlink" width="62.5944" height="43.1972" viewBox="0,0,62.5944,43.1972"><g transform="translate(-207.71437,-166.92539)"><g data-paper-data="{&quot;isPaintingLayer&quot;:true}" fill="none" fill-rule="nonzero" stroke="#ffffff" stroke-width="2" stroke-linejoin="miter" stroke-miterlimit="10" stroke-dasharray="" stroke-dashoffset="0" style="mix-blend-mode: normal"><path d="M218.18873,168.53892c-0.01192,0.57727 -0.32692,10.42719 0,10.88562c0.31805,0.44598 5.64377,1.45499 5.60169,-2.46786c-0.04378,-4.08119 -5.3385,-3.13401 -5.3385,-3.13401c0,0 5.12684,0.07588 4.8519,-3.08481c-0.34287,-3.94176 -5.11092,-2.40123 -5.11509,-2.19895z" stroke-linecap="round"/><path d="M233.64011,174.09972c0,3.4404 -1.53651,5.50739 -3.83868,5.61867c-2.52693,0.12214 -3.61616,-1.56754 -3.61616,-5.00795c0,-2.58539 1.20049,-6.22939 3.50489,-6.22939c2.3044,0 3.94995,1.20111 3.94995,5.61867z" stroke-linecap="butt"/><path d="M235.86544,180.05274c0,0 0.21048,-12.09373 0.3338,-12.12802c0.79136,-0.22001 2.28789,11.93938 5.45204,11.90548c3.81379,-0.04085 1.89153,-11.23789 1.89153,-11.23789" stroke-linecap="round"/><path d="M246.76953,168.48105c0,0 -1.0743,10.9597 3.32818,11.19609c4.47765,0.24042 3.68159,-11.30736 3.68159,-11.30736" stroke-linecap="round"/><path d="M261.79047,169.37118c0,0 -3.59386,-3.648 -5.40754,0.64534c-2.16261,5.11935 6.94592,1.7922 5.12811,7.68619c-1.40976,4.57098 -5.95148,1.23736 -5.95148,1.23736" stroke-linecap="round"/><path d="M208.71438,187.79318c0,0 3.66234,-5.22089 3.74823,-4.04764c0.05773,0.78854 -0.07644,11.61374 -0.07644,11.61374" stroke-linecap="round"/><path d="M217.83821,183.03416c0,0 -2.75278,-0.39301 -2.78166,-0.1367c-0.05958,0.52892 -0.10583,3.83812 0,4.64775c0.03829,0.29292 2.33659,0.1367 2.33659,0.1367" stroke-linecap="round"/><path d="M215.61288,185.45659l1.22393,-0.11127" stroke-linecap="round"/><path d="M219.61846,188.01571c0,0 -0.02844,-4.7516 0.01833,-5.31198c0.01128,-0.13511 2.95973,-0.70681 2.81571,0.79772c-0.18518,1.93454 -2.47958,1.23386 -2.38897,1.62134c0.02348,0.1004 1.00414,0.64027 1.62694,1.35713c0.5881,0.67693 0.82092,1.53579 0.82092,1.53579" stroke-linecap="round"/><path d="M234.84798,185.23405c0,0 -3.26174,-2.83006 -5.25394,-0.42837c-2.35018,2.83324 -3.14165,7.35583 0.36471,9.70427c2.39145,1.60172 3.79854,-4.33156 3.77657,-3.49006c-0.01995,0.76397 0.55633,4.11685 0.55633,4.11685" stroke-linecap="round"/><path d="M231.50999,189.90723l3.67179,0.6676" stroke-linecap="round"/><path d="M244.85495,189.73308c0,3.4404 -1.53651,5.50739 -3.83868,5.61867c-2.52693,0.12214 -3.61615,-1.56754 -3.61615,-5.00795c0,-2.58539 1.20049,-6.2294 3.50489,-6.2294c2.3044,0 3.94995,1.20111 3.94995,5.61867z" stroke-linecap="butt"/><path d="M247.18317,184.45519c0,0 -0.35802,8.3998 -0.09633,10.2604c0.083,0.5901 5.77091,0.08736 5.77091,0.08736" stroke-linecap="round"/><path d="M254.86054,195.47055c0,0 -0.48818,-10.3082 -0.5128,-11.01043c-0.01714,-0.48896 5.94903,-1.20563 6.42263,2.04172c0.68156,4.6733 -6.0211,2.7378 -6.0211,2.7378" stroke-linecap="round"/><path d="M269.30878,183.85614c0,0 -6.62787,-0.51627 -6.40039,0.67955c0.0716,0.37643 0.08399,10.12677 0.19583,10.95066c0.07034,0.51821 6.20457,0.14651 6.20457,0.14651" stroke-linecap="round"/><path d="M263.4881,189.54145l3.38412,0.13537" stroke-linecap="round"/><path d="M212.28656,205.6635l3.55125,-3.06699" stroke-linecap="round"/><path d="M212.44798,201.95082l3.22842,3.8741" stroke-linecap="round"/><path d="M217.50938,201.58974c0,0 2.4913,-3.06482 4.53235,-0.44331c1.29304,1.57717 -1.06382,3.33491 -2.36194,4.02923c-2.00573,1.0728 -2.5584,3.69739 -2.36841,3.67632c0.46573,-0.05166 4.97104,-0.10268 4.97104,-0.10268" stroke-linecap="round"/><path d="M239.73473,208.62792c0,0 0.13744,-7.8969 0.21797,-7.91929c0.51674,-0.14366 1.49392,7.79612 3.56004,7.77398c2.49031,-0.02668 1.23512,-7.33805 1.23512,-7.33805" stroke-linecap="round"/><path d="M233.01943,201.0719c0,0 -0.70149,7.15641 2.17321,7.31077c2.9238,0.15699 2.40399,-7.38342 2.40399,-7.38342" stroke-linecap="round"/><path d="M264.54838,202.1082c0,0 -2.3467,-2.38205 -3.53099,0.42139c-1.41213,3.3428 4.53551,1.17026 3.34852,5.01889c-0.92054,2.98473 -3.88617,0.80796 -3.88617,0.80796" stroke-linecap="round"/><path d="M258.77678,205.04358c0,2.2465 -1.0033,3.59619 -2.50656,3.66885c-1.65002,0.07976 -2.36126,-1.02356 -2.36126,-3.27006c0,-1.68819 0.78389,-4.06764 2.2886,-4.06764c1.50471,0 2.57922,0.78429 2.57922,3.66885z" stroke-linecap="butt"/><path d="M226.98321,208.35377c0,0 -0.31877,-6.73099 -0.33485,-7.18953c-0.01119,-0.31928 3.88457,-0.78724 4.19382,1.33319c0.44504,3.05155 -3.93162,1.78771 -3.93162,1.78771" stroke-linecap="round"/><path d="M246.98138,200.97099c0,0 1.86232,0.0797 2.79306,0.03981c0.93017,-0.03986 2.94916,-0.27907 2.94916,-0.27907" stroke-linecap="round"/><path d="M249.69299,201.05074v7.65629" stroke-linecap="round"/></g></g></svg>