<svg version="1.1" xmlns="http://www.w3.org/2000/svg" xmlns:xlink="http://www.w3.org/1999/xlink" width="125.86928" height="125.86928" viewBox="0,0,125.86928,125.86928"><defs><radialGradient cx="240" cy="180" r="62.93464" gradientUnits="userSpaceOnUse" id="color-1"><stop offset="0" stop-color="#ca8f8f"/><stop offset="1" stop-color="#ca8f8f" stop-opacity="0"/></radialGradient><radialGradient cx="240" cy="180" r="39.93464" gradientUnits="userSpaceOnUse" id="color-2"><stop offset="0" stop-color="#ffeace"/><stop offset="1" stop-color="#ffeace" stop-opacity="0"/></radialGradient><radialGradient cx="240" cy="180" r="24.93464" gradientUnits="userSpaceOnUse" id="color-3"><stop offset="0" stop-color="#ffed87"/><stop offset="1" stop-color="#ffed87" stop-opacity="0"/></radialGradient></defs><g transform="translate(-177.06536,-117.06536)"><g data-paper-data="{&quot;isPaintingLayer&quot;:true}" fill-rule="nonzero" stroke="none" stroke-width="0" stroke-linecap="butt" stroke-linejoin="miter" stroke-miterlimit="10" stroke-dasharray="" stroke-dashoffset="0" style="mix-blend-mode: normal"><path d="M177.06536,180c0,-34.75785 28.17679,-62.93464 62.93464,-62.93464c34.75785,0 62.93464,28.17679 62.93464,62.93464c0,34.75785 -28.17679,62.93464 -62.93464,62.93464c-34.75785,0 -62.93464,-28.17679 -62.93464,-62.93464z" fill="url(#color-1)"/><path d="M200.06536,180c0,-22.0553 17.87934,-39.93464 39.93464,-39.93464c22.0553,0 39.93464,17.87934 39.93464,39.93464c0,22.0553 -17.87934,39.93464 -39.93464,39.93464c-22.0553,0 -39.93464,-17.87934 -39.93464,-39.93464z" fill="url(#color-2)"/><path d="M215.06536,180c0,-13.77103 11.16362,-24.93464 24.93464,-24.93464c13.77103,0 24.93464,11.16362 24.93464,24.93464c0,13.77103 -11.16362,24.93464 -24.93464,24.93464c-13.77103,0 -24.93464,-11.16362 -24.93464,-24.93464z" fill="url(#color-3)"/><path d="M227.5,180c0,-6.90356 5.59644,-12.5 12.5,-12.5c6.90356,0 12.5,5.59644 12.5,12.5c0,6.90356 -5.59644,12.5 -12.5,12.5c-6.90356,0 -12.5,-5.59644 -12.5,-12.5z" fill="#fffbe4"/></g></g></svg>