<svg version="1.1" xmlns="http://www.w3.org/2000/svg" xmlns:xlink="http://www.w3.org/1999/xlink" width="101.85492" height="17.10313" viewBox="0,0,101.85492,17.10313"><g transform="translate(-189.07254,-171.44785)"><g data-paper-data="{&quot;isPaintingLayer&quot;:true}" fill="none" fill-rule="nonzero" stroke="#ffffff" stroke-width="3" stroke-linejoin="miter" stroke-miterlimit="10" stroke-dasharray="" stroke-dashoffset="0" style="mix-blend-mode: normal"><path d="M196.49325,178.06907c0,0 4.02017,-5.63158 4.05281,-5.08368c0.07301,1.22562 -0.12943,13.73819 -0.12943,13.73819" stroke-linecap="round"/><path d="M229.98826,179.98249c0.92307,3.6575 -2.6365,6.79025 -5.88813,6.83441c-5.21463,0.07082 -6.16908,-3.07056 -5.88813,-6.83441c0.35048,-4.69523 2.63768,-6.73547 5.88813,-6.8344c4.65386,-0.14164 5.25725,4.33468 5.88813,6.83441c0,0 -0.92307,-3.65751 0,-0.00001z" stroke-linecap="butt"/><path d="M244.7273,180.21657c0.92307,3.6575 -2.6365,6.79025 -5.88813,6.83441c-5.21463,0.07082 -6.16908,-3.07056 -5.88813,-6.83441c0.35048,-4.69523 2.63768,-6.73547 5.88813,-6.8344c4.65386,-0.14164 5.25725,4.33468 5.88813,6.83441c0,0 -0.92307,-3.65751 0,-0.00001z" stroke-linecap="butt"/><path d="M259.46634,179.82902c0.92307,3.6575 -2.6365,6.79025 -5.88813,6.83441c-5.21463,0.07082 -6.16908,-3.07056 -5.88813,-6.83441c0.35048,-4.69523 2.63768,-6.73547 5.88813,-6.8344c4.65386,-0.14164 5.25725,4.33468 5.88813,6.83441c0,0 -0.92307,-3.65751 0,-0.00001z" stroke-linecap="butt"/><path d="M190.57254,181.69514h4.89975" stroke-linecap="round"/><path d="M193.04729,184.16989v-4.89975" stroke-linecap="round"/><path d="M263.6731,186.13709c0,0 -0.0369,-6.64777 -0.07957,-7.09235c-0.03857,-0.40184 5.85114,-0.18326 5.84304,1.35994c-0.01176,2.24293 -5.27432,2.06919 -5.27432,2.06919" stroke-linecap="round"/><path d="M289.42746,179.37214c0,0 -4.04121,-1.24575 -6.36296,0.3003c-0.84784,0.56457 -1.1012,3.13215 2.6565,2.91388c4.10265,-0.2383 4.07008,2.08205 2.2065,2.91418c-3.43408,1.53339 -5.83142,0.12885 -5.83142,0.12885" stroke-linecap="round"/><path d="M272.3199,179.06265c0,0 2.09419,-0.157 3.26425,-0.17625c1.26613,-0.02084 4.06712,0.05558 4.06712,0.05558" stroke-linecap="round"/><path d="M276.04199,179.18332l-0.33837,6.99871" stroke-linecap="round"/><path d="M214.94335,179.97126c0.92307,3.6575 -2.6365,6.79025 -5.88813,6.83441c-5.21463,0.07082 -6.16908,-3.07056 -5.88813,-6.83441c0.35048,-4.69523 2.63768,-6.73547 5.88813,-6.8344c4.65386,-0.14164 5.25725,4.33468 5.88813,6.83441c0,0 -0.92307,-3.65751 0,-0.00001z" stroke-linecap="butt"/></g></g></svg>