<svg version="1.1" xmlns="http://www.w3.org/2000/svg" xmlns:xlink="http://www.w3.org/1999/xlink" width="1767.26727" height="1767.26727" viewBox="0,0,1767.26727,1767.26727"><defs><radialGradient cx="240" cy="180" r="31.92103" gradientUnits="userSpaceOnUse" id="color-1"><stop offset="0" stop-color="#fffceb"/><stop offset="1" stop-color="#fffceb" stop-opacity="0"/></radialGradient></defs><g transform="translate(643.63363,703.63363)"><g data-paper-data="{&quot;isPaintingLayer&quot;:true}" fill-rule="nonzero" stroke="none" stroke-width="0" stroke-linecap="butt" stroke-linejoin="miter" stroke-miterlimit="10" stroke-dasharray="" stroke-dashoffset="0" style="mix-blend-mode: normal"><path d="M208.07897,180c0,-17.6295 14.29153,-31.92103 31.92103,-31.92103c17.6295,0 31.92103,14.29153 31.92103,31.92103c0,17.6295 -14.29153,31.92103 -31.92103,31.92103c-17.6295,0 -31.92103,-14.29153 -31.92103,-31.92103z" fill="url(#color-1)"/><path d="M226.1567,180c0,-7.64544 6.19786,-13.8433 13.84331,-13.8433c7.64544,0 13.84331,6.19785 13.84331,13.8433c0,7.64544 -6.19786,13.84331 -13.84331,13.84331c-7.64544,0 -13.8433,-6.19786 -13.8433,-13.8433z" fill="#fffdf2"/><path d="M239.17097,179.34219l-0.63333,-2.38777l437.7262,-13.05062l-0.07765,23.13155z" fill="#fffdf2"/><path d="M240.62872,180.19102l-1.15381,1.21771l-188.29812,-395.24692l13.74046,-6.1368z" fill="#fffdf2"/><path d="M238.73842,180.2245l0.97469,-0.39197l-110.10071,423.678l-7.81685,-2.19938z" fill="#fffdf2"/><path d="M235.37374,178.41185l3.52656,0.88265l-160.76812,407.60354l-31.62817,-14.22289z" fill="#fffdf2"/><path d="M-643.63363,180c0,-488.01738 395.61625,-883.63363 883.63363,-883.63363c488.01738,0 883.63363,395.61625 883.63363,883.63363c0,488.01738 -395.61625,883.63363 -883.63363,883.63363c-488.01738,0 -883.63363,-395.61625 -883.63363,-883.63363z" fill="none"/></g></g></svg>