<svg version="1.1" xmlns="http://www.w3.org/2000/svg" xmlns:xlink="http://www.w3.org/1999/xlink" width="1740.24024" height="1740.24024" viewBox="0,0,1740.24024,1740.24024"><defs><radialGradient cx="240" cy="180" r="55.79552" gradientUnits="userSpaceOnUse" id="color-1"><stop offset="0" stop-color="#fffceb"/><stop offset="1" stop-color="#fffceb" stop-opacity="0"/></radialGradient></defs><g transform="translate(630.12012,690.12012)"><g data-paper-data="{&quot;isPaintingLayer&quot;:true}" fill-rule="nonzero" stroke="none" stroke-width="0" stroke-linecap="butt" stroke-linejoin="miter" stroke-miterlimit="10" stroke-dasharray="" stroke-dashoffset="0" style="mix-blend-mode: normal"><path d="M184.20448,180c0,-30.81502 24.9805,-55.79552 55.79552,-55.79552c30.81502,0 55.79552,24.9805 55.79552,55.79552c0,30.81502 -24.9805,55.79552 -55.79552,55.79552c-30.81502,0 -55.79552,-24.9805 -55.79552,-55.79552z" fill="url(#color-1)"/><path d="M215.80297,180c0,-13.36365 10.83338,-24.19703 24.19704,-24.19703c13.36365,0 24.19704,10.83338 24.19704,24.19704c0,13.36365 -10.83338,24.19704 -24.19704,24.19704c-13.36365,0 -24.19703,-10.83338 -24.19703,-24.19703z" fill="#fffdf2"/><path d="M239.17097,182.76818l-0.63333,-4.50016l437.7262,-24.59615l-0.07765,43.5954z" fill="#fffdf2"/><path d="M234.91772,178.82343l2.49694,1.69417l-305.17199,314.22014l-19.69939,-20.70696z" fill="#fffdf2"/><path d="M239.30242,176.4901l-0.42162,3.87035l-431.04297,-77.26644l10.12228,-36.10808z" fill="#fffdf2"/><path d="M233.56792,180.89664l7.60941,1.9818l-103.63025,427.4343l-71.67131,-25.06561z" fill="#fffdf2"/><path d="M246.82408,171.58638l-2.39225,-1.64163l309.94415,-309.48076l18.62606,20.13535z" fill="#fffdf2"/><path d="M-630.12012,180c0,-480.55407 389.56605,-870.12012 870.12012,-870.12012c480.55407,0 870.12012,389.56605 870.12012,870.12012c0,480.55407 -389.56605,870.12012 -870.12012,870.12012c-480.55407,0 -870.12012,-389.56605 -870.12012,-870.12012z" fill="none"/></g></g></svg>