<svg version="1.1" xmlns="http://www.w3.org/2000/svg" xmlns:xlink="http://www.w3.org/1999/xlink" width="20.05624" height="17.23978" viewBox="0,0,20.05624,17.23978"><g transform="translate(-228.74583,-169.29024)"><g data-paper-data="{&quot;isPaintingLayer&quot;:true}" fill-rule="nonzero" stroke-linecap="butt" stroke-linejoin="miter" stroke-miterlimit="10" stroke-dasharray="" stroke-dashoffset="0" style="mix-blend-mode: normal"><path d="M245.1775,185.92303l-15.57672,-5.04893l8.97144,-10.83398l9.62219,9.98605z" data-paper-data="{&quot;index&quot;:null}" fill="#1712ca" stroke="#000000" stroke-width="1"/><path d="M239.14911,172.93878c-0.25235,0.32848 -0.72318,0.3902 -1.05166,0.13785c-0.32848,-0.25235 -0.3902,-0.72318 -0.13785,-1.05166c0.25235,-0.32848 0.72318,-0.3902 1.05166,-0.13785c0.32848,0.25235 0.3902,0.72318 0.13785,1.05166z" data-paper-data="{&quot;index&quot;:null}" fill="#000000" stroke="none" stroke-width="0.5"/><path d="M232.96164,180.50222c-0.25235,0.32848 -0.72318,0.3902 -1.05166,0.13785c-0.32848,-0.25235 -0.3902,-0.72318 -0.13785,-1.05166c0.25235,-0.32848 0.72318,-0.3902 1.05166,-0.13785c0.32848,0.25235 0.3902,0.72318 0.13785,1.05166z" data-paper-data="{&quot;index&quot;:null}" fill="#000000" stroke="none" stroke-width="0.5"/><path d="M246.7136,180.76091c-0.25235,0.32848 -0.72318,0.3902 -1.05166,0.13785c-0.32848,-0.25235 -0.3902,-0.72318 -0.13785,-1.05166c0.25235,-0.32848 0.72318,-0.3902 1.05166,-0.13785c0.32848,0.25235 0.3902,0.72318 0.13785,1.05166z" data-paper-data="{&quot;index&quot;:null}" fill="#000000" stroke="none" stroke-width="0.5"/><path d="M244.63766,184.44476c-0.25234,0.32847 -0.72319,0.39019 -1.05166,0.13785c-0.32847,-0.25234 -0.39019,-0.72319 -0.13785,-1.05166c0.25234,-0.32847 0.72319,-0.39019 1.05166,-0.13785c0.32847,0.25234 0.39019,0.72319 0.13785,1.05166z" data-paper-data="{&quot;index&quot;:null}" fill="#000000" stroke="none" stroke-width="0.5"/></g></g></svg>