<svg version="1.1" xmlns="http://www.w3.org/2000/svg" xmlns:xlink="http://www.w3.org/1999/xlink" width="17.27444" height="20.17564" viewBox="0,0,17.27444,20.17564"><g transform="translate(-231.31449,-169.77501)"><g data-paper-data="{&quot;isPaintingLayer&quot;:true}" fill-rule="nonzero" stroke-linecap="butt" stroke-linejoin="miter" stroke-miterlimit="10" stroke-dasharray="" stroke-dashoffset="0" style="mix-blend-mode: normal"><path d="M241.60022,189.33253l-9.56354,-8.63565l9.85524,-10.02941l6.0714,14.8851z" data-paper-data="{&quot;index&quot;:null}" fill="#ea2222" stroke="#000000" stroke-width="1"/><path d="M246.07643,185.08363c-0.29744,0.28829 -0.77225,0.28086 -1.06053,-0.01657c-0.28829,-0.29744 -0.28086,-0.77225 0.01657,-1.06053c0.29744,-0.28829 0.77225,-0.28086 1.06053,0.01657c0.28829,0.29744 0.28086,0.77225 -0.01657,1.06053z" data-paper-data="{&quot;index&quot;:null}" fill="#000000" stroke="none" stroke-width="0.5"/><path d="M242.2756,187.81255c-0.29744,0.28829 -0.77225,0.28086 -1.06053,-0.01657c-0.28829,-0.29744 -0.28086,-0.77225 0.01657,-1.06053c0.29744,-0.28829 0.77225,-0.28086 1.06053,0.01657c0.28829,0.29744 0.28086,0.77225 -0.01657,1.06053z" data-paper-data="{&quot;index&quot;:null}" fill="#000000" stroke="none" stroke-width="0.5"/><path d="M235.2251,181.2771c-0.29744,0.28829 -0.77225,0.28086 -1.06053,-0.01657c-0.28829,-0.29744 -0.28086,-0.77225 0.01657,-1.06053c0.29744,-0.28829 0.77225,-0.28086 1.06053,0.01657c0.28829,0.29744 0.28086,0.77225 -0.01657,1.06053z" data-paper-data="{&quot;index&quot;:null}" fill="#000000" stroke="none" stroke-width="0.5"/><path d="M241.99537,174.71519c-0.29744,0.28829 -0.77225,0.28086 -1.06053,-0.01657c-0.28829,-0.29744 -0.28086,-0.77225 0.01657,-1.06053c0.29744,-0.28829 0.77225,-0.28086 1.06053,0.01657c0.28829,0.29744 0.28086,0.77225 -0.01657,1.06053z" data-paper-data="{&quot;index&quot;:null}" fill="#000000" stroke="none" stroke-width="0.5"/></g></g></svg>