<svg version="1.1" xmlns="http://www.w3.org/2000/svg" xmlns:xlink="http://www.w3.org/1999/xlink" width="206.5631" height="130.98212" viewBox="0,0,206.5631,130.98212"><g transform="translate(-141.83603,-115.03972)"><g data-paper-data="{&quot;isPaintingLayer&quot;:true}" fill-rule="nonzero" stroke-linejoin="miter" stroke-miterlimit="10" stroke-dasharray="" stroke-dashoffset="0" style="mix-blend-mode: normal"><path d="M143.08603,236.28895c0,-25.05104 0,-99.76124 0,-112.70181c0,-4.4104 3.254,-7.21046 8.3794,-7.21046c19.31233,0 151.15816,0 186.81139,0c5.48917,0 8.8723,2.91118 8.8723,7.6346c0,13.6847 0,92.70635 0,114.82253c0,3.95215 -3.29363,5.93803 -7.88649,5.93803c-18.86863,0 -151.52639,0 -187.30429,0c-8.10434,0 -8.87231,-2.09422 -8.87231,-8.4829z" fill="#8d9aa5" stroke="#000000" stroke-width="2.5" stroke-linecap="butt"/><path d="M142.73377,137.0791l13.44898,-20.71187l12.49743,-0.19953l-25.58831,41.02544z" fill="#abbbc9" stroke="none" stroke-width="0" stroke-linecap="butt"/><path d="M142.4557,165.41096l29.63546,-48.92589l27.43879,0.15761l-56.71613,94.2154z" fill="#abbbc9" stroke="none" stroke-width="0" stroke-linecap="butt"/><path d="M143.08604,236.20199c0,-25.05104 0,-99.76124 0,-112.70181c0,-4.4104 3.254,-7.21046 8.3794,-7.21046c19.31232,0 151.15816,0 186.81139,0c5.48917,0 8.8723,2.91118 8.8723,7.6346c0,13.68469 0,92.70635 0,114.82254c0,3.95215 -3.29364,5.93803 -7.8865,5.93803c-18.86863,0 -151.52639,0 -187.30429,0c-8.10434,0 -8.87231,-2.09422 -8.87231,-8.4829z" fill="none" stroke="#000000" stroke-width="2.5" stroke-linecap="butt"/><path d="M147.3919,124.7527c0,-2.41145 1.95486,-4.36632 4.36632,-4.36632c2.41145,0 4.36633,1.95487 4.36633,4.36632c0,2.41145 -1.95487,4.36632 -4.36633,4.36632c-2.41145,0 -4.36632,-1.95487 -4.36632,-4.36632z" fill="#abbbc9" stroke="#000000" stroke-width="2" stroke-linecap="butt"/><path d="M152.65268,125.87669l-2.14305,-2.14305" fill="none" stroke="#000000" stroke-width="2" stroke-linecap="round"/><path d="M333.66441,124.7975c0,-2.41145 1.95486,-4.36632 4.36632,-4.36632c2.41145,0 4.36633,1.95487 4.36633,4.36632c0,2.41145 -1.95487,4.36632 -4.36633,4.36632c-2.41145,0 -4.36632,-1.95487 -4.36632,-4.36632z" fill="#abbbc9" stroke="#000000" stroke-width="2" stroke-linecap="butt"/><path d="M336.78216,123.77844l2.14305,2.14305" fill="none" stroke="#000000" stroke-width="2" stroke-linecap="round"/><path d="M152.78663,123.59969l-2.34396,2.34396" fill="none" stroke="#000000" stroke-width="2" stroke-linecap="round"/><path d="M339.05915,123.64449l-2.34396,2.34396" fill="none" stroke="#000000" stroke-width="2" stroke-linecap="round"/><path d="M147.40553,235.98737c0,-2.41145 1.95486,-4.36632 4.36632,-4.36632c2.41145,0 4.36633,1.95487 4.36633,4.36632c0,2.41145 -1.95487,4.36632 -4.36633,4.36632c-2.41145,0 -4.36632,-1.95487 -4.36632,-4.36632z" fill="#abbbc9" stroke="#000000" stroke-width="2" stroke-linecap="butt"/><path d="M152.66633,237.11136l-2.14305,-2.14305" fill="none" stroke="#000000" stroke-width="2" stroke-linecap="round"/><path d="M333.67805,236.03217c0,-2.41145 1.95486,-4.36632 4.36632,-4.36632c2.41145,0 4.36633,1.95487 4.36633,4.36632c0,2.41145 -1.95487,4.36632 -4.36633,4.36632c-2.41145,0 -4.36632,-1.95487 -4.36632,-4.36632z" fill="#abbbc9" stroke="#000000" stroke-width="2" stroke-linecap="butt"/><path d="M338.93884,237.15616l-2.14305,-2.14305" fill="none" stroke="#000000" stroke-width="2" stroke-linecap="round"/><path d="M152.80026,234.83436l-2.34396,2.34396" fill="none" stroke="#000000" stroke-width="2" stroke-linecap="round"/><path d="M336.72881,237.22312l2.34396,-2.34396" fill="none" stroke="#000000" stroke-width="2" stroke-linecap="round"/><path d="M188.47371,126.97003c0,0 0.34121,16.14536 -2.74228,16.09485c-3.67682,-0.06024 -6.70073,-16.5947 -6.6351,-15.92483c0.07499,0.76536 -0.23874,16.18793 -0.23874,16.18793" fill="none" stroke="#3f454a" stroke-width="2.5" stroke-linecap="round"/><path d="M165.68363,143.10749c0,0 4.76361,-16.10056 5.33977,-16.10056c0.66509,0 4.80579,16.10055 4.80579,16.10055" fill="none" stroke="#3f454a" stroke-width="2.5" stroke-linecap="round"/><path d="M168.33026,135.60865l5.07278,0.22056" fill="none" stroke="#3f454a" stroke-width="2.5" stroke-linecap="round"/><path d="M222.69775,127.98418c0,0 -4.81308,-2.77367 -7.57829,0.6686c-1.00978,1.25703 -1.31153,6.97375 3.16389,6.48777c4.88626,-0.53059 4.84747,4.63569 2.62794,6.48844c-4.08999,3.41411 -6.94522,0.28688 -6.94522,0.28688" fill="none" stroke="#3f454a" stroke-width="2.5" stroke-linecap="round"/><path d="M234.23233,142.88397c0.08274,-1.53484 -0.3821,-14.32729 -0.44111,-15.13463c-0.10875,-1.488 9.19472,-0.5884 9.26332,6.89962c0.07876,8.59573 -8.87213,9.16103 -8.82221,8.23502z" fill="none" stroke="#3f454a" stroke-width="2.5" stroke-linecap="round"/><path d="M191.26295,127.29509c0,0 2.49418,-0.34955 3.88772,-0.39242c1.50796,-0.0464 4.84394,0.12376 4.84394,0.12376" fill="none" stroke="#3f454a" stroke-width="2.5" stroke-linecap="round"/><path d="M211.17299,143.09587c0,0 -6.72379,1.12652 -8.0602,-0.8316c-1.64443,-2.40942 0.03396,-14.00673 0.1202,-14.62305c0.10116,-0.72293 7.37286,-0.56714 7.37286,-0.56714" fill="none" stroke="#3f454a" stroke-width="2.5" stroke-linecap="round"/><path d="M203.8288,135.15545l5.24608,-0.23631" fill="none" stroke="#3f454a" stroke-width="2.5" stroke-linecap="round"/><path d="M195.29296,143.14639l0.403,-15.58268" fill="none" stroke="#3f454a" stroke-width="2.5" stroke-linecap="round"/><path d="M255.09111,143.24475c0,0 -6.72379,1.12652 -8.0602,-0.8316c-1.64443,-2.40942 0.03396,-14.00673 0.1202,-14.62305c0.10116,-0.72293 7.37286,-0.56714 7.37286,-0.56714" fill="none" stroke="#3f454a" stroke-width="2.5" stroke-linecap="round"/><path d="M247.74692,135.30432l5.24608,-0.23631" fill="none" stroke="#3f454a" stroke-width="2.5" stroke-linecap="round"/><path d="M295.94971,143.26352c0,0 -7.48418,0.4184 -7.76543,-0.17234c-0.30101,-0.63225 0.01448,-16.18028 0.01448,-16.18028" fill="none" stroke="#3f454a" stroke-width="2.5" stroke-linecap="round"/><path d="M300.99528,127.36197v15.74543" fill="none" stroke="#3f454a" stroke-width="2.5" stroke-linecap="round"/><path d="M298.57291,127.26105l4.84475,-0.3028" fill="none" stroke="#3f454a" stroke-width="2.5" stroke-linecap="round"/><path d="M298.87572,143.30923l4.44101,0.10093" fill="none" stroke="#3f454a" stroke-width="2.5" stroke-linecap="round"/><path d="M306.76781,143.16092c0,0 -0.46959,-14.73683 -0.47059,-15.55446c-0.00069,-0.56212 7.17126,-1.27027 7.00711,3.20452c-0.1792,4.88495 -6.54858,4.23512 -6.49086,4.82711c0.0152,0.15587 2.45566,0.41456 3.74679,2.09448c1.86436,2.42576 2.78988,5.42834 2.78988,5.42834" fill="none" stroke="#3f454a" stroke-width="2.5" stroke-linecap="round"/><path d="M274.80902,143.25636c0,0 4.76361,-16.10056 5.33977,-16.10056c0.66509,0 4.80579,16.10055 4.80579,16.10055" fill="none" stroke="#3f454a" stroke-width="2.5" stroke-linecap="round"/><path d="M277.45563,135.75752l5.07278,0.22056" fill="none" stroke="#3f454a" stroke-width="2.5" stroke-linecap="round"/><path d="M272.86861,128.13304c0,0 -4.81308,-2.77367 -7.57829,0.6686c-1.00978,1.25703 -1.31153,6.97375 3.16389,6.48777c4.88626,-0.53059 4.84747,4.63569 2.62794,6.48844c-4.08999,3.41411 -6.94522,0.28688 -6.94522,0.28688" fill="none" stroke="#3f454a" stroke-width="2.5" stroke-linecap="round"/><path d="M315.71216,143.06513c0,-0.65778 0.53323,-1.191 1.191,-1.191c0.65777,0 1.191,0.53322 1.191,1.191c0,0.65778 -0.53323,1.191 -1.191,1.191c-0.65777,0 -1.191,-0.53322 -1.191,-1.191z" fill="#3f454a" stroke="#3f454a" stroke-width="0" stroke-linecap="butt"/><path d="M319.23753,143.16333c0,-0.65778 0.53323,-1.191 1.191,-1.191c0.65777,0 1.191,0.53322 1.191,1.191c0,0.65778 -0.53323,1.191 -1.191,1.191c-0.65777,0 -1.191,-0.53322 -1.191,-1.191z" fill="#3f454a" stroke="#3f454a" stroke-width="0" stroke-linecap="butt"/><path d="M322.57232,143.13659c0,-0.65778 0.53323,-1.191 1.191,-1.191c0.65777,0 1.191,0.53322 1.191,1.191c0,0.65778 -0.53323,1.191 -1.191,1.191c-0.65777,0 -1.191,-0.53322 -1.191,-1.191z" fill="#3f454a" stroke="#3f454a" stroke-width="0" stroke-linecap="butt"/></g></g></svg>