<svg version="1.1" xmlns="http://www.w3.org/2000/svg" xmlns:xlink="http://www.w3.org/1999/xlink" width="135.625" height="162.5" viewBox="0,0,135.625,162.5"><g transform="translate(-175.625,-105.79496)"><g data-paper-data="{&quot;isPaintingLayer&quot;:true}" fill-rule="nonzero" stroke-linejoin="miter" stroke-miterlimit="10" stroke-dasharray="" stroke-dashoffset="0" style="mix-blend-mode: normal"><path d="M208.57547,130.31247c0,-3.75975 1.00354,-4.18676 2.58422,-4.18676c5.95595,0 46.61736,0 57.61286,0c1.69287,0 2.73623,0.03174 2.73623,4.05834c0,11.66585 0,80.91808 0,99.77155c0,3.36911 -1.01576,3.9187 -2.4322,3.9187c-5.81911,0 -46.73092,0 -57.76487,0c-2.49939,0 -2.73623,-1.45861 -2.73623,-3.96484c0,-5.44618 0,-99.59699 0,-99.59699z" fill="#8d9aa5" stroke="#000000" stroke-width="2.5" stroke-linecap="butt"/><path d="M208.63307,151.23886l17.06365,-24.90682l6.37544,-0.09125l-23.25641,34.19674z" fill="#abbbc9" stroke="none" stroke-width="0" stroke-linecap="butt"/><path d="M208.49122,164.19575l26.23198,-38.05482l13.99762,0.07208l-40.04691,58.61444z" fill="#abbbc9" stroke="none" stroke-width="0" stroke-linecap="butt"/><path d="M208.53334,130.31247c0,-3.75975 1.00354,-4.18676 2.58422,-4.18676c5.95595,0 46.61736,0 57.61286,0c1.69287,0 2.73623,0.03174 2.73623,4.05834c0,11.66585 0,80.91808 0,99.77155c0,3.36911 -1.01576,3.9187 -2.4322,3.9187c-5.81911,0 -46.73092,0 -57.76487,0c-2.49939,0 -2.73623,-1.45861 -2.73623,-3.96484c0,-5.44618 0,-99.59699 0,-99.59699z" fill="none" stroke="#000000" stroke-width="2.5" stroke-linecap="butt"/><path d="M244.68503,186.80472c0,0 -6.28395,0.3513 -6.52009,-0.1447c-0.25274,-0.53086 0.01216,-13.58546 0.01216,-13.58546" fill="none" stroke="#000000" stroke-width="2" stroke-linecap="round"/><path d="M235.43838,179.59807c0,3.54692 -2.0557,7.36528 -4.0513,7.26608c-3.07912,-0.15307 -4.38672,-3.53164 -4.38672,-7.07857c0,-3.54692 1.80055,-6.35239 3.64404,-6.49881c2.11335,-0.16785 4.79398,2.76437 4.79398,6.3113z" fill="none" stroke="#000000" stroke-width="2" stroke-linecap="butt"/><path d="M257.47262,186.71857c0,0 -0.39428,-12.37349 -0.39512,-13.06c-0.00058,-0.47197 6.02121,-1.06656 5.88338,2.69061c-0.15046,4.10155 -5.49839,3.55594 -5.44992,4.05299c0.01276,0.13087 2.06185,0.34808 3.14592,1.75859c1.56537,2.03674 2.34247,4.5578 2.34247,4.5578" fill="none" stroke="#000000" stroke-width="2" stroke-linecap="round"/><path d="M224.58183,184.51324c0,0 -3.6686,4.29799 -5.9298,1.1896c-2.60582,-3.58213 -2.14012,-10.80572 1.48536,-12.04102c3.59537,-1.22504 4.44444,2.47489 4.44444,2.47489" fill="none" stroke="#000000" stroke-width="2" stroke-linecap="round"/><path d="M254.43838,179.59807c0,3.54692 -2.0557,7.36528 -4.0513,7.26608c-3.07912,-0.15307 -4.38672,-3.53164 -4.38672,-7.07857c0,-3.54692 1.80055,-6.35239 3.64404,-6.49881c2.11335,-0.16785 4.79398,2.76437 4.79398,6.3113z" fill="none" stroke="#000000" stroke-width="2" stroke-linecap="butt"/><path d="M175.625,268.29496v-162.5h135.625v162.5z" fill="none" stroke="none" stroke-width="0" stroke-linecap="butt"/></g></g></svg>