<svg version="1.1" xmlns="http://www.w3.org/2000/svg" xmlns:xlink="http://www.w3.org/1999/xlink" width="149.41818" height="29.36363" viewBox="0,0,149.41818,29.36363"><g transform="translate(-165.09091,-165.31818)"><g data-paper-data="{&quot;isPaintingLayer&quot;:true}" fill-rule="nonzero" stroke="#000000" stroke-linejoin="miter" stroke-miterlimit="10" stroke-dasharray="" stroke-dashoffset="0" style="mix-blend-mode: normal"><path d="M166.59091,170.38124c0,-2.25854 1.60444,-3.56305 3.86297,-3.56305c10.75015,0 119.39618,0 138.69091,0c2.28356,0 3.8643,1.27949 3.8643,3.56305c0,3.1285 -0.90909,13.74454 -2.27273,19.31818c-0.55735,2.2781 -1.74629,3.4824 -4.09157,3.4824c-11.04321,0 -114.9047,0 -133.69091,0c-3.92437,0 -4.54479,-3.93695 -4.54479,-3.93695c0,0 -1.81818,-15.81822 -1.81818,-18.86363z" fill="#abbaca" stroke-width="3" stroke-linecap="butt"/><path d="M210.49084,179.90605c-0.10867,3.73244 -1.23595,6.76104 -4.64821,6.76104c-2.56714,0 -4.37133,-3.0373 -4.64821,-6.76104c-0.31692,-4.26223 2.50364,-6.86668 4.33129,-6.86668c2.25021,0 5.07078,3.2383 4.96514,6.86668z" fill="none" stroke-width="2" stroke-linecap="butt"/><path d="M217.88575,189.51761c0,0 -2.8787,-0.81553 -5.95607,-0.50942c-2.06801,0.20571 -4.51541,1.96077 -5.15187,0.89584c-1.61991,-2.71042 -0.82952,-7.57002 -0.82952,-7.57002" fill="none" stroke-width="2" stroke-linecap="round"/><path d="M226.1791,186.60154v-13.22034" fill="none" stroke-width="2" stroke-linecap="round"/><path d="M228.213,173.04223l-4.0678,0.25424" fill="none" stroke-width="2" stroke-linecap="round"/><path d="M224.39945,186.77101l3.72881,0.08474" fill="none" stroke-width="2" stroke-linecap="round"/><path d="M256.92851,179.52603c0,3.54692 -2.0557,7.36528 -4.0513,7.26608c-3.07912,-0.15307 -4.38672,-3.53164 -4.38672,-7.07857c0,-3.54692 1.80055,-6.35239 3.64404,-6.49881c2.11335,-0.16785 4.79398,2.76437 4.79398,6.3113z" fill="none" stroke-width="2" stroke-linecap="butt"/><path d="M240.40088,186.64648c0,0 -0.39428,-12.37349 -0.39512,-13.06c-0.00058,-0.47197 6.02121,-1.06656 5.88338,2.69061c-0.15046,4.10155 -5.49839,3.55594 -5.44992,4.05299c0.01276,0.13087 2.06185,0.34808 3.14592,1.75859c1.56537,2.03674 2.34247,4.5578 2.34247,4.5578" fill="none" stroke-width="2" stroke-linecap="round"/><path d="M237.88657,186.71685c0,0 -5.6455,0.94586 -6.76759,-0.69824c-1.38071,-2.02302 0.02851,-11.76048 0.10092,-12.27796c0.08494,-0.60699 6.19048,-0.47619 6.19048,-0.47619" fill="none" stroke-width="2" stroke-linecap="round"/><path d="M231.72015,180.04983l4.40477,-0.19841" fill="none" stroke-width="2" stroke-linecap="round"/><path d="M221.31799,173.22446c0,0 2.11622,13.56911 -4.28604,13.53485c-6.03889,-0.03231 -3.27092,-13.53485 -3.27092,-13.53485" fill="none" stroke-width="2" stroke-linecap="round"/><path d="M290.94269,186.73262c0,0 -6.28395,0.3513 -6.52009,-0.1447c-0.25274,-0.53086 0.01216,-13.58546 0.01216,-13.58546" fill="none" stroke-width="2" stroke-linecap="round"/><path d="M295.1791,173.38119v13.22034" fill="none" stroke-width="2" stroke-linecap="round"/><path d="M293.1452,173.29646l4.0678,-0.25424" fill="none" stroke-width="2" stroke-linecap="round"/><path d="M293.39945,187.12408l3.72881,0.08474" fill="none" stroke-width="2" stroke-linecap="round"/><path d="M300.02589,186.64647c0,0 -0.39428,-12.37349 -0.39512,-13.06c-0.00058,-0.47197 6.02121,-1.06656 5.88338,2.69061c-0.15046,4.10155 -5.49839,3.55594 -5.44992,4.05299c0.01276,0.13087 2.06185,0.34808 3.14592,1.75859c1.56537,2.03674 2.34247,4.5578 2.34247,4.5578" fill="none" stroke-width="2" stroke-linecap="round"/><path d="M273.19231,186.72661c0,0 3.99967,-13.51852 4.48343,-13.51852c0.55843,0 4.03509,13.51851 4.03509,13.51851" fill="none" stroke-width="2" stroke-linecap="round"/><path d="M275.41449,180.43035l4.25926,0.18519" fill="none" stroke-width="2" stroke-linecap="round"/><path d="M271.56309,174.02861c0,0 -4.04121,-2.32886 -6.36296,0.56138c-0.84784,1.05544 -1.1012,5.85537 2.6565,5.44733c4.10265,-0.4455 4.07008,3.89227 2.2065,5.44789c-3.43408,2.86659 -5.83142,0.24087 -5.83142,0.24087" fill="none" stroke-width="2" stroke-linecap="round"/><path d="M182.52136,173.26291c0,0 0.28649,13.55614 -2.3025,13.51373c-3.08717,-0.05058 -5.62614,-13.93342 -5.57103,-13.37097c0.06296,0.64262 -0.20045,13.59188 -0.20045,13.59188" fill="none" stroke-width="2" stroke-linecap="round"/><path d="M193.50342,179.61183c0,3.54692 -2.0557,7.36528 -4.0513,7.26608c-3.07912,-0.15307 -4.38672,-3.53164 -4.38672,-7.07857c0,-3.54692 1.80055,-6.35239 3.64404,-6.49881c2.11335,-0.16785 4.79398,2.76437 4.79398,6.3113z" fill="none" stroke-width="2" stroke-linecap="butt"/></g></g></svg>