<svg version="1.1" xmlns="http://www.w3.org/2000/svg" xmlns:xlink="http://www.w3.org/1999/xlink" width="146.30769" height="95.30769" viewBox="0,0,146.30769,95.30769"><g transform="translate(-166.84616,-113.84616)"><g data-paper-data="{&quot;isPaintingLayer&quot;:true}" fill-rule="nonzero" stroke-linejoin="miter" stroke-miterlimit="10" stroke-dasharray="" stroke-dashoffset="0" style="mix-blend-mode: normal"><path d="M167.84616,201.33301c0,-8.93211 0,-86.48685 0,-86.48685h144.30769c0,0 0,75.92618 0,85.25608c0,4.93697 -1.87615,8.05161 -6.81312,8.05161c-27.62595,0 -118.87862,0 -131.92308,0c-3.09425,0 -5.57149,-0.65796 -5.57149,-6.82084z" fill="#a6b5c3" stroke="#000000" stroke-width="2" stroke-linecap="butt"/><path d="M178.15385,196.51923v-32.59615l2.86539,-2.84615h118l2.82692,2.84615v32.11538l-2.76923,2.88462h-118.5z" fill="#8c99a5" stroke="#000000" stroke-width="2" stroke-linecap="butt"/><path d="M185.125,192.375v-24.75h109.75v24.75z" fill="#001528" stroke="#000000" stroke-width="2" stroke-linecap="butt"/><path d="M180.69913,195.09901c0,-0.80411 0.65187,-1.45597 1.45598,-1.45597c0.80411,0 1.45598,0.65186 1.45598,1.45597c0,0.80411 -0.65186,1.45598 -1.45598,1.45598c-0.80411,0 -1.45598,-0.65187 -1.45598,-1.45598z" fill="#abbbc9" stroke="#000000" stroke-width="1" stroke-linecap="butt"/><path d="M296.31255,195.1335c0,-0.80411 0.65186,-1.45598 1.45598,-1.45598c0.80412,0 1.45598,0.65186 1.45598,1.45598c0,0.80411 -0.65186,1.45598 -1.45598,1.45598c-0.80412,0 -1.45598,-0.65186 -1.45598,-1.45598z" fill="#abbbc9" stroke="#000000" stroke-width="1" stroke-linecap="butt"/><path d="M296.25993,164.9756c0,-0.80411 0.65186,-1.45598 1.45598,-1.45598c0.80412,0 1.45598,0.65186 1.45598,1.45598c0,0.80411 -0.65186,1.45598 -1.45598,1.45598c-0.80412,0 -1.45598,-0.65186 -1.45598,-1.45598z" fill="#abbbc9" stroke="#000000" stroke-width="1" stroke-linecap="butt"/><path d="M180.62835,164.92297c0,-0.80411 0.65186,-1.45597 1.45598,-1.45597c0.80412,0 1.45598,0.65186 1.45598,1.45597c0,0.80411 -0.65186,1.45598 -1.45598,1.45598c-0.80412,0 -1.45598,-0.65187 -1.45598,-1.45598z" fill="#abbbc9" stroke="#000000" stroke-width="1" stroke-linecap="butt"/><path d="M206.59504,158.17107l1.91298,0.02007" fill="none" stroke="#77828a" stroke-width="1" stroke-linecap="round"/><path d="M220.78957,158.14157c0,0 -0.20228,-2.93104 -0.20271,-3.09366c-0.0003,-0.1118 3.08906,-0.25265 3.01835,0.63735c-0.07719,0.97158 -2.82084,0.84233 -2.79597,0.96007c0.00654,0.031 1.05779,0.08246 1.61395,0.41658c0.80308,0.48246 1.20175,1.07965 1.20175,1.07965" fill="none" stroke="#77828a" stroke-width="1" stroke-linecap="round"/><path d="M233.97641,155.15265c0,0 -2.07325,-0.55166 -3.26438,0.13298c-0.43497,0.25001 -0.56495,1.38702 1.36286,1.29036c2.10478,-0.10553 2.08807,0.922 1.132,1.2905c-1.76178,0.67904 -2.99169,0.05706 -2.99169,0.05706" fill="none" stroke="#77828a" stroke-width="1" stroke-linecap="round"/><path d="M209.94001,155.01559c0,0 1.07437,-0.06952 1.67465,-0.07805c0.64956,-0.00923 2.08656,0.02461 2.08656,0.02461" fill="none" stroke="#77828a" stroke-width="1" stroke-linecap="round"/><path d="M207.50805,154.99928v3.13164" fill="none" stroke="#77828a" stroke-width="1" stroke-linecap="round"/><path d="M206.4646,154.97922l2.0869,-0.06023" fill="none" stroke="#77828a" stroke-width="1" stroke-linecap="round"/><path d="M204.76255,154.95094c0,0 0.14698,3.21118 -1.18125,3.20113c-1.58381,-0.01198 -2.88638,-3.30056 -2.8581,-3.16732c0.0323,0.15222 -0.10283,3.21964 -0.10283,3.21964" fill="none" stroke="#77828a" stroke-width="1" stroke-linecap="round"/><path d="M199.23515,156.45487c0,0.84019 -1.05464,1.74469 -2.07844,1.72119c-1.57968,-0.03626 -2.25051,-0.83658 -2.25051,-1.67677c0,-0.84019 0.92373,-1.50476 1.8695,-1.53944c1.08421,-0.03976 2.45945,0.65483 2.45945,1.49502z" fill="none" stroke="#77828a" stroke-width="1" stroke-linecap="butt"/><path d="M188.73545,158.18609c0,0 -0.15558,-2.97209 -0.14635,-3.23856c0.00196,-0.05649 1.32209,1.70616 2.39173,1.66999c1.00089,-0.03385 2.39982,-1.73159 2.40811,-1.65429c0.02267,0.21166 0.03707,3.20595 0.03707,3.20595" fill="none" stroke="#77828a" stroke-width="1" stroke-linecap="round"/><path d="M228.86243,158.15823c0,0 -2.89631,0.22406 -3.47197,-0.1654c-0.70835,-0.47922 0.01463,-2.78582 0.05178,-2.9084c0.04358,-0.14379 3.17589,-0.1128 3.17589,-0.1128" fill="none" stroke="#77828a" stroke-width="1" stroke-linecap="round"/><path d="M225.69888,156.57895l2.25977,-0.047" fill="none" stroke="#77828a" stroke-width="1" stroke-linecap="round"/><path d="M211.67596,158.16829l0.17359,-3.09927" fill="none" stroke="#77828a" stroke-width="1" stroke-linecap="round"/><path d="M219.07227,156.45487c0,0.84019 -1.05464,1.74469 -2.07844,1.72119c-1.57968,-0.03626 -2.25051,-0.83658 -2.25051,-1.67677c0,-0.84019 0.92373,-1.50476 1.8695,-1.53944c1.08421,-0.03976 2.45945,0.65483 2.45945,1.49502z" fill="none" stroke="#77828a" stroke-width="1" stroke-linecap="butt"/><path d="M268.50134,158.16197c0,0 -3.22385,0.08322 -3.34499,-0.03428c-0.12966,-0.12575 0.00624,-3.21812 0.00624,-3.21812" fill="none" stroke="#77828a" stroke-width="1" stroke-linecap="round"/><path d="M247.38145,158.16055c0,0 2.05194,-3.20227 2.30013,-3.20227c0.28649,0 2.07011,3.20227 2.07011,3.20227" fill="none" stroke="#77828a" stroke-width="1" stroke-linecap="round"/><path d="M248.52149,156.66909l2.18512,0.04386" fill="none" stroke="#77828a" stroke-width="1" stroke-linecap="round"/><path d="M257.60453,154.95094c0,0 0.14697,3.21118 -1.18125,3.20113c-1.58381,-0.01198 -2.88637,-3.30056 -2.85809,-3.16732c0.0323,0.15222 -0.10284,3.21964 -0.10284,3.21964" fill="none" stroke="#77828a" stroke-width="1" stroke-linecap="round"/><path d="M263.53478,156.45487c0,0.84019 -1.05463,1.74469 -2.07843,1.72119c-1.57968,-0.03626 -2.25052,-0.83658 -2.25052,-1.67677c0,-0.84019 0.92373,-1.50476 1.8695,-1.53944c1.08421,-0.03976 2.45945,0.65483 2.45945,1.49502z" fill="none" stroke="#77828a" stroke-width="1" stroke-linecap="butt"/><path d="M241.06441,158.18609c0,0 -0.15559,-2.97209 -0.14635,-3.23856c0.00196,-0.05649 1.3221,1.70616 2.39174,1.66999c1.00089,-0.03385 2.39982,-1.73159 2.40811,-1.65429c0.02267,0.21166 0.03706,3.20595 0.03706,3.20595" fill="none" stroke="#77828a" stroke-width="1" stroke-linecap="round"/><path d="M273.62435,156.45487c0,0.84019 -1.05464,1.74469 -2.07844,1.72119c-1.57968,-0.03626 -2.25052,-0.83658 -2.25052,-1.67677c0,-0.84019 0.92374,-1.50476 1.8695,-1.53944c1.08421,-0.03976 2.45945,0.65483 2.45945,1.49502z" fill="none" stroke="#77828a" stroke-width="1" stroke-linecap="butt"/><path d="M289.39561,158.16411c0,0 -3.22385,0.08322 -3.34499,-0.03428c-0.12966,-0.12575 0.00624,-3.21812 0.00624,-3.21812" fill="none" stroke="#77828a" stroke-width="1" stroke-linecap="round"/><path d="M283.42929,155.15478c0,0 -2.07326,-0.55166 -3.26439,0.13298c-0.43496,0.25001 -0.56495,1.38702 1.36286,1.29037c2.10478,-0.10553 2.08807,0.922 1.132,1.29049c-1.76178,0.67904 -2.99169,0.05706 -2.99169,0.05706" fill="none" stroke="#77828a" stroke-width="1" stroke-linecap="round"/><path d="M283.94906,158.03113c0,-0.30889 0.22969,-0.5593 0.51303,-0.5593c0.28334,0 0.51303,0.25041 0.51303,0.5593c0,0.30889 -0.22969,0.5593 -0.51303,0.5593c-0.28334,0 -0.51303,-0.25041 -0.51303,-0.5593z" fill="#7e9696" stroke="#77828a" stroke-width="0" stroke-linecap="butt"/><path d="M290.38524,158.08519c0,-0.26165 0.22969,-0.47376 0.51303,-0.47376c0.28334,0 0.51303,0.21211 0.51303,0.47376c0,0.26165 -0.22969,0.47376 -0.51303,0.47376c-0.28334,0 -0.51303,-0.21211 -0.51303,-0.47376z" fill="#7e9696" stroke="#77828a" stroke-width="0" stroke-linecap="butt"/><path d="M185.82166,183.29075v-9.23077l4.46154,-6h6.46154z" fill="#1c344a" stroke="none" stroke-width="0" stroke-linecap="butt"/><path d="M268.97551,192.1369l8.76923,0l15.07692,-24.30769h-8.76923z" fill="#1c344a" stroke="none" stroke-width="0" stroke-linecap="butt"/><path d="M185.125,192.375v-24.75h109.75v24.75z" fill="none" stroke="#000000" stroke-width="2" stroke-linecap="butt"/></g></g></svg>