<svg version="1.1" xmlns="http://www.w3.org/2000/svg" xmlns:xlink="http://www.w3.org/1999/xlink" width="245.53023" height="56.00745" viewBox="0,0,245.53023,56.00745"><g transform="translate(-117.33301,-151.99627)"><g data-paper-data="{&quot;isPaintingLayer&quot;:true}" fill-rule="nonzero" stroke-linejoin="miter" stroke-miterlimit="10" stroke-dasharray="" stroke-dashoffset="0" style="mix-blend-mode: normal"><path d="M227.63636,166.16852c0,-6.99869 5.67356,-12.67225 12.67225,-12.67225c6.99869,0 12.67226,5.67356 12.67226,12.67225c0,0 0.11009,4.18861 -0.09209,7.27507c-0.1436,2.19214 -0.27991,3.37501 -1.46381,4.13784c-7.18455,4.6293 -13.23093,0.29204 -21.76425,-0.18802c-1.23774,-0.06963 -1.72494,-1.47697 -1.96421,-3.36951c-0.35701,-2.82373 -0.06014,-6.62565 -0.06014,-7.85539zM248.21403,166.37867c0,-4.41828 -3.58172,-8 -8,-8c-4.41828,0 -8,3.58172 -8,8c0,0.66995 -0.02837,2.74103 0.03388,4.65335c0.06212,1.90803 0.21372,3.65801 1.236,3.70052c2.2044,0.09168 10.39464,2.92444 13.35359,0.95793c1.40996,-0.93705 1.29766,-2.30897 1.36771,-4.06949c0.09707,-2.43936 0.00882,-5.24232 0.00882,-5.24232z" fill="#98a6b2" stroke="#000000" stroke-width="3" stroke-linecap="butt"/><path d="M221.92412,203.92341v-32.39364l3.09743,-2.88576h30.33438l2.71994,2.64815v32.39364l-7.23446,2.81793h-21.38456z" fill="#cdc11f" stroke="#000000" stroke-width="3" stroke-linecap="butt"/><path d="M127.51694,200.6021l-8.14357,-26.05645h241.25327l-10.68844,26.05645z" fill="#7b8791" stroke="#000000" stroke-width="3" stroke-linecap="butt"/><path d="M129.20849,196.77471c0,-0.82843 0.76086,-1.5 1.69942,-1.5c0.93856,0 1.69941,0.67157 1.69941,1.5c0,0.82843 -0.76085,1.5 -1.69941,1.5c-0.93856,0 -1.69942,-0.67157 -1.69942,-1.5z" fill="#000000" stroke="none" stroke-width="0.5" stroke-linecap="butt"/><path d="M123.19214,178.18838c0,-0.82843 0.76086,-1.5 1.69941,-1.5c0.93855,0 1.69942,0.67157 1.69942,1.5c0,0.82843 -0.76086,1.5 -1.69942,1.5c-0.93855,0 -1.69941,-0.67157 -1.69941,-1.5z" fill="#000000" stroke="none" stroke-width="0.5" stroke-linecap="butt"/><path d="M352.48636,178.52028c0,-0.82843 0.76086,-1.5 1.69941,-1.5c0.93856,0 1.69941,0.67157 1.69941,1.5c0,0.82843 -0.76085,1.5 -1.69941,1.5c-0.93856,0 -1.69941,-0.67157 -1.69941,-1.5z" fill="#000000" stroke="none" stroke-width="0.5" stroke-linecap="butt"/><path d="M345.15394,196.94066c0,-0.82843 0.76085,-1.5 1.69941,-1.5c0.93856,0 1.69942,0.67157 1.69942,1.5c0,0.82843 -0.76086,1.5 -1.69942,1.5c-0.93856,0 -1.69941,-0.67157 -1.69941,-1.5z" fill="#000000" stroke="none" stroke-width="0.5" stroke-linecap="butt"/><path d="M150.19097,180.9077c-0.03346,-0.85974 6.40199,-0.91643 6.37603,2.29485c-0.01086,3.49569 -6.25045,3.22316 -6.00566,3.93708c0.0104,0.18676 6.33042,-0.44997 6.32663,2.78489c-0.00539,4.59377 -6.68092,4.54056 -6.69701,3.98121c-0.03835,-1.3334 0.04003,-11.96934 0,-12.99803z" fill="none" stroke="#000000" stroke-width="3" stroke-linecap="round"/><path d="M173.19276,193.83915c0,0 -4.35466,0.94468 -5.11006,-0.33209c-1.16539,-1.9697 -0.43735,-6.33415 -0.54796,-7.30297c-0.05074,-0.44446 6.0464,-0.17757 6.0464,-0.17757" fill="none" stroke="#000000" stroke-width="3" stroke-linecap="round"/><path d="M167.90083,189.72251l3.80597,0.08028" fill="none" stroke="#000000" stroke-width="3" stroke-linecap="round"/><path d="M172.25443,180.29304l-3.54839,2.29805" fill="none" stroke="#000000" stroke-width="3" stroke-linecap="round"/><path d="M159.22322,180.61866c0,0 2.09419,-0.29349 3.26425,-0.32949c1.26613,-0.03896 4.06712,0.10391 4.06712,0.10391" fill="none" stroke="#000000" stroke-width="3" stroke-linecap="round"/><path d="M185.0676,180.34573c0,0 0.28649,13.55614 -2.3025,13.51373c-3.08717,-0.05058 -5.62614,-13.93342 -5.57103,-13.37097c0.06296,0.64262 -0.20045,13.59188 -0.20045,13.59188" fill="none" stroke="#000000" stroke-width="3" stroke-linecap="round"/><path d="M146.99269,186.69465c0,3.54692 -2.0557,7.36528 -4.0513,7.26608c-3.07912,-0.15307 -4.38672,-3.53164 -4.38672,-7.07857c0,-3.54692 1.80055,-6.35239 3.64404,-6.49881c2.11335,-0.16785 4.79398,2.76437 4.79398,6.3113z" fill="none" stroke="#000000" stroke-width="3" stroke-linecap="butt"/><path d="M162.94533,180.84425l-0.33837,13.08369" fill="none" stroke="#000000" stroke-width="3" stroke-linecap="round"/><path d="M207.07108,179.95986c0,0 -6.83759,-0.32555 -6.91732,0.41943c-0.02987,0.27911 -0.16748,5.3832 -0.19747,6.23976c-0.00607,0.17333 4.95522,-1.30791 6.79429,0.9365c0.95825,1.16945 0.96054,5.69931 -2.39715,6.04658c-5.25349,0.54335 -4.78288,-2.86685 -4.78288,-2.86685" fill="none" stroke="#000000" stroke-width="3" stroke-linecap="round"/><path d="M222.3184,187.08763c0.92307,3.6575 -2.6365,6.79025 -5.88813,6.83441c-3.25163,0.04416 -6.16908,-3.07056 -5.88813,-6.83441c0.28095,-3.76385 2.63768,-6.73547 5.88813,-6.8344c3.25045,-0.09893 5.25725,4.33468 5.88813,6.83441c0.63088,2.49973 -0.92307,-3.65751 0,-0.00001z" fill="none" stroke="#000000" stroke-width="3" stroke-linecap="butt"/><path d="M238.3764,187.29583c0.92307,3.6575 -2.6365,6.79025 -5.88813,6.83441c-3.25163,0.04416 -6.16908,-3.07056 -5.88813,-6.83441c0.28095,-3.76385 2.63768,-6.73547 5.88813,-6.8344c3.25045,-0.09893 5.25725,4.33468 5.88813,6.83441c0.63088,2.49973 -0.92307,-3.65751 0,-0.00001z" fill="none" stroke="#000000" stroke-width="3" stroke-linecap="butt"/><path d="M253.5129,187.13543c0.92307,3.6575 -2.6365,6.79025 -5.88813,6.83441c-5.21463,0.07082 -6.16908,-3.07056 -5.88813,-6.83441c0.35048,-4.69523 2.63768,-6.73547 5.88813,-6.8344c4.65386,-0.14164 5.25725,4.33468 5.88813,6.83441c0,0 -0.92307,-3.65751 0,-0.00001z" fill="none" stroke="#000000" stroke-width="3" stroke-linecap="butt"/><path d="M268.8098,187.39644c0.92307,3.6575 -2.6365,6.79025 -5.88813,6.83441c-5.21463,0.07082 -6.16908,-3.07056 -5.88813,-6.83441c0.35048,-4.69523 2.63768,-6.73547 5.88813,-6.8344c4.65386,-0.14164 5.25725,4.33468 5.88813,6.83441z" fill="none" stroke="#000000" stroke-width="3" stroke-linecap="butt"/><path d="M222.81207,193.7587c0,-0.82843 0.67157,-1.5 1.5,-1.5c0.82843,0 1.5,0.67157 1.5,1.5c0,0.82843 -0.67157,1.5 -1.5,1.5c-0.82843,0 -1.5,-0.67157 -1.5,-1.5z" fill="#000000" stroke="none" stroke-width="0.5" stroke-linecap="butt"/><path d="M281.71393,194.00727c0,0 -0.0369,-12.42763 -0.07957,-13.25876c-0.03857,-0.75122 5.85114,-0.3426 5.84304,2.54233c-0.01176,4.19303 -5.27432,3.86824 -5.27432,3.86824" fill="none" stroke="#000000" stroke-width="3" stroke-linecap="round"/><path d="M313.86194,180.78198c0,0 2.09419,-0.29349 3.26425,-0.32949c1.26613,-0.03896 4.06712,0.10391 4.06712,0.10391" fill="none" stroke="#000000" stroke-width="3" stroke-linecap="round"/><path d="M341.44533,181.36057c0,0 -4.04121,-2.32886 -6.36296,0.56138c-0.84784,1.05544 -1.1012,5.85537 2.6565,5.44733c4.10265,-0.4455 4.07008,3.89227 2.2065,5.44789c-3.43408,2.86659 -5.83142,0.24087 -5.83142,0.24087" fill="none" stroke="#000000" stroke-width="3" stroke-linecap="round"/><path d="M310.65628,180.50906c0,0 0.28649,13.55614 -2.3025,13.51373c-3.08717,-0.05058 -5.62614,-13.93342 -5.57103,-13.37097c0.06296,0.64262 -0.20045,13.59188 -0.20045,13.59188" fill="none" stroke="#000000" stroke-width="3" stroke-linecap="round"/><path d="M331.29846,186.85798c0,3.54692 -2.0557,7.36528 -4.0513,7.26608c-3.07912,-0.15307 -4.38672,-3.53164 -4.38672,-7.07857c0,-3.54692 1.80055,-6.35239 3.64404,-6.49881c2.11335,-0.16785 4.79398,2.76437 4.79398,6.3113z" fill="none" stroke="#000000" stroke-width="3" stroke-linecap="butt"/><path d="M317.58402,181.00758l-0.33837,13.08369" fill="none" stroke="#000000" stroke-width="3" stroke-linecap="round"/><path d="M298.86079,180.55641c0,0 2.11622,13.56911 -4.28604,13.53485c-6.03889,-0.03231 -3.27092,-13.53485 -3.27092,-13.53485" fill="none" stroke="#000000" stroke-width="3" stroke-linecap="round"/></g></g></svg>