<svg version="1.1" xmlns="http://www.w3.org/2000/svg" xmlns:xlink="http://www.w3.org/1999/xlink" width="390.86777" height="282.04972" viewBox="0,0,390.86777,282.04972"><g transform="translate(-44.56613,-38.97514)"><g data-paper-data="{&quot;isPaintingLayer&quot;:true}" fill-rule="nonzero" stroke-linejoin="miter" stroke-miterlimit="10" stroke-dasharray="" stroke-dashoffset="0" style="mix-blend-mode: normal"><path d="M45.81614,301.01313c0,-55.4057 0,-216.2197 0,-244.84052c0,-9.75454 6.19293,-15.94747 15.94747,-15.94747c36.75473,0 287.68038,0 355.53471,0c10.44686,0 16.88555,6.43869 16.88555,16.88555c0,30.2666 0,200.61634 0,249.53096c0,8.74102 -6.26836,13.13321 -15.00938,13.13321c-35.91029,0 -288.3812,0 -356.4728,0c-15.42398,0 -16.88555,-4.63182 -16.88555,-18.76173z" fill="#8d9aa5" stroke="#000000" stroke-width="2.5" stroke-linecap="butt"/><path d="M45.14574,86.20523l25.59577,-45.8087l23.78479,-0.44131l-48.69902,90.73646z" fill="#abbbc9" stroke="none" stroke-width="0" stroke-linecap="butt"/><path d="M44.61652,148.86717l56.40145,-108.20997l52.22081,0.34858l-107.94072,207.64009z" fill="#abbbc9" stroke="none" stroke-width="0" stroke-linecap="butt"/><path d="M45.81618,301.01313c0,-55.4057 0,-216.2197 0,-244.84052c0,-9.75454 6.19293,-15.94747 15.94747,-15.94747c36.75473,0 287.68038,0 355.53471,0c10.44686,0 16.88555,6.43869 16.88555,16.88555c0,30.2666 0,200.61634 0,249.53096c0,8.74102 -6.26836,13.13321 -15.00938,13.13321c-35.91029,0 -288.3812,0 -356.4728,0c-15.42398,0 -16.88555,-4.63182 -16.88555,-18.76173z" fill="none" stroke="#000000" stroke-width="2.5" stroke-linecap="butt"/><path d="M52.35584,51.92557c0,-2.41145 1.95486,-4.36632 4.36632,-4.36632c2.41145,0 4.36633,1.95487 4.36633,4.36632c0,2.41145 -1.95487,4.36632 -4.36633,4.36632c-2.41145,0 -4.36632,-1.95487 -4.36632,-4.36632z" fill="#abbbc9" stroke="#000000" stroke-width="2" stroke-linecap="butt"/><path d="M55.47358,50.90651l2.14305,2.14305" fill="none" stroke="#000000" stroke-width="2" stroke-linecap="round"/><path d="M55.40661,53.11653l2.34396,-2.34396" fill="none" stroke="#000000" stroke-width="2" stroke-linecap="round"/><path d="M52.03154,310.22105c0,-2.41145 1.95487,-4.36632 4.36632,-4.36632c2.41145,0 4.36632,1.95487 4.36632,4.36632c0,2.41145 -1.95487,4.36632 -4.36632,4.36632c-2.41145,0 -4.36632,-1.95487 -4.36632,-4.36632z" fill="#abbbc9" stroke="#000000" stroke-width="2" stroke-linecap="butt"/><path d="M55.14928,309.20201l2.14305,2.14304" fill="none" stroke="#000000" stroke-width="2" stroke-linecap="round"/><path d="M57.42627,309.06807l-2.34396,2.34396" fill="none" stroke="#000000" stroke-width="2" stroke-linecap="round"/><path d="M419.273,309.96639c0,-2.41145 1.95486,-4.36633 4.36632,-4.36633c2.41145,0 4.36633,1.95487 4.36633,4.36633c0,2.41145 -1.95487,4.36632 -4.36633,4.36632c-2.41145,0 -4.36632,-1.95487 -4.36632,-4.36632z" fill="#abbbc9" stroke="#000000" stroke-width="2" stroke-linecap="butt"/><path d="M424.53378,311.09037l-2.14305,-2.14305" fill="none" stroke="#000000" stroke-width="2" stroke-linecap="round"/><path d="M422.32377,311.15732l2.34396,-2.34396" fill="none" stroke="#000000" stroke-width="2" stroke-linecap="round"/><path d="M419.18672,52.24052c0,-2.41146 1.95487,-4.36633 4.36632,-4.36633c2.41145,0 4.36632,1.95487 4.36632,4.36633c0,2.41146 -1.95487,4.36632 -4.36632,4.36632c-2.41145,0 -4.36632,-1.95486 -4.36632,-4.36632z" fill="#abbbc9" stroke="#000000" stroke-width="2" stroke-linecap="butt"/><path d="M422.30447,51.22146l2.14305,2.14305" fill="none" stroke="#000000" stroke-width="2" stroke-linecap="round"/><path d="M422.23751,53.43147l2.34396,-2.34396" fill="none" stroke="#000000" stroke-width="2" stroke-linecap="round"/></g></g></svg>