<svg version="1.1" xmlns="http://www.w3.org/2000/svg" xmlns:xlink="http://www.w3.org/1999/xlink" width="61.47731" height="60.33679" viewBox="0,0,61.47731,60.33679"><g transform="translate(-209.26137,-149.8316)"><g data-paper-data="{&quot;isPaintingLayer&quot;:true}" fill-rule="nonzero" stroke-linecap="butt" stroke-linejoin="miter" stroke-miterlimit="10" stroke-dasharray="" stroke-dashoffset="0" style="mix-blend-mode: normal"><path d="M238.53877,189.54092l-1.09875,6.32188l-5.58572,-2.11733l3.28068,-5.49479z" fill="#9ba6ad" stroke="#000000" stroke-width="2"/><path d="M231.37309,178.69658l-6.32188,-1.09875l2.11733,-5.58572l5.49479,3.28068z" fill="#9ba6ad" stroke="#000000" stroke-width="2"/><path d="M249.71286,181.50537l6.32188,1.09875l-2.11733,5.58572l-5.49479,-3.28067z" fill="#9ba6ad" stroke="#000000" stroke-width="2"/><path d="M241.53075,170.71789l1.09875,-6.32188l5.58572,2.11733l-3.28067,5.49479z" fill="#9ba6ad" stroke="#000000" stroke-width="2"/><path d="M232.31718,185.56839l-5.24718,3.6933l-2.45253,-5.44689l6.2052,-1.56561z" fill="#9ba6ad" stroke="#000000" stroke-width="2"/><path d="M247.23244,174.6039l5.24717,-3.69332l2.45253,5.44689l-6.20519,1.56562z" fill="#9ba6ad" stroke="#000000" stroke-width="2"/><path d="M245.6203,187.46037l3.6933,5.24718l-5.44689,2.45253l-1.56561,-6.2052z" fill="#9ba6ad" stroke="#000000" stroke-width="2"/><path d="M234.25907,171.84203l-3.69332,-5.24717l5.44689,-2.45253l1.56562,6.20519z" fill="#9ba6ad" stroke="#000000" stroke-width="2"/><path d="M230.53648,176.3079c2.00381,-5.28623 7.91354,-7.94715 13.19976,-5.94335c5.28623,2.00381 7.94715,7.91354 5.94335,13.19976c-2.00381,5.28623 -7.91354,7.94715 -13.19976,5.94335c-5.28623,-2.00381 -7.94715,-7.91354 -5.94335,-13.19976zM238.34153,184.48902c2.53554,0.96112 5.37016,-0.31519 6.33129,-2.85074c0.96112,-2.53554 -0.31519,-5.37016 -2.85074,-6.33129c-2.53554,-0.96112 -5.37016,0.31519 -6.33129,2.85074c-0.96112,2.53554 0.31519,5.37016 2.85074,6.33129z" fill="#7e878c" stroke="#000000" stroke-width="2"/><path d="M209.26137,193.0788l16.39334,-43.24721l45.08396,17.08959l-16.39334,43.24721z" fill="none" stroke="none" stroke-width="0"/></g></g></svg>