<svg version="1.1" xmlns="http://www.w3.org/2000/svg" xmlns:xlink="http://www.w3.org/1999/xlink" width="206.5631" height="128.98212" viewBox="0,0,206.5631,128.98212"><g transform="translate(-141.83601,-115.03972)"><g data-paper-data="{&quot;isPaintingLayer&quot;:true}" fill-rule="nonzero" stroke-linejoin="miter" stroke-miterlimit="10" stroke-dasharray="" stroke-dashoffset="0" style="mix-blend-mode: normal"><path d="M143.08601,234.28895c0,-25.05104 0,-97.76124 0,-110.70181c0,-4.4104 3.254,-7.21046 8.3794,-7.21046c19.31233,0 151.15816,0 186.81139,0c5.48917,0 8.8723,2.91118 8.8723,7.6346c0,13.6847 0,90.70635 0,112.82253c0,3.95215 -3.29363,5.93803 -7.88649,5.93803c-18.86863,0 -151.52639,0 -187.30429,0c-8.10434,0 -8.87231,-2.09422 -8.87231,-8.4829z" fill="#8d9aa5" stroke="#000000" stroke-width="2.5" stroke-linecap="butt"/><path d="M142.73375,137.0791l13.44898,-20.71187l12.49743,-0.19953l-25.58831,41.02544z" fill="#abbbc9" stroke="none" stroke-width="0" stroke-linecap="butt"/><path d="M142.45567,165.41096l29.63546,-48.92589l27.43879,0.15761l-56.71613,93.88207z" fill="#abbbc9" stroke="none" stroke-width="0" stroke-linecap="butt"/><path d="M143.08602,234.20199c0,-25.05104 0,-97.76124 0,-110.70181c0,-4.4104 3.254,-7.21046 8.3794,-7.21046c19.31232,0 151.15816,0 186.81139,0c5.48917,0 8.8723,2.91118 8.8723,7.6346c0,13.68469 0,90.70635 0,112.82254c0,3.95215 -3.29364,5.93803 -7.8865,5.93803c-18.86863,0 -151.52639,0 -187.30429,0c-8.10434,0 -8.87231,-2.09422 -8.87231,-8.4829z" fill="none" stroke="#000000" stroke-width="2.5" stroke-linecap="butt"/><path d="M153.50507,178.56054l4.00401,-41.34503c0,0 25.87885,-2.34598 24.87068,10.52329c-1.50707,19.23765 -19.63171,10.94609 -19.63171,10.94609l-1.24074,21.03704zM172.41033,154.92022c2.94154,-2.03361 3.15609,-7.01868 2.05925,-9.09385c-1.95946,-3.7072 -9.43959,-2.47915 -9.43959,-2.47915l-1.71349,9.51375c0,0 7.16313,3.39405 9.09385,2.05925z" fill="#aec7e8" stroke="#000000" stroke-width="2" stroke-linecap="butt"/><path d="M279.42452,180.5696l2.85245,-41.44041c0,0 5.16577,-0.9558 9.06562,-1.36875c5.43245,-0.57523 10.97579,2.13863 15.04925,9.26528c3.42185,5.98664 2.61072,21.95241 -3.06937,28.13407c-4.1689,4.53703 -10.68716,8.11236 -15.93633,7.09182c-5.15344,-1.00193 -7.96163,-1.68201 -7.96163,-1.68201zM299.18464,147.80178c-4.94174,-5.91522 -10.95775,-2.85126 -10.95775,-2.85126l-2.57001,30.04185c0,0 6.47141,2.54224 11.97322,-3.37293c6.44772,-6.93214 5.2999,-19.33449 1.55453,-23.81767z" fill="#aec7e8" stroke="#000000" stroke-width="2" stroke-linecap="butt"/><path d="M338.50964,160.13496c0,12.49121 -7.31842,22.61733 -16.34615,22.61733c-9.02773,0 -16.34616,-10.12612 -16.34616,-22.61733c0,-12.49121 3.85689,-20.50357 16.34616,-22.61733c8.92257,-1.51012 16.34615,10.12612 16.34615,22.61733zM321.97117,175.56548c5.52284,0 10.76923,-6.18937 10.76923,-14.37363c0,-9.87528 -5.24639,-15.21914 -10.76923,-15.21914c-5.52284,0 -10.06643,4.91837 -10.38461,15.21914c-0.22654,7.33364 4.86177,14.37363 10.38461,14.37363z" fill="#aec7e8" stroke="#000000" stroke-width="2" stroke-linecap="butt"/><path d="M179.60333,178.51022l4.02641,-39.28738l8.20066,-4.53422l13.98706,41.01782l-8.67704,0.22451l-3.91952,-17.27317l-5.6384,3.73681l-0.44075,13.93794zM191.91869,153.01659l-3.39972,-7.0974l-0.76979,9.15349z" fill="#aec7e8" stroke="#000000" stroke-width="2" stroke-linecap="butt"/><path d="M206.63615,171.55234c-6.95147,-8.73804 -1.77388,-34.67688 -1.77388,-34.67688l5.75476,-1.68508c0,0 -3.1408,23.70835 0.73761,30.67387c2.87043,5.1552 14.06461,5.776 16.55216,-2.4561c3.03915,-10.05753 -0.93992,-29.46268 -0.93992,-29.46268l7.25881,0.59351c0,0 3.48212,19.56265 -0.04672,31.71046c-4.38495,15.09492 -20.59137,14.04095 -27.54283,5.30291z" fill="#aec7e8" stroke="#000000" stroke-width="2" stroke-linecap="butt"/><path d="M254.78784,179.46567l11.19117,-37.87438l8.8953,-2.94679l6.19574,42.89187l-8.57003,-1.37694l-0.67217,-17.69953l-6.23002,2.63479l-2.99946,13.6185zM271.58653,156.67539l-2.03482,-7.60202l-2.44198,8.85527z" fill="#aec7e8" stroke="#000000" stroke-width="2" stroke-linecap="butt"/><path d="M257.49982,139.82807l0.4702,5.98158c0,0 -13.71353,-9.547 -15.83169,-1.03064c-0.51952,4.75545 0.56091,6.81256 6.67222,8.11204c2.33161,0.49579 6.50308,2.93197 8.09768,6.33379c2.6021,5.55115 1.42171,13.36567 -2.93578,17.22811c-3.01144,2.6693 -10.03674,3.46273 -14.59975,2.25978c-3.52792,-0.93007 -5.12686,-3.69344 -5.12686,-3.69344l0.50196,-5.89639c0,0 1.65168,2.19121 4.70595,3.27295c3.43658,1.21714 8.40702,1.21106 10.14834,-1.41392c1.91091,-2.88063 2.86213,-7.33129 0.92938,-9.61344c-2.6667,-3.14878 -8.07697,-3.29293 -11.33514,-6.04745c-2.18713,-1.84903 -3.40521,-8.52505 -2.22605,-13.66473c1.06217,-4.6298 5.06701,-5.48611 9.07192,-5.27804c5.68997,0.29561 11.45762,3.44979 11.45762,3.44979z" fill="#aec7e8" stroke="#000000" stroke-width="2" stroke-linecap="butt"/><path d="M147.39188,124.7527c0,-2.41145 1.95486,-4.36632 4.36632,-4.36632c2.41145,0 4.36633,1.95487 4.36633,4.36632c0,2.41145 -1.95487,4.36632 -4.36633,4.36632c-2.41145,0 -4.36632,-1.95487 -4.36632,-4.36632z" fill="#abbbc9" stroke="#000000" stroke-width="2" stroke-linecap="butt"/><path d="M152.65266,125.87669l-2.14305,-2.14305" fill="none" stroke="#000000" stroke-width="2" stroke-linecap="round"/><path d="M333.66439,124.7975c0,-2.41145 1.95486,-4.36632 4.36632,-4.36632c2.41145,0 4.36633,1.95487 4.36633,4.36632c0,2.41145 -1.95487,4.36632 -4.36633,4.36632c-2.41145,0 -4.36632,-1.95487 -4.36632,-4.36632z" fill="#abbbc9" stroke="#000000" stroke-width="2" stroke-linecap="butt"/><path d="M336.78213,123.77844l2.14305,2.14305" fill="none" stroke="#000000" stroke-width="2" stroke-linecap="round"/><path d="M150.44265,125.94365l2.34396,-2.34396" fill="none" stroke="#000000" stroke-width="2" stroke-linecap="round"/><path d="M336.71516,125.98845l2.34396,-2.34396" fill="none" stroke="#000000" stroke-width="2" stroke-linecap="round"/><path d="M147.40551,233.98737c0,-2.41145 1.95486,-4.36632 4.36632,-4.36632c2.41145,0 4.36633,1.95487 4.36633,4.36632c0,2.41145 -1.95487,4.36632 -4.36633,4.36632c-2.41145,0 -4.36632,-1.95487 -4.36632,-4.36632z" fill="#abbbc9" stroke="#000000" stroke-width="2" stroke-linecap="butt"/><path d="M150.52325,232.96831l2.14305,2.14305" fill="none" stroke="#000000" stroke-width="2" stroke-linecap="round"/><path d="M333.67803,234.03217c0,-2.41145 1.95486,-4.36632 4.36632,-4.36632c2.41145,0 4.36633,1.95487 4.36633,4.36632c0,2.41145 -1.95487,4.36632 -4.36633,4.36632c-2.41145,0 -4.36632,-1.95487 -4.36632,-4.36632z" fill="#abbbc9" stroke="#000000" stroke-width="2" stroke-linecap="butt"/><path d="M336.79576,233.01311l2.14305,2.14305" fill="none" stroke="#000000" stroke-width="2" stroke-linecap="round"/><path d="M152.80024,232.83436l-2.34396,2.34396" fill="none" stroke="#000000" stroke-width="2" stroke-linecap="round"/><path d="M339.07274,232.87916l-2.34396,2.34396" fill="none" stroke="#000000" stroke-width="2" stroke-linecap="round"/><path d="M171.59053,208.10218c0,0 -4.94429,0.27641 -5.13008,-0.11385c-0.19886,-0.41769 0.00957,-10.6892 0.00957,-10.6892" fill="none" stroke="#000000" stroke-width="1.5" stroke-linecap="round"/><path d="M163.99878,206.29922c0,0 -2.8865,3.38171 -4.66564,0.93599c-2.05029,-2.81846 -1.68387,-8.50207 1.1687,-9.47402c2.82888,-0.96388 3.49694,1.94727 3.49694,1.94727" fill="none" stroke="#000000" stroke-width="1.5" stroke-linecap="round"/><path d="M176.42554,197.33036l-3.20059,0.20004" fill="none" stroke="#000000" stroke-width="1.5" stroke-linecap="round"/><path d="M174.82524,197.59708v10.40192" fill="none" stroke="#000000" stroke-width="1.5" stroke-linecap="round"/><path d="M173.42499,208.13236l2.93387,0.06667" fill="none" stroke="#000000" stroke-width="1.5" stroke-linecap="round"/><path d="M183.85642,206.48655c0,0 -2.8865,3.38171 -4.66564,0.93599c-2.05029,-2.81846 -1.68387,-8.50207 1.1687,-9.47402c2.82888,-0.96388 3.49694,1.94727 3.49694,1.94727" fill="none" stroke="#000000" stroke-width="1.5" stroke-linecap="round"/><path d="M189.06432,197.33758l-3.79586,11.20967" fill="none" stroke="#000000" stroke-width="1.5" stroke-linecap="round"/><path d="M210.14263,208.23918c0,0 3.14699,-10.63653 3.52762,-10.63653c0.43938,0 3.17486,10.63652 3.17486,10.63652" fill="none" stroke="#000000" stroke-width="1.5" stroke-linecap="round"/><path d="M211.89109,203.28517l3.35124,0.14571" fill="none" stroke="#000000" stroke-width="1.5" stroke-linecap="round"/><path d="M205.72877,208.19878c0,0 -0.02903,-9.77821 -0.06261,-10.43215c-0.03035,-0.59107 4.60375,-0.26956 4.59737,2.00034c-0.00925,3.29913 -4.1499,3.04358 -4.1499,3.04358" fill="none" stroke="#000000" stroke-width="1.5" stroke-linecap="round"/><path d="M224.02303,206.44096c0,0 -2.8865,3.38171 -4.66564,0.93599c-2.05029,-2.81846 -1.68387,-8.50207 1.1687,-9.47402c2.82888,-0.96388 3.49694,1.94727 3.49694,1.94727" fill="none" stroke="#000000" stroke-width="1.5" stroke-linecap="round"/><path d="M196.22102,208.23148c0,0 -4.44195,0.74421 -5.32482,-0.54938c-1.08636,-1.59174 0.02243,-9.25329 0.07941,-9.66044c0.06683,-0.47759 4.87074,-0.37467 4.87074,-0.37467" fill="none" stroke="#000000" stroke-width="1.5" stroke-linecap="round"/><path d="M228.58167,197.4721l-3.20059,0.20004" fill="none" stroke="#000000" stroke-width="1.5" stroke-linecap="round"/><path d="M226.98137,197.73882v10.40192" fill="none" stroke="#000000" stroke-width="1.5" stroke-linecap="round"/><path d="M225.58111,208.2741l2.93387,0.06667" fill="none" stroke="#000000" stroke-width="1.5" stroke-linecap="round"/><path d="M203.66362,198.24821c0,0 -3.17967,-1.83237 -5.00645,0.4417c-0.66709,0.83043 -0.86644,4.60707 2.09017,4.28602c3.22801,-0.35052 3.20239,3.06248 1.7361,4.28646c-2.70197,2.25547 -4.58823,0.18952 -4.58823,0.18952" fill="none" stroke="#000000" stroke-width="1.5" stroke-linecap="round"/><path d="M191.36903,202.98577l3.46573,-0.15611" fill="none" stroke="#000000" stroke-width="1.5" stroke-linecap="round"/><path d="M235.993,202.57363c0,2.79076 -1.61745,5.79509 -3.18761,5.71704c-2.42269,-0.12044 -3.45152,-2.77874 -3.45152,-5.5695c0,-2.79076 1.41669,-4.99814 2.86717,-5.11334c1.66281,-0.13207 3.77196,2.17504 3.77196,4.96581z" fill="none" stroke="#000000" stroke-width="1.5" stroke-linecap="butt"/><path d="M250.32256,208.22168c0,0 3.14699,-10.63653 3.52762,-10.63653c0.43938,0 3.17486,10.63652 3.17486,10.63652" fill="none" stroke="#000000" stroke-width="1.5" stroke-linecap="round"/><path d="M252.07103,203.26766l3.35124,0.14571" fill="none" stroke="#000000" stroke-width="1.5" stroke-linecap="round"/><path d="M245.94022,208.18127c0,0 -0.02903,-9.77821 -0.06261,-10.43215c-0.03035,-0.59107 4.60375,-0.26956 4.59737,2.00034c-0.00925,3.29913 -4.1499,3.04358 -4.1499,3.04358" fill="none" stroke="#000000" stroke-width="1.5" stroke-linecap="round"/><path d="M258.87812,208.15862c0,0 -0.31022,-9.73561 -0.31089,-10.27576c-0.00046,-0.37135 4.73756,-0.83918 4.62911,2.117c-0.11838,3.22715 -4.3262,2.79786 -4.28806,3.18894c0.01004,0.10297 1.62229,0.27387 2.47525,1.38368c1.23165,1.60253 1.84308,3.58613 1.84308,3.58613" fill="none" stroke="#000000" stroke-width="1.5" stroke-linecap="round"/><path d="M265.05551,208.38868c0,0 3.14699,-10.63653 3.52762,-10.63653c0.43938,0 3.17486,10.63652 3.17486,10.63652" fill="none" stroke="#000000" stroke-width="1.5" stroke-linecap="round"/><path d="M266.80397,203.43467l3.35124,0.14571" fill="none" stroke="#000000" stroke-width="1.5" stroke-linecap="round"/><path d="M301.1216,208.32583c0,0 -0.21206,-5.30631 -0.22575,-5.12114c-0.02465,0.33328 -2.42562,7.60268 -5.07628,4.04648c-2.05029,-2.86133 -1.22105,-8.51567 1.63153,-9.50241c2.82889,-0.97853 3.49695,1.97688 3.49695,1.97688" fill="none" stroke="#000000" stroke-width="1.5" stroke-linecap="round"/><path d="M301.88026,203.09401h-3.58693" fill="none" stroke="#000000" stroke-width="1.5" stroke-linecap="round"/><path d="M293.98779,208.29275c0,0 -4.44195,0.74421 -5.32482,-0.54938c-1.08636,-1.59174 0.02243,-9.25329 0.07941,-9.66044c0.06683,-0.47759 4.87074,-0.37467 4.87074,-0.37467" fill="none" stroke="#000000" stroke-width="1.5" stroke-linecap="round"/><path d="M315.33321,197.53338l-3.20059,0.20004" fill="none" stroke="#000000" stroke-width="1.5" stroke-linecap="round"/><path d="M313.73291,197.8001v10.40192" fill="none" stroke="#000000" stroke-width="1.5" stroke-linecap="round"/><path d="M312.33265,208.33537l2.93387,0.06667" fill="none" stroke="#000000" stroke-width="1.5" stroke-linecap="round"/><path d="M286.33617,198.30948c0,0 -3.17967,-1.83237 -5.00645,0.4417c-0.66709,0.83043 -0.86644,4.60707 2.09017,4.28602c3.22801,-0.35052 3.20239,3.06248 1.7361,4.28646c-2.70197,2.25547 -4.58823,0.18952 -4.58823,0.18952" fill="none" stroke="#000000" stroke-width="1.5" stroke-linecap="round"/><path d="M289.13581,203.04705l3.46573,-0.15611" fill="none" stroke="#000000" stroke-width="1.5" stroke-linecap="round"/><path d="M317.61767,208.2374c0,0 -0.31022,-9.73561 -0.31089,-10.27576c-0.00046,-0.37135 4.73756,-0.83918 4.62911,2.117c-0.11838,3.22715 -4.3262,2.79786 -4.28806,3.18894c0.01004,0.10297 1.62229,0.27387 2.47525,1.38368c1.23165,1.60253 1.84308,3.58613 1.84308,3.58613" fill="none" stroke="#000000" stroke-width="1.5" stroke-linecap="round"/><path d="M310.1901,197.67676c0,0 1.66507,10.67634 -3.37231,10.64938c-4.75147,-0.02542 -2.5736,-10.64938 -2.5736,-10.64938" fill="none" stroke="#000000" stroke-width="1.5" stroke-linecap="round"/><path d="M205.74096,226.14668c0,0 -2.34634,-3.07696 -3.30954,-4.80606c-1.00239,-1.79948 -2.59191,-5.7881 -2.59191,-5.7881" fill="none" stroke="#000000" stroke-width="1.5" stroke-linecap="round"/><path d="M199.76837,226.14668c0,0 1.85655,-3.54896 2.78504,-5.28139c1.00836,-1.88145 3.04531,-5.59718 3.04531,-5.59718" fill="none" stroke="#000000" stroke-width="1.5" stroke-linecap="round"/><path d="M219.54745,226.04474c0,0 3.14699,-10.63653 3.52762,-10.63653c0.43938,0 3.17486,10.63652 3.17486,10.63652" fill="none" stroke="#000000" stroke-width="1.5" stroke-linecap="round"/><path d="M221.29592,221.09072l3.35124,0.14571" fill="none" stroke="#000000" stroke-width="1.5" stroke-linecap="round"/><path d="M215.16511,226.00433c0,0 -0.02903,-9.77821 -0.06261,-10.43215c-0.03035,-0.59107 4.60375,-0.26956 4.59737,2.00034c-0.00925,3.29913 -4.1499,3.04358 -4.1499,3.04358" fill="none" stroke="#000000" stroke-width="1.5" stroke-linecap="round"/><path d="M228.10302,225.98168c0,0 -0.31022,-9.73561 -0.31089,-10.27576c-0.00046,-0.37135 4.73756,-0.83918 4.62911,2.117c-0.11838,3.22715 -4.3262,2.79786 -4.28806,3.18894c0.01004,0.10297 1.62229,0.27387 2.47525,1.38368c1.23165,1.60253 1.84308,3.58613 1.84308,3.58613" fill="none" stroke="#000000" stroke-width="1.5" stroke-linecap="round"/><path d="M234.2804,226.21174c0,0 3.14699,-10.63653 3.52762,-10.63653c0.43938,0 3.17486,10.63652 3.17486,10.63652" fill="none" stroke="#000000" stroke-width="1.5" stroke-linecap="round"/><path d="M236.02887,221.25773l3.35124,0.14571" fill="none" stroke="#000000" stroke-width="1.5" stroke-linecap="round"/><path d="M275.40353,215.35644l-3.20059,0.20004" fill="none" stroke="#000000" stroke-width="1.5" stroke-linecap="round"/><path d="M273.80323,215.62316v10.40192" fill="none" stroke="#000000" stroke-width="1.5" stroke-linecap="round"/><path d="M272.40297,226.15843l2.93387,0.06667" fill="none" stroke="#000000" stroke-width="1.5" stroke-linecap="round"/><path d="M255.56106,216.13254c0,0 -3.17967,-1.83237 -5.00645,0.4417c-0.66709,0.83043 -0.86644,4.60707 2.09017,4.28602c3.22801,-0.35052 3.20239,3.06248 1.7361,4.28646c-2.70197,2.25547 -4.58823,0.18952 -4.58823,0.18952" fill="none" stroke="#000000" stroke-width="1.5" stroke-linecap="round"/><path d="M277.68799,226.06046c0,0 -0.31022,-9.73561 -0.31089,-10.27576c-0.00046,-0.37135 4.73756,-0.83918 4.62911,2.117c-0.11838,3.22715 -4.3262,2.79786 -4.28806,3.18894c0.01004,0.10297 1.62229,0.27387 2.47525,1.38368c1.23165,1.60253 1.84308,3.58613 1.84308,3.58613" fill="none" stroke="#000000" stroke-width="1.5" stroke-linecap="round"/><path d="M256.81098,226.22661c0,0 3.14699,-10.63653 3.52762,-10.63653c0.43938,0 3.17486,10.63652 3.17486,10.63652" fill="none" stroke="#000000" stroke-width="1.5" stroke-linecap="round"/><path d="M258.55945,221.2726l3.35124,0.14571" fill="none" stroke="#000000" stroke-width="1.5" stroke-linecap="round"/><path d="M270.5768,226.23135c0,0 -4.94429,0.27641 -5.13008,-0.11385c-0.19886,-0.41769 0.00957,-10.6892 0.00957,-10.6892" fill="none" stroke="#000000" stroke-width="1.5" stroke-linecap="round"/></g></g></svg>