<svg version="1.1" xmlns="http://www.w3.org/2000/svg" xmlns:xlink="http://www.w3.org/1999/xlink" width="36.16667" height="36.16667" viewBox="0,0,36.16667,36.16667"><g transform="translate(-221.91668,-161.91667)"><g data-paper-data="{&quot;isPaintingLayer&quot;:true}" fill-rule="nonzero" stroke="#000000" stroke-linejoin="miter" stroke-miterlimit="10" stroke-dasharray="" stroke-dashoffset="0" style="mix-blend-mode: normal"><path d="M223.16669,189.97229c0,-6.67129 0,-16.32038 0,-20c0,-3.73161 2.76818,-6.80562 6.49979,-6.80562c3.81215,0 13.89418,0 20.64516,0c3.75815,0 6.52172,2.88618 6.52172,6.64433c0,3.69956 0,13.59104 0,20.32258c0,4.059 -2.62401,6.69976 -6.68302,6.69976c-3.79246,0 -13.63401,0 -20.32258,0c-3.85393,0 -6.66107,-0.18976 -6.66107,-6.86105z" fill="#adbcca" stroke-width="2.5" stroke-linecap="butt"/><path d="M246.87295,179.93021h-13.7459" fill="none" stroke-width="3" stroke-linecap="round"/><path d="M240.06981,186.87295v-13.7459" fill="none" stroke-width="3" stroke-linecap="round"/></g></g></svg>