<svg version="1.1" xmlns="http://www.w3.org/2000/svg" xmlns:xlink="http://www.w3.org/1999/xlink" width="32.60001" height="32.61579" viewBox="0,0,32.60001,32.61579"><g transform="translate(-223.7,-163.7)"><g data-paper-data="{&quot;isPaintingLayer&quot;:true}" fill-rule="nonzero" stroke-linejoin="miter" stroke-miterlimit="10" stroke-dasharray="" stroke-dashoffset="0" style="mix-blend-mode: normal"><path d="M224.7,192.83256c0,-6.18539 0,-22.10546 0,-25.57895c0,-1.53324 0.96872,-2.55361 2.50197,-2.55361c1.8551,0 12.41539,0 17.21053,0c1.61693,0 2.65921,0.29197 3.80024,1.43762c0.95165,0.9555 3.65703,3.67185 5.43649,5.45852c1.10364,1.10811 1.65078,1.98826 1.65078,3.5522c0,4.43451 0,15.28284 0,17.52632c0,1.8772 -0.79978,2.62534 -2.67698,2.62534c-6.34215,0 -22.00757,0 -25.42106,0c-2.70569,0 -2.50197,-2.46744 -2.50197,-2.46744z" fill="#714bbc" stroke="#000000" stroke-width="2" stroke-linecap="butt"/><path d="M230.36842,195.31579v-11.19407l1.57407,-1.7533l16.0274,0l1.66169,1.91768v11.02969z" fill="#ffffff" stroke="#000000" stroke-width="2" stroke-linecap="butt"/><path d="M233.59346,187.94863l2.03706,-2.15732l2.53399,2.20779l2.67438,-1.27583l1.80145,1.3506l1.51715,-2.15831l2.06756,1.40149" fill="none" stroke="#000000" stroke-width="2" stroke-linecap="round"/><path d="M230.51776,175.93782c0,-2.23965 0,-11.21053 0,-11.21053h14.21053c0,0 0,8.77566 0,11.05263c0,1.3946 -0.97382,2.21053 -2.36842,2.21053c-3.10747,0 -8.35331,0 -9.94737,0c-1.85466,0 -1.89474,-2.05263 -1.89474,-2.05263z" fill="#bfcee6" stroke="#000000" stroke-width="2" stroke-linecap="butt"/><path d="M236.67565,174.35887c0,-1.90699 0,-5.4114 0,-6.47368c0,-0.70964 0.39562,-1.26316 1.10526,-1.26316c0.60838,0 2.15428,0 3.31579,0c0.81636,0 1.42105,0.4468 1.42105,1.26316c0,1.00603 0,4.2024 0,6.1579c0,0.9095 -0.51155,1.57895 -1.42105,1.57895c-0.63704,0 -2.09064,0 -3.15789,0c-0.71933,0 -1.26316,-0.26028 -1.26316,-1.26316z" fill="#714bbc" stroke="none" stroke-width="0" stroke-linecap="butt"/><path d="M233.99729,191.79296l1.56164,0.82192l1.23288,-1.80822l1.23288,0.9863" fill="none" stroke="#000000" stroke-width="2" stroke-linecap="round"/></g></g></svg>