<svg version="1.1" xmlns="http://www.w3.org/2000/svg" xmlns:xlink="http://www.w3.org/1999/xlink" width="85.81818" height="29.36363" viewBox="0,0,85.81818,29.36363"><g transform="translate(-197.09091,-165.31818)"><g data-paper-data="{&quot;isPaintingLayer&quot;:true}" fill-rule="nonzero" stroke="#000000" stroke-linejoin="miter" stroke-miterlimit="10" stroke-dasharray="" stroke-dashoffset="0" style="mix-blend-mode: normal"><path d="M198.59091,170.38123c0,-2.25854 1.60444,-3.56305 3.86297,-3.56305c10.75015,0 55.79618,0 75.09091,0c2.28356,0 3.8643,1.27949 3.8643,3.56305c0,3.1285 -0.90909,13.74454 -2.27273,19.31818c-0.55735,2.2781 -1.74629,3.4824 -4.09157,3.4824c-11.04321,0 -51.3047,0 -70.09091,0c-3.92437,0 -4.54479,-3.93695 -4.54479,-3.93695c0,0 -1.81818,-15.81822 -1.81818,-18.86363z" fill="#ffe042" stroke-width="3" stroke-linecap="butt"/><path d="M214.99658,186.82099c0,0 -0.26952,-6.74406 -0.28692,-6.50872c-0.03133,0.42358 -3.08284,9.66264 -6.45171,5.14288c-2.60582,-3.63661 -1.55189,-10.82301 2.07359,-12.0771c3.59538,-1.24367 4.44445,2.51252 4.44445,2.51252" fill="none" stroke-width="2" stroke-linecap="round"/><path d="M239.58342,186.70856c0,0 -0.39428,-12.37349 -0.39512,-13.06c-0.00058,-0.47197 6.02121,-1.06656 5.88338,2.69061c-0.15046,4.10155 -5.49839,3.55594 -5.44992,4.05299c0.01276,0.13087 2.06185,0.34808 3.14592,1.75859c1.56537,2.03674 2.34247,4.5578 2.34247,4.5578" fill="none" stroke-width="2" stroke-linecap="round"/><path d="M228.44215,186.7887c0,0 3.99967,-13.51852 4.48343,-13.51852c0.55843,0 4.03509,13.51851 4.03509,13.51851" fill="none" stroke-width="2" stroke-linecap="round"/><path d="M230.66433,180.49244l4.25926,0.18519" fill="none" stroke-width="2" stroke-linecap="round"/><path d="M248.01971,186.60102c0.06947,-1.2887 -0.32082,-12.02963 -0.37037,-12.7075c-0.09131,-1.24937 7.72017,-0.49404 7.77777,5.79313c0.06613,7.21724 -7.44931,7.69188 -7.4074,6.91437z" fill="none" stroke-width="2" stroke-linecap="round"/><path d="M215.9608,180.1716h-4.55882" fill="none" stroke-width="2" stroke-linecap="round"/><path d="M226.79723,173.28654c0,0 2.11622,13.56911 -4.28604,13.53485c-6.03889,-0.03231 -3.27092,-13.53485 -3.27092,-13.53485" fill="none" stroke-width="2" stroke-linecap="round"/><path d="M267.66034,186.63163c0,0 -0.39428,-12.37349 -0.39512,-13.06c-0.00058,-0.47197 6.02121,-1.06656 5.88338,2.69061c-0.15046,4.10155 -5.49839,3.55594 -5.44992,4.05299c0.01276,0.13087 2.06185,0.34808 3.14592,1.75859c1.56537,2.03674 2.34247,4.5578 2.34247,4.5578" fill="none" stroke-width="2" stroke-linecap="round"/><path d="M256.51908,186.71177c0,0 3.99967,-13.51852 4.48343,-13.51852c0.55843,0 4.03509,13.51851 4.03509,13.51851" fill="none" stroke-width="2" stroke-linecap="round"/><path d="M258.74126,180.41551l4.25926,0.18519" fill="none" stroke-width="2" stroke-linecap="round"/></g></g></svg>