<svg version="1.1" xmlns="http://www.w3.org/2000/svg" xmlns:xlink="http://www.w3.org/1999/xlink" width="206.5631" height="130.98212" viewBox="0,0,206.5631,130.98212"><g transform="translate(-136.71845,-114.50894)"><g data-paper-data="{&quot;isPaintingLayer&quot;:true}" fill-rule="nonzero" stroke-linejoin="miter" stroke-miterlimit="10" stroke-dasharray="" stroke-dashoffset="0" style="mix-blend-mode: normal"><path d="M137.96845,235.75817c0,-25.05104 0,-99.76124 0,-112.70181c0,-4.4104 3.254,-7.21046 8.3794,-7.21046c19.31233,0 151.15816,0 186.81139,0c5.48917,0 8.8723,2.91118 8.8723,7.6346c0,13.6847 0,92.70635 0,114.82253c0,3.95215 -3.29363,5.93803 -7.88649,5.93803c-18.86863,0 -151.52639,0 -187.30429,0c-8.10434,0 -8.87231,-2.09422 -8.87231,-8.4829z" fill="#8d9aa5" stroke="#000000" stroke-width="2.5" stroke-linecap="butt"/><path d="M137.61619,136.54832l13.44898,-20.71187l12.49743,-0.19953l-25.58831,41.02544z" fill="#abbbc9" stroke="none" stroke-width="0" stroke-linecap="butt"/><path d="M137.33812,164.88018l29.63546,-48.92589l27.43879,0.15761l-56.71613,94.2154z" fill="#abbbc9" stroke="none" stroke-width="0" stroke-linecap="butt"/><path d="M137.96846,235.67121c0,-25.05104 0,-99.76124 0,-112.70181c0,-4.4104 3.254,-7.21046 8.3794,-7.21046c19.31232,0 151.15816,0 186.81139,0c5.48917,0 8.8723,2.91118 8.8723,7.6346c0,13.68469 0,92.70635 0,114.82254c0,3.95215 -3.29364,5.93803 -7.8865,5.93803c-18.86863,0 -151.52639,0 -187.30429,0c-8.10434,0 -8.87231,-2.09422 -8.87231,-8.4829z" fill="none" stroke="#000000" stroke-width="2.5" stroke-linecap="butt"/><path d="M142.27432,124.22192c0,-2.41145 1.95486,-4.36632 4.36632,-4.36632c2.41145,0 4.36633,1.95487 4.36633,4.36632c0,2.41145 -1.95487,4.36632 -4.36633,4.36632c-2.41145,0 -4.36632,-1.95487 -4.36632,-4.36632z" fill="#abbbc9" stroke="#000000" stroke-width="2" stroke-linecap="butt"/><path d="M147.5351,125.34591l-2.14305,-2.14305" fill="none" stroke="#000000" stroke-width="2" stroke-linecap="round"/><path d="M328.54683,124.26672c0,-2.41145 1.95486,-4.36632 4.36632,-4.36632c2.41145,0 4.36633,1.95487 4.36633,4.36632c0,2.41145 -1.95487,4.36632 -4.36633,4.36632c-2.41145,0 -4.36632,-1.95487 -4.36632,-4.36632z" fill="#abbbc9" stroke="#000000" stroke-width="2" stroke-linecap="butt"/><path d="M331.66458,123.24766l2.14305,2.14305" fill="none" stroke="#000000" stroke-width="2" stroke-linecap="round"/><path d="M147.66905,123.06891l-2.34396,2.34396" fill="none" stroke="#000000" stroke-width="2" stroke-linecap="round"/><path d="M333.94157,123.11371l-2.34396,2.34396" fill="none" stroke="#000000" stroke-width="2" stroke-linecap="round"/><path d="M142.28795,235.45659c0,-2.41145 1.95486,-4.36632 4.36632,-4.36632c2.41145,0 4.36633,1.95487 4.36633,4.36632c0,2.41145 -1.95487,4.36632 -4.36633,4.36632c-2.41145,0 -4.36632,-1.95487 -4.36632,-4.36632z" fill="#abbbc9" stroke="#000000" stroke-width="2" stroke-linecap="butt"/><path d="M147.54875,236.58058l-2.14305,-2.14305" fill="none" stroke="#000000" stroke-width="2" stroke-linecap="round"/><path d="M328.56047,235.50139c0,-2.41145 1.95486,-4.36632 4.36632,-4.36632c2.41145,0 4.36633,1.95487 4.36633,4.36632c0,2.41145 -1.95487,4.36632 -4.36633,4.36632c-2.41145,0 -4.36632,-1.95487 -4.36632,-4.36632z" fill="#abbbc9" stroke="#000000" stroke-width="2" stroke-linecap="butt"/><path d="M331.67821,234.48233l2.14305,2.14305" fill="none" stroke="#000000" stroke-width="2" stroke-linecap="round"/><path d="M145.33872,236.64754l2.34396,-2.34396" fill="none" stroke="#000000" stroke-width="2" stroke-linecap="round"/><path d="M331.61123,236.69234l2.34396,-2.34396" fill="none" stroke="#000000" stroke-width="2" stroke-linecap="round"/><path d="M195.33966,140.74819c0,0 -0.53008,2.36442 -4.30051,2.28425c-3.16094,-0.06721 -3.62102,-3.83388 -3.25824,-5.9062c0.36278,-2.07232 1.50411,-2.71293 3.88167,-3.58239c2.37756,-0.86946 2.14988,-1.69114 2.6257,-2.64973" fill="none" stroke="#3f454a" stroke-width="2.5" stroke-linecap="round"/><path d="M193.29925,126.37953c0,-0.67525 0.54739,-1.22263 1.22263,-1.22263c0.67523,0 1.22263,0.54738 1.22263,1.22263c0,0.67525 -0.54739,1.22263 -1.22263,1.22263c-0.67523,0 -1.22263,-0.54738 -1.22263,-1.22263z" fill="#3f454a" stroke="none" stroke-width="0.5" stroke-linecap="butt"/><path d="M283.65301,128.74497c0,0 1.48755,-2.82407 5.06367,-2.37429c1.76408,0.22187 4.05367,1.8486 3.53184,4.02406c-0.48175,2.00835 -2.84448,3.37165 -3.96811,4.49613c-1.24762,1.24855 -1.23965,2.84916 -1.23965,2.84916" fill="none" stroke="#3f454a" stroke-width="2.5" stroke-linecap="round"/><path d="M285.93469,142.76332c0,-0.67523 0.54738,-1.22263 1.22263,-1.22263c0.67525,0 1.22263,0.54739 1.22263,1.22263c0,0.67523 -0.54738,1.22263 -1.22263,1.22263c-0.67525,0 -1.22263,-0.54739 -1.22263,-1.22263z" fill="#3f454a" stroke="none" stroke-width="0.5" stroke-linecap="butt"/><path d="M208.4891,143.07833c0,0 -0.32952,-8.24547 -0.3508,-7.95774c-0.0383,0.51788 -3.76917,11.81381 -7.88804,6.28783c-3.18595,-4.44622 -1.89738,-13.23251 2.53523,-14.7658c4.39581,-1.52055 5.43391,3.07188 5.43391,3.07188" fill="none" stroke="#3f454a" stroke-width="2.5" stroke-linecap="round"/><path d="M239.07787,142.94087c0,0 -0.48206,-15.12817 -0.48308,-15.96752c-0.00071,-0.57704 7.3617,-1.30401 7.19318,3.28961c-0.18396,5.01467 -6.72248,4.34759 -6.66322,4.9553c0.0156,0.16001 2.52087,0.42557 3.84629,2.1501c1.91386,2.49017 2.86397,5.57249 2.86397,5.57249" fill="none" stroke="#3f454a" stroke-width="2.5" stroke-linecap="round"/><path d="M225.18896,143.03885c0,0 4.89011,-16.52812 5.48157,-16.52812c0.68275,0 4.93341,16.5281 4.93341,16.5281" fill="none" stroke="#3f454a" stroke-width="2.5" stroke-linecap="round"/><path d="M233.11335,135.56729l-5.20749,-0.22642" fill="none" stroke="#3f454a" stroke-width="2.5" stroke-linecap="round"/><path d="M249.22684,142.80939c0.08494,-1.5756 -0.39224,-14.70776 -0.45282,-15.53654c-0.11164,-1.52751 9.43889,-0.60403 9.50932,7.08284c0.08085,8.824 -9.10773,9.40431 -9.05649,8.4537z" fill="none" stroke="#3f454a" stroke-width="2.5" stroke-linecap="round"/><path d="M204.09424,134.94861h5.57374" fill="none" stroke="#3f454a" stroke-width="2.5" stroke-linecap="round"/><path d="M223.01217,126.53073c0,0 2.58735,16.58997 -5.24023,16.54808c-7.38331,-0.0395 -3.99912,-16.54808 -3.99912,-16.54808" fill="none" stroke="#3f454a" stroke-width="2.5" stroke-linecap="round"/><path d="M273.76188,142.87652c0,0 -0.48206,-15.12817 -0.48308,-15.96752c-0.00071,-0.57704 7.3617,-1.30401 7.19318,3.28961c-0.18396,5.01467 -6.72248,4.34759 -6.66322,4.9553c0.0156,0.16001 2.52087,0.42557 3.84629,2.1501c1.91386,2.49017 2.86397,5.57249 2.86397,5.57249" fill="none" stroke="#3f454a" stroke-width="2.5" stroke-linecap="round"/><path d="M259.87297,142.9745c0,0 4.89011,-16.52812 5.48157,-16.52812c0.68275,0 4.93341,16.5281 4.93341,16.5281" fill="none" stroke="#3f454a" stroke-width="2.5" stroke-linecap="round"/><path d="M262.58987,135.27652l5.20749,0.22642" fill="none" stroke="#3f454a" stroke-width="2.5" stroke-linecap="round"/></g></g></svg>