<svg version="1.1" xmlns="http://www.w3.org/2000/svg" xmlns:xlink="http://www.w3.org/1999/xlink" width="126.18182" height="29.36363" viewBox="0,0,126.18182,29.36363"><g transform="translate(-176.90909,-165.31818)"><g data-paper-data="{&quot;isPaintingLayer&quot;:true}" fill-rule="nonzero" stroke="#000000" stroke-linejoin="miter" stroke-miterlimit="10" stroke-dasharray="" stroke-dashoffset="0" style="mix-blend-mode: normal"><path d="M179.54266,187.64744c-1.36364,-6.13229 -1.13357,-14.2208 -1.13357,-17.26621c0,-2.25854 1.60444,-3.56305 3.86297,-3.56305c10.75015,0 96.15982,0 115.45455,0c2.28356,0 3.8643,1.27949 3.8643,3.56305c0,3.1285 -0.90909,13.74454 -2.27273,19.31818c-0.55735,2.2781 -1.74629,3.4824 -4.09157,3.4824c-11.04321,0 -91.66834,0 -110.45455,0c0,0 -3.86576,0.59792 -5.2294,-5.53437z" fill="#96a4b1" stroke-width="3" stroke-linecap="butt"/><path d="" fill="#98a6b2" stroke-width="3" stroke-linecap="butt"/><path d="M186.83947,174.35702c0,-3.96553 3.2147,-7.18024 7.18023,-7.18024c3.96553,0 7.18024,3.21471 7.18024,7.18024c0,0 0.06238,2.37331 -0.05218,4.12213c-0.08137,1.24209 -0.1586,1.91232 -0.82941,2.34455c-4.07084,2.62301 -7.49679,0.16547 -12.33186,-0.10654c-0.70131,-0.03946 -0.97737,-0.83687 -1.11294,-1.9092c-0.20228,-1.59996 -0.03408,-3.75417 -0.03408,-4.45095zM193.7719,171.54c-1.45517,-0.05015 -2.79164,1.40594 -2.79164,3.00318c0,0.3796 -1.75732,1.63345 -1.72205,2.71699c0.0352,1.08111 0.12109,2.07266 0.70033,2.09675c1.24903,0.05195 5.88971,1.65702 7.56629,0.54278c0.7989,-0.53095 0.73527,-1.30829 0.77496,-2.30582c0.055,-1.38217 -1.39298,-1.80191 -1.44435,-2.96019c-0.28032,-3.44555 -1.97202,-3.05539 -3.08354,-3.0937z" fill="#98a6b2" stroke-width="2.5" stroke-linecap="butt"/><path d="M183.60285,191.36118v-13.96643l1.75504,-1.63511h17.18779l1.54115,1.50047v13.96643l-4.09912,1.59668h-12.11673z" fill="#cdc11f" stroke-width="2.5" stroke-linecap="butt"/><path d="M268.40631,180.20049c0.83614,3.6575 -2.3882,6.79025 -5.33361,6.83441c-4.72354,0.07082 -5.5881,-3.07056 -5.33361,-6.83441c0.31747,-4.69523 2.38927,-6.73547 5.33361,-6.8344c4.21558,-0.14164 4.76214,4.33468 5.33361,6.83441c0,0 -0.83614,-3.65751 0,-0.00001z" fill="none" stroke-width="2" stroke-linecap="butt"/><path d="M241.76438,180.20049c0.83614,3.6575 -2.3882,6.79025 -5.33361,6.83441c-4.72354,0.07082 -5.5881,-3.07056 -5.33361,-6.83441c0.31747,-4.69523 2.38927,-6.73547 5.33361,-6.8344c4.21558,-0.14164 4.76214,4.33468 5.33361,6.83441c0,0 -0.83614,-3.65751 0,-0.00001z" fill="none" stroke-width="2" stroke-linecap="butt"/><path d="M255.08535,180.20049c0.83614,3.6575 -2.3882,6.79025 -5.33361,6.83441c-4.72354,0.07082 -5.5881,-3.07056 -5.33361,-6.83441c0.31747,-4.69523 2.38927,-6.73547 5.33361,-6.8344c4.21558,-0.14164 4.76214,4.33468 5.33361,6.83441c0,0 -0.83614,-3.65751 0,-0.00001z" fill="none" stroke-width="2" stroke-linecap="butt"/><path d="M273.55857,186.96914c0,0 -0.03342,-7.97324 -0.07208,-8.50647c-0.03494,-0.48197 5.3001,-0.2198 5.29276,1.6311c-0.01065,2.69014 -4.7776,2.48176 -4.7776,2.48176" fill="none" stroke-width="2" stroke-linecap="round"/><path d="M294.40933,178.85535c0,0 -3.66062,-1.49413 -5.76372,0.36016c-0.76799,0.67714 -0.99749,3.75666 2.40632,3.49487c3.71628,-0.28582 3.68677,2.49717 1.9987,3.49522c-3.11067,1.83913 -5.28224,0.15453 -5.28224,0.15453" fill="none" stroke-width="2" stroke-linecap="round"/><path d="M280.16669,178.48854c0,0 1.93558,-0.19213 3.01703,-0.21569c1.17023,-0.0255 3.7591,0.06802 3.7591,0.06802" fill="none" stroke-width="2" stroke-linecap="round"/><path d="M283.60688,178.63622l-0.31274,8.56503" fill="none" stroke-width="2" stroke-linecap="round"/><path d="M294.57765,186.67566c0,-0.55228 0.40556,-1 0.90582,-1c0.50027,0 0.90582,0.44772 0.90582,1c0,0.55228 -0.40556,1 -0.90582,1c-0.50027,0 -0.90582,-0.44772 -0.90582,-1z" fill="#000000" stroke-width="0.5" stroke-linecap="butt"/><path d="M208.08848,173.46554c0,0 6.37668,-0.33307 6.39797,0.11766c0.02005,0.42443 -5.57816,6.23625 -5.47809,6.6372c0.13929,0.55809 3.95237,-2.22006 5.72443,0.86535c0.48638,0.84685 0.77566,1.89314 0.04235,3.63602c-0.6113,1.45289 -1.95124,2.4326 -3.34875,2.37055c-2.7442,-0.12184 -3.04257,-2.52228 -3.04257,-2.52228" fill="none" stroke-width="2" stroke-linecap="round"/><path d="M223.12648,187.17378c-4.72354,0.07082 -5.5881,-3.07056 -5.33361,-6.83441c0.31747,-4.69523 2.38927,-6.73547 5.33361,-6.8344c4.21558,-0.14164 4.76214,4.33468 5.33361,6.83441c0.57147,2.49973 -0.61007,6.76358 -5.33361,6.8344z" fill="none" stroke-width="2" stroke-linecap="butt"/></g></g></svg>