<svg version="1.1" xmlns="http://www.w3.org/2000/svg" xmlns:xlink="http://www.w3.org/1999/xlink" width="206.6997" height="238.10573" viewBox="0,0,206.6997,238.10573"><g transform="translate(-136.71848,-60.94714)"><g data-paper-data="{&quot;isPaintingLayer&quot;:true}" fill-rule="nonzero" stroke-linejoin="miter" stroke-miterlimit="10" stroke-dasharray="" stroke-dashoffset="0" style="mix-blend-mode: normal"><path d="M138.10509,71.35202c0,-8.22116 3.254,-9.15488 8.3794,-9.15488c19.31233,0 151.15816,0 186.81139,0c5.48917,0 8.8723,0.06941 8.8723,8.87406c0,25.50884 0,176.93748 0,218.16294c0,7.36697 -3.29363,8.56873 -7.88649,8.56873c-18.86863,0 -151.52639,0 -187.30429,0c-8.10434,0 -8.87231,-3.18943 -8.87231,-8.66962c0,-11.90876 0,-217.78124 0,-217.78124z" fill="#8d9aa5" stroke="#000000" stroke-width="2.5" stroke-linecap="butt"/><path d="M138.10996,117.11019l33.44898,-54.46187l12.49743,-0.19953l-45.58831,74.77544z" fill="#abbbc9" stroke="none" stroke-width="0" stroke-linecap="butt"/><path d="M137.8319,145.44203l51.42117,-83.21161l27.43879,0.15761l-78.50184,128.16779z" fill="#abbbc9" stroke="none" stroke-width="0" stroke-linecap="butt"/><path d="M142.76809,71.9266c0,-2.41145 1.95486,-4.36632 4.36632,-4.36632c2.41145,0 4.36633,1.95487 4.36633,4.36632c0,2.41145 -1.95487,4.36632 -4.36633,4.36632c-2.41145,0 -4.36632,-1.95487 -4.36632,-4.36632z" fill="#abbbc9" stroke="#000000" stroke-width="2" stroke-linecap="butt"/><path d="M145.88583,70.90758l2.14305,2.14305" fill="none" stroke="#000000" stroke-width="2" stroke-linecap="round"/><path d="M329.04061,71.97144c0,-2.41145 1.95486,-4.36632 4.36632,-4.36632c2.41145,0 4.36633,1.95487 4.36633,4.36632c0,2.41145 -1.95487,4.36632 -4.36633,4.36632c-2.41145,0 -4.36632,-1.95487 -4.36632,-4.36632z" fill="#abbbc9" stroke="#000000" stroke-width="2" stroke-linecap="butt"/><path d="M332.15835,70.95237l2.14305,2.14305" fill="none" stroke="#000000" stroke-width="2" stroke-linecap="round"/><path d="M145.81886,73.11758l2.34396,-2.34396" fill="none" stroke="#000000" stroke-width="2" stroke-linecap="round"/><path d="M334.43532,70.81839l-2.34396,2.34396" fill="none" stroke="#000000" stroke-width="2" stroke-linecap="round"/><path d="M142.78174,288.5184c0,-2.41145 1.95486,-4.36631 4.36632,-4.36631c2.41145,0 4.36633,1.95486 4.36633,4.36631c0,2.41145 -1.95487,4.36632 -4.36633,4.36632c-2.41145,0 -4.36632,-1.95487 -4.36632,-4.36632z" fill="#abbbc9" stroke="#000000" stroke-width="2" stroke-linecap="butt"/><path d="M148.04251,289.64241l-2.14305,-2.14305" fill="none" stroke="#000000" stroke-width="2" stroke-linecap="round"/><path d="M329.05422,288.56323c0,-2.41145 1.95486,-4.36632 4.36632,-4.36632c2.41145,0 4.36633,1.95487 4.36633,4.36632c0,2.41145 -1.95487,4.36632 -4.36633,4.36632c-2.41145,0 -4.36632,-1.95487 -4.36632,-4.36632z" fill="#abbbc9" stroke="#000000" stroke-width="2" stroke-linecap="butt"/><path d="M332.17197,287.54416l2.14305,2.14305" fill="none" stroke="#000000" stroke-width="2" stroke-linecap="round"/><path d="M145.83251,289.70935l2.34396,-2.34395" fill="none" stroke="#000000" stroke-width="2" stroke-linecap="round"/><path d="M332.105,289.75415l2.34396,-2.34395" fill="none" stroke="#000000" stroke-width="2" stroke-linecap="round"/><path d="M137.96848,71.35202c0,-8.22116 3.254,-9.15488 8.3794,-9.15488c19.31233,0 151.15816,0 186.81139,0c5.48917,0 8.8723,0.06941 8.8723,8.87406c0,25.50884 0,176.93748 0,218.16294c0,7.36697 -3.29363,8.56873 -7.88649,8.56873c-18.86863,0 -151.52639,0 -187.30429,0c-8.10434,0 -8.87231,-3.18943 -8.87231,-8.66962c0,-11.90876 0,-217.78124 0,-217.78124z" fill="none" stroke="#000000" stroke-width="2.5" stroke-linecap="butt"/><path d="M251.82536,70.14697c0,0 2.09419,-0.29349 3.26425,-0.32949c1.26613,-0.03896 4.06712,0.10391 4.06712,0.10391" fill="none" stroke="#40464b" stroke-width="3" stroke-linecap="round"/><path d="M269.36795,76.22299c0,3.54692 -2.0557,7.36528 -4.0513,7.26608c-3.07912,-0.15307 -4.38672,-3.53164 -4.38672,-7.07857c0,-3.54692 1.80055,-6.35239 3.64404,-6.49881c2.11335,-0.16785 4.79398,2.76437 4.79398,6.3113z" fill="none" stroke="#40464b" stroke-width="3" stroke-linecap="butt"/><path d="M200.53989,83.4236c0,0 3.99967,-13.51852 4.48343,-13.51852c0.55843,0 4.03509,13.51851 4.03509,13.51851" fill="none" stroke="#40464b" stroke-width="3" stroke-linecap="round"/><path d="M207.02137,77.31248l-4.25926,-0.18519" fill="none" stroke="#40464b" stroke-width="3" stroke-linecap="round"/><path d="M223.13143,83.37228c0,0 -0.0369,-12.42763 -0.07957,-13.25876c-0.03857,-0.75122 5.85114,-0.3426 5.84304,2.54233c-0.01176,4.19303 -5.27432,3.86824 -5.27432,3.86824" fill="none" stroke="#40464b" stroke-width="3" stroke-linecap="round"/><path d="M249.00126,81.13817c0,0 -3.6686,4.29799 -5.9298,1.1896c-2.60582,-3.58213 -2.14012,-10.80572 1.48536,-12.04102c3.59537,-1.22504 4.44444,2.47489 4.44444,2.47489" fill="none" stroke="#40464b" stroke-width="3" stroke-linecap="round"/><path d="M239.31505,83.4138c0,0 -5.6455,0.94586 -6.76759,-0.69824c-1.38071,-2.02302 0.02851,-11.76048 0.10092,-12.27796c0.08494,-0.60699 6.19048,-0.47619 6.19048,-0.47619" fill="none" stroke="#40464b" stroke-width="3" stroke-linecap="round"/><path d="M219.60112,70.72558c0,0 -4.04121,-2.32886 -6.36296,0.56138c-0.84784,1.05544 -1.1012,5.85537 2.6565,5.44733c4.10265,-0.4455 4.07008,3.89227 2.2065,5.44789c-3.43408,2.86659 -5.83142,0.24087 -5.83142,0.24087" fill="none" stroke="#40464b" stroke-width="3" stroke-linecap="round"/><path d="M237.55319,76.5484l-4.40477,0.19841" fill="none" stroke="#40464b" stroke-width="3" stroke-linecap="round"/><path d="M255.54743,70.37256l-0.33837,13.08369" fill="none" stroke="#40464b" stroke-width="3" stroke-linecap="round"/><path d="M279.46017,70.76838c0,0 -4.04121,-2.32886 -6.36296,0.56138c-0.84784,1.05544 -1.1012,5.85537 2.6565,5.44733c4.10265,-0.4455 4.07008,3.89227 2.2065,5.4479c-3.43408,2.86659 -5.83142,0.24087 -5.83142,0.24087" fill="none" stroke="#40464b" stroke-width="3" stroke-linecap="round"/></g></g></svg>