<svg version="1.1" xmlns="http://www.w3.org/2000/svg" xmlns:xlink="http://www.w3.org/1999/xlink" width="126.18182" height="29.36363" viewBox="0,0,126.18182,29.36363"><g transform="translate(-176.90909,-165.31818)"><g data-paper-data="{&quot;isPaintingLayer&quot;:true}" fill-rule="nonzero" stroke="#000000" stroke-linejoin="miter" stroke-miterlimit="10" stroke-dasharray="" stroke-dashoffset="0" style="mix-blend-mode: normal"><path d="M178.40909,170.38123c0,-2.25854 1.60444,-3.56305 3.86297,-3.56305c10.75015,0 96.15982,0 115.45455,0c2.28356,0 3.8643,1.27949 3.8643,3.56305c0,3.1285 -0.90909,13.74454 -2.27273,19.31818c-0.55735,2.2781 -1.74629,3.4824 -4.09157,3.4824c-11.04321,0 -91.66834,0 -110.45455,0c-3.92437,0 -3.85647,-1.47047 -4.54479,-3.93695c-0.68832,-2.46648 -1.81818,-18.86363 -1.81818,-18.86363z" fill="#acbcca" stroke-width="3" stroke-linecap="butt"/><path d="M210.75449,186.72917c0,0 -6.28395,0.3513 -6.52009,-0.1447c-0.25274,-0.53086 0.01216,-13.58546 0.01216,-13.58546" fill="none" stroke-width="2" stroke-linecap="round"/><path d="M243.98624,173.03871l-4.0678,0.25424" fill="none" stroke-width="2" stroke-linecap="round"/><path d="M241.95234,173.3777v13.22034" fill="none" stroke-width="2" stroke-linecap="round"/><path d="M243.90149,186.85227l-3.72881,-0.08474" fill="none" stroke-width="2" stroke-linecap="round"/><path d="M264.57888,173.17359c0,0 0.28649,13.55614 -2.3025,13.51373c-3.08717,-0.05058 -5.62614,-13.93342 -5.57103,-13.37097c0.06296,0.64262 -0.20045,13.59188 -0.20045,13.59188" fill="none" stroke-width="2" stroke-linecap="round"/><path d="M253.74867,179.52251c0,3.54692 -2.0557,7.36528 -4.0513,7.26608c-3.07912,-0.15307 -4.38672,-3.53164 -4.38672,-7.07857c0,-3.54692 1.80055,-6.35239 3.64404,-6.49881c2.11335,-0.16785 4.79398,2.76437 4.79398,6.3113z" fill="none" stroke-width="2" stroke-linecap="butt"/><path d="M265.88725,186.72315c0,0 3.99967,-13.51852 4.48343,-13.51852c0.55843,0 4.03509,13.51851 4.03509,13.51851" fill="none" stroke-width="2" stroke-linecap="round"/><path d="M272.36873,180.61203l-4.25926,-0.18519" fill="none" stroke-width="2" stroke-linecap="round"/><path d="M228.75529,184.43769c0,0 -3.6686,4.29799 -5.9298,1.1896c-2.60582,-3.58213 -2.14012,-10.80572 1.48536,-12.04102c3.59537,-1.22504 4.44444,2.47489 4.44444,2.47489" fill="none" stroke-width="2" stroke-linecap="round"/><path d="M201.55384,186.71336c0,0 -5.6455,0.94586 -6.76759,-0.69824c-1.38071,-2.02302 0.02851,-11.76048 0.10092,-12.27796c0.08494,-0.60699 6.19048,-0.47619 6.19048,-0.47619" fill="none" stroke-width="2" stroke-linecap="round"/><path d="M191.75421,174.0251c0,0 -4.04121,-2.32886 -6.36296,0.56138c-0.84784,1.05544 -1.1012,5.85537 2.6565,5.44733c4.10265,-0.4455 4.07008,3.89227 2.2065,5.44789c-3.43408,2.86659 -5.83142,0.24087 -5.83142,0.24087" fill="none" stroke-width="2" stroke-linecap="round"/><path d="M199.79199,179.84791l-4.40477,0.19841" fill="none" stroke-width="2" stroke-linecap="round"/><path d="M220.10337,186.75621c0,0 -5.6455,0.94586 -6.76759,-0.69824c-1.38071,-2.02302 0.02851,-11.76048 0.10092,-12.27796c0.08494,-0.60699 6.19048,-0.47619 6.19048,-0.47619" fill="none" stroke-width="2" stroke-linecap="round"/><path d="M213.93675,180.08917l4.40477,-0.19841" fill="none" stroke-width="2" stroke-linecap="round"/><path d="M238.38196,184.48054c0,0 -3.6686,4.29799 -5.9298,1.1896c-2.60582,-3.58213 -2.14012,-10.80572 1.48536,-12.04102c3.59537,-1.22504 4.44444,2.47489 4.44444,2.47489" fill="none" stroke-width="2" stroke-linecap="round"/><path d="M277.15448,186.30418c0.06947,-1.2887 -0.32082,-12.02963 -0.37037,-12.7075c-0.09131,-1.24937 7.72017,-0.49404 7.77777,5.79313c0.06613,7.21724 -7.44931,7.69188 -7.4074,6.91437z" fill="none" stroke-width="2" stroke-linecap="round"/><path d="M295.57717,179.29121c0,3.54692 -2.0557,7.36528 -4.0513,7.26608c-3.07912,-0.15307 -4.38672,-3.53164 -4.38672,-7.07857c0,-3.54692 1.80055,-6.35239 3.64404,-6.49881c2.11335,-0.16785 4.79398,2.76437 4.79398,6.3113z" fill="none" stroke-width="2" stroke-linecap="butt"/></g></g></svg>