<svg version="1.1" xmlns="http://www.w3.org/2000/svg" xmlns:xlink="http://www.w3.org/1999/xlink" width="126.18182" height="29.36363" viewBox="0,0,126.18182,29.36363"><g transform="translate(-176.90909,-165.31818)"><g data-paper-data="{&quot;isPaintingLayer&quot;:true}" fill-rule="nonzero" stroke="#000000" stroke-linejoin="miter" stroke-miterlimit="10" stroke-dasharray="" stroke-dashoffset="0" style="mix-blend-mode: normal"><path d="M178.40909,170.38123c0,-2.25854 1.60444,-3.56305 3.86297,-3.56305c10.75015,0 96.15982,0 115.45455,0c2.28356,0 3.8643,1.27949 3.8643,3.56305c0,3.1285 -0.90909,13.74454 -2.27273,19.31818c-0.55735,2.2781 -1.74629,3.4824 -4.09157,3.4824c-11.04321,0 -91.66834,0 -110.45455,0c-3.92437,0 -4.54479,-3.93695 -4.54479,-3.93695c0,0 -1.81818,-15.81822 -1.81818,-18.86363z" fill="#ffe042" stroke-width="3" stroke-linecap="butt"/><path d="M217.35408,186.71619c0,0 -6.28395,0.3513 -6.52009,-0.1447c-0.25274,-0.53086 0.01216,-13.58546 0.01216,-13.58546" fill="none" stroke-width="2" stroke-linecap="round"/><path d="M250.58583,173.02573l-4.0678,0.25424" fill="none" stroke-width="2" stroke-linecap="round"/><path d="M248.55193,173.36472v13.22034" fill="none" stroke-width="2" stroke-linecap="round"/><path d="M250.50108,186.83929l-3.72881,-0.08474" fill="none" stroke-width="2" stroke-linecap="round"/><path d="M271.17847,173.16061c0,0 0.28649,13.55614 -2.3025,13.51373c-3.08717,-0.05058 -5.62614,-13.93342 -5.57103,-13.37097c0.06296,0.64262 -0.20045,13.59188 -0.20045,13.59188" fill="none" stroke-width="2" stroke-linecap="round"/><path d="M260.34826,179.50953c0,3.54692 -2.0557,7.36528 -4.0513,7.26608c-3.07912,-0.15307 -4.38672,-3.53164 -4.38672,-7.07857c0,-3.54692 1.80055,-6.35239 3.64404,-6.49881c2.11335,-0.16785 4.79398,2.76437 4.79398,6.3113z" fill="none" stroke-width="2" stroke-linecap="butt"/><path d="M283.45086,186.63003c0,0 -0.39428,-12.37349 -0.39512,-13.06c-0.00058,-0.47197 6.02121,-1.06656 5.88338,2.69061c-0.15046,4.10155 -5.49839,3.55594 -5.44992,4.05299c0.01276,0.13087 2.06185,0.34808 3.14592,1.75859c1.56537,2.03674 2.34247,4.5578 2.34247,4.5578" fill="none" stroke-width="2" stroke-linecap="round"/><path d="M272.48684,186.71017c0,0 3.99967,-13.51852 4.48343,-13.51852c0.55843,0 4.03509,13.51851 4.03509,13.51851" fill="none" stroke-width="2" stroke-linecap="round"/><path d="M278.96832,180.59905l-4.25926,-0.18519" fill="none" stroke-width="2" stroke-linecap="round"/><path d="M235.35488,184.42471c0,0 -3.6686,4.29799 -5.9298,1.1896c-2.60582,-3.58213 -2.14012,-10.80572 1.48536,-12.04102c3.59537,-1.22504 4.44444,2.47489 4.44444,2.47489" fill="none" stroke-width="2" stroke-linecap="round"/><path d="M208.15343,186.70038c0,0 -5.6455,0.94586 -6.76759,-0.69824c-1.38071,-2.02302 0.02851,-11.76048 0.10092,-12.27796c0.08494,-0.60699 6.19048,-0.47619 6.19048,-0.47619" fill="none" stroke-width="2" stroke-linecap="round"/><path d="M198.3538,174.01212c0,0 -4.04121,-2.32886 -6.36296,0.56138c-0.84784,1.05544 -1.1012,5.85537 2.6565,5.44733c4.10265,-0.4455 4.07008,3.89227 2.2065,5.44789c-3.43408,2.86659 -5.83142,0.24087 -5.83142,0.24087" fill="none" stroke-width="2" stroke-linecap="round"/><path d="M201.98681,180.03334l4.40477,-0.19841" fill="none" stroke-width="2" stroke-linecap="round"/><path d="M226.70296,186.74323c0,0 -5.6455,0.94586 -6.76759,-0.69824c-1.38071,-2.02302 0.02851,-11.76048 0.10092,-12.27796c0.08494,-0.60699 6.19048,-0.47619 6.19048,-0.47619" fill="none" stroke-width="2" stroke-linecap="round"/><path d="M220.53634,180.07619l4.40477,-0.19841" fill="none" stroke-width="2" stroke-linecap="round"/><path d="M244.98155,184.46756c0,0 -3.6686,4.29799 -5.9298,1.1896c-2.60582,-3.58213 -2.14012,-10.80572 1.48536,-12.04102c3.59537,-1.22504 4.44444,2.47489 4.44444,2.47489" fill="none" stroke-width="2" stroke-linecap="round"/></g></g></svg>