<svg version="1.1" xmlns="http://www.w3.org/2000/svg" xmlns:xlink="http://www.w3.org/1999/xlink" width="47.43033" height="47.51296" viewBox="0,0,47.43033,47.51296"><g transform="translate(-216.39679,-156.35016)"><g data-paper-data="{&quot;isPaintingLayer&quot;:true}" fill-rule="nonzero" stroke-linecap="butt" stroke-linejoin="miter" stroke-miterlimit="10" stroke-dasharray="" stroke-dashoffset="0" style="mix-blend-mode: normal"><path d="M246.96602,158.00438l-8.44736,29.57474l-20.25453,-18.51918z" fill="#ffffff" stroke="#000000" stroke-width="0"/><path d="M238.83181,187.51383l-20.47811,-18.72361l8.93975,-3.06052l13.78806,12.60674z" fill="#1e00e2" stroke="none" stroke-width="0"/><path d="M243.12137,169.71616l-7.42433,-6.78824l9.95293,-3.8483z" fill="#f10000" stroke="none" stroke-width="0"/><path d="M246.96601,158.00437l-8.44736,29.57474l-20.25453,-18.51918z" fill="none" stroke="#000000" stroke-width="2"/><path d="M229.16519,185.4008l-7.77672,-7.11044l3.1489,-3.44397l7.77672,7.11044z" fill="#8aa0a9" stroke="#000000" stroke-width="2"/><path d="M231.30655,190.23521l-4.97127,-8.79644l8.62051,-4.87184l4.97126,8.79645z" fill="#8aa0a9" stroke="#000000" stroke-width="2"/><path d="M257.88132,169.90818c0,0 -3.76923,3.86764 -5.15499,6.80991c-2.18484,4.63887 -4.31942,12.9948 -11.21305,15.7529c-2.64884,0.99785 -3.84137,0.7096 -5.81012,-1.97278c-2.05734,-2.75939 -1.54859,-7.11953 -1.54859,-7.11953c0,0 -3.37211,-0.45658 -5.35483,-5.36512c-0.96889,-2.39864 -0.23127,-5.2311 0.89129,-6.23175c6.17589,-5.50507 11.60881,-2.53079 19.8045,-1.40027c3.94959,0.5448 8.38583,-0.06685 8.38583,-0.06685z" fill="#4fbd20" stroke="none" stroke-width="0"/><path d="M234.44994,184.22439l-1.34381,-2.37782c0,0 11.17356,-6.06892 14.98874,-7.93688c2.86317,-1.40183 5.87744,-2.27944 5.87744,-2.27944c0,0 -2.67577,1.82824 -5.04854,3.64304c-2.37275,1.81481 -14.47384,8.95109 -14.47384,8.95109z" fill="#a2fe65" stroke="none" stroke-width="0"/><path d="M253.21603,176.49621c-2.18484,4.63887 -4.81845,12.92107 -11.71211,15.67918c-1.91057,0.58062 -3.84138,0.7096 -5.81012,-1.97278c-2.62646,-3.99626 -1.94234,-6.897 -1.94234,-6.897c0,0 -2.97836,-0.67911 -4.96108,-5.58766c-0.96889,-2.39864 0.54463,-4.90729 1.66719,-5.90793c3.18924,-2.54665 10.7816,-3.18711 18.97729,-2.05658c3.94959,0.5448 8.33724,-0.14092 8.33724,-0.14092z" fill="none" stroke="#000000" stroke-width="2"/><path d="M236.03788,183.0067l0.63565,-2.56713c0,0 3.1726,2.68403 4.98066,3.36696c1.90596,0.7199 5.42245,0.25473 5.42245,0.25473c0,0 -3.61648,1.92233 -5.59548,1.64593c-1.95171,-0.27259 -5.44327,-2.70048 -5.44327,-2.70048z" fill="#a2fe65" stroke="none" stroke-width="0"/><path d="M236.17227,176.04296c0.88845,-1.65329 4.40992,-3.74371 4.40992,-3.74371c0,0 -2.32638,2.571 -2.82732,4.33724c-0.4752,1.67551 -0.14743,5.18523 -0.14743,5.18523l-2.36191,-0.4874c0,0 0.05054,-3.66088 0.92674,-5.29135z" fill="#a2fe65" stroke="none" stroke-width="0"/><path d="M244.14806,178.39401l1.55292,-1.40231c0,0 0.72369,0.7322 1.79151,1.13551c1.12562,0.42516 3.08319,-0.06051 3.08319,-0.06051c0,0 -2.19634,1.22515 -3.3651,1.06191c-1.15264,-0.16099 -3.0625,-0.73461 -3.0625,-0.73461z" fill="#a2fe65" stroke="none" stroke-width="0"/><path d="M242.95159,176.51122c0,0 0.9891,-1.64659 1.50656,-2.60952c0.52471,-0.97641 2.60442,-2.21096 2.60442,-2.21096c0,0 -1.37392,1.51837 -1.66976,2.56148c-0.28065,0.98953 -0.56206,1.82789 -0.56206,1.82789l-1.87916,0.43111z" fill="#a2fe65" stroke="none" stroke-width="0"/><path d="M242.23421,178.11072l-1.74832,13.34247l-1.74463,1.55942l1.97741,-15.09108z" fill="#ff0000" stroke="none" stroke-width="0"/><path d="M261.7359,179.28587l-20.74344,22.70976l-9.87746,-25.6055z" fill="#ffe500" stroke="#000000" stroke-width="0"/><path d="M234.6272,184.34396l-2.6226,-7.21693l25.83247,2.13589z" fill="#ff0000" stroke="none" stroke-width="0"/><path d="M258.9527,181.7368l-17.70581,18.931l-2.90351,-7.10857z" fill="#ff0000" stroke="none" stroke-width="0"/><path d="M261.7359,179.28587l-20.74344,22.70976l-9.87746,-25.6055z" fill="none" stroke="#000000" stroke-width="2"/><path d="M233.59029,195.87679l-3.79244,-9.83123l4.35383,-1.67951l3.79244,9.83123z" fill="#8aa0a9" stroke="#000000" stroke-width="2"/></g></g></svg>