<svg version="1.1" xmlns="http://www.w3.org/2000/svg" xmlns:xlink="http://www.w3.org/1999/xlink" width="126.18182" height="29.36363" viewBox="0,0,126.18182,29.36363"><g transform="translate(-176.90909,-165.31818)"><g data-paper-data="{&quot;isPaintingLayer&quot;:true}" fill-rule="nonzero" stroke="#000000" stroke-linejoin="miter" stroke-miterlimit="10" stroke-dasharray="" stroke-dashoffset="0" style="mix-blend-mode: normal"><path d="M179.54266,187.64744c-1.36364,-6.13229 -1.13357,-14.2208 -1.13357,-17.26621c0,-2.25854 1.60444,-3.56305 3.86297,-3.56305c10.75015,0 96.15982,0 115.45455,0c2.28356,0 3.8643,1.27949 3.8643,3.56305c0,3.1285 -0.90909,13.74454 -2.27273,19.31818c-0.55735,2.2781 -1.74629,3.4824 -4.09157,3.4824c-11.04321,0 -91.66834,0 -110.45455,0c0,0 -3.86576,0.59792 -5.2294,-5.53437z" fill="#96a4b1" stroke-width="3" stroke-linecap="butt"/><path d="" fill="#98a6b2" stroke-width="3" stroke-linecap="butt"/><path d="M188.71873,174.35702c0,-3.96553 3.2147,-7.18024 7.18023,-7.18024c3.96553,0 7.18024,3.21471 7.18024,7.18024c0,0 0.06238,2.37331 -0.05218,4.12213c-0.08137,1.24209 -0.1586,1.91232 -0.82941,2.34455c-4.07084,2.62301 -7.49679,0.16547 -12.33186,-0.10654c-0.70131,-0.03946 -0.97737,-0.83687 -1.11294,-1.9092c-0.20228,-1.59996 -0.03408,-3.75417 -0.03408,-4.45095zM195.65116,171.54c-1.45517,-0.05015 -2.79164,1.40594 -2.79164,3.00318c0,0.3796 -1.75732,1.63345 -1.72205,2.71699c0.0352,1.08111 0.12109,2.07266 0.70033,2.09675c1.24903,0.05195 5.88971,1.65702 7.56629,0.54278c0.7989,-0.53095 0.73527,-1.30829 0.77496,-2.30582c0.055,-1.38217 -1.39298,-1.80191 -1.44435,-2.96019c-0.28032,-3.44555 -1.97202,-3.05539 -3.08354,-3.0937z" fill="#98a6b2" stroke-width="2.5" stroke-linecap="butt"/><path d="M185.48211,191.36118v-13.96643l1.75504,-1.63511h17.18779l1.54115,1.50047v13.96643l-4.09912,1.59668h-12.11673z" fill="#cdc11f" stroke-width="2.5" stroke-linecap="butt"/><path d="M219.27133,173.69399c0,0 -6.83759,-0.32555 -6.91732,0.41943c-0.02987,0.27911 -0.16748,5.3832 -0.19747,6.23976c-0.00607,0.17333 4.95522,-1.30791 6.79429,0.9365c0.95825,1.16945 0.96054,5.69931 -2.39715,6.04658c-5.25349,0.54335 -4.78288,-2.86685 -4.78288,-2.86685" fill="none" stroke-width="2" stroke-linecap="round"/><path d="M263.62558,180.45316c0.92307,3.6575 -2.6365,6.79025 -5.88813,6.83441c-5.21463,0.07082 -6.16908,-3.07056 -5.88813,-6.83441c0.35048,-4.69523 2.63768,-6.73547 5.88813,-6.8344c4.65386,-0.14164 5.25725,4.33468 5.88813,6.83441z" fill="none" stroke-width="2" stroke-linecap="butt"/><path d="M234.21382,180.45316c0.92307,3.6575 -2.6365,6.79025 -5.88813,6.83441c-5.21463,0.07082 -6.16908,-3.07056 -5.88813,-6.83441c0.35048,-4.69523 2.63768,-6.73547 5.88813,-6.8344c4.65386,-0.14164 5.25725,4.33468 5.88813,6.83441z" fill="none" stroke-width="2" stroke-linecap="butt"/><path d="M248.9197,180.45316c0.92307,3.6575 -2.6365,6.79025 -5.88813,6.83441c-5.21463,0.07082 -6.16908,-3.07056 -5.88813,-6.83441c0.35048,-4.69523 2.63768,-6.73547 5.88813,-6.8344c4.65386,-0.14164 5.25725,4.33468 5.88813,6.83441z" fill="none" stroke-width="2" stroke-linecap="butt"/><path d="M269.31352,187.22181c0,0 -0.0369,-7.97324 -0.07957,-8.50647c-0.03857,-0.48197 5.85114,-0.2198 5.84304,1.6311c-0.01176,2.69014 -5.27432,2.48176 -5.27432,2.48176" fill="none" stroke-width="2" stroke-linecap="round"/><path d="M292.33209,179.10802c0,0 -4.04121,-1.49414 -6.36296,0.36016c-0.84784,0.67714 -1.1012,3.75665 2.6565,3.49487c4.10265,-0.28582 4.07008,2.49717 2.2065,3.49522c-3.43408,1.83913 -5.83142,0.15453 -5.83142,0.15453" fill="none" stroke-width="2" stroke-linecap="round"/><path d="M276.60867,178.74121c0,0 2.13682,-0.19213 3.3307,-0.21569c1.2919,-0.02551 4.14992,0.06802 4.14992,0.06802" fill="none" stroke-width="2" stroke-linecap="round"/><path d="M280.06126,187.45392l0.34526,-8.56503" fill="none" stroke-width="2" stroke-linecap="round"/><path d="M292.51789,186.92833c0,-0.55228 0.44772,-1 1,-1c0.55228,0 1,0.44772 1,1c0,0.55228 -0.44772,1 -1,1c-0.55228,0 -1,-0.44772 -1,-1z" fill="#000000" stroke-width="0.5" stroke-linecap="butt"/></g></g></svg>