<svg version="1.1" xmlns="http://www.w3.org/2000/svg" xmlns:xlink="http://www.w3.org/1999/xlink" width="126.18182" height="29.36363" viewBox="0,0,126.18182,29.36363"><g transform="translate(-176.90909,-165.31818)"><g data-paper-data="{&quot;isPaintingLayer&quot;:true}" fill-rule="nonzero" stroke="#000000" stroke-linejoin="miter" stroke-miterlimit="10" stroke-dasharray="" stroke-dashoffset="0" style="mix-blend-mode: normal"><path d="M179.54266,187.64744c-1.36364,-6.13229 -1.13357,-14.2208 -1.13357,-17.26621c0,-2.25854 1.60444,-3.56305 3.86297,-3.56305c10.75015,0 96.15982,0 115.45455,0c2.28356,0 3.8643,1.27949 3.8643,3.56305c0,3.1285 -0.90909,13.74454 -2.27273,19.31818c-0.55735,2.2781 -1.74629,3.4824 -4.09157,3.4824c-11.04321,0 -91.66834,0 -110.45455,0c0,0 -3.86576,0.59792 -5.2294,-5.53437z" fill="#96a4b1" stroke-width="3" stroke-linecap="butt"/><path d="" fill="#98a6b2" stroke-width="3" stroke-linecap="butt"/><path d="M186.83947,174.35702c0,-3.96553 3.2147,-7.18024 7.18023,-7.18024c3.96553,0 7.18024,3.21471 7.18024,7.18024c0,0 0.06238,2.37331 -0.05218,4.12213c-0.08137,1.24209 -0.1586,1.91232 -0.82941,2.34455c-4.07084,2.62301 -7.49679,0.16547 -12.33186,-0.10654c-0.70131,-0.03946 -0.97737,-0.83687 -1.11294,-1.9092c-0.20228,-1.59996 -0.03408,-3.75417 -0.03408,-4.45095zM193.7719,171.54c-1.45517,-0.05015 -2.79164,1.40594 -2.79164,3.00318c0,0.3796 -1.75732,1.63345 -1.72205,2.71699c0.0352,1.08111 0.12109,2.07266 0.70033,2.09675c1.24903,0.05195 5.88971,1.65702 7.56629,0.54278c0.7989,-0.53095 0.73527,-1.30829 0.77496,-2.30582c0.055,-1.38217 -1.39298,-1.80191 -1.44435,-2.96019c-0.28032,-3.44555 -1.97202,-3.05539 -3.08354,-3.0937z" fill="#98a6b2" stroke-width="2.5" stroke-linecap="butt"/><path d="M183.60285,191.36118v-13.96643l1.75504,-1.63511h17.18779l1.54115,1.50047v13.96643l-4.09912,1.59668h-12.11673z" fill="#cdc11f" stroke-width="2.5" stroke-linecap="butt"/><path d="M268.15219,179.8464c0.8427,3.6575 -2.40694,6.79025 -5.37545,6.83441c-4.7606,0.07082 -5.63194,-3.07056 -5.37545,-6.83441c0.31996,-4.69523 2.40802,-6.73547 5.37545,-6.8344c4.24865,-0.14164 4.7995,4.33468 5.37545,6.83441c0,0 -0.8427,-3.65751 0,-0.00001z" fill="none" stroke-width="2" stroke-linecap="butt"/><path d="M241.30122,179.8464c0.8427,3.6575 -2.40694,6.79025 -5.37545,6.83441c-4.7606,0.07082 -5.63194,-3.07056 -5.37545,-6.83441c0.31996,-4.69523 2.40802,-6.73547 5.37545,-6.8344c4.24865,-0.14164 4.7995,4.33468 5.37545,6.83441c0,0 -0.8427,-3.65751 0,-0.00001z" fill="none" stroke-width="2" stroke-linecap="butt"/><path d="M254.7267,179.8464c0.8427,3.6575 -2.40694,6.79025 -5.37545,6.83441c-4.7606,0.07082 -5.63194,-3.07056 -5.37545,-6.83441c0.31996,-4.69523 2.40802,-6.73547 5.37545,-6.8344c4.24865,-0.14164 4.7995,4.33468 5.37545,6.83441c0,0 -0.8427,-3.65751 0,-0.00001z" fill="none" stroke-width="2" stroke-linecap="butt"/><path d="M273.34487,186.61505c0,0 -0.03369,-7.97324 -0.07264,-8.50647c-0.03521,-0.48197 5.34169,-0.2198 5.33429,1.6311c-0.01074,2.69014 -4.81509,2.48176 -4.81509,2.48176" fill="none" stroke-width="2" stroke-linecap="round"/><path d="M294.35922,178.50126c0,0 -3.68934,-1.49413 -5.80894,0.36016c-0.77402,0.67714 -1.00532,3.75666 2.4252,3.49487c3.74544,-0.28582 3.7157,2.49717 2.01438,3.49522c-3.13508,1.83913 -5.32368,0.15453 -5.32368,0.15453" fill="none" stroke-width="2" stroke-linecap="round"/><path d="M280.00484,178.13445c0,0 1.95077,-0.19213 3.0407,-0.21569c1.17942,-0.0255 3.78859,0.06802 3.78859,0.06802" fill="none" stroke-width="2" stroke-linecap="round"/><path d="M283.47202,178.28213l-0.3152,8.56503" fill="none" stroke-width="2" stroke-linecap="round"/><path d="M294.52886,186.32157c0,-0.55228 0.40874,-1 0.91293,-1c0.50419,0 0.91293,0.44772 0.91293,1c0,0.55228 -0.40874,1 -0.91293,1c-0.50419,0 -0.91293,-0.44772 -0.91293,-1z" fill="#000000" stroke-width="0.5" stroke-linecap="butt"/><path d="M222.51709,186.8197c-4.7606,0.07082 -5.63194,-3.07056 -5.37545,-6.83441c0.31996,-4.69523 2.40802,-6.73547 5.37545,-6.8344c4.24865,-0.14164 4.7995,4.33468 5.37545,6.83441c0.57595,2.49973 -0.61486,6.76358 -5.37545,6.8344z" fill="none" stroke-width="2" stroke-linecap="butt"/><path d="M214.47657,173.03381c0,0 -6.24225,-0.32555 -6.31503,0.41943c-0.02727,0.27911 -0.1529,5.3832 -0.18028,6.23976c-0.00554,0.17333 4.52377,-1.30791 6.20272,0.9365c0.87482,1.16945 0.87691,5.69931 -2.18843,6.04658c-4.79607,0.54335 -4.36644,-2.86685 -4.36644,-2.86685" fill="none" stroke-width="2" stroke-linecap="round"/></g></g></svg>