<svg version="1.1" xmlns="http://www.w3.org/2000/svg" xmlns:xlink="http://www.w3.org/1999/xlink" width="60.98056" height="47.70149" viewBox="0,0,60.98056,47.70149"><g transform="translate(-209.50972,-152.60387)"><g data-paper-data="{&quot;isPaintingLayer&quot;:true}" fill-rule="nonzero" stroke-linejoin="miter" stroke-miterlimit="10" stroke-dasharray="" stroke-dashoffset="0" style="mix-blend-mode: normal"><path d="M232.543,166.67698c0,-2.53527 0,-7.27749 0,-8.53651c0,-1.17236 0.18707,-2.0347 2.07797,-2.10957c1.56353,-0.06191 7.77594,0 10.8123,0c1.76279,0 2.02374,0.25158 2.02374,1.7504c0,1.28985 0,6.21149 0,8.77359c0,0.74773 -2.78187,1.26455 -3.49027,1.26455c-0.53707,0 -0.49571,-8.04952 -0.49571,-8.04952l-6.75399,-0.00124c0,0 -0.00931,8.06271 -0.28026,8.05075c-1.38309,-0.06104 -3.89379,-1.14247 -3.89379,-1.14247z" fill="#6a6a77" stroke="#000000" stroke-width="2" stroke-linecap="butt"/><path d="M219.97117,192.68567c0,-6.8095 0,-22.8502 0,-26.23181c0,-1.54012 1.09391,-2.3626 2.55302,-2.3626c4.20278,0 26.32681,0 34.4822,0c1.7183,0 3.02246,0.87681 3.02246,2.6905c0,3.46442 0,18.69444 0,25.57601c0,2.00834 -1.11976,3.39646 -3.02246,3.39646c-4.25995,0 -25.05165,0.34765 -32.92896,0c-3.71486,-0.16395 -4.10627,-3.06856 -4.10627,-3.06856z" fill="#38383f" stroke="#000000" stroke-width="2" stroke-linecap="butt"/><path d="M236.69142,183.60286l0.36657,-2.75036l-2.69049,0.05671l1.85189,-1.4289l-2.0722,-3.18138l2.70779,1.79799l2.69681,-2.90367l0.24811,2.55059l3.57099,-1.65858l-2.3733,4.60665l0.65046,3.6131l-2.52487,-3.32943z" fill="#ffe8c5" stroke="none" stroke-width="NaN" stroke-linecap="butt"/><path d="M236.60862,181.27952l-4.69776,8.13676l-4.6276,-6.99063z" fill="#ffe500" stroke="#000000" stroke-width="0" stroke-linecap="butt"/><path d="M228.85318,184.56802l-1.25615,-1.98091l7.84693,-1.0585z" fill="#ff0000" stroke="none" stroke-width="0" stroke-linecap="butt"/><path d="M235.93918,182.19342l-4.03958,6.81003l-1.33284,-1.93014z" fill="#ff0000" stroke="none" stroke-width="0" stroke-linecap="butt"/><path d="M236.60862,181.27952l-4.69776,8.13676l-4.6276,-6.99063z" fill="none" stroke="#000000" stroke-width="1" stroke-linecap="butt"/><path d="M229.30088,188.07672l-1.77677,-2.68405l1.18865,-0.78685l1.77677,2.68405z" fill="#8aa0a9" stroke="#000000" stroke-width="1" stroke-linecap="butt"/><path d="M239.08896,179.60788l2.82288,-1.58638" fill="none" stroke="#ef081f" stroke-width="2.5" stroke-linecap="round"/><path d="M239.08896,179.60788l2.82288,-1.58638" fill="none" stroke="#ff0808" stroke-width="1.5" stroke-linecap="round"/><path d="M239.08896,179.60788l2.82288,-1.58638" fill="none" stroke="#ff664c" stroke-width="0.5" stroke-linecap="round"/><path d="M244.28185,173.30954l2.358,-2.21925" fill="none" stroke="#ef081f" stroke-width="2.5" stroke-linecap="round"/><path d="M244.28185,173.30954l2.358,-2.21925" fill="none" stroke="#ff0808" stroke-width="1.5" stroke-linecap="round"/><path d="M244.28185,173.30954l2.358,-2.21925" fill="none" stroke="#ff664c" stroke-width="0.5" stroke-linecap="round"/><path d="M248.45399,178.6263l-3.20139,0.48621" fill="none" stroke="#ef081f" stroke-width="2.5" stroke-linecap="round"/><path d="M248.45399,178.6263l-3.20139,0.48621" fill="none" stroke="#ff0808" stroke-width="1.5" stroke-linecap="round"/><path d="M248.45399,178.6263l-3.20139,0.48621" fill="none" stroke="#ff664c" stroke-width="0.5" stroke-linecap="round"/><path d="M250.34307,171.57116l2.65584,-1.8525" fill="none" stroke="#ef081f" stroke-width="2.5" stroke-linecap="round"/><path d="M250.34307,171.57116l2.65584,-1.8525" fill="none" stroke="#ff0808" stroke-width="1.5" stroke-linecap="round"/><path d="M250.34307,171.57116l2.65584,-1.8525" fill="none" stroke="#ff664c" stroke-width="0.5" stroke-linecap="round"/><path d="M252.64466,174.36315l-2.9223,1.39479" fill="none" stroke="#ef081f" stroke-width="2.5" stroke-linecap="round"/><path d="M252.64466,174.36315l-2.9223,1.39479" fill="none" stroke="#ff0808" stroke-width="1.5" stroke-linecap="round"/><path d="M252.64466,174.36315l-2.9223,1.39479" fill="none" stroke="#ff664c" stroke-width="0.5" stroke-linecap="round"/><path d="M209.50972,200.30537v-47.70149h60.98056v47.70149z" fill="none" stroke="none" stroke-width="0" stroke-linecap="butt"/></g></g></svg>