<svg version="1.1" xmlns="http://www.w3.org/2000/svg" xmlns:xlink="http://www.w3.org/1999/xlink" width="165.76528" height="21.49953" viewBox="0,0,165.76528,21.49953"><g transform="translate(-157.87478,-169.3589)"><g data-paper-data="{&quot;isPaintingLayer&quot;:true}" fill-rule="nonzero" stroke-width="2" stroke-linecap="butt" stroke-linejoin="miter" stroke-miterlimit="10" stroke-dasharray="" stroke-dashoffset="0" style="mix-blend-mode: normal"><path d="M160.83005,184.61472c-1.91904,-4.52389 -2.85197,-5.18097 -0.78929,-9.92275c2.06268,-4.74178 9.20609,-4.32367 17.50744,-4.32367c8.24368,0 26.74307,0.74379 48.65437,0.74379c27.27771,0 58.22535,-1.7355 78.56604,-0.74379c9.5204,0.46417 16.29288,1.86463 17.87145,6.87194c0.62327,1.97702 -0.78929,5.3478 -0.78929,6.92337c0,5.29278 -9.01634,5.69482 -17.4412,5.69482c-13.88309,0 -32.46532,-1.98535 -52.55511,-0.99171c-15.03823,0.74379 -17.47448,1.98343 -41.8323,0c-11.79493,-0.96045 -22.11106,0.99171 -27.80645,0.99171c-10.25508,0 -17.45019,-1.35819 -21.38566,-5.2437z" fill="#efbd2f" stroke="#000000"/><path d="M175.76375,182.87571c-5.9097,-2.55639 -9.06234,-6.75485 -9.06234,-6.75485c0,0 8.37997,-0.65937 14.19768,1.98672c5.87045,2.67007 12.38521,7.35087 12.38521,7.35087c0,0 -11.34801,0.08734 -17.52054,-2.58274z" fill="#f4d170" stroke="#b28c24"/><path d="M207.61446,183.10758c-9.73087,-2.27273 -11.78343,-7.35087 -11.78343,-7.35087c0,0 10.05448,-0.85804 15.66287,2.78141c5.60839,3.63944 9.87344,6.75485 9.87344,6.75485c0,0 -4.02201,0.08734 -13.75288,-2.18539z" fill="#f4d170" stroke="#b28c24"/><path d="M232.60691,182.57035c-6.68326,-2.55639 -9.50196,-5.57378 -9.50196,-5.57378c0,0 8.73027,-1.84044 15.30948,0.80564c6.63887,2.67007 15.00185,6.40601 15.00185,6.40601c0,0 -13.82889,1.0322 -20.80937,-1.63788z" fill="#f4d170" stroke="#b28c24"/><path d="M266.27891,182.833c-2.93724,-0.78035 -12.5465,-7.22728 -12.5465,-7.22728c0,0 10.83646,0.56011 17.68183,2.45915c3.57789,0.99257 12.38521,7.35087 12.38521,7.35087c0,0 -10.63886,-0.75445 -17.52054,-2.58273z" fill="#f4d170" stroke="#b28c24"/><path d="M294.79855,182.3736c-5.58581,-2.55639 -7.94166,-5.57378 -7.94166,-5.57378c0,0 7.29668,-1.84044 12.79554,0.80564c5.54871,2.67007 12.53842,6.40601 12.53842,6.40601c0,0 -11.55807,1.0322 -17.3923,-1.63788z" fill="#f4d170" stroke="#b28c24"/></g></g></svg>