<svg version="1.1" xmlns="http://www.w3.org/2000/svg" xmlns:xlink="http://www.w3.org/1999/xlink" width="60.60676" height="51.35901" viewBox="0,0,60.60676,51.35901"><defs><radialGradient cx="254.5285" cy="170.2783" r="24.40599" gradientUnits="userSpaceOnUse" id="color-1"><stop offset="0" stop-color="#6de5ff"/><stop offset="1" stop-color="#6de5ff" stop-opacity="0"/></radialGradient></defs><g transform="translate(-218.33046,-145.86957)"><g data-paper-data="{&quot;isPaintingLayer&quot;:true}" fill-rule="nonzero" stroke-linecap="butt" stroke-linejoin="miter" stroke-miterlimit="10" stroke-dasharray="" stroke-dashoffset="0" style="mix-blend-mode: normal"><path d="M234.1351,183.68583c-7.40477,-11.26296 -4.27709,-26.39615 6.98587,-33.80093c11.26296,-7.40477 26.39615,-4.27709 33.80092,6.98587c7.40477,11.26296 4.2771,26.39615 -6.98587,33.80093c-11.26296,7.40477 -26.39615,4.27709 -33.80093,-6.98587z" fill="url(#color-1)" stroke="none" stroke-width="0"/><path d="M221.78956,190.28418l-2.07415,-3.15487l4.4694,-2.93838l2.07415,3.15487z" fill="#818f91" stroke="#000000" stroke-width="2"/><path d="M225.29218,195.84364l-2.07415,-3.15487l4.4694,-2.93838l2.07415,3.15487z" fill="#818f91" stroke="#000000" stroke-width="2"/><path d="M228.95732,194.63591l-6.88408,-10.47097c0,0 35.46765,-15.74813 35.30352,-15.70344c-0.16452,0.0448 -28.41944,26.17441 -28.41944,26.17441z" fill="#9dafb1" stroke="#000000" stroke-width="2"/><path d="M248.99567,173.9701c1.9589,2.97956 1.75954,6.57007 -0.44529,8.01963c-1.10197,0.72449 -3.89425,0.99723 -5.63029,-0.12015c-0.08818,-0.05675 1.98945,-2.09142 2.09481,-2.05357c3.02209,0.932 2.88294,-2.283 1.41513,-4.5156c-1.07387,-1.6334 -3.08434,-2.77828 -4.18346,-2.04363c-0.40321,0.2695 -0.89714,1.04055 -0.8227,1.96493c0.00165,0.02053 -2.30462,1.12233 -2.33182,1.1417c-0.46085,-2.06607 -0.08191,-4.4078 1.82479,-5.61949c2.39561,-1.5224 6.11994,0.2466 8.07884,3.22617z" fill="#e0dece" stroke="#000000" stroke-width="2"/><path d="M243.32935,177.92476c2.56979,3.90875 2.86564,8.2525 0.66081,9.70206c-1.10197,0.72449 -4.118,0.6569 -6.17738,-0.95229c-0.1046,-0.08173 1.67587,-1.79689 1.79656,-1.73571c4.35404,2.18645 3.02888,-2.83252 1.10333,-5.76136c-1.40876,-2.14278 -4.12868,-4.36676 -5.22607,-3.62948c-0.40257,0.27047 -0.47626,1.68072 -0.26249,2.81702c0.00474,0.02524 -2.36085,1.0368 -2.38784,1.05649c-0.79998,-2.5819 -0.72059,-5.37925 1.1921,-6.58183c2.40314,-1.51094 6.73121,1.17637 9.30099,5.08511c0,0 -2.5698,-3.90876 -0.00001,-0.00001z" fill="#e0cb9b" stroke="#000000" stroke-width="2"/><path d="M250.39012,173.07127c-1.41292,-2.14912 -0.81612,-5.03672 1.33299,-6.44965c2.14912,-1.41292 5.03672,-0.81612 6.44965,1.33299c1.41292,2.14912 0.81612,5.03672 -1.33299,6.44965c-2.14912,1.41292 -5.03672,0.81612 -6.44965,-1.33299z" fill="#6de5ff" stroke="#000000" stroke-width="2"/><path d="M236.24645,183.15341c3.48023,5.29356 4.51414,10.75993 2.30931,12.20949c-1.10197,0.72449 -4.16929,0.19314 -6.71056,-2.14903c-0.12908,-0.11896 1.56283,-1.96883 1.70637,-1.87289c6.10741,4.08187 2.6099,-3.08407 0.00215,-7.05056c-1.90786,-2.90193 -5.80582,-6.91776 -6.90064,-6.17657c-0.40163,0.2719 -0.03069,2.10128 0.39073,3.55343c0.00936,0.03226 -2.44466,0.90932 -2.47133,0.92949c-1.30541,-3.35067 -1.37009,-6.10999 0.55153,-7.29898c2.41436,-1.49387 7.64223,2.56207 11.12245,7.85563c0,0 -3.48024,-5.29357 -0.00001,-0.00001z" fill="#bf7b7b" stroke="#000000" stroke-width="2"/></g></g></svg>