<svg version="1.1" xmlns="http://www.w3.org/2000/svg" xmlns:xlink="http://www.w3.org/1999/xlink" width="25.375" height="25.375" viewBox="0,0,25.375,25.375"><defs><linearGradient x1="243.55636" y1="177.10933" x2="250.86219" y2="170.47165" gradientUnits="userSpaceOnUse" id="color-1"><stop offset="0" stop-color="#00f3ff" stop-opacity="0"/><stop offset="1" stop-color="#00f3ff"/></linearGradient></defs><g transform="translate(-227.3125,-167.3125)"><g data-paper-data="{&quot;isPaintingLayer&quot;:true}" fill-rule="nonzero" stroke-linejoin="miter" stroke-miterlimit="10" stroke-dasharray="" stroke-dashoffset="0" style="mix-blend-mode: normal"><path d="M231.99657,191.79933c0,0 -2.97778,0.30284 -3.69564,-0.49554c-0.50719,-0.56408 -0.45927,-3.04393 -0.45927,-3.04393c0,0 15.47365,-9.56009 15.40125,-9.52805c-0.07256,0.03211 -11.24634,13.06752 -11.24634,13.06752z" fill="#9dafb1" stroke="#000000" stroke-width="1" stroke-linecap="butt"/><path d="M228.3125,191.6875v-23.375h23.375v23.375z" fill="none" stroke="#000000" stroke-width="2" stroke-linecap="butt"/><path d="M240.12743,185.2823c-0.45638,0.41036 -1.72203,1.0217 -2.59888,0.62893c-0.04453,-0.01995 0.76916,-1.1013 0.82028,-1.09125c1.45559,0.21759 0.99245,-1.07747 0.16108,-2.0021c-0.60825,-0.67647 -1.497,-1.17899 -1.89321,-0.8223c-0.16668,0.15217 -0.34004,0.54145 -0.24119,0.96156c0.00219,0.00933 -0.98191,0.67745 -0.99307,0.68827c-0.35644,-0.91839 -0.1132,-1.90601 0.67938,-2.59677c0.70511,-0.57719 2.0129,-0.25056 3.12859,0.97785c1.8072,1.98979 0.93702,3.25582 0.93702,3.25582z" fill="#e0dece" stroke="#000000" stroke-width="0.5" stroke-linecap="butt"/><path d="M237.15044,184.35832c1.45555,1.6188 1.89525,3.59667 0.98213,4.41771c-0.45638,0.41036 -1.84877,0.59005 -2.90875,-0.0064c-0.05384,-0.03029 0.64547,-0.94387 0.70528,-0.92416c2.1561,0.70166 1.19562,-1.51493 0.10497,-2.7279c-0.79793,-0.88743 -2.20479,-1.72058 -2.65817,-1.30466c-0.16632,0.15258 -0.10166,0.80659 0.07611,1.31446c0.00394,0.01128 -1.01376,0.64203 -1.0248,0.65297c-0.54853,-1.13201 -0.70751,-2.42462 0.08846,-3.1116c1.00008,-0.86314 3.17924,0.07079 4.63477,1.68958z" fill="#e0cb9b" stroke="#000000" stroke-width="0.5" stroke-linecap="butt"/><path d="M240.35056,181.34105c-0.80029,-0.89005 -0.72752,-2.26034 0.16253,-3.06063c0.89005,-0.80029 2.26034,-0.72752 3.06063,0.16253c0.80029,0.89005 0.72752,2.26035 -0.16253,3.06063c-0.89005,0.80029 -2.26035,0.72752 -3.06063,-0.16253z" fill="#6de5ff" stroke="#000000" stroke-width="1" stroke-linecap="butt"/><path d="M234.54775,186.96835c1.97123,2.19232 2.82898,4.63512 1.91585,5.45616c-0.45638,0.41036 -1.90479,0.38026 -3.23771,-0.51976c-0.0677,-0.04571 0.58145,-1.01508 0.6542,-0.98097c3.09529,1.4512 0.98525,-1.60138 -0.49179,-3.24409c-1.08062,-1.20183 -3.15474,-2.77706 -3.60666,-2.35953c-0.16578,0.15317 0.13274,0.96894 0.42812,1.60762c0.00656,0.01419 -1.06122,0.58923 -1.07209,0.60038c-0.8348,-1.45039 -1.05741,-2.71543 -0.25638,-3.39679c1.00644,-0.85607 3.69523,0.64468 5.66645,2.83699z" fill="#bf7b7b" stroke="#000000" stroke-width="0.5" stroke-linecap="butt"/><path d="M245.39847,179.13687l-3.68421,-4.05507l8.42426,-5.40668l0.98685,1.08619z" fill="url(#color-1)" stroke="none" stroke-width="0" stroke-linecap="butt"/><path d="M250.71485,170.27773l-4.16918,3.78788" fill="none" stroke="#07f4f5" stroke-width="3.5" stroke-linecap="round"/><path d="M250.71485,170.27773l-4.16918,3.78788" fill="none" stroke="#54fff7" stroke-width="2" stroke-linecap="round"/><path d="M250.71485,170.27773l-4.16918,3.78788" fill="none" stroke="#cefffa" stroke-width="0.5" stroke-linecap="round"/></g></g></svg>