<svg version="1.1" xmlns="http://www.w3.org/2000/svg" xmlns:xlink="http://www.w3.org/1999/xlink" width="25.375" height="25.375" viewBox="0,0,25.375,25.375"><g transform="translate(-227.3125,-167.3125)"><g data-paper-data="{&quot;isPaintingLayer&quot;:true}" fill-rule="nonzero" stroke-linejoin="miter" stroke-miterlimit="10" stroke-dasharray="" stroke-dashoffset="0" style="mix-blend-mode: normal"><path d="M228.3125,191.6875v-23.375h23.375v23.375z" fill="none" stroke="#000000" stroke-width="2" stroke-linecap="butt"/><path d="M237.14281,182.92445l0.32004,-2.40129l-2.34902,0.04951l1.61685,-1.24755l-1.80919,-2.7776l2.36412,1.56979l2.35453,-2.53514l0.21662,2.22687l3.11776,-1.44808l-2.07208,4.02198l0.5679,3.15453l-2.20442,-2.90687z" fill="#ffe8c5" stroke="none" stroke-width="NaN" stroke-linecap="butt"/><path d="M237.07052,180.89599l-4.10153,7.10406l-4.04027,-6.10339z" fill="#ffe500" stroke="#000000" stroke-width="0" stroke-linecap="butt"/><path d="M230.29939,183.76712l-1.09672,-1.72949l6.85101,-0.92416z" fill="#ff0000" stroke="none" stroke-width="0" stroke-linecap="butt"/><path d="M236.48604,181.6939l-3.52688,5.94571l-1.16368,-1.68517z" fill="#ff0000" stroke="none" stroke-width="0" stroke-linecap="butt"/><path d="M237.07052,180.89599l-4.10153,7.10406l-4.04027,-6.10339z" fill="none" stroke="#000000" stroke-width="1" stroke-linecap="butt"/><path d="M230.69027,186.8305l-1.55127,-2.3434l1.03779,-0.68698l1.55127,2.34339z" fill="#8aa0a9" stroke="#000000" stroke-width="1" stroke-linecap="butt"/><path d="M241.70066,178.05147l-2.4646,1.38504" fill="none" stroke="#ef081f" stroke-width="2.5" stroke-linecap="round"/><path d="M241.70066,178.05147l-2.4646,1.38504" fill="none" stroke="#ff0808" stroke-width="1.5" stroke-linecap="round"/><path d="M241.70066,178.05147l-2.4646,1.38504" fill="none" stroke="#ff664c" stroke-width="0.5" stroke-linecap="round"/><path d="M245.8286,171.99996l-2.05873,1.93759" fill="none" stroke="#ef081f" stroke-width="2.5" stroke-linecap="round"/><path d="M245.8286,171.99996l-2.05873,1.93759" fill="none" stroke="#ff0808" stroke-width="1.5" stroke-linecap="round"/><path d="M245.8286,171.99996l-2.05873,1.93759" fill="none" stroke="#ff664c" stroke-width="0.5" stroke-linecap="round"/><path d="M251.07128,174.85744l-2.5514,1.21776" fill="none" stroke="#ef081f" stroke-width="2.5" stroke-linecap="round"/><path d="M251.07128,174.85744l-2.5514,1.21776" fill="none" stroke="#ff0808" stroke-width="1.5" stroke-linecap="round"/><path d="M251.07128,174.85744l-2.5514,1.21776" fill="none" stroke="#ff664c" stroke-width="0.5" stroke-linecap="round"/></g></g></svg>