<svg version="1.1" xmlns="http://www.w3.org/2000/svg" xmlns:xlink="http://www.w3.org/1999/xlink" width="70.91667" height="78.63699" viewBox="0,0,70.91667,78.63699"><g transform="translate(-202.05557,-146.64873)"><g data-paper-data="{&quot;isPaintingLayer&quot;:true}" fill-rule="nonzero" stroke-linejoin="miter" stroke-miterlimit="10" stroke-dasharray="" stroke-dashoffset="0" style="mix-blend-mode: normal"><path d="M204.30557,187.61905l13.33334,-16.66667h40.83333l12.5,16.66667z" fill="#c8c8c8" stroke="#000000" stroke-width="2" stroke-linecap="butt"/><path d="M203.05557,224.28572v-35.41667h68.75v35.41667z" fill="#a0a0a0" stroke="#000000" stroke-width="2" stroke-linecap="butt"/><path d="M204.99183,192.28204c0,-0.69036 0.55964,-1.25 1.25,-1.25c0.69036,0 1.25,0.55964 1.25,1.25c0,0.69036 -0.55964,1.25 -1.25,1.25c-0.69036,0 -1.25,-0.55964 -1.25,-1.25z" fill="#000000" stroke="none" stroke-width="0.5" stroke-linecap="butt"/><path d="M267.05066,191.98792c0,-0.69036 0.55964,-1.25 1.25,-1.25c0.69036,0 1.25,0.55964 1.25,1.25c0,0.69036 -0.55964,1.25 -1.25,1.25c-0.69036,0 -1.25,-0.55964 -1.25,-1.25z" fill="#000000" stroke="none" stroke-width="0.5" stroke-linecap="butt"/><path d="M267.50951,221.27745c0,-0.69036 0.55964,-1.25 1.25,-1.25c0.69036,0 1.25,0.55964 1.25,1.25c0,0.69036 -0.55964,1.25 -1.25,1.25c-0.69036,0 -1.25,-0.55964 -1.25,-1.25z" fill="#000000" stroke="none" stroke-width="0.5" stroke-linecap="butt"/><path d="M204.75087,221.10503c0,-0.69036 0.55964,-1.25 1.25,-1.25c0.69036,0 1.25,0.55964 1.25,1.25c0,0.69036 -0.55964,1.25 -1.25,1.25c-0.69036,0 -1.25,-0.55964 -1.25,-1.25z" fill="#000000" stroke="none" stroke-width="0.5" stroke-linecap="butt"/><path d="M208.88883,185.07055c0,-0.69036 0.55964,-1.25 1.25,-1.25c0.69036,0 1.25,0.55964 1.25,1.25c0,0.69036 -0.55964,1.25 -1.25,1.25c-0.69036,0 -1.25,-0.55964 -1.25,-1.25z" fill="#000000" stroke="none" stroke-width="0.5" stroke-linecap="butt"/><path d="M263.88881,185.07055c0,-0.69036 0.55964,-1.25 1.25,-1.25c0.69036,0 1.25,0.55964 1.25,1.25c0,0.69036 -0.55964,1.25 -1.25,1.25c-0.69036,0 -1.25,-0.55964 -1.25,-1.25z" fill="#000000" stroke="none" stroke-width="0.5" stroke-linecap="butt"/><path d="M255.78538,173.69124c0,-0.69036 0.55964,-1.25 1.25,-1.25c0.69036,0 1.25,0.55964 1.25,1.25c0,0.69036 -0.55964,1.25 -1.25,1.25c-0.69036,0 -1.25,-0.55964 -1.25,-1.25z" fill="#000000" stroke="none" stroke-width="0.5" stroke-linecap="butt"/><path d="M217.85435,173.51882c0,-0.69036 0.55964,-1.25 1.25,-1.25c0.69036,0 1.25,0.55964 1.25,1.25c0,0.69036 -0.55964,1.25 -1.25,1.25c-0.69036,0 -1.25,-0.55964 -1.25,-1.25z" fill="#000000" stroke="none" stroke-width="0.5" stroke-linecap="butt"/><path d="M216.95669,155.05168l4.00463,-7.27315h34.43981l3.2037,7.27315z" fill="none" stroke="#e6e6e6" stroke-width="2" stroke-linecap="butt"/><path d="M216.15576,184.53397v-28.31332h43.25v28.31332z" fill="none" stroke="#e6e6e6" stroke-width="2" stroke-linecap="butt"/><path d="M221.76224,177.00107v-29.35234h32.83796v29.35234z" fill="none" stroke="#e6e6e6" stroke-width="2" stroke-linecap="butt"/><path d="M216.68973,184.01447l4.00463,-7.27315h34.43982l3.2037,7.27315z" fill="none" stroke="#e6e6e6" stroke-width="2" stroke-linecap="butt"/><path d="M224.3515,181.30366v-7.77778h26.85185v7.77778c0,0 -4.52523,2.59077 -14.32099,2.77778c-9.137,0.17443 -12.53086,-2.77778 -12.53086,-2.77778z" fill="#d60000" stroke="#000000" stroke-width="2" stroke-linecap="butt"/><path d="M251.37879,173.42354c0,2.39808 -6.06772,4.34211 -13.55263,4.34211c-7.48491,0 -13.55263,-1.94403 -13.55263,-4.34211c0,-2.39808 6.06772,-4.34211 13.55263,-4.34211c7.48491,0 13.55263,1.94403 13.55263,4.34211z" fill="#ff0000" stroke="#000000" stroke-width="2" stroke-linecap="butt"/><path d="M216.24483,184.42626h43" fill="none" stroke="#e6e6e6" stroke-width="1.5" stroke-linecap="round"/><path d="M244.54642,213.37859c0,0 3.99967,-13.51852 4.48343,-13.51852c0.55843,0 4.03509,13.51851 4.03509,13.51851" fill="none" stroke="#7b7070" stroke-width="2" stroke-linecap="round"/><path d="M246.76864,207.08228l4.25926,0.18519" fill="none" stroke="#7b7070" stroke-width="2" stroke-linecap="round"/><path d="M241.48208,213.41084c0,0 -0.26952,-6.74406 -0.28692,-6.50872c-0.03133,0.42358 -3.08284,9.66264 -6.45171,5.14288c-2.60582,-3.63661 -1.55189,-10.82301 2.07359,-12.0771c3.59538,-1.24367 4.44445,2.51252 4.44445,2.51252" fill="none" stroke="#7b7070" stroke-width="2" stroke-linecap="round"/><path d="M242.4463,206.76145h-4.55882" fill="none" stroke="#7b7070" stroke-width="2" stroke-linecap="round"/><path d="M219.89538,199.85589c0,0 -1.6267,0.22388 -2.45035,0.22388c-1.32652,0 -4.82125,-0.22388 -4.82125,-0.22388" fill="none" stroke="#7b7070" stroke-width="2" stroke-linecap="round"/><path d="M216.26014,200.46195c0,0 2.57928,12.70205 -1.18606,12.96943c-3.80764,0.27039 -3.20788,-4.03004 -3.20788,-4.03004" fill="none" stroke="#7b7070" stroke-width="2" stroke-linecap="round"/><path d="M256.21576,213.29845c0,0 -0.39428,-12.37349 -0.39512,-13.06c-0.00058,-0.47197 6.02121,-1.06656 5.88338,2.69061c-0.15046,4.10155 -5.49839,3.55594 -5.44992,4.05299c0.01276,0.13087 2.06185,0.34808 3.14592,1.75859c1.56537,2.03674 2.34247,4.5578 2.34247,4.5578" fill="none" stroke="#7b7070" stroke-width="2" stroke-linecap="round"/><path d="M230.20254,199.87638c0,0 2.11622,13.56911 -4.28604,13.53485c-6.03889,-0.03231 -3.27092,-13.53485 -3.27092,-13.53485" fill="none" stroke="#7b7070" stroke-width="2" stroke-linecap="round"/></g></g></svg>