<svg version="1.1" xmlns="http://www.w3.org/2000/svg" xmlns:xlink="http://www.w3.org/1999/xlink" width="52.63436" height="52.63436" viewBox="0,0,52.63436,52.63436"><g transform="translate(-213.68282,-153.68284)"><g data-paper-data="{&quot;isPaintingLayer&quot;:true}" fill-rule="nonzero" stroke-linejoin="miter" stroke-miterlimit="10" stroke-dasharray="" stroke-dashoffset="0" style="mix-blend-mode: normal"><path d="M214.18282,180.00002c0,-14.25843 11.55875,-25.81718 25.81718,-25.81718c14.25843,0 25.81718,11.55875 25.81718,25.81718c0,14.25843 -11.55875,25.81718 -25.81718,25.81718c-14.25843,0 -25.81718,-11.55875 -25.81718,-25.81718z" fill="#ffdf4c" stroke="#000000" stroke-width="1" stroke-linecap="butt"/><path d="M216.47917,180.00001c0,-12.9902 10.53064,-23.52084 23.52084,-23.52084c12.9902,0 23.52083,10.53064 23.52083,23.52084c0,12.9902 -10.53063,23.52084 -23.52083,23.52084c-12.9902,0 -23.52084,-10.53064 -23.52084,-23.52084z" fill="#fffbe0" stroke="#000000" stroke-width="1" stroke-linecap="butt"/><path d="M223.79,192.37125l8.18146,-6.37554l-6.27147,-5.39819l9.14746,1.02087l-1.79375,-9.33571l5.97285,8.25948l4.73049,-7.636l0.91168,8.78596l10.64825,-3.8496l-8.99035,8.05345l9.13925,3.60118l-9.81276,0.62142l6.44466,9.47601l-9.47483,-5.20581l-2.11694,8.75266l-3.53009,-8.20685l-5.76803,6.10593l1.3013,-9.79219z" fill="#ffc048" stroke="none" stroke-width="NaN" stroke-linecap="butt"/><path d="M222.80009,174.57297l-5.62876,-3.75895c0,0 4.19917,-1.36437 8.31336,-1.97058c2.08829,-0.3077 -2.66852,-2.16902 1.50664,-3.77011c2.58833,-0.99258 7.27579,-2.88746 12.68096,-2.89604c4.95141,-0.00786 11.1231,1.36152 14.60446,3.00296c3.96926,1.87148 -2.01784,3.22516 1.05437,3.62152c3.69429,0.47663 7.49755,2.1354 7.49755,2.1354l-5.51892,4.04784l5.2726,7.07313c0,0 -7.06047,-1.41213 -11.99826,-1.48678c-1.25034,-0.0189 2.31813,-3.33652 1.05893,-4.18215c-2.77943,-1.86655 -7.20698,-2.72095 -11.59693,-2.70244c-4.79916,0.02023 -6.91506,0.93432 -10.29564,2.5661c-1.94009,0.93647 1.13539,4.26677 -0.28454,4.26677c-5.06401,0 -11.06296,1.78483 -11.06296,1.78483z" fill="#ff5353" stroke="#000000" stroke-width="1" stroke-linecap="butt"/><path d="M229.63329,172.96151c3.72187,-1.78083 6.99536,-2.4252 9.88904,-2.34114c2.91168,0.08459 6.4204,0.75575 10.75623,2.4392" fill="none" stroke="#ffffff" stroke-width="1" stroke-linecap="round"/><path d="M243.28236,166.94446c0.0246,-0.17606 1.78858,0.15369 1.65537,0.80331c-0.14024,0.70808 -1.83767,0.32196 -1.79869,0.47967c-0.00448,0.03841 1.75066,0.24447 1.6226,0.90004c-0.18186,0.93097 -2.00725,0.5662 -1.98969,0.45195c0.04186,-0.27234 0.48096,-2.42432 0.5104,-2.63498c0,0 -0.02459,0.17607 0.00001,0.00001z" fill="none" stroke="#ffffff" stroke-width="1" stroke-linecap="round"/><path d="M247.95087,170.98309c0,0 0.87325,-2.40365 0.92712,-2.53477c0.03704,-0.09015 1.636,0.43706 1.30445,1.13952c-0.36193,0.76684 -1.69737,0.09371 -1.72404,0.19374c-0.00702,0.02633 0.50401,0.28581 0.6723,0.67037c0.24301,0.5553 0.24468,1.11917 0.24468,1.11917" fill="none" stroke="#ffffff" stroke-width="1" stroke-linecap="round"/><path d="M230.40068,171.36923c0,0 0.12253,-3.00349 0.24973,-3.04839c0.14684,-0.05183 1.99017,2.25773 1.99017,2.25773" fill="none" stroke="#ffffff" stroke-width="1" stroke-linecap="round"/><path d="M231.83736,169.95884l-1.13268,0.35927" fill="none" stroke="#ffffff" stroke-width="1" stroke-linecap="round"/><path d="M229.56299,171.26041c0,0 -0.55949,1.23332 -1.40029,0.91301c-0.96893,-0.36913 -1.47314,-1.77891 -0.66076,-2.43246c0.80563,-0.64811 1.33952,-0.05254 1.33952,-0.05254" fill="none" stroke="#ffffff" stroke-width="1" stroke-linecap="round"/><path d="M250.99633,169.29225c0,0 0.5629,0.16679 0.86732,0.28441c0.32942,0.12727 1.04011,0.45256 1.04011,0.45256" fill="none" stroke="#ffffff" stroke-width="1" stroke-linecap="round"/><path d="M233.41523,170.42795c0,0 -0.79803,-2.46627 -0.85747,-2.69089c-0.0126,-0.04762 1.10201,1.23042 1.65198,1.03928c0.51461,-0.17885 0.83587,-1.81139 0.85883,-1.74788c0.06288,0.17389 0.79251,2.67999 0.79251,2.67999" fill="none" stroke="#ffffff" stroke-width="1" stroke-linecap="round"/><path d="M238.59134,169.21811c0,0 -1.53143,0.41356 -1.88873,0.12116c-0.43965,-0.35978 -0.33176,-2.40566 -0.32671,-2.5143c0.00592,-0.12742 1.69547,-0.33877 1.69547,-0.33877" fill="none" stroke="#ffffff" stroke-width="1" stroke-linecap="round"/><path d="M236.69622,168.09545l1.21045,-0.21234" fill="none" stroke="#ffffff" stroke-width="1" stroke-linecap="round"/><path d="M251.93793,169.73132l-1.11804,2.46125" fill="none" stroke="#ffffff" stroke-width="1" stroke-linecap="round"/><path d="M239.39413,169.31021c0,0 0.10169,-2.59017 0.12337,-2.8215c0.0046,-0.04904 0.60994,1.53503 1.19208,1.54532c0.54472,0.00964 1.4094,-1.41188 1.40905,-1.34435c-0.00096,0.18491 -0.18058,2.78887 -0.18058,2.78887" fill="none" stroke="#ffffff" stroke-width="1" stroke-linecap="round"/><path d="M247.21941,170.6732c0,0 -1.56609,-0.25235 -1.77166,-0.66575c-0.25295,-0.50868 0.68619,-2.32946 0.73544,-2.42642c0.05776,-0.11372 1.6849,0.38792 1.6849,0.38792" fill="none" stroke="#ffffff" stroke-width="1" stroke-linecap="round"/><path d="M245.95309,168.8709l1.19078,0.30387" fill="none" stroke="#ffffff" stroke-width="1" stroke-linecap="round"/><path d="M229.36699,186.51984c0.44357,-0.98258 -0.22967,-1.75999 0.21508,-2.74204c0.21515,-0.47508 0.69586,-0.54017 0.92587,-0.88065c0.52439,-0.77626 0.86017,-1.16725 0.88326,-1.17521c0.13659,-0.04707 15.72891,6.05818 15.91572,6.12032c0.20197,0.06718 -0.9643,2.38214 -1.71374,4.36862c-0.79149,2.09795 -1.98443,4.55395 -2.07821,4.46947c-0.29812,-0.26855 -14.69122,-9.43343 -14.66564,-9.42694z" fill="#f3e555" stroke="#000000" stroke-width="1" stroke-linecap="butt"/><path d="M243.591,196.59385c0.1641,-0.37245 4.2138,-9.30728 4.2138,-9.30728l1.95571,0.64992c0,0 -0.6172,1.82689 -1.5311,3.87971c-0.76477,1.71785 -1.10795,2.45632 -2.34226,3.57278c-0.80793,0.73079 -2.30906,1.23416 -2.29616,1.20488z" fill="#fff4c3" stroke="#000000" stroke-width="1" stroke-linecap="butt"/><path d="M231.37697,181.73478c0.07503,0.01902 18.09786,0.87078 18.34018,0.95138c0.20197,0.06718 0.9296,2.98707 0.18017,4.97354c-0.79149,2.09795 -3.76093,3.5865 -3.85471,3.50202c-0.29812,-0.26855 -14.69122,-9.43343 -14.66564,-9.42694z" fill="#fff4c3" stroke="#000000" stroke-width="1" stroke-linecap="butt"/><path d="M246.35997,185.62111l-0.02864,-1.71856" fill="none" stroke="#eadfaf" stroke-width="0.5" stroke-linecap="round"/><path d="M247.34281,185.65385l-0.03109,-1.86586" fill="none" stroke="#eadfaf" stroke-width="0.5" stroke-linecap="round"/><path d="M248.27329,185.49099l-0.02782,-1.66945" fill="none" stroke="#eadfaf" stroke-width="0.5" stroke-linecap="round"/><path d="M243.58693,187.0587l0.02863,1.71856" fill="none" stroke="#eadfaf" stroke-width="0.5" stroke-linecap="round"/><path d="M244.56732,186.94414l0.03109,1.86586" fill="none" stroke="#eadfaf" stroke-width="0.5" stroke-linecap="round"/><path d="M245.52889,188.64714l-0.02782,-1.66945" fill="none" stroke="#eadfaf" stroke-width="0.5" stroke-linecap="round"/><path d="M240.89433,185.69071l-0.02863,-1.71856" fill="none" stroke="#eadfaf" stroke-width="0.5" stroke-linecap="round"/><path d="M241.87719,185.72344l-0.03109,-1.86586" fill="none" stroke="#eadfaf" stroke-width="0.5" stroke-linecap="round"/><path d="M242.77985,183.89114l0.02782,1.66945" fill="none" stroke="#eadfaf" stroke-width="0.5" stroke-linecap="round"/><path d="M237.99509,182.43116l-0.03631,0.88455" fill="none" stroke="#eadfaf" stroke-width="0.5" stroke-linecap="round"/><path d="M238.94162,183.34845l-0.06315,-0.99531" fill="none" stroke="#eadfaf" stroke-width="0.5" stroke-linecap="round"/><path d="M239.86388,182.45031l0.00822,0.73528" fill="none" stroke="#eadfaf" stroke-width="0.5" stroke-linecap="round"/><path d="M237.29054,182.01991l3.50048,0.17675" fill="none" stroke="#000000" stroke-width="1" stroke-linecap="round"/></g></g></svg>