<svg version="1.1" xmlns="http://www.w3.org/2000/svg" xmlns:xlink="http://www.w3.org/1999/xlink" width="50.26392" height="52.10035" viewBox="0,0,50.26392,52.10035"><defs><radialGradient cx="240" cy="180" r="24.30301" gradientUnits="userSpaceOnUse" id="color-1"><stop offset="0" stop-color="#fffb9c"/><stop offset="1" stop-color="#fffb9c" stop-opacity="0"/></radialGradient></defs><g transform="translate(-214.86777,-153.94982)"><g data-paper-data="{&quot;isPaintingLayer&quot;:true}" fill-rule="nonzero" stroke-width="1" stroke-linejoin="miter" stroke-miterlimit="10" stroke-dasharray="" stroke-dashoffset="0" style="mix-blend-mode: normal"><path d="M215.36777,180.61327c0,-5.06207 0.60841,-10.82371 3.20011,-14.94853c2.36839,-3.76941 5.67037,-5.99465 9.76203,-7.8857c3.61264,-1.66965 7.89045,-3.22756 11.97478,-3.22756c8.01246,0 16.71368,4.08348 21.08483,10.21105c3.14223,4.40484 3.17716,9.86595 3.17716,15.62576c0,4.34198 0.08224,8.67212 -1.77716,12.25821c-2.05724,3.96765 -6.30615,7.01653 -10.34361,9.27383c-3.88815,2.17382 -7.5149,3.62985 -12.14122,3.62985c-4.35043,0 -9.33322,-0.94714 -12.66498,-2.96263c-3.22554,-1.95124 -4.83309,-4.9179 -7.04185,-8.15177c-2.73235,-4.00045 -5.23008,-8.6124 -5.23008,-13.82251z" fill="#fff4c2" stroke="#000000" stroke-linecap="butt"/><path d="M215.69699,180c0,-13.42218 10.88083,-24.30301 24.30301,-24.30301c13.42218,0 24.30301,10.88083 24.30301,24.30301c0,13.42218 -10.88083,24.30301 -24.30301,24.30301c-13.42218,0 -24.30301,-10.88083 -24.30301,-24.30301z" fill="url(#color-1)" stroke="none" stroke-linecap="butt"/><path d="M237.05032,164.89856l-3.25187,-3.98303" fill="none" stroke="#eadfaf" stroke-linecap="round"/><path d="M239.41922,163.15419l-3.53057,-4.32444" fill="none" stroke="#eadfaf" stroke-linecap="round"/><path d="M241.3027,161.04746l-3.15893,-3.86922" fill="none" stroke="#eadfaf" stroke-linecap="round"/><path d="M235.54047,177.1615l-3.25187,-3.98303" fill="none" stroke="#eadfaf" stroke-linecap="round"/><path d="M237.90938,175.41713l-3.53058,-4.32444" fill="none" stroke="#eadfaf" stroke-linecap="round"/><path d="M239.79285,173.3104l-3.15893,-3.86922" fill="none" stroke="#eadfaf" stroke-linecap="round"/><path d="M246.81747,177.63615l-3.25187,-3.98303" fill="none" stroke="#eadfaf" stroke-linecap="round"/><path d="M249.18637,175.89177l-3.53057,-4.32443" fill="none" stroke="#eadfaf" stroke-linecap="round"/><path d="M251.06985,173.78505l-3.15894,-3.86922" fill="none" stroke="#eadfaf" stroke-linecap="round"/><path d="M248.07795,167.74892l-3.25187,-3.98304" fill="none" stroke="#eadfaf" stroke-linecap="round"/><path d="M250.44686,166.00454l-3.53057,-4.32443" fill="none" stroke="#eadfaf" stroke-linecap="round"/><path d="M252.33034,163.89782l-3.15893,-3.86922" fill="none" stroke="#eadfaf" stroke-linecap="round"/><path d="M256.61554,178.03094l-3.25187,-3.98303" fill="none" stroke="#eadfaf" stroke-linecap="round"/><path d="M258.98445,176.28656l-3.53058,-4.32444" fill="none" stroke="#eadfaf" stroke-linecap="round"/><path d="M260.86793,174.17984l-3.15893,-3.86922" fill="none" stroke="#eadfaf" stroke-linecap="round"/><path d="M244.293,189.46459l-3.59411,-4.40223" fill="none" stroke="#eadfaf" stroke-linecap="round"/><path d="M246.91123,187.53661l-3.90216,-4.77956" fill="none" stroke="#eadfaf" stroke-linecap="round"/><path d="M248.99294,185.20817l-3.4914,-4.27645" fill="none" stroke="#eadfaf" stroke-linecap="round"/><path d="M256.1124,188.70222l-3.56092,-4.01948" fill="none" stroke="#eadfaf" stroke-linecap="round"/><path d="M258.66094,186.97903l-3.86612,-4.36401" fill="none" stroke="#eadfaf" stroke-linecap="round"/><path d="M260.6802,184.88832l-3.45915,-3.90463" fill="none" stroke="#eadfaf" stroke-linecap="round"/><path d="M242.70404,199.8786l-3.25186,-3.98304" fill="none" stroke="#eadfaf" stroke-linecap="round"/><path d="M245.07295,198.13423l-3.53058,-4.32444" fill="none" stroke="#eadfaf" stroke-linecap="round"/><path d="M246.95643,196.0275l-3.15894,-3.86922" fill="none" stroke="#eadfaf" stroke-linecap="round"/><path d="M223.70206,176.48154l-3.71885,-4.18328" fill="none" stroke="#eadfaf" stroke-linecap="round"/><path d="M226.36172,174.68984l-4.03759,-4.54185" fill="none" stroke="#eadfaf" stroke-linecap="round"/><path d="M228.46871,172.51555l-3.61257,-4.06375" fill="none" stroke="#eadfaf" stroke-linecap="round"/><path d="M232.94408,188.94462l-3.25187,-3.98303" fill="none" stroke="#eadfaf" stroke-linecap="round"/><path d="M235.31299,187.20024l-3.53058,-4.32443" fill="none" stroke="#eadfaf" stroke-linecap="round"/><path d="M237.19647,185.09352l-3.15894,-3.86922" fill="none" stroke="#eadfaf" stroke-linecap="round"/><path d="M231.42439,200.11471l-3.21591,-4.28796" fill="none" stroke="#eadfaf" stroke-linecap="round"/><path d="M233.81351,198.1989l-3.49153,-4.6555" fill="none" stroke="#eadfaf" stroke-linecap="round"/><path d="M235.72026,195.8949l-3.12401,-4.16544" fill="none" stroke="#eadfaf" stroke-linecap="round"/><path d="M221.90116,187.76081l-3.25187,-3.98304" fill="none" stroke="#eadfaf" stroke-linecap="round"/><path d="M224.27007,186.01643l-3.53058,-4.32443" fill="none" stroke="#eadfaf" stroke-linecap="round"/><path d="M226.15355,183.90971l-3.15893,-3.86922" fill="none" stroke="#eadfaf" stroke-linecap="round"/><path d="M253.39046,200.20656l-3.63489,-4.45218" fill="none" stroke="#eadfaf" stroke-linecap="round"/><path d="M256.03839,198.25672l-3.94643,-4.8338" fill="none" stroke="#eadfaf" stroke-linecap="round"/><path d="M258.14372,195.90186l-3.53101,-4.32496" fill="none" stroke="#eadfaf" stroke-linecap="round"/><path d="M226.87735,165.30483l-3.68961,-3.98304" fill="none" stroke="#eadfaf" stroke-linecap="round"/><path d="M229.56515,163.56045l-4.00583,-4.32443" fill="none" stroke="#eadfaf" stroke-linecap="round"/><path d="M231.70217,161.45373l-3.4672,-3.74295" fill="none" stroke="#eadfaf" stroke-linecap="round"/><path d="M215.43278,180.51162c0,-5.06207 0.60841,-10.82371 3.20011,-14.94853c2.36839,-3.76941 5.67037,-5.99465 9.76203,-7.8857c3.61264,-1.66965 7.89045,-3.22756 11.97478,-3.22756c8.01246,0 16.71368,4.08348 21.08483,10.21105c3.14223,4.40484 3.17716,9.86595 3.17716,15.62576c0,4.34198 0.08224,8.67212 -1.77716,12.25821c-2.05724,3.96765 -6.30615,7.01653 -10.34361,9.27383c-3.88815,2.17382 -7.5149,3.62985 -12.14122,3.62985c-4.35043,0 -9.33322,-0.94714 -12.66498,-2.96263c-3.22554,-1.95124 -4.83309,-4.9179 -7.04185,-8.15177c-2.73235,-4.00045 -5.23008,-8.6124 -5.23008,-13.82251z" fill="none" stroke="#000000" stroke-linecap="butt"/></g></g></svg>