<svg version="1.1" xmlns="http://www.w3.org/2000/svg" xmlns:xlink="http://www.w3.org/1999/xlink" width="26.70008" height="22.49699" viewBox="0,0,26.70008,22.49699"><g transform="translate(-226.70036,-168.71808)"><g data-paper-data="{&quot;isPaintingLayer&quot;:true}" fill-rule="nonzero" stroke-width="1" stroke-linejoin="miter" stroke-miterlimit="10" stroke-dasharray="" stroke-dashoffset="0" style="mix-blend-mode: normal"><path d="M249.05042,169.34504c3.14223,4.40484 3.87946,7.05675 3.739,11.41196c-0.13996,4.33972 -1.32236,7.12706 -4.30544,9.87038c0,0 -21.30881,-9.20558 -21.38428,-10.24929c-0.06627,-0.91642 21.95072,-11.03305 21.95072,-11.03305z" fill="#fff4c2" stroke="#000000" stroke-linecap="butt"/><path d="M243.61831,173.29621l1.89808,4.77875" fill="none" stroke="#eadfaf" stroke-linecap="round"/><path d="M248.30131,177.1269l-2.06075,-5.18836" fill="none" stroke="#eadfaf" stroke-linecap="round"/><path d="M250.7328,175.68689l-1.84383,-4.6422" fill="none" stroke="#eadfaf" stroke-linecap="round"/><path d="M228.98623,181.70585l-0.76643,-1.73126" fill="none" stroke="#eadfaf" stroke-linecap="round"/><path d="M231.11803,178.47403l1.75987,5.0687" fill="none" stroke="#eadfaf" stroke-linecap="round"/><path d="M236.08306,182.61687l-2.03789,-5.13078" fill="none" stroke="#eadfaf" stroke-linecap="round"/><path d="M241.37216,187.28311l-1.73792,-4.09314" fill="none" stroke="#eadfaf" stroke-linecap="round"/><path d="M242.39703,181.89575l2.3687,5.32735" fill="none" stroke="#eadfaf" stroke-linecap="round"/><path d="M247.32184,185.83933l-2.11936,-4.76657" fill="none" stroke="#eadfaf" stroke-linecap="round"/><path d="M249.15108,169.37174c2.59003,4.75058 3.87946,7.05675 3.739,11.41196c-0.13996,4.33972 -1.57546,6.85635 -4.30544,9.87038c-0.0945,0.10433 -21.30881,-9.20558 -21.38428,-10.24929c-0.06627,-0.91642 21.76719,-11.36967 21.95072,-11.03305z" fill="none" stroke="#000000" stroke-linecap="butt"/></g></g></svg>