<svg version="1.1" xmlns="http://www.w3.org/2000/svg" xmlns:xlink="http://www.w3.org/1999/xlink" width="100.95503" height="75.77799" viewBox="0,0,100.95503,75.77799"><g transform="translate(-189.52249,-142.11102)"><g data-paper-data="{&quot;isPaintingLayer&quot;:true}" fill-rule="nonzero" stroke-linecap="butt" stroke-linejoin="miter" stroke-miterlimit="10" stroke-dasharray="" stroke-dashoffset="0" style="mix-blend-mode: normal"><path d="M262.06322,200.69474c-11.40717,6.27743 3.78988,-21.36712 -21.47454,-20.73404c-25.26442,0.63308 -12.87428,28.03041 -22.46187,20.4872c-9.58759,-7.5432 -5.30627,-24.77508 -1.1167,-30.45996c4.18957,-5.68488 14.49164,-11.74863 23.82541,-11.74863c8.5348,0 18.51728,1.99189 24.01514,13.77903c5.49787,11.78714 2.0531,26.01261 -2.78744,28.67639z" fill="#f7b936" stroke="#000000" stroke-width="1"/><path d="M189.5225,217.88901v-75.77799h100.95503v75.77799z" fill="none" stroke="none" stroke-width="0"/><path d="M223.99105,196.48803c-0.86526,4.5947 4.44297,8.46567 -1.92078,8.75023c-5.22029,0.23343 -7.32743,-4.35933 -8.32339,-7.04287c-1.62681,-4.38331 -1.87438,-6.61969 3.34358,-6.90059c7.92883,-0.42684 7.75427,0.66005 6.90059,5.19323z" fill="#ff9f17" stroke="#000000" stroke-width="1"/><path d="M266.39052,197.48399c-1.19405,3.53636 -4.26233,6.76105 -6.82945,7.04287c-7.50991,0.82442 -2.71528,-3.7689 -3.84156,-7.32743c-1.99193,-6.29355 1.55627,-7.32743 5.40664,-7.32743c3.85038,0 8.10996,-0.81577 5.26436,7.61199z" fill="#ff9f17" stroke="#000000" stroke-width="1"/><path d="M227.54804,186.88412c-1.98089,7.41348 -3.03417,3.69929 -8.18111,3.69929c-5.14694,0 -9.29766,2.66352 -7.89655,-5.40665c1.40112,-8.07017 1.24437,-14.26029 5.90463,-11.38241c3.54745,2.19068 11.56494,7.88053 10.17302,13.08977z" fill="#ff9f17" stroke="#000000" stroke-width="1"/><path d="M269.10977,181.61394c-0.31918,10.93356 -3.35742,7.37086 -7.26141,7.34121c-3.41827,-0.02596 -9.49569,6.62459 -9.49569,-5.10692c-0.0776,-3.11286 8.34245,-13.24733 12.52793,-11.49059c3.42206,1.43633 4.02636,5.03045 4.22917,9.2563z" fill="#ff9f17" stroke="#000000" stroke-width="1"/><path d="M246.92655,170.04355c-0.19181,8.38464 2.63508,12.76715 -3.85887,10.61808c-0.5782,-0.19135 -3.40396,-0.26371 -4.1207,-0.00525c-6.8353,2.46487 -5.5857,-2.99812 -5.5857,-9.65528c0,-6.0188 -4.63703,-13.21935 6.38366,-13.80466c11.9663,-0.63555 7.3412,5.87077 7.18161,12.84711z" fill="#ff9f17" stroke="#000000" stroke-width="1"/><path d="M232.40374,170.36274c0.50035,6.98924 1.92566,10.31942 -0.47877,11.88956c-5.2028,3.39754 -4.67352,-1.79926 -10.53304,-6.78264c-2.23428,-1.9002 -7.2617,-2.19569 -6.45902,-5.12978c4.11758,-7.56671 11.64124,-10.41926 13.80023,-10.90915c5.03035,-1.14142 3.19183,4.24407 3.6706,10.93201z" fill="#ff9f17" stroke="#000000" stroke-width="1"/><path d="M247.65349,169.93662c-0.06492,-6.70033 -0.96681,-10.81224 3.32149,-11.41078c7.92425,-1.10602 12.79212,4.78323 13.32397,11.06875c0.25416,3.00373 -1.63355,0.4656 -6.681,5.44897c-5.04745,4.98337 -1.44622,8.07543 -7.63694,6.62304c-4.806,-1.12752 -2.26117,-4.88244 -2.32752,-11.72997z" fill="#ff9f17" stroke="#000000" stroke-width="1"/></g></g></svg>