<svg version="1.1" xmlns="http://www.w3.org/2000/svg" xmlns:xlink="http://www.w3.org/1999/xlink" width="100.95503" height="75.77799" viewBox="0,0,100.95503,75.77799"><g transform="translate(-189.52254,-142.11102)"><g data-paper-data="{&quot;isPaintingLayer&quot;:true}" fill-rule="nonzero" stroke-linecap="butt" stroke-linejoin="miter" stroke-miterlimit="10" stroke-dasharray="" stroke-dashoffset="0" style="mix-blend-mode: normal"><path d="M240.47913,184.11709c-0.08176,0.07109 -0.72394,-1.15428 -1.10475,-2.30908c-0.31473,-0.95443 -0.38661,-1.87162 -0.38661,-1.87162l2.69062,-0.09304c0,0 0.10014,1.06006 -0.18231,2.15519c-0.25305,0.98112 -0.88327,2.00232 -1.01695,2.11854z" fill="#f5f0e4" stroke="#000000" stroke-width="1"/><path d="M245.17654,183.74331c-0.16903,0.10291 -0.87089,-3.65139 -0.87089,-3.65139l2.66802,0.36021c0,0 -1.47696,3.09623 -1.79713,3.29118z" fill="#f5f0e4" stroke="#000000" stroke-width="1"/><path d="M235.44243,184.14637c-0.16903,0.10291 -1.64276,-3.34264 -1.64276,-3.34264l2.66802,-0.30874c0,0 -0.70508,3.45643 -1.02526,3.65138z" fill="#f5f0e4" stroke="#000000" stroke-width="1"/><path d="M251.11881,179.37213c0,0 0.10529,3.45462 -0.38782,5.14752c-1.16712,3.63347 -3.55248,6.34363 -3.73105,6.31742c-0.17839,-0.02619 1.04114,-4.2332 0.84444,-6.91553c-0.17605,-1.54736 -0.77534,-4.39768 -0.77534,-4.39768l4.04979,-0.15172z" fill="#f5f0e4" stroke="#000000" stroke-width="1"/><path d="M229.42348,180.67671l4.33252,0.15172c0,0 -1.00787,2.77697 -1.19621,4.32433c-0.21043,1.72879 0.06735,5.42236 -0.1235,5.44854c-0.19104,0.02621 -2.08279,-3.05069 -2.5979,-4.70373c-0.52754,-1.6929 -0.4149,-5.22087 -0.4149,-5.22087z" fill="#f5f0e4" stroke="#000000" stroke-width="1"/><path d="M260.23869,165.45861c-2.23245,4.4813 -14.21376,0.62963 -11.38225,-3.3128c2.45214,-3.41421 2.40067,-2.32697 3.62451,-5.4458c0.66727,-1.70048 0.54115,-4.79815 0.14246,-6.42398c-0.1846,-0.75277 -0.4641,-1.49924 -0.75582,-2.17958c-0.28715,-0.66969 0.44924,-0.41239 0.89335,-0.79501c0.34667,-0.29867 0.91737,0.15971 1.29676,-0.08559c0.31139,-0.20133 0.41635,-1.16751 0.82324,-0.93862c5.72468,3.22029 8.56715,12.73901 5.35775,19.1814z" fill="#f4e4e4" stroke="#000000" stroke-width="1"/><path d="M220.28485,166.4756c-5.08953,-7.40235 -1.04961,-20.31016 7.89092,-21.18492c0.52489,-0.05136 -1.07505,2.63793 -1.46095,5.2827c-0.24204,1.65885 -0.02455,4.75251 0.88386,6.37297c1.66611,2.97206 1.48721,1.89634 4.5028,5.03235c3.48215,3.62119 -8.91492,8.71724 -11.81663,4.4969z" fill="#f4e4e4" stroke="#000000" stroke-width="1"/><path d="M262.06327,200.69475c-11.40717,6.27743 3.78988,-21.36712 -21.47454,-20.73404c-25.26442,0.63308 -12.87428,28.03041 -22.46187,20.4872c-9.58759,-7.5432 -5.30627,-24.77508 -1.1167,-30.45996c4.18957,-5.68488 14.49164,-11.74863 23.82541,-11.74863c8.5348,0 18.51728,1.99189 24.01514,13.77903c5.49787,11.78714 2.0531,26.01261 -2.78744,28.67639z" fill="#721919" stroke="#000000" stroke-width="1"/><path d="M189.52255,217.88902v-75.77799h100.95503v75.77799z" fill="none" stroke="none" stroke-width="0"/><path d="M224.18977,196.48804c-0.86526,4.5947 4.44297,8.46567 -1.92078,8.75023c-5.22029,0.23343 -7.32743,-4.35933 -8.32339,-7.04287c-1.62681,-4.38331 -1.87438,-6.61969 3.34358,-6.90059c7.92883,-0.42684 7.75427,0.66005 6.90059,5.19323z" fill="#db3030" stroke="#000000" stroke-width="1"/><path d="M266.39054,197.484c-1.19405,3.53636 -4.26233,6.76105 -6.82945,7.04287c-7.50991,0.82442 -2.71528,-3.7689 -3.84156,-7.32743c-1.99193,-6.29355 1.55627,-7.32743 5.40664,-7.32743c3.85038,0 8.10996,-0.81577 5.26436,7.61199z" fill="#db3030" stroke="#000000" stroke-width="1"/><path d="M227.54809,186.88413c-1.98089,7.41348 -3.03417,3.69929 -8.18111,3.69929c-5.14694,0 -9.29766,2.66352 -7.89655,-5.40665c1.40112,-8.07017 1.24437,-14.26029 5.90463,-11.38241c3.54745,2.19068 11.56494,7.88053 10.17302,13.08977z" fill="#ed3434" stroke="#000000" stroke-width="1"/><path d="M269.10982,181.61395c-0.31918,10.93356 -3.35742,7.37086 -7.26141,7.34121c-3.41827,-0.02596 -9.49569,6.62459 -9.49569,-5.10692c-0.0776,-3.11286 8.34245,-13.24733 12.52793,-11.49059c3.42206,1.43633 4.02636,5.03045 4.22917,9.2563z" fill="#ed3434" stroke="#000000" stroke-width="1"/><path d="M246.9266,170.04356c-0.19181,8.38464 2.63508,12.76715 -3.85887,10.61808c-0.5782,-0.19135 -3.40396,-0.26371 -4.1207,-0.00525c-6.8353,2.46487 -5.5857,-2.99812 -5.5857,-9.65528c0,-6.0188 -4.63703,-13.21935 6.38366,-13.80466c11.9663,-0.63555 7.3412,5.87077 7.18161,12.84711z" fill="#ff3838" stroke="#000000" stroke-width="1"/><path d="M232.40379,170.36275c0.50035,6.98924 1.92566,10.31942 -0.47877,11.88956c-5.2028,3.39754 -4.67352,-1.79926 -10.53304,-6.78264c-2.23428,-1.9002 -7.2617,-2.19569 -6.45902,-5.12978c4.11758,-7.56671 11.64124,-10.41926 13.80023,-10.90915c5.03035,-1.14142 3.19183,4.24407 3.6706,10.93201z" fill="#f73636" stroke="#000000" stroke-width="1"/><path d="M247.65354,169.93663c-0.06492,-6.70033 -0.96681,-10.81224 3.32149,-11.41078c7.92425,-1.10602 12.79212,4.78323 13.32397,11.06875c0.25416,3.00373 -1.63355,0.4656 -6.681,5.44897c-5.04745,4.98337 -1.44622,8.07543 -7.63694,6.62304c-4.806,-1.12752 -2.26117,-4.88244 -2.32752,-11.72997z" fill="#f73636" stroke="#000000" stroke-width="1"/><path d="M241.63844,180.82092l2.66802,0.36021c0,0 -1.57987,3.81664 -1.90005,4.01159c-0.32018,0.19495 -0.76797,-4.3718 -0.76797,-4.3718z" fill="#f5f0e4" stroke="#000000" stroke-width="1"/><path d="M238.22974,185.80162c-0.16903,0.10291 -1.5913,-4.42325 -1.5913,-4.42325l2.66802,-0.30875c0,0 -0.75655,4.53705 -1.07672,4.732z" fill="#f5f0e4" stroke="#000000" stroke-width="1"/></g></g></svg>