<svg version="1.1" xmlns="http://www.w3.org/2000/svg" xmlns:xlink="http://www.w3.org/1999/xlink" width="61.79512" height="63.19956" viewBox="0,0,61.79512,63.19956"><defs><radialGradient cx="240" cy="180" r="30.89756" gradientUnits="userSpaceOnUse" id="color-1"><stop offset="0" stop-color="#ffb3b3" stop-opacity="0"/><stop offset="1" stop-color="#ffb3b3" stop-opacity="0"/></radialGradient></defs><g transform="translate(-209.10244,-148.40022)"><g data-paper-data="{&quot;isPaintingLayer&quot;:true}" fill-rule="nonzero" stroke-linecap="butt" stroke-linejoin="miter" stroke-miterlimit="10" stroke-dasharray="" stroke-dashoffset="0" style="mix-blend-mode: normal"><path d="M209.10244,211.59978v-63.19956h61.79512v63.19956z" fill="url(#color-1)" stroke="none" stroke-width="0"/><path d="M223.86862,181.27999c-6.33577,-7.34593 -2.9647,-14.58537 0.22235,-16.33665c2.05768,-1.13069 6.40706,-2.74748 10.4602,0.67673c3.93667,3.3258 5.04579,5.63746 5.04579,5.63746c0,0 1.33531,-3.54812 7.08779,-7.09967c3.79837,-2.34509 8.27036,-1.62765 11.01518,0.83701c3.49354,3.13694 1.97429,11.45879 -1.04769,15.09087c-1.31236,1.57731 -6.48402,4.86845 -9.81357,8.23756c-4.33743,4.38896 -6.04746,8.95043 -6.04746,8.95043c0,0 -0.97485,-3.1968 -5.91451,-8.18886c-4.93965,-4.99206 -7.98526,-4.30008 -11.00809,-7.80486z" fill="#fff2f2" stroke="#000000" stroke-width="2"/><path d="M237.96828,185.48789v-10.97578h4.06343v10.97578z" fill="#ff0000" stroke="none" stroke-width="0"/><path d="M234.51211,177.96829h10.97578v4.06343h-10.97578z" fill="#ff0000" stroke="none" stroke-width="0"/></g></g></svg>