<svg version="1.1" xmlns="http://www.w3.org/2000/svg" xmlns:xlink="http://www.w3.org/1999/xlink" width="61.79512" height="63.19956" viewBox="0,0,61.79512,63.19956"><defs><radialGradient cx="239.78976" cy="180.21024" r="30.89756" gradientUnits="userSpaceOnUse" id="color-1"><stop offset="0" stop-color="#ffb3b3" stop-opacity="0"/><stop offset="1" stop-color="#ffb3b3" stop-opacity="0"/></radialGradient></defs><g transform="translate(-208.8922,-148.61046)"><g data-paper-data="{&quot;isPaintingLayer&quot;:true}" fill-rule="nonzero" stroke-linecap="butt" stroke-linejoin="miter" stroke-miterlimit="10" stroke-dasharray="" stroke-dashoffset="0" style="mix-blend-mode: normal"><path d="M208.8922,211.81002v-63.19956h61.79512v63.19956z" fill="url(#color-1)" stroke="none" stroke-width="0"/><path d="M223.93838,182.81741c-6.33577,-7.34593 -2.5201,-15.84063 0.22235,-18.22877c2.97681,-2.59222 5.93107,-3.54756 10.88067,-1.63586c3.42243,1.32185 5.04579,5.42722 5.04579,5.42722c0,0 2.20037,-5.1573 6.66732,-6.6792c3.01942,-1.02872 7.63965,-0.78671 10.80494,3.35984c3.16529,4.14654 2.18453,12.93044 -0.83745,16.56252c-1.31236,1.57731 -6.48402,4.86845 -9.81357,8.23756c-4.33743,4.38896 -6.04746,8.95043 -6.04746,8.95043c0,0 -0.97485,-3.1968 -5.91451,-8.18886c-4.93965,-4.99206 -7.98526,-4.30008 -11.00809,-7.80486z" fill="#eaffe6" stroke="#000000" stroke-width="2"/><path d="M236.3615,188.85166v-17.70332h7.33241v17.70332z" fill="#33ff00" stroke="none" stroke-width="0"/><path d="M231.38628,176.3338h17.28284v7.33241h-17.28284z" fill="#33ff00" stroke="none" stroke-width="0"/><path d="M237.11212,187.80048v-15.60096h5.77575v15.60096z" fill="#2ee500" stroke="none" stroke-width="0"/><path d="M232.19952,177.11213h15.60096v5.77575h-15.60096z" fill="#2ee500" stroke="none" stroke-width="0"/><path d="M223.93838,182.81741c-6.33577,-7.34593 -2.5201,-15.84063 0.22235,-18.22877c2.97681,-2.59222 5.93107,-3.54756 10.88067,-1.63586c3.42243,1.32185 5.04579,5.42722 5.04579,5.42722c0,0 2.20037,-5.1573 6.66732,-6.6792c3.01942,-1.02872 7.63965,-0.78671 10.80494,3.35984c3.16529,4.14654 2.18453,12.93044 -0.83745,16.56252c-1.31236,1.57731 -6.48402,4.86845 -9.81357,8.23756c-4.33743,4.38896 -6.04746,8.95043 -6.04746,8.95043c0,0 -0.97485,-3.1968 -5.91451,-8.18886c-4.93965,-4.99206 -7.98526,-4.30008 -11.00809,-7.80486z" fill="none" stroke="#000000" stroke-width="2"/></g></g></svg>