<svg version="1.1" xmlns="http://www.w3.org/2000/svg" xmlns:xlink="http://www.w3.org/1999/xlink" width="311.25" height="326.25" viewBox="0,0,311.25,326.25"><defs><radialGradient cx="240" cy="180" r="155.625" gradientUnits="userSpaceOnUse" id="color-1"><stop offset="0" stop-color="#ede4ff"/><stop offset="1" stop-color="#ede4ff" stop-opacity="0"/></radialGradient></defs><g transform="translate(-84.375,-16.875)"><g data-paper-data="{&quot;isPaintingLayer&quot;:true}" fill-rule="nonzero" stroke-linejoin="miter" stroke-miterlimit="10" stroke-dasharray="" stroke-dashoffset="0" style="mix-blend-mode: normal"><path d="M395.625,180c0,90.09145 -69.67569,163.125 -155.625,163.125c-85.94931,0 -155.625,-73.03355 -155.625,-163.125c0,-90.09145 69.67569,-163.125 155.625,-163.125c85.94931,0 155.625,73.03355 155.625,163.125z" fill="url(#color-1)" stroke="none" stroke-width="0" stroke-linecap="butt"/><path d="M128.87956,140.67277l-14.375,-17.91667" fill="none" stroke="#000000" stroke-width="2" stroke-linecap="round"/><path d="M156.70194,153.97757c0,11.36432 -7.31842,20.57692 -16.34615,20.57692c-9.02773,0 -16.34616,-9.2126 -16.34616,-20.57692c0,-11.36432 3.85689,-18.65385 16.34616,-20.57692c8.92257,-1.37389 16.34615,9.2126 16.34615,20.57692zM140.16347,168.01603c5.52284,0 10.76923,-5.631 10.76923,-13.07692c0,-8.98439 -5.24639,-13.84616 -10.76923,-13.84616c-5.52284,0 -10.06643,4.47466 -10.38461,13.84616c-0.22654,6.67204 4.86177,13.07692 10.38461,13.07692z" fill="#9966ff" stroke="#000000" stroke-width="2" stroke-linecap="butt"/><path d="M157.47117,173.40064v-41.53846c0,0 25.5322,-4.82959 25.76923,8.07693c0.35432,19.29334 -18.48517,12.78748 -18.48517,12.78748l0.79286,21.05867zM174.00963,148.04808c2.73182,-2.30769 2.46485,-7.29022 1.17308,-9.25c-2.30769,-3.50106 -9.63461,-1.55769 -9.63461,-1.55769l-0.78846,9.63461c0,0 7.45693,2.68777 9.25,1.17308z" fill="#9966ff" stroke="#000000" stroke-width="2" stroke-linecap="butt"/><path d="M180.96936,173.90228l4.52145,-41.70693l23.56633,-0.63026l0.13702,8.87848l-18.30501,-2.84989l-0.23488,11.05725l11.29718,0.21597l-0.88326,6.84801l-10.74287,-2.1154l-1.92845,14.57278l18.00983,1.44947l-0.58308,7.21259z" fill="#9966ff" stroke="#000000" stroke-width="2" stroke-linecap="butt"/><path d="M212.6243,175.6865l-2.53537,-41.46101c0,0 25.18981,-6.37899 26.21417,6.489c2.14676,15.71841 -12.41021,13.93283 -12.41021,13.93283c0,0 2.13215,1.83691 7.43237,8.82197c2.47191,3.25769 5.99845,8.75853 5.99845,8.75853l-4.11462,5.46698c0,0 -4.90459,-7.86748 -6.95668,-10.85208c-1.35907,-1.97665 -6.85027,-6.8517 -6.85027,-6.8517l1.3075,15.58639zM227.58449,149.37175c2.58588,-2.47013 2.01528,-7.42708 0.6063,-9.30435c-2.51708,-3.35368 -9.71173,-0.96672 -9.71173,-0.96672l-0.19892,9.66477c0,0 7.60707,2.22761 9.30435,0.6063z" fill="#9966ff" stroke="#000000" stroke-width="2" stroke-linecap="butt"/><path d="M249.25133,136.25541l17.38993,34.884h-34.77988z" fill="#ffe500" stroke="#000000" stroke-width="0" stroke-linecap="butt"/><path d="M242.86756,170.6145l-9.72914,-0.19078l14.30756,-29.56896z" fill="#ff0000" stroke="none" stroke-width="0" stroke-linecap="butt"/><path d="M267.24039,173.72116c-7.06343,-5.58723 -11.02931,-28.78124 0,-39.61539c10.85891,-10.66678 21.92307,1.92307 21.92307,1.92307c0,0 -1.43659,2.01122 -2.10499,2.94699c-0.6079,0.85106 -1.74116,2.43763 -1.74116,2.43763c0,0 -8.63566,-8.42434 -14.53219,-1.5471c-4.63513,5.40604 -5.11375,20.36818 -0.33844,25.68091c8.94627,9.95308 16.18545,0.45667 16.18545,0.45667l3.30055,6.94799c0,0 -14.31295,7.39737 -22.6923,0.76923z" fill="#9966ff" stroke="#000000" stroke-width="2" stroke-linecap="butt"/><path d="M250.8798,140.664l14.30756,29.56896l-9.72914,0.19076z" fill="#ff0000" stroke="none" stroke-width="0" stroke-linecap="butt"/><path d="M249.25133,136.25541l17.38993,34.884h-34.77988z" fill="none" stroke="#000000" stroke-width="2" stroke-linecap="butt"/><path d="M256.0305,177.1006h-13.35373v-5.91379h13.35373z" fill="#8aa0a9" stroke="#000000" stroke-width="2" stroke-linecap="butt"/><path d="M292.07933,167.51659l2.77996,-24.08306l-7.34634,0.15936l3.95432,-8.42993c0,0 5.0448,0.93361 7.80253,1.02378c3.05845,0.1 9.73953,-0.45021 9.73953,-0.45021l-0.09632,10.41262l-7.56983,-1.78903l-0.4483,23.89153l8.32535,2.0499l-2.33594,8.77391c0,0 -7.01058,-2.05806 -10.59959,-2.67846c-3.19543,-0.55237 -9.89118,-0.86358 -9.89118,-0.86358l-1.90605,-10.63336z" fill="#9966ff" stroke="#000000" stroke-width="2" stroke-linecap="butt"/><path d="M339.39425,165.21513c0,8.55667 -6.97403,15.49321 -15.57692,15.49321c-8.60289,0 -15.57693,-6.93654 -15.57693,-15.49321c0,-8.55667 3.67539,-14.04525 15.57693,-15.49321c8.50268,-1.03446 15.57692,6.93654 15.57692,15.49321zM323.63406,175.78526c5.26294,0 10.26244,-4.23981 10.26244,-9.84615c0,-6.76471 -4.9995,-10.42534 -10.26244,-10.42534c-5.26294,0 -9.59272,3.36916 -9.89592,10.42534c-0.21588,5.02365 4.63298,9.84615 9.89592,9.84615z" fill="#9966ff" stroke="#000000" stroke-width="2" stroke-linecap="butt"/><path d="M338.92352,179.97953l-3.61609,-37.58935l8.37623,-2.60034l17.41058,24.79458l-0.08191,-26.08959l7.66959,0.81065l1.40335,40.36023l-7.30328,0.25394l-18.15753,-24.62115l2.74575,24.7428z" fill="#9966ff" stroke="#000000" stroke-width="2" stroke-linecap="butt"/><path d="M318.96488,152.60365l-2.907,-4.06808l14.98675,-15.36503l6.95602,8.31931z" fill="#9966ff" stroke="#000000" stroke-width="2" stroke-linecap="butt"/><path d="M121.02633,129.04908l-5.54239,-6.22305c0,0 1.20759,-3.97265 3.06351,-5.62557c0.76201,-0.67867 3.98859,-0.28053 5.42624,-1.10244c2.68749,-1.53644 3.80076,-4.21822 3.80076,-4.21822l5.54239,6.22304c0,0 -1.16775,2.81455 -3.83447,4.35128c-1.98367,1.14311 -4.19815,1.55279 -5.1626,2.41175c-1.36796,1.21834 -3.29343,4.18321 -3.29343,4.18321z" fill="#ff0000" stroke="#000000" stroke-width="0" stroke-linecap="butt"/><path d="M118.91438,127.27985l-2.5135,-3.26624c0,0 1.879,-2.84153 3.65429,-4.23955c0.72892,-0.57401 2.99787,-0.82281 4.25852,-1.60003c2.3566,-1.4529 3.84383,-3.4186 3.84383,-3.4186l2.5135,3.26624c0,0 -1.56039,2.06294 -3.90182,3.51271c-1.7417,1.07844 -4.23096,1.48705 -5.15353,2.21355c-1.30855,1.03046 -2.7013,3.53192 -2.7013,3.53192z" fill="#fff700" stroke="#000000" stroke-width="0" stroke-linecap="butt"/><path d="M120.40133,129.67408l-5.54239,-6.22305c0,0 1.20759,-3.97265 3.06351,-5.62557c0.76201,-0.67867 3.98859,-0.28053 5.42624,-1.10244c2.68749,-1.53644 3.80076,-4.21822 3.80076,-4.21822l5.5424,6.22304c0,0 -1.16775,2.81455 -3.83447,4.35128c-1.98367,1.14311 -4.82315,1.76112 -5.7876,2.62009c-1.36796,1.21834 -2.66843,3.97487 -2.66843,3.97487z" fill="none" stroke="#000000" stroke-width="2" stroke-linecap="butt"/><path d="M110.96936,232.53865l3.15781,-41.70693l23.56633,-1.53935l1.04611,7.96939l-19.2141,-1.03171l-0.23488,11.05725l11.29718,0.21597l0.48038,5.93892l-12.10651,-1.20631l-0.11027,19.11823z" fill="#2b2cea" stroke="#000000" stroke-width="2" stroke-linecap="butt"/><path d="M164.28069,231.72819l8.18182,-38.63636l8.63637,-3.63636l9.54546,42.27273l-8.6517,-0.69957l-2.06028,-17.59205l-6.00383,3.11597l-1.92056,13.81202zM179.23747,207.68889l-2.62562,-7.41871l-1.73891,9.01971z" fill="#2b2cea" stroke="#000000" stroke-width="2" stroke-linecap="butt"/><path d="M142.42442,233.15535l-6.78442,-40.98067c0,0 24.40053,-8.93488 26.74238,3.75961c3.75135,15.41442 -10.91206,15.13486 -10.91206,15.13486c0,0 2.3097,1.60797 8.29995,8.01112c2.79372,2.9863 6.8671,8.09544 6.8671,8.09544l-3.53078,5.86103c0,0 -5.68743,-7.32157 -8.03549,-10.07939c-1.55508,-1.82646 -7.51837,-6.11114 -7.51837,-6.11114l2.90296,15.36938zM154.59999,205.44202c2.31823,-2.72289 1.24105,-7.59492 -0.35346,-9.31739c-2.84852,-3.07713 -9.75965,0.03684 -9.75965,0.03684l0.79574,9.63401c0,0 7.79577,1.43374 9.31738,-0.35346z" fill="#2b2cea" stroke="#000000" stroke-width="2" stroke-linecap="butt"/><path d="M186.25189,230.69928l3.03221,-37.64095l8.70245,-1.09105l12.79238,27.4637l4.49484,-25.6996l7.40856,2.14314l-5.6966,39.98082l-7.23462,-1.03082l-13.55816,-27.42395l-1.63609,24.84086z" fill="#e9ddff" stroke="#000000" stroke-width="2" stroke-linecap="butt"/><path d="M263.50686,230.81285l-1.11609,-39.81157l7.82068,-2.04478l0.1816,14.71847l15.56231,-1.035l1.58476,-14.97848l7.66959,0.81065l1.40335,40.36022l-7.30327,0.25394l-2.13605,-18.89413l-15.46592,0.52299l-2.8098,19.04835z" fill="#e9ddff" stroke="#000000" stroke-width="2" stroke-linecap="butt"/><path d="M253.16356,188.37373c7.92312,8.54234 -19.37202,1.34242 -13.34472,23.13901c6.0273,21.79659 27.12652,5.0997 22.65645,15.05884c-4.47006,9.95914 -20.35854,9.97834 -26.20235,7.57364c-5.84381,-2.4047 -13.34182,-10.03396 -15.36551,-18.13727c-1.85047,-7.40967 -2.28551,-16.50804 6.75574,-23.83674c9.04124,-7.32871 22.13827,-7.42234 25.50038,-3.79747z" fill="#f7b936" stroke="#000000" stroke-width="1.5" stroke-linecap="butt"/><path d="M257.766,222.33897c4.17659,-0.245 6.38635,-5.69274 8.01315,-0.22961c1.33449,4.4815 -2.19596,7.30663 -4.30979,8.75312c-3.45275,2.36271 -5.34063,3.06253 -6.71583,-1.40665c-2.08965,-6.79104 -1.1082,-6.87514 3.01247,-7.11686z" fill="#ff9f17" stroke="#000000" stroke-width="1.5" stroke-linecap="butt"/><path d="M249.43786,185.31303c3.32906,0.26991 6.79388,2.23454 7.59514,4.40214c2.34399,6.34114 -2.68334,3.17448 -5.52856,4.92383c-5.032,3.09387 -6.69889,0.23758 -7.5337,-3.1052c-0.83482,-3.34279 -2.46658,-6.86396 5.46712,-6.22075z" fill="#ff9f17" stroke="#000000" stroke-width="1.5" stroke-linecap="butt"/><path d="M248.65695,221.33316c6.86565,0.1124 3.86947,1.83212 4.9854,6.30055c1.11593,4.46843 4.32825,7.49448 -2.98182,8.0278c-7.31007,0.53331 -12.65017,2.0115 -11.16209,-2.65837c1.13275,-3.55476 4.33421,-11.74896 9.15851,-11.66997z" fill="#ff9f17" stroke="#000000" stroke-width="1.5" stroke-linecap="butt"/><path d="M235.07037,186.3931c9.56141,-2.09345 7.1271,1.31671 7.9478,4.71247c0.71859,2.97327 7.81008,6.80758 -2.37488,9.35114c-2.68567,0.74228 -13.30971,-4.37047 -12.69203,-8.38507c0.50503,-3.28235 3.49432,-4.58624 7.11911,-5.67854z" fill="#ff9f17" stroke="#000000" stroke-width="1.5" stroke-linecap="butt"/><path d="M229.83492,208.16056c7.32089,-1.65138 10.51275,-5.0558 10.05497,1.04801c-0.04076,0.54346 0.50908,3.0124 0.88887,3.57861c3.62192,5.39979 -1.39182,5.49938 -7.17138,6.94274c-5.22535,1.30496 -10.47129,6.89188 -13.36888,-2.54906c-3.14623,-10.251 3.50516,-7.64629 9.59642,-9.0203z" fill="#ff9f17" stroke="#000000" stroke-width="1.5" stroke-linecap="butt"/><path d="M233.26078,220.69965c5.95937,-1.94976 8.54152,-3.90919 10.42598,-2.16217c4.07769,3.78029 -0.54878,4.44752 -3.60479,10.61505c-1.16528,2.35173 -0.3318,6.78046 -3.05312,6.71975c-7.46195,-1.9342 -11.56969,-7.84755 -12.4631,-9.61571c-2.0816,-4.11973 2.99254,-3.69123 8.69502,-5.55693z" fill="#ff9f17" stroke="#000000" stroke-width="1.5" stroke-linecap="butt"/><path d="M229.58447,207.55264c-5.80296,1.50909 -9.17726,3.1836 -10.62666,-0.40961c-2.6783,-6.63981 1.37915,-12.14282 6.72075,-13.96735c2.55265,-0.8719 0.7584,1.31725 6.17918,4.61884c5.42078,3.30159 7.32441,-0.4953 7.40573,5.1942c0.06313,4.41689 -3.74854,3.02166 -9.67898,4.56391z" fill="#ff9f17" stroke="#000000" stroke-width="1.5" stroke-linecap="butt"/><path d="M299.96306,226.51767c-7.63382,-8.14869 -4.56593,-34.42071 -4.56593,-34.42071l5.60004,-2.1439c0,0 -1.2177,23.88446 3.21007,30.51435c3.27701,4.9068 14.48478,4.6224 16.30003,-3.78357c2.21777,-10.26995 -3.314,-29.29079 -3.314,-29.29079l7.28303,0.00591c0,0 5.04914,19.21792 2.51193,31.61085c-3.15275,15.3995 -19.39137,15.65655 -27.02518,7.50786z" fill="#f50332" stroke="#000000" stroke-width="2" stroke-linecap="butt"/><path d="M357.51584,233.74577l-3.57236,-41.79892l23.00663,-5.14435l1.83955,8.6869l-18.51159,0.71856l1.89299,10.89654l11.12837,-1.95763l0.44831,6.89017l-10.94916,-0.0129l0.90609,14.67187l17.95296,-2.03623l0.81292,7.19031z" fill="#f50332" stroke="#000000" stroke-width="2" stroke-linecap="butt"/><path d="M332.91266,229.73881l2.50219,-32.41639l-9.84634,-0.11842l-0.49013,-7.31882c0,0 9.80513,1.09439 14.46919,0.46822c5.5355,-0.74316 17.23953,-2.39465 17.23953,-2.39465l-0.09631,10.96818l-13.68094,-0.95569l-0.17052,29.1693z" fill="#f50332" stroke="#000000" stroke-width="2" stroke-linecap="butt"/></g></g></svg>