<svg version="1.1" xmlns="http://www.w3.org/2000/svg" xmlns:xlink="http://www.w3.org/1999/xlink" width="61.79512" height="63.19956" viewBox="0,0,61.79512,63.19956"><defs><radialGradient cx="240" cy="180" r="30.89756" gradientUnits="userSpaceOnUse" id="color-1"><stop offset="0" stop-color="#ffb3b3" stop-opacity="0"/><stop offset="1" stop-color="#ffb3b3" stop-opacity="0"/></radialGradient></defs><g transform="translate(-209.10244,-148.40022)"><g data-paper-data="{&quot;isPaintingLayer&quot;:true}" fill-rule="nonzero" stroke-linejoin="miter" stroke-miterlimit="10" stroke-dasharray="" stroke-dashoffset="0" style="mix-blend-mode: normal"><path d="M209.10244,211.59978v-63.19956h61.79512v63.19956z" fill="url(#color-1)" stroke="none" stroke-width="0" stroke-linecap="butt"/><path d="M234.48731,165.20645c0,-1.38899 1.126,-2.515 2.515,-2.515c1.38899,0 2.515,1.126 2.515,2.515c0,1.38899 -1.126,2.515 -2.515,2.515c-1.38899,0 -2.515,-1.126 -2.515,-2.515z" fill="#a4b1cc" stroke="#000000" stroke-width="2" stroke-linecap="butt"/><path d="M240.22676,164.93444c0,-1.38899 1.126,-2.51499 2.515,-2.51499c1.38899,0 2.51499,1.12599 2.51499,2.51499c0,1.38899 -1.12599,2.515 -2.51499,2.515c-1.38899,0 -2.515,-1.126 -2.515,-2.515z" fill="#a4b1cc" stroke="#000000" stroke-width="2" stroke-linecap="butt"/><path d="M220.35216,190.60793c-0.87181,-12.53846 4.29389,-17.88314 4.29389,-17.88314l30.91605,-0.61341c0,0 4.75834,6.62547 4.04853,18.15612c-0.20689,6.08911 -38.51977,10.96454 -39.25847,0.34043z" fill="#23cc52" stroke="#000000" stroke-width="2" stroke-linecap="butt"/><path d="M225.16342,187.71873c0,0 0,-12.5245 0,-16.19411c0,-2.5304 1.6408,-4.29389 4.1712,-4.29389c3.63628,0 15.93603,0 22.08289,0c2.17031,0 3.55781,1.38749 3.55781,3.55779c0,3.54772 0,16.93022 0,16.93022z" fill="#a4b1cc" stroke="#000000" stroke-width="2" stroke-linecap="butt"/><path d="M220.3788,190.49915c-1.67558,-6.00848 9.2012,-17.74772 9.2012,-17.74772l21.10142,-0.24537c0,0 10.52443,13.23333 8.95584,18.52508c-2.5213,8.5058 -36.66909,9.0399 -39.25847,-0.24537z" fill="#23cc52" stroke="#000000" stroke-width="2" stroke-linecap="butt"/><path d="M243.81918,189.09296c0,0 -4.10695,4.36625 -7.1139,-0.25295c-1.54523,-2.37375 -1.62088,-5.09545 -0.72288,-7.20081c2.62631,-6.15738 7.94969,-1.9175 7.94969,-1.9175" fill="none" stroke="#157e33" stroke-width="2" stroke-linecap="round"/><path d="M234.10471,182.91704h6.05173" fill="none" stroke="#157e33" stroke-width="2" stroke-linecap="round"/><path d="M234.03932,186.48915h6.05173" fill="none" stroke="#157e33" stroke-width="2" stroke-linecap="round"/></g></g></svg>