<svg version="1.1" xmlns="http://www.w3.org/2000/svg" xmlns:xlink="http://www.w3.org/1999/xlink" width="61.79512" height="63.19956" viewBox="0,0,61.79512,63.19956"><defs><radialGradient cx="240" cy="180.06303" r="30.89756" gradientUnits="userSpaceOnUse" id="color-1"><stop offset="0" stop-color="#ffb3b3" stop-opacity="0"/><stop offset="1" stop-color="#ffb3b3" stop-opacity="0"/></radialGradient></defs><g transform="translate(-209.10244,-148.46325)"><g data-paper-data="{&quot;isPaintingLayer&quot;:true}" fill-rule="nonzero" stroke-linejoin="miter" stroke-miterlimit="10" stroke-dasharray="" stroke-dashoffset="0" style="mix-blend-mode: normal"><path d="M209.10244,211.66281v-63.19956h61.79512v63.19956z" fill="url(#color-1)" stroke="none" stroke-width="0" stroke-linecap="butt"/><path d="M234.85415,165.95661c0,0 -2.68894,-11.91365 -1.55906,-11.86113c0.24513,0.01139 3.05574,4.94779 4.7176,2.27204c0.84671,-1.36329 4.0625,-6.15373 4.09517,-4.53981c0.1705,8.42039 5.26526,1.44386 5.62724,1.97984c0.58336,0.86375 -2.695,12.30727 -2.695,12.30727c0,0 7.66519,-1.37947 12.95763,3.02833c2.62745,2.18827 3.68923,6.1181 3.93854,10.75434c0.07202,1.33911 1.6378,1.04972 1.33014,4.42906c-0.33616,3.69239 -1.44787,2.76261 -1.5825,4.30101c-0.34051,3.89104 -0.8945,7.83759 -1.32932,11.38244c-0.61417,3.26724 -5.16929,5.7408 -11.01557,7.0787c-1.14103,0.26112 -0.66847,1.54031 -3.29111,1.95035c-2.9723,0.46469 -2.57459,-1.01674 -3.75462,-0.93805c-10.1041,0.67384 -20.91821,-1.76248 -22.22736,-8.62725c-0.17953,-0.94137 -1.05793,-0.41194 -1.80739,-3.11676c-0.73596,-2.65615 0.71993,-2.89107 0.48587,-4.36459c-2.392,-15.05847 -0.94894,-18.85104 3.19272,-22.26021c6.63744,-5.46354 12.91703,-3.77558 12.91703,-3.77558z" fill="#f5c355" stroke="#000000" stroke-width="2" stroke-linecap="butt"/><path d="M246.86768,191.73388c0,0 -6.01169,6.39124 -10.41321,-0.37026c-2.26188,-3.47466 -2.37262,-7.45864 -1.05814,-10.54043c3.84435,-9.01307 11.63662,-2.8068 11.63662,-2.8068" fill="none" stroke="#b38e3f" stroke-width="2" stroke-linecap="round"/><path d="M232.6478,182.69367h8.85842" fill="none" stroke="#b38e3f" stroke-width="2" stroke-linecap="round"/><path d="M232.55208,187.92247h8.85842" fill="none" stroke="#b38e3f" stroke-width="2" stroke-linecap="round"/><path d="M233.28125,166.29126l12.63936,0.07503" fill="none" stroke="#fffcda" stroke-width="2" stroke-linecap="round"/><path d="M233.31599,161.80436l13.08513,-0.31528" fill="none" stroke="#fafaf2" stroke-width="2" stroke-linecap="round"/><path d="M234.03733,163.47188l11.45838,0.68878" fill="none" stroke="#f3e9c6" stroke-width="2" stroke-linecap="round"/></g></g></svg>