<svg version="1.1" xmlns="http://www.w3.org/2000/svg" xmlns:xlink="http://www.w3.org/1999/xlink" width="125.90909" height="106.81818" viewBox="0,0,125.90909,106.81818"><g transform="translate(-177.04545,-126.59091)"><g data-paper-data="{&quot;isPaintingLayer&quot;:true}" fill-rule="nonzero" stroke-linejoin="miter" stroke-miterlimit="10" stroke-dasharray="" stroke-dashoffset="0" style="mix-blend-mode: normal"><path d="M239.97892,158.47222c10.72302,0 21.77824,8.75691 21.56697,20.01688c-0.21127,11.25997 -7.71036,23.03868 -21.56697,23.03868c-11.88947,0 -21.52778,-9.63832 -21.52778,-21.52778c0,-11.88947 9.63832,-21.52778 21.52778,-21.52778z" fill="#ffe8e8" stroke="#ff0000" stroke-width="3.5" stroke-linecap="butt"/><path d="M240.16077,158.81705c10.72302,0 19.01962,6.86036 21.04973,16.74102c0.31396,1.52808 6.01859,4.38135 6.01859,4.38135c0,0 -5.6959,3.38807 -5.99149,4.80986c-2.03268,9.777 -10.69684,17.12333 -21.07683,17.12333c-11.88947,0 -21.52778,-9.63832 -21.52778,-21.52778c0,-11.88947 9.63832,-21.52778 21.52778,-21.52778z" fill="#ffe8e8" stroke="#ff0000" stroke-width="3.5" stroke-linecap="butt"/><path d="M251.38883,180.00001l-19.45333,9.69763v-19.39527z" fill="#ff0000" stroke="#000000" stroke-width="0" stroke-linecap="butt"/><path d="M232.22821,176.44004l0.10639,-5.42553l16.48936,7.97872z" fill="#ff0000" stroke="none" stroke-width="0" stroke-linecap="butt"/><path d="M248.93035,180.90814l-16.48936,7.97872l-0.10638,-5.42553z" fill="#ff0000" stroke="none" stroke-width="0" stroke-linecap="butt"/><path d="M251.38883,180.00001l-19.45333,9.69763v-19.39527z" fill="#ff0000" stroke="#000000" stroke-width="2" stroke-linecap="butt"/><path d="M228.6112,183.78047v-7.44681h3.29787v7.44681z" fill="#ff0000" stroke="#000000" stroke-width="2" stroke-linecap="butt"/><path d="M261.63572,176.52483c0,0 0.37037,2.15422 0.37037,3.33333c0,1.33286 -0.25272,3.67102 -0.25272,3.67102" fill="none" stroke="#ff0000" stroke-width="4" stroke-linecap="round"/><path d="M177.04546,233.40909v-106.81818h125.90909v106.81818z" fill="none" stroke="none" stroke-width="0" stroke-linecap="butt"/></g></g></svg>