<?xml version="1.0" encoding="UTF-8" standalone="no"?>
<svg
   version="1.1"
   width="53.2337"
   height="53.2337"
   viewBox="0,0,53.2337,53.2337"
   id="svg19"
   sodipodi:docname="placeholder2.svg"
   inkscape:version="1.3.2 (091e20e, 2023-11-25, custom)"
   xmlns:inkscape="http://www.inkscape.org/namespaces/inkscape"
   xmlns:sodipodi="http://sodipodi.sourceforge.net/DTD/sodipodi-0.dtd"
   xmlns="http://www.w3.org/2000/svg"
   xmlns:svg="http://www.w3.org/2000/svg">
  <defs
     id="defs19" />
  <sodipodi:namedview
     id="namedview19"
     pagecolor="#505050"
     bordercolor="#eeeeee"
     borderopacity="1"
     inkscape:showpageshadow="0"
     inkscape:pageopacity="0"
     inkscape:pagecheckerboard="0"
     inkscape:deskcolor="#505050"
     inkscape:zoom="10.453773"
     inkscape:cx="12.435701"
     inkscape:cy="32.189334"
     inkscape:window-width="1920"
     inkscape:window-height="1001"
     inkscape:window-x="-9"
     inkscape:window-y="-9"
     inkscape:window-maximized="1"
     inkscape:current-layer="g18" />
  <g
     transform="translate(-213.38314,-153.38315)"
     id="g19">
    <g
       data-paper-data="{&quot;isPaintingLayer&quot;:true}"
       fill-rule="nonzero"
       stroke-linejoin="miter"
       stroke-miterlimit="10"
       stroke-dasharray=""
       stroke-dashoffset="0"
       style="mix-blend-mode: normal"
       id="g18">
      <path
         d="M214.38315,200.30429c0,-11.08797 0,-36.12831 0,-41.70906c0,-2.16121 2.36629,-4.21208 4.77824,-4.21208c5.75958,0 29.94389,0 40.95413,0c3.36647,0 5.50132,2.68804 5.50132,5.34446c0,5.61611 0,28.71485 0,40.19922c0,4.43302 -1.73036,5.69002 -5.31259,5.69002c-11.06172,0 -34.94914,0 -40.76541,0c-3.65798,0 -5.1557,-2.05364 -5.1557,-5.31257z"
         fill="#ffa2da"
         stroke="#000000"
         stroke-width="2"
         stroke-linecap="butt"
         id="path1"
         style="fill:#9bf3ff;fill-opacity:1" />
      <path
         d="M218.07182,197.60549c0,-9.61419 0,-31.32623 0,-36.16519c0,-1.87395 2.02556,-3.65222 4.09021,-3.65222c4.93023,0 25.63215,0 35.05699,0c2.88171,0 4.70916,2.33075 4.70916,4.63408c0,4.86963 0,24.89814 0,34.85604c0,3.84379 -1.4812,4.93372 -4.54761,4.93372c-9.4689,0 -29.91667,0 -34.89544,0c-3.13126,0 -4.41331,-1.78067 -4.41331,-4.60643z"
         fill="#ff66e7"
         stroke="none"
         stroke-width="0"
         stroke-linecap="butt"
         id="path2"
         style="fill:#66c4ff;fill-opacity:1" />
      <path
         d="M229.12472,194.72927c0,0 -2.28177,2.5665 -2.50883,2.52697c-0.24301,-0.0423 -3.76554,-3.63248 -3.76554,-3.63248"
         fill="none"
         stroke="#980093"
         stroke-width="1.5"
         stroke-linecap="round"
         id="path3"
         style="stroke:#300098;stroke-opacity:1" />
      <path
         d="M230.62413,185.75509l3.66882,3.53019"
         fill="none"
         stroke="#980093"
         stroke-width="1.5"
         stroke-linecap="round"
         id="path4"
         style="stroke:#300098;stroke-opacity:1" />
      <path
         d="M229.83053,186.5328l1.46962,-1.66854"
         fill="none"
         stroke="#980093"
         stroke-width="1.5"
         stroke-linecap="round"
         id="path5"
         style="stroke:#300098;stroke-opacity:1" />
      <path
         d="M235.1015,188.58619l-1.43534,1.44463"
         fill="none"
         stroke="#980093"
         stroke-width="1.5"
         stroke-linecap="round"
         id="path6"
         style="stroke:#300098;stroke-opacity:1" />
      <path
         d="M223.33579,200.71367c0,0 -3.4628,-3.304 -3.70961,-3.50914c-0.22308,-0.18542 2.12032,-2.39387 2.91785,-1.62033c1.15917,1.12428 -0.92351,3.10834 -0.92351,3.10834"
         fill="none"
         stroke="#980093"
         stroke-width="1.5"
         stroke-linecap="round"
         id="path7"
         style="stroke:#300098;stroke-opacity:1" />
      <path
         d="M235.19343,181.36597c0,0 -2.17639,0.96832 -2.25339,2.65369c-0.02812,0.61545 1.208,1.99686 2.51752,0.40927c1.42974,-1.73333 2.62119,-0.56221 2.3473,0.58649c-0.50471,2.11675 -2.14108,2.35894 -2.14108,2.35894"
         fill="none"
         stroke="#980093"
         stroke-width="1.5"
         stroke-linecap="round"
         id="path8"
         style="stroke:#300098;stroke-opacity:1" />
      <path
         d="M232.65833,191.04815c0,0 -1.87504,2.47404 -2.75615,2.47655c-1.08419,0.0031 -3.25289,-3.15159 -3.36908,-3.31826c-0.13629,-0.19551 2.21173,-2.56307 2.21173,-2.56307"
         fill="none"
         stroke="#980093"
         stroke-width="1.5"
         stroke-linecap="round"
         id="path9"
         style="stroke:#300098;stroke-opacity:1" />
      <path
         d="M230.08608,189.90809l-1.6127,1.78623"
         fill="none"
         stroke="#980093"
         stroke-width="1.5"
         stroke-linecap="round"
         id="path10"
         style="stroke:#300098;stroke-opacity:1" />
      <path
         d="M239.07239,177.04628c0,0 -0.55378,0.69988 -0.86564,1.02398c-0.50225,0.52198 -1.88758,1.83735 -1.88758,1.83735"
         fill="none"
         stroke="#980093"
         stroke-width="1.5"
         stroke-linecap="round"
         id="path11"
         style="stroke:#300098;stroke-opacity:1" />
      <path
         d="M237.8642,178.63854c0,0 4.50157,2.37687 3.15011,3.9299c-1.36663,1.57048 -2.33297,0.18615 -2.33297,0.18615"
         fill="none"
         stroke="#980093"
         stroke-width="1.5"
         stroke-linecap="round"
         id="path12"
         style="stroke:#300098;stroke-opacity:1" />
      <path
         d="M249.87565,173.33313c0,0 -2.28177,2.5665 -2.50883,2.52697c-0.24301,-0.0423 -3.76554,-3.63248 -3.76554,-3.63248"
         fill="none"
         stroke="#980093"
         stroke-width="1.5"
         stroke-linecap="round"
         id="path13"
         style="stroke:#300098;stroke-opacity:1" />
      <path
         d="M244.41011,175.01047c0.98432,0.94713 1.26562,2.77564 0.48251,3.5344c-1.20831,1.17074 -2.641,0.7831 -3.62532,-0.16403c-0.98432,-0.94713 -1.08114,-2.40477 -0.42378,-3.16927c0.75359,-0.87641 2.58227,-1.14824 3.56659,-0.20111z"
         fill="none"
         stroke="#980093"
         stroke-width="1.5"
         stroke-linecap="butt"
         id="path14"
         style="stroke:#300098;stroke-opacity:1" />
      <path
         d="M258.33428,164.4945c0,0 -3.58309,-3.14892 -3.77392,-3.3319c-0.1312,-0.1258 1.9838,-2.65411 2.97428,-1.5966c1.08127,1.15443 -1.09501,3.11311 -0.93872,3.22677c0.04115,0.02992 0.87727,-0.71838 1.67916,-0.76831c1.15791,-0.0721 2.15177,0.29531 2.15177,0.29531"
         fill="none"
         stroke="#980093"
         stroke-width="1.5"
         stroke-linecap="round"
         id="path15"
         style="stroke:#300098;stroke-opacity:1" />
      <path
         d="M250.8429,172.22032c-0.33133,-0.37145 -3.45985,-3.086 -3.66673,-3.24751c-0.38129,-0.29769 2.78595,-3.16976 4.55253,-1.51358c2.02792,1.90118 -0.6859,4.9852 -0.8858,4.76109z"
         fill="none"
         stroke="#980093"
         stroke-width="1.5"
         stroke-linecap="round"
         id="path16"
         style="stroke:#300098;stroke-opacity:1" />
      <path
         d="M257.33409,165.57306c0,0 -1.87504,2.47404 -2.75615,2.47655c-1.08419,0.0031 -3.25289,-3.15159 -3.36908,-3.31826c-0.13629,-0.19551 2.21173,-2.56307 2.21173,-2.56307"
         fill="none"
         stroke="#980093"
         stroke-width="1.5"
         stroke-linecap="round"
         id="path17"
         style="stroke:#300098;stroke-opacity:1" />
      <path
         d="M253.14914,166.21923l1.6127,-1.78623"
         fill="none"
         stroke="#980093"
         stroke-width="1.5"
         stroke-linecap="round"
         id="path18"
         style="stroke:#300098;stroke-opacity:1" />
    </g>
  </g>
</svg>
