<svg version="1.1" xmlns="http://www.w3.org/2000/svg" xmlns:xlink="http://www.w3.org/1999/xlink" width="64.99834" height="100.83483" viewBox="0,0,64.99834,100.83483"><g transform="translate(-207.50083,-129.58258)"><g data-paper-data="{&quot;isPaintingLayer&quot;:true}" fill-rule="nonzero" stroke="none" stroke-width="0" stroke-linecap="butt" stroke-linejoin="miter" stroke-miterlimit="10" stroke-dasharray="" stroke-dashoffset="0" style="mix-blend-mode: normal"><path d="M262.58419,180.80921c-0.59302,4.36048 6.04424,11.23515 2.7496,17.17229c-3.54506,6.38842 -5.24182,-4.43005 -13.50497,1.14297c-2.63655,1.77821 -5.21561,16.75313 -9.23817,16.88098c-1.69057,0.05373 0.23975,-16.45736 -2.80471,-15.9598c-3.04447,0.49756 -0.09841,29.42683 -8.33116,30.32833c-11.12431,1.21813 3.67106,-23.54367 -0.77259,-29.31943c-4.44365,-5.77577 -3.35103,16.30591 -8.50891,8.39507c-4.16329,-6.38539 -2.34876,-9.42436 -0.53212,-13.8562c7.29342,-17.79291 -18.13681,-11.43996 -13.59241,-18.15316c2.52608,-3.73164 23.02738,-5.0775 23.95461,-10.53699c4.82076,-28.38424 11.37632,-22.83644 18.33843,-13.40614c6.17608,8.36562 5.77674,12.248 12.0444,13.07494c5.18739,0.6844 9.91014,-0.22055 10.09617,2.51762c0.47427,6.98099 -9.2368,6.85648 -9.89817,11.71952z" fill="#480000"/><path d="M238.01524,133.45963c0.78104,2.46881 -0.14378,7.3829 -1.60585,8.01378c-1.89421,0.81736 -6.0829,-2.86546 -6.86394,-5.33425c-0.78104,-2.46881 -1.25973,-4.08863 2.82071,-5.80992c4.99308,-2.10628 4.86804,0.6616 5.64908,3.13041z" fill="#480000"/><path d="M246.40651,137.07579c1.06345,0.64094 0.82345,2.98912 0.20625,4.01318c-0.6172,1.02406 -2.78069,2.01851 -3.84413,1.37757c-1.06345,-0.64094 -0.62415,-2.67455 -0.00695,-3.69861c0.6172,-1.02406 2.58139,-2.33307 3.64484,-1.69213z" fill="#480000"/><path d="M217.85467,221.28926c-0.17364,-1.48204 1.39722,-4.05757 2.9104,-4.78826c6.44085,-4.85331 3.20168,1.34588 3.37533,2.82793c0.17364,1.48204 -1.62316,3.00057 -2.77176,3.43464c-1.1486,0.43407 -3.34033,0.00774 -3.51397,-1.47432z" fill="#480000"/><path d="M252.34966,223.299c0,2.29182 -1.40749,4.1497 -3.14371,4.1497c-1.73622,0 -3.14371,-1.85788 -3.14371,-4.1497c0,-2.29182 0.90449,-8.67665 1.63473,-9.17964c0.60138,-0.41423 4.65269,6.88782 4.65269,9.17964z" fill="#480000"/></g></g></svg>