<svg version="1.1" xmlns="http://www.w3.org/2000/svg" xmlns:xlink="http://www.w3.org/1999/xlink" width="24.84549" height="76.66078" viewBox="0,0,24.84549,76.66078"><g transform="translate(-227.58743,-128.56315)"><g data-paper-data="{&quot;isPaintingLayer&quot;:true}" fill-rule="nonzero" stroke-linejoin="miter" stroke-miterlimit="10" stroke-dasharray="" stroke-dashoffset="0" style="mix-blend-mode: normal"><path d="M228.58743,200.55894c0,-4.63678 0,-24.8435 0,-32.56638c0,-4.69434 3.55001,-4.20674 5.52303,-9.25534c2.43927,-6.24164 1.67325,-17.50361 1.67325,-17.50361l7.82544,-0.0045c0,0 -0.65511,10.89952 1.69214,17.4017c1.89655,5.25368 6.06764,4.75626 6.06764,9.36175c0,4.28177 0,24.49209 0,32.72681c0,2.06344 -1.16901,3.50456 -3.23245,3.50456c-1.67047,0 -4.15906,-0.55214 -7.7658,-0.55214c-3.84542,0 -6.22544,0.55214 -8.11632,0.55214c-4.18451,0 -3.66692,-3.66499 -3.66692,-3.66499z" fill="#0f3014" stroke="#000000" stroke-width="2" stroke-linecap="butt"/><path d="M228.58743,200.55894c0,-4.63678 0,-24.8435 0,-32.56638c0,-4.69434 3.55001,-4.20674 5.52303,-9.25534c2.43927,-6.24164 1.4892,-10.87795 1.4892,-10.87795l8.11329,0.01337c0,0 -0.75892,4.25598 1.58833,10.75817c1.89655,5.25368 6.06764,4.75626 6.06764,9.36175c0,4.28177 0,24.49209 0,32.72681c0,2.06344 -1.16901,3.50456 -3.23245,3.50456c-1.67047,0 -4.15906,-0.55214 -7.7658,-0.55214c-3.84542,0 -6.22544,0.55214 -8.11632,0.55214c-4.18451,0 -3.66692,-3.66499 -3.66692,-3.66499z" fill="#360000" stroke="none" stroke-width="0" stroke-linecap="butt"/><path d="M228.58743,200.55894c0,-4.63678 0,-24.8435 0,-32.56638c0,-4.69434 3.55001,-4.20674 5.52303,-9.25534c2.43927,-6.24164 1.67325,-17.50361 1.67325,-17.50361l7.82544,-0.0045c0,0 -0.65511,10.89952 1.69214,17.4017c1.89655,5.25368 6.06764,4.75626 6.06764,9.36175c0,4.28177 0,24.49209 0,32.72681c0,2.06344 -1.16901,3.50456 -3.23245,3.50456c-1.67047,0 -4.15906,-0.55214 -7.7658,-0.55214c-3.84542,0 -6.22544,0.55214 -8.11632,0.55214c-4.18451,0 -3.66692,-3.66499 -3.66692,-3.66499z" fill="none" stroke="#000000" stroke-width="2" stroke-linecap="butt"/><path d="M228.75028,194.18037v-25.17041h22.68264v25.17041z" fill="#fdffe9" stroke="#000000" stroke-width="2" stroke-linecap="butt"/><path d="M240.67246,174.06595c2.77725,1.16559 -4.4178,2.38377 -0.67221,6.87238c3.7456,4.48861 6.93119,-1.69467 6.94172,1.1273c0.01054,2.82197 -3.72831,4.52237 -5.36089,4.57993c-1.63258,0.05757 -4.21228,-0.93841 -5.55367,-2.63031c-1.22657,-1.54707 -2.30012,-3.64283 -0.95362,-6.33338c1.3465,-2.69055 4.42016,-4.11052 5.59867,-3.61592z" fill="#f7b936" stroke="#000000" stroke-width="1" stroke-linecap="butt"/><path d="M245.38142,181.57173c0.95722,-0.50348 0.89603,-2.02199 1.86217,-0.90935c0.79254,0.91272 0.26285,1.95471 -0.08045,2.52091c-0.56075,0.92483 -0.93056,1.2911 -1.73136,0.38563c-1.21685,-1.37589 -0.99475,-1.50045 -0.05035,-1.99718c0,0 -0.95723,0.50347 -0.00001,-0.00001z" fill="#ff9f17" stroke="#000000" stroke-width="1" stroke-linecap="butt"/><path d="M239.49577,173.92957c0.81263,-0.29178 1.83811,-0.19904 2.25812,0.2258c1.22872,1.24282 -0.29295,1.03383 -0.77613,1.7494c-0.85454,1.26554 -1.55188,0.77095 -2.10523,0.07301c-0.55335,-0.69795 -1.31338,-1.35283 0.62324,-2.0482z" fill="#ff9f17" stroke="#000000" stroke-width="1" stroke-linecap="butt"/><path d="M243.12936,182.30718c1.6285,-0.70635 1.10661,0.01836 1.84629,0.95132c0.73969,0.93297 1.81901,1.30257 0.1548,2.20839c-1.66421,0.90582 -2.76375,1.82383 -2.91183,0.56549c-0.11272,-0.95786 -0.23356,-3.22888 0.91074,-3.72521z" fill="#ff9f17" stroke="#000000" stroke-width="1" stroke-linecap="butt"/><path d="M236.20107,175.53082c2.02776,-1.51344 1.8186,-0.4507 2.37428,0.26122c0.48655,0.62335 2.56548,0.76921 0.43895,2.45519c-0.55311,0.46143 -3.60022,0.39161 -3.88329,-0.61954c-0.23144,-0.82673 0.33321,-1.45279 1.07007,-2.09686z" fill="#ff9f17" stroke="#000000" stroke-width="1" stroke-linecap="butt"/><path d="M237.29177,181.21472c1.54742,-1.17022 1.93556,-2.31247 2.47928,-0.82648c0.04841,0.13231 0.44139,0.65492 0.59125,0.7477c1.42912,0.88478 0.25928,1.44337 -0.94744,2.4001c-1.09101,0.86498 -1.72982,2.74034 -3.41974,0.82677c-1.83492,-2.07775 0.00914,-2.17442 1.29666,-3.14809z" fill="#ff9f17" stroke="#000000" stroke-width="1" stroke-linecap="butt"/><path d="M239.43675,183.80135c1.19501,-1.09515 1.59382,-1.8321 2.22399,-1.62191c1.36357,0.45482 0.3455,1.10573 0.28427,2.88405c-0.02335,0.67809 0.6456,1.63185 -0.00161,1.90802c-1.96334,0.34106 -3.56167,-0.61278 -3.96075,-0.93373c-0.92983,-0.7478 0.3106,-1.1885 1.45409,-2.23644z" fill="#ff9f17" stroke="#000000" stroke-width="1" stroke-linecap="butt"/><path d="M237.16792,181.09832c-1.20522,0.9747 -1.82095,1.72912 -2.54574,1.03781c-1.33931,-1.27745 -0.97136,-3.0062 0.09156,-4.00592c0.50795,-0.47775 0.31916,0.2292 1.94787,0.42795c1.62871,0.19876 1.67165,-0.8984 2.29807,0.4325c0.48631,1.03321 -0.56006,1.11155 -1.79176,2.10766z" fill="#ff9f17" stroke="#000000" stroke-width="1" stroke-linecap="butt"/><path d="M235.33873,143.75809c0,0 0,-3.14644 0,-6.17206c0,-0.50759 -0.9068,-0.4115 -0.9068,-0.9068c0,-1.03105 0,-2.38296 0,-3.17378c0,-0.51845 0.98236,-0.50474 0.98236,-0.83008c0,-1.59482 1.12379,-3.11222 2.71862,-3.11222c0.79645,0 1.8944,0 3.17218,0c2.10189,0 2.8948,1.02517 2.8948,3.12706c0,0.31392 0.85938,0.19533 0.85709,0.90602c-0.00188,0.58231 0.00623,2.23578 0.02159,3.04684c0.01894,0.99999 -0.89553,0.60908 -0.8989,1.03395c-0.02671,3.36705 -0.07042,6.08107 -0.07042,6.08107z" fill="#e6d400" stroke="#000000" stroke-width="2" stroke-linecap="butt"/><path d="M230.39332,190.33787c0,0 0.54211,-0.72835 0.54651,-0.65748c0.00985,0.15851 -0.01745,1.77679 -0.01745,1.77679" fill="none" stroke="#000000" stroke-width="0.5" stroke-linecap="round"/><path d="M232.87777,190.58533c0.12447,0.47303 -0.35553,0.8782 -0.794,0.88391c-0.70318,0.00916 -0.83189,-0.39712 -0.794,-0.88391c0.04726,-0.60724 0.35569,-0.87111 0.794,-0.88391c0.62756,-0.01832 0.70893,0.56061 0.794,0.88391z" fill="none" stroke="#000000" stroke-width="0.5" stroke-linecap="butt"/><path d="M234.84655,190.6112c0.12447,0.47303 -0.35553,0.8782 -0.794,0.88391c-0.70318,0.00916 -0.83189,-0.39712 -0.794,-0.88391c0.04726,-0.60724 0.35569,-0.87111 0.794,-0.88391c0.62756,-0.01832 0.70893,0.56061 0.794,0.88391c0,0 -0.12447,-0.47303 0,0z" fill="none" stroke="#000000" stroke-width="0.5" stroke-linecap="butt"/><path d="M236.02104,190.02951c0.03848,0.18814 -0.17127,0.30631 -0.33002,0.30631c-0.15875,0 -0.24486,-0.11459 -0.24486,-0.30631c0,-0.19173 0.06482,-0.24505 0.22356,-0.28589c0.15333,-0.03945 0.26615,-0.13047 0.35132,0.28589z" fill="none" stroke="#000000" stroke-width="0.5" stroke-linecap="butt"/><path d="M236.82968,189.65307c0,0 -0.11241,0.22999 -0.36662,0.57853c-0.30108,0.41281 -0.46013,0.41214 -0.70661,0.77519c-0.21977,0.3237 -0.33114,0.62441 -0.33114,0.62441" fill="none" stroke="#000000" stroke-width="0.5" stroke-linecap="round"/><path d="M236.77274,191.06506c0.10709,0.11992 0.09188,0.24717 -0.01976,0.33888c-0.17632,0.14484 -0.27742,0.11314 -0.38452,-0.00678c-0.1625,-0.18196 -0.20276,-0.18298 -0.09112,-0.27468c0.19249,-0.15813 0.3883,-0.17734 0.49539,-0.05742z" fill="none" stroke="#000000" stroke-width="0.5" stroke-linecap="butt"/><path d="M238.12308,191.48667c-0.00479,-0.1258 0.00636,-1.51738 0.01613,-1.66643c0.01145,-0.11956 0.84548,-0.07185 0.84548,-0.07185" fill="none" stroke="#000000" stroke-width="0.5" stroke-linecap="round"/><path d="M238.8113,190.65208l-0.64423,-0.03291" fill="none" stroke="#000000" stroke-width="0.5" stroke-linecap="round"/><path d="M244.81491,191.50367l0.01983,-1.7593" fill="none" stroke="#000000" stroke-width="0.5" stroke-linecap="round"/><path d="M244.87242,190.63828l0.77339,-0.03804" fill="none" stroke="#000000" stroke-width="0.5" stroke-linecap="round"/><path d="M245.69539,189.72535l0.04958,1.78783" fill="none" stroke="#000000" stroke-width="0.5" stroke-linecap="round"/><path d="M243.05699,189.7417c0,0 0.03863,1.75324 -0.31049,1.74776c-0.4163,-0.00654 -0.75867,-1.80204 -0.75124,-1.7293c0.00849,0.08311 -0.02703,1.75787 -0.02703,1.75787" fill="none" stroke="#000000" stroke-width="0.5" stroke-linecap="round"/><path d="M239.37782,191.48372c0,0 -0.05317,-1.60029 -0.05328,-1.68908c-0.00008,-0.06104 0.81195,-0.13794 0.79336,0.34798c-0.02029,0.53046 -0.74145,0.4599 -0.73491,0.52418c0.00172,0.01693 0.27804,0.04502 0.42422,0.22744c0.21109,0.26342 0.31588,0.58947 0.31588,0.58947" fill="none" stroke="#000000" stroke-width="0.5" stroke-linecap="round"/><path d="M240.49831,191.49408c0,0 0.53935,-1.74838 0.60458,-1.74838c0.0753,0 0.54412,1.74838 0.54412,1.74838" fill="none" stroke="#000000" stroke-width="0.5" stroke-linecap="round"/><path d="M240.79797,190.67978l0.57435,0.02395" fill="none" stroke="#000000" stroke-width="0.5" stroke-linecap="round"/><path d="M244.40819,191.1985c0,0 -0.4947,0.55587 -0.79962,0.15385c-0.35139,-0.46328 -0.28859,-1.39753 0.2003,-1.55729c0.48483,-0.15844 0.59932,0.32008 0.59932,0.32008" fill="none" stroke="#000000" stroke-width="0.5" stroke-linecap="round"/><path d="M247.57716,189.777c0,0 0.2824,-0.03796 0.44018,-0.04261c0.17074,-0.00504 0.54844,0.01344 0.54844,0.01344" fill="none" stroke="#000000" stroke-width="0.5" stroke-linecap="round"/><path d="M249.80252,191.49282c0,0 -0.76128,0.12233 -0.9126,-0.09031c-0.18619,-0.26164 0.00384,-1.52101 0.01361,-1.58793c0.01145,-0.0785 0.83477,-0.06159 0.83477,-0.06159" fill="none" stroke="#000000" stroke-width="0.5" stroke-linecap="round"/><path d="M248.97099,190.63056l0.59397,-0.02566" fill="none" stroke="#000000" stroke-width="0.5" stroke-linecap="round"/><path d="M248.03344,191.49831l0.04563,-1.69214" fill="none" stroke="#000000" stroke-width="0.5" stroke-linecap="round"/><path d="M247.20709,189.74782c0,0 0.28537,1.75492 -0.57796,1.75049c-0.81433,-0.00418 -0.44108,-1.75049 -0.44108,-1.75049" fill="none" stroke="#000000" stroke-width="0.5" stroke-linecap="round"/></g></g></svg>