<svg version="1.1" xmlns="http://www.w3.org/2000/svg" xmlns:xlink="http://www.w3.org/1999/xlink" width="87.68198" height="69.70103" viewBox="0,0,87.68198,69.70103"><g transform="translate(-196.15901,-145.14949)"><g data-paper-data="{&quot;isPaintingLayer&quot;:true}" fill="#480000" fill-rule="nonzero" stroke="none" stroke-width="0" stroke-linecap="butt" stroke-linejoin="miter" stroke-miterlimit="10" stroke-dasharray="" stroke-dashoffset="0" style="mix-blend-mode: normal"><path d="M261.68616,166.67617c0.64448,1.54699 6.50229,-3.75795 7.26299,1.80581c0.59612,4.36005 -4.26713,7.4627 -7.56177,13.39984c-5.34886,9.63898 15.8477,18.50323 5.63777,26.45936c-6.00203,4.67711 -18.97666,-4.15636 -26.43895,-4.12676c-5.25734,0.02086 -12.42475,12.42041 -18.37738,10.4171c-9.02555,-3.03749 -0.32167,-10.87223 -5.99394,-21.03008c-4.27868,-7.66224 -17.13092,-13.34193 -17.13092,-18.13165c0,-8.73902 16.05676,2.20005 20.60116,-4.51315c7.48171,-11.05232 4.79517,-17.88965 12.37492,-25.00829c4.91578,-4.61674 5.77674,12.248 12.0444,13.07494c5.18739,0.6844 25.71771,-8.99032 26.94647,-6.53628c2.78253,5.55719 -11.05526,10.1313 -9.36475,14.18917z"/><path d="M201.20091,163.66749c1.30385,1.14739 2.94087,3.9238 1.85387,5.15903c-1.087,1.23523 -4.48639,0.4615 -5.79024,-0.68588c-1.30385,-1.14739 -1.47964,-3.07887 -0.39264,-4.3141c1.087,-1.23523 3.02516,-1.30643 4.32901,-0.15904z"/><path d="M276.40015,163.66005c0.59779,1.08829 -0.78891,2.99842 -1.83689,3.57407c-1.04798,0.57565 -3.41828,0.34921 -4.01607,-0.73907c-0.59779,-1.08829 0.8033,-2.62631 1.85128,-3.20196c1.04798,-0.57565 3.40389,-0.72132 4.00168,0.36697z"/><path d="M282.63421,153.93046c0.85751,1.5611 3.12958,2.33439 -2.30716,6.11024c-1.40873,0.97837 -5.23118,-0.48244 -6.08869,-2.04354c-0.85751,-1.5611 1.1523,-3.76734 2.65559,-4.59309c1.50329,-0.82575 4.88275,-1.03471 5.74026,0.5264z"/></g></g></svg>